<svg xmlns="http://www.w3.org/2000/svg" xmlns:xlink="http://www.w3.org/1999/xlink" width="113" height="113" viewBox="0 0 113 113">
  <defs>
    <filter id="Trazado_982547" x="0" y="0" width="113" height="113" filterUnits="userSpaceOnUse">
      <feOffset dy="3" input="SourceAlpha"/>
      <feGaussianBlur stdDeviation="3" result="blur"/>
      <feFlood flood-opacity="0.161"/>
      <feComposite operator="in" in2="blur"/>
      <feComposite in="SourceGraphic"/>
    </filter>
  </defs>
  <g id="Grupo_1182545" data-name="Grupo 1182545" transform="translate(-171 -3223)">
    <g id="Grupo_1178985" data-name="Grupo 1178985" transform="translate(0 2253)">
      <g id="Grupo_1173577" data-name="Grupo 1173577" transform="translate(0 -1581)">
        <g id="Grupo_1168598" data-name="Grupo 1168598" transform="translate(0 -730)">
          <g id="Grupo_1167519" data-name="Grupo 1167519" transform="translate(180 3287)">
            <g id="Grupo_1166845" data-name="Grupo 1166845" transform="translate(0)">
              <g id="Grupo_1166720" data-name="Grupo 1166720">
                <g id="Grupo_1164305" data-name="Grupo 1164305">
                  <g id="Grupo_1163948" data-name="Grupo 1163948">
                    <g id="Grupo_1158168" data-name="Grupo 1158168">
                      <g id="Grupo_1152576" data-name="Grupo 1152576">
                        <g id="Grupo_1148633" data-name="Grupo 1148633">
                          <g id="Grupo_1148525" data-name="Grupo 1148525">
                            <g transform="matrix(1, 0, 0, 1, -9, -6)" filter="url(#Trazado_982547)">
                              <g id="Trazado_982547-2" data-name="Trazado 982547" transform="translate(9 6)" fill="#e8edf7">
                                <path d="M 47.5 93.5 C 41.28937149047852 93.5 35.26533508300781 92.28397369384766 29.59518623352051 89.88570404052734 C 24.11771965026855 87.56893157958984 19.19813346862793 84.25196075439453 14.97309303283691 80.02691650390625 C 10.74804019927979 75.80186462402344 7.431066513061523 70.88229370117188 5.114293098449707 65.40481567382812 C 2.716026782989502 59.73468017578125 1.5 53.71062850952148 1.5 47.5 C 1.5 41.28937149047852 2.716026782989502 35.26533508300781 5.114293098449707 29.59518623352051 C 7.431066513061523 24.11771965026855 10.74804019927979 19.19813346862793 14.97309303283691 14.97309303283691 C 19.19813346862793 10.74804019927979 24.11771965026855 7.431066513061523 29.59518623352051 5.114293098449707 C 35.26533508300781 2.716026782989502 41.28937149047852 1.5 47.5 1.5 C 53.71062850952148 1.5 59.73468017578125 2.716026782989502 65.40481567382812 5.114293098449707 C 70.88229370117188 7.431066513061523 75.80186462402344 10.74804019927979 80.02691650390625 14.97309303283691 C 84.25196075439453 19.19813346862793 87.56893157958984 24.11771965026855 89.88570404052734 29.59518623352051 C 92.28397369384766 35.26533508300781 93.5 41.28937149047852 93.5 47.5 C 93.5 53.71062850952148 92.28397369384766 59.73468017578125 89.88570404052734 65.40481567382812 C 87.56893157958984 70.88229370117188 84.25196075439453 75.80186462402344 80.02691650390625 80.02691650390625 C 75.80186462402344 84.25196075439453 70.88229370117188 87.56893157958984 65.40481567382812 89.88570404052734 C 59.73468017578125 92.28397369384766 53.71062850952148 93.5 47.5 93.5 Z" stroke="none"/>
                                <path d="M 47.5 3 C 41.49121475219727 3 35.66376876831055 4.176155090332031 30.17950439453125 6.495796203613281 C 24.88084411621094 8.736953735351562 20.12152099609375 11.94598388671875 16.03375244140625 16.03375244140625 C 11.94598388671875 20.12152099609375 8.736953735351562 24.88084411621094 6.495796203613281 30.17950439453125 C 4.176155090332031 35.66376876831055 3 41.49121475219727 3 47.5 C 3 53.50878524780273 4.176155090332031 59.33623123168945 6.495796203613281 64.82049560546875 C 8.736953735351562 70.11915588378906 11.94598388671875 74.87847900390625 16.03375244140625 78.96624755859375 C 20.12152099609375 83.05401611328125 24.88084411621094 86.26304626464844 30.17950439453125 88.50419616699219 C 35.66376876831055 90.82384490966797 41.49121475219727 92 47.5 92 C 53.50878524780273 92 59.33623123168945 90.82384490966797 64.82049560546875 88.50419616699219 C 70.11915588378906 86.26304626464844 74.87847900390625 83.05401611328125 78.96624755859375 78.96624755859375 C 83.05401611328125 74.87847900390625 86.26304626464844 70.11915588378906 88.50419616699219 64.82049560546875 C 90.82384490966797 59.33623123168945 92 53.50878524780273 92 47.5 C 92 41.49121475219727 90.82384490966797 35.66376876831055 88.50419616699219 30.17950439453125 C 86.26304626464844 24.88084411621094 83.05401611328125 20.12152099609375 78.96624755859375 16.03375244140625 C 74.87847900390625 11.94598388671875 70.11915588378906 8.736953735351562 64.82049560546875 6.495796203613281 C 59.33623123168945 4.176155090332031 53.50878524780273 3 47.5 3 M 47.5 0 C 73.7335205078125 0 95 21.2664794921875 95 47.5 C 95 73.7335205078125 73.7335205078125 95 47.5 95 C 21.2664794921875 95 0 73.7335205078125 0 47.5 C 0 21.2664794921875 21.2664794921875 0 47.5 0 Z" stroke="none" fill="#2e5bb6"/>
                              </g>
                            </g>
                          </g>
                        </g>
                      </g>
                    </g>
                  </g>
                </g>
              </g>
            </g>
          </g>
        </g>
      </g>
    </g>
    <g id="Budget" transform="translate(199 3248.89)">
      <path id="Trazado_1042548" data-name="Trazado 1042548" d="M50.773,3.945V52.427a2.84,2.84,0,0,1-2.84,2.84H14.839a2.84,2.84,0,0,1-2.851-2.84c0-43.438-.115-40.517.254-41.32.3-.664-.069-.185,8.883-9.142a2.84,2.84,0,0,1,2-.825H47.945a2.84,2.84,0,0,1,2.828,2.805Z" transform="translate(-3.793 -0.436)" fill="#ffe3ba"/>
      <path id="Trazado_1042549" data-name="Trazado 1042549" d="M15.977,52.571c0-43.438-.115-40.517.254-41.32.283-.623,0-.277,5.87-6.13V1.48c-.768.306.069-.41-9.235,8.923A2.828,2.828,0,0,0,12,12.412V52.571a2.84,2.84,0,0,0,2.84,2.84H18.8a2.84,2.84,0,0,1-2.828-2.84Z" transform="translate(-3.805 -0.579)" fill="#ffc088"/>
      <path id="Trazado_1042550" data-name="Trazado 1042550" d="M22.07,51.348V16.983a2.309,2.309,0,0,1,.675-1.633l5.9-5.9a2.309,2.309,0,0,1,1.633-.675H49.3A2.309,2.309,0,0,1,51.6,11.079V51.348A2.309,2.309,0,0,1,49.3,53.656H24.384a2.309,2.309,0,0,1-2.314-2.309Z" transform="translate(-8.063 -3.662)" fill="#fffcfb"/>
      <path id="Trazado_1042551" data-name="Trazado 1042551" d="M70.653,57.2h-.277V53.16h-9.5a1.351,1.351,0,0,0-1.351,1.351v1.327a1.351,1.351,0,0,0,1.351,1.351H59.681a1.351,1.351,0,0,0-1.351,1.351v1.322a1.351,1.351,0,0,0,1.351,1.351h1.056a1.351,1.351,0,0,0-1.212,1.345v1.327a1.351,1.351,0,0,0,1.154,1.339H60.1a1.351,1.351,0,0,0-1.351,1.351V67.9A1.351,1.351,0,0,0,60.1,69.251h1.53a1.351,1.351,0,0,0-1.183,1.356V71.93a1.351,1.351,0,0,0,1.339,1.339H60.119a1.351,1.351,0,0,0-1.351,1.351v1.327a1.362,1.362,0,0,0,.929,1.287h7.838a2.84,2.84,0,0,0,2.84-2.811v-5.16h0v-4.04h0v-4.04h.277a1.345,1.345,0,0,0,1.339-1.31V58.551A1.351,1.351,0,0,0,70.653,57.2Z" transform="translate(-23.395 -22.431)" fill="#ffc07e"/>
      <path id="Trazado_1042552" data-name="Trazado 1042552" d="M71.216,30.6a6.886,6.886,0,1,0,0,11.191Z" transform="translate(-24.236 -12.349)" fill="#ffc07e"/>
      <path id="Trazado_1042553" data-name="Trazado 1042553" d="M49.185,60.118h-29.9a.577.577,0,0,1-.577-.577V28.177a.577.577,0,0,1,.577-.577h29.9a.577.577,0,0,1,.577.577V59.541A.577.577,0,0,1,49.185,60.118Zm-29.32-1.154H48.607V28.754H19.864Z" transform="translate(-6.643 -11.624)" fill="#302d3d"/>
      <path id="Trazado_1042554" data-name="Trazado 1042554" d="M44.2,60.118h-17a.577.577,0,0,1-.577-.577V28.177A.577.577,0,0,1,27.2,27.6h17a.577.577,0,0,1,.577.577V59.541A.577.577,0,0,1,44.2,60.118ZM27.774,58.963H43.623V28.754H27.774Z" transform="translate(-9.987 -11.624)" fill="#302d3d"/>
      <path id="Trazado_1042555" data-name="Trazado 1042555" d="M49.185,32.044h-29.9a.577.577,0,0,1-.577-.577v-3.29a.577.577,0,0,1,.577-.577h29.9a.577.577,0,0,1,.577.577v3.29A.577.577,0,0,1,49.185,32.044ZM19.864,30.89H48.607V28.754H19.864Z" transform="translate(-6.643 -11.624)" fill="#302d3d"/>
      <path id="Trazado_1042556" data-name="Trazado 1042556" d="M22.168,1.55v9.714H12.46c.3-.664-.063-.185,8.883-9.142a2.886,2.886,0,0,1,.825-.571Z" transform="translate(-4 -0.609)" fill="#ff9d6f"/>
      <rect id="Rectángulo_415711" data-name="Rectángulo 415711" width="10.822" height="8.709" rx="2.38" transform="translate(33.752 3.602)" fill="#8ad7ff"/>
      <path id="Trazado_1042557" data-name="Trazado 1042557" d="M47.523,55.391H14.428A3.423,3.423,0,0,1,11,51.992V11.832a3.411,3.411,0,0,1,.317-1.4c.352-.773,0-.329,9-9.31A3.405,3.405,0,0,1,22.728.11H47.546a3.423,3.423,0,0,1,3.394,3.4V51.992A3.423,3.423,0,0,1,47.523,55.391ZM22.7,1.264a2.234,2.234,0,0,0-1.6.664c-8.906,8.929-8.5,8.438-8.738,8.963-.294.646-.214-2.187-.214,41.1a2.268,2.268,0,0,0,2.263,2.263H47.523a2.268,2.268,0,0,0,2.262-2.263V3.51a2.268,2.268,0,0,0-2.262-2.263Z" transform="translate(-3.383)" fill="#302d3d"/>
      <path id="Trazado_1042558" data-name="Trazado 1042558" d="M21.751,11.419H12.043a.577.577,0,0,1-.525-.8,3.463,3.463,0,0,1,.693-1C21.2.614,20.736.955,21.515.6a.577.577,0,0,1,.814.525v9.714a.577.577,0,0,1-.577.577Zm-8.571-1.154h7.994v-8Z" transform="translate(-3.583 -0.187)" fill="#302d3d"/>
      <path id="Trazado_1042559" data-name="Trazado 1042559" d="M65.311,15.024h-8.08a1.951,1.951,0,0,1-1.951-1.951V7.111A1.957,1.957,0,0,1,57.231,5.16h8.08a1.951,1.951,0,0,1,1.928,1.951v5.962A1.945,1.945,0,0,1,65.311,15.024Zm-8.08-8.709a.8.8,0,0,0-.8.8v5.962a.8.8,0,0,0,.8.8h8.08a.791.791,0,0,0,.773-.8V7.111a.791.791,0,0,0-.791-.8Z" transform="translate(-22.106 -2.135)" fill="#302d3d"/>
      <path id="Trazado_1042560" data-name="Trazado 1042560" d="M42.855,13.374H34.2a.577.577,0,1,1,0-1.154h8.658a.577.577,0,1,1,0,1.154Z" transform="translate(-12.947 -5.12)" fill="#302d3d"/>
      <path id="Trazado_1042561" data-name="Trazado 1042561" d="M37.689,18.4H34.157a.577.577,0,0,1,0-1.154h3.532a.577.577,0,0,1,0,1.154Z" transform="translate(-12.93 -7.247)" fill="#302d3d"/>
      <rect id="Rectángulo_415712" data-name="Rectángulo 415712" width="22.654" height="31.6" rx="5.06" transform="translate(3.589 23.358)" fill="#494b74"/>
      <path id="Trazado_1042562" data-name="Trazado 1042562" d="M26.665,43.323v22.51a2.926,2.926,0,0,1-2.92,2.926H6.932A2.926,2.926,0,0,1,4,65.85V43.34a2.926,2.926,0,0,1,2.92-2.92H23.745a2.926,2.926,0,0,1,2.92,2.9Z" transform="translate(-0.423 -17.044)" fill="#5d78a1"/>
      <rect id="Rectángulo_415713" data-name="Rectángulo 415713" width="12.022" height="4.421" rx="1.79" transform="translate(9.493 30.348)" fill="#7ba5c4"/>
      <rect id="Rectángulo_415714" data-name="Rectángulo 415714" width="2.211" height="6.562" rx="1.105" transform="translate(22.826 33.136)" fill="#fff"/>
      <path id="Trazado_1042563" data-name="Trazado 1042563" d="M26.665,43.31v2.459a2.926,2.926,0,0,0-2.92-2.92H6.932A2.926,2.926,0,0,0,4,45.769V43.31a2.926,2.926,0,0,1,2.92-2.92H23.745a2.926,2.926,0,0,1,2.92,2.92Z" transform="translate(-0.423 -17.032)" fill="#7ba5c4"/>
      <rect id="Rectángulo_415715" data-name="Rectángulo 415715" width="5.627" height="18.037" rx="1.06" transform="translate(23.934 25.667) rotate(90)" fill="#8a9bff"/>
      <rect id="Rectángulo_415716" data-name="Rectángulo 415716" width="4.029" height="12.675" rx="1.06" transform="translate(21.256 25.667) rotate(90)" fill="#8ad7ff"/>
      <rect id="Rectángulo_415717" data-name="Rectángulo 415717" width="6.274" height="3.249" rx="1.23" transform="translate(5.897 33.603)" fill="#9eeb88"/>
      <rect id="Rectángulo_415718" data-name="Rectángulo 415718" width="6.274" height="1.905" rx="0.952" transform="translate(5.897 34.948)" fill="#53cd88"/>
      <rect id="Rectángulo_415719" data-name="Rectángulo 415719" width="3.411" height="2.326" rx="1.163" transform="translate(14.641 33.603)" fill="#ffca6e"/>
      <rect id="Rectángulo_415720" data-name="Rectángulo 415720" width="3.411" height="2.326" rx="1.163" transform="translate(20.523 33.603)" fill="#ffca6e"/>
      <g id="Grupo_1182542" data-name="Grupo 1182542" transform="translate(5.897 37.995)">
        <rect id="Rectángulo_415721" data-name="Rectángulo 415721" width="3.411" height="2.326" rx="1.163" transform="translate(8.744)" fill="#bcb4e7"/>
        <rect id="Rectángulo_415722" data-name="Rectángulo 415722" width="3.411" height="2.326" rx="1.163" transform="translate(14.625)" fill="#bcb4e7"/>
        <rect id="Rectángulo_415723" data-name="Rectángulo 415723" width="3.411" height="2.326" rx="1.163" transform="translate(8.744 4.392)" fill="#bcb4e7"/>
        <rect id="Rectángulo_415724" data-name="Rectángulo 415724" width="2.309" height="2.326" rx="1.154" transform="translate(0 1.033)" fill="#bcb4e7"/>
        <rect id="Rectángulo_415725" data-name="Rectángulo 415725" width="2.309" height="2.326" rx="1.154" transform="translate(0 5.425)" fill="#bcb4e7"/>
        <rect id="Rectángulo_415726" data-name="Rectángulo 415726" width="2.309" height="2.326" rx="1.154" transform="translate(4.375 1.033)" fill="#bcb4e7"/>
        <rect id="Rectángulo_415727" data-name="Rectángulo 415727" width="2.309" height="2.326" rx="1.154" transform="translate(4.375 5.425)" fill="#bcb4e7"/>
        <rect id="Rectángulo_415728" data-name="Rectángulo 415728" width="2.309" height="2.326" rx="1.154" transform="translate(4.375 9.818)" fill="#bcb4e7"/>
        <rect id="Rectángulo_415729" data-name="Rectángulo 415729" width="2.309" height="2.326" rx="1.154" transform="translate(0 9.818)" fill="#bcb4e7"/>
        <rect id="Rectángulo_415730" data-name="Rectángulo 415730" width="3.411" height="2.326" rx="1.163" transform="translate(14.625 4.392)" fill="#bcb4e7"/>
      </g>
      <path id="Trazado_1042564" data-name="Trazado 1042564" d="M26.581,81.693v3.3a.71.71,0,0,1-.71.71H23.88a.716.716,0,0,1-.71-.71v-3.3A.716.716,0,0,1,23.88,81h1.991A.71.71,0,0,1,26.581,81.693Z" transform="translate(-8.529 -34.203)" fill="#9eeb88"/>
      <rect id="Rectángulo_415731" data-name="Rectángulo 415731" width="3.411" height="4.715" rx="1.23" transform="translate(20.523 46.78)" fill="#ffeda0"/>
      <path id="Trazado_1042565" data-name="Trazado 1042565" d="M26.581,84.97v1.4a.71.71,0,0,1-.71.71H23.88a.716.716,0,0,1-.71-.71v-1.4a.716.716,0,0,1,.71-.71h1.991A.71.71,0,0,1,26.581,84.97Z" transform="translate(-8.529 -35.581)" fill="#53cd88"/>
      <rect id="Rectángulo_415732" data-name="Rectángulo 415732" width="3.411" height="2.817" rx="1.23" transform="translate(20.523 48.679)" fill="#ffca6e"/>
      <path id="Trazado_1042566" data-name="Trazado 1042566" d="M32.641,49.424H29.657a.577.577,0,1,1,0-1.154h2.984a.577.577,0,1,1,0,1.154Z" transform="translate(-11.027 -20.364)" fill="#fff"/>
      <g id="Grupo_1182543" data-name="Grupo 1182543" transform="translate(3 22.781)">
        <path id="Trazado_1042567" data-name="Trazado 1042567" d="M23.322,72.144H6.509A3.5,3.5,0,0,1,3,68.647V42.888a3.5,3.5,0,0,1,3.5-3.5H23.322a3.5,3.5,0,0,1,3.5,3.5V68.647A3.5,3.5,0,0,1,23.322,72.144ZM6.509,40.544a2.343,2.343,0,0,0-2.355,2.343V68.647A2.343,2.343,0,0,0,6.5,70.99H23.322a2.343,2.343,0,0,0,2.343-2.343V42.888a2.343,2.343,0,0,0-2.343-2.343Z" transform="translate(-3 -39.39)" fill="#302d3d"/>
        <path id="Trazado_1042568" data-name="Trazado 1042568" d="M25.013,50.172H8.2A1.189,1.189,0,0,1,7,48.983v-4.4A1.189,1.189,0,0,1,8.189,43.39H25.013A1.2,1.2,0,0,1,26.2,44.579v4.4A1.189,1.189,0,0,1,25.013,50.172ZM8.2,44.544c-.04,4.7-.058,4.473,0,4.473H25.013l.035-4.438Z" transform="translate(-4.691 -41.081)" fill="#302d3d"/>
        <path id="Trazado_1042569" data-name="Trazado 1042569" d="M13.153,61.544H8.3A1.287,1.287,0,0,1,7,60.257v-1.83A1.287,1.287,0,0,1,8.287,57.14h4.854a1.287,1.287,0,0,1,1.287,1.287v1.83a1.287,1.287,0,0,1-1.276,1.287ZM8.3,58.294a.133.133,0,0,0-.133.133v1.83a.133.133,0,0,0,.133.133h4.854a.133.133,0,0,0,.133-.133v-1.83a.133.133,0,0,0-.133-.133Z" transform="translate(-4.691 -46.895)" fill="#302d3d"/>
        <path id="Trazado_1042570" data-name="Trazado 1042570" d="M25.448,60.62H23.457a1.287,1.287,0,0,1-1.287-1.287v-.906a1.287,1.287,0,0,1,1.287-1.287h1.991a1.287,1.287,0,0,1,1.287,1.287v.906A1.287,1.287,0,0,1,25.448,60.62Zm-1.991-2.309a.133.133,0,0,0-.133.133v.906a.133.133,0,0,0,.133.133h1.991a.133.133,0,0,0,.133-.133v-.923a.133.133,0,0,0-.133-.133Z" transform="translate(-11.106 -46.895)" fill="#302d3d"/>
        <path id="Trazado_1042571" data-name="Trazado 1042571" d="M35.615,60.62H33.647a1.287,1.287,0,0,1-1.287-1.287v-.906a1.287,1.287,0,0,1,1.287-1.287h1.968A1.287,1.287,0,0,1,36.9,58.427v.906A1.287,1.287,0,0,1,35.615,60.62Zm-1.991-2.309a.133.133,0,0,0-.133.133v.906a.133.133,0,0,0,.133.133h1.991a.133.133,0,0,0,.133-.133v-.923a.133.133,0,0,0-.133-.133Z" transform="translate(-15.414 -46.895)" fill="#302d3d"/>
        <path id="Trazado_1042572" data-name="Trazado 1042572" d="M25.448,68.239H23.457a1.287,1.287,0,0,1-1.287-1.287v-.895a1.287,1.287,0,0,1,1.287-1.287h1.991a1.287,1.287,0,0,1,1.287,1.287v.906a1.287,1.287,0,0,1-1.287,1.276ZM23.457,65.93a.133.133,0,0,0-.133.133v.906a.133.133,0,0,0,.133.133h1.991a.133.133,0,0,0,.133-.133v-.912a.133.133,0,0,0-.133-.133Z" transform="translate(-11.106 -50.121)" fill="#302d3d"/>
        <path id="Trazado_1042573" data-name="Trazado 1042573" d="M35.615,68.239H33.647a1.287,1.287,0,0,1-1.287-1.287v-.895a1.287,1.287,0,0,1,1.287-1.287h1.968a1.287,1.287,0,0,1,1.31,1.287v.906a1.287,1.287,0,0,1-1.31,1.276ZM33.624,65.93a.133.133,0,0,0-.133.133v.906a.133.133,0,0,0,.133.133h1.991a.133.133,0,0,0,.133-.133v-.912a.133.133,0,0,0-.133-.133Z" transform="translate(-15.414 -50.121)" fill="#302d3d"/>
        <path id="Trazado_1042574" data-name="Trazado 1042574" d="M25.448,75.84H23.457a1.287,1.287,0,0,1-1.287-1.287v-.906a1.287,1.287,0,0,1,1.287-1.287h1.991a1.287,1.287,0,0,1,1.287,1.287v.906a1.287,1.287,0,0,1-1.287,1.287Zm-1.991-2.309a.133.133,0,0,0-.133.133v.906a.133.133,0,0,0,.133.133h1.991a.133.133,0,0,0,.133-.133v-.923a.133.133,0,0,0-.133-.133Z" transform="translate(-11.106 -53.331)" fill="#302d3d"/>
        <path id="Trazado_1042575" data-name="Trazado 1042575" d="M9.187,70.02H8.3A1.287,1.287,0,0,1,7,68.733v-.906A1.287,1.287,0,0,1,8.287,66.54h.889a1.287,1.287,0,0,1,1.287,1.287v.906A1.287,1.287,0,0,1,9.187,70.02ZM8.3,67.712a.133.133,0,0,0-.133.133v.906a.133.133,0,0,0,.133.133h.889a.133.133,0,0,0,.133-.133v-.923a.133.133,0,0,0-.133-.133Z" transform="translate(-4.691 -50.87)" fill="#302d3d"/>
        <path id="Trazado_1042576" data-name="Trazado 1042576" d="M9.187,77.63H8.3A1.287,1.287,0,0,1,7,76.372v-.935A1.287,1.287,0,0,1,8.287,74.15h.889a1.287,1.287,0,0,1,1.287,1.287v.935A1.287,1.287,0,0,1,9.187,77.63ZM8.3,75.322a.133.133,0,0,0-.133.133v.918A.133.133,0,0,0,8.3,76.5h.889a.133.133,0,0,0,.121-.133v-.935a.133.133,0,0,0-.133-.133Z" transform="translate(-4.691 -54.088)" fill="#302d3d"/>
        <path id="Trazado_1042577" data-name="Trazado 1042577" d="M16.776,70.02h-.889A1.287,1.287,0,0,1,14.6,68.733v-.906a1.287,1.287,0,0,1,1.287-1.287h.889a1.287,1.287,0,0,1,1.287,1.287v.906a1.287,1.287,0,0,1-1.287,1.287Zm-.889-2.309a.133.133,0,0,0-.133.133v.906a.133.133,0,0,0,.133.133h.889a.133.133,0,0,0,.133-.133v-.923a.133.133,0,0,0-.133-.133Z" transform="translate(-7.905 -50.87)" fill="#302d3d"/>
        <path id="Trazado_1042578" data-name="Trazado 1042578" d="M16.776,77.63h-.889A1.287,1.287,0,0,1,14.6,76.372v-.935a1.287,1.287,0,0,1,1.287-1.287h.889a1.287,1.287,0,0,1,1.287,1.287v.935a1.287,1.287,0,0,1-1.287,1.258Zm-.889-2.309a.133.133,0,0,0-.133.133v.918a.133.133,0,0,0,.133.133h.889a.133.133,0,0,0,.133-.133v-.935a.133.133,0,0,0-.133-.133Z" transform="translate(-7.905 -54.088)" fill="#302d3d"/>
        <path id="Trazado_1042579" data-name="Trazado 1042579" d="M16.776,85.245h-.889A1.287,1.287,0,0,1,14.6,83.957v-.9a1.287,1.287,0,0,1,1.287-1.287h.889a1.287,1.287,0,0,1,1.287,1.287v.906a1.287,1.287,0,0,1-1.287,1.281Zm-.889-2.309a.133.133,0,0,0-.133.133v.906a.133.133,0,0,0,.133.133h.889a.133.133,0,0,0,.133-.133v-.918a.133.133,0,0,0-.133-.133Z" transform="translate(-7.905 -57.31)" fill="#302d3d"/>
        <path id="Trazado_1042580" data-name="Trazado 1042580" d="M9.187,85.245H8.3A1.287,1.287,0,0,1,7,83.957v-.9A1.287,1.287,0,0,1,8.287,81.77h.889a1.287,1.287,0,0,1,1.287,1.287v.906A1.287,1.287,0,0,1,9.187,85.245ZM8.3,82.936a.133.133,0,0,0-.144.121v.906a.133.133,0,0,0,.133.133h.889a.133.133,0,0,0,.133-.133v-.906a.133.133,0,0,0-.133-.133Z" transform="translate(-4.691 -57.31)" fill="#302d3d"/>
        <path id="Trazado_1042581" data-name="Trazado 1042581" d="M35.615,75.84H33.647a1.287,1.287,0,0,1-1.287-1.287v-.906a1.287,1.287,0,0,1,1.287-1.287h1.968A1.287,1.287,0,0,1,36.9,73.647v.906a1.287,1.287,0,0,1-1.287,1.287Zm-1.991-2.309a.133.133,0,0,0-.133.133v.906a.133.133,0,0,0,.133.133h1.991a.133.133,0,0,0,.133-.133v-.923a.133.133,0,0,0-.133-.133Z" transform="translate(-15.414 -53.331)" fill="#302d3d"/>
        <path id="Trazado_1042582" data-name="Trazado 1042582" d="M25.448,85.852H23.457a1.287,1.287,0,0,1-1.287-1.287v-3.3A1.287,1.287,0,0,1,23.457,80h1.991a1.287,1.287,0,0,1,1.287,1.287v3.3A1.287,1.287,0,0,1,25.448,85.852Zm-1.991-4.7a.133.133,0,0,0-.133.133v3.3a.133.133,0,0,0,.133.133h1.991a.133.133,0,0,0,.133-.133V81.27a.133.133,0,0,0-.133-.133Z" transform="translate(-11.106 -56.561)" fill="#302d3d"/>
        <path id="Trazado_1042583" data-name="Trazado 1042583" d="M35.615,85.852H33.647a1.287,1.287,0,0,1-1.287-1.287v-3.3A1.287,1.287,0,0,1,33.647,80h1.968A1.287,1.287,0,0,1,36.9,81.287v3.3A1.287,1.287,0,0,1,35.615,85.852Zm-1.968-4.7a.133.133,0,0,0-.133.133v3.3a.133.133,0,0,0,.133.133h1.968a.133.133,0,0,0,.133-.133V81.27a.133.133,0,0,0-.133-.115Z" transform="translate(-15.414 -56.561)" fill="#302d3d"/>
      </g>
      <rect id="Rectángulo_415733" data-name="Rectángulo 415733" width="13.673" height="4.029" rx="2.014" transform="translate(39.015 50.849)" fill="#ff934b"/>
      <path id="Trazado_1042584" data-name="Trazado 1042584" d="M82.811,89.362V90.69A1.351,1.351,0,0,1,81.46,92.04h-5.87A1.351,1.351,0,0,1,74.24,90.69V89.362A1.351,1.351,0,0,1,75.591,88h5.87a1.351,1.351,0,0,1,1.351,1.362Z" transform="translate(-30.122 -37.163)" fill="#ffca6e"/>
      <path id="Trazado_1042585" data-name="Trazado 1042585" d="M83.847,89.782a.577.577,0,0,1-.577-.577V87.577a.577.577,0,0,1,1.154,0v1.616a.577.577,0,0,1-.577.589Z" transform="translate(-33.941 -36.74)" fill="#302d3d"/>
      <path id="Trazado_1042586" data-name="Trazado 1042586" d="M76.827,89.782a.577.577,0,0,1-.577-.577V87.577a.577.577,0,1,1,1.154,0v1.616a.577.577,0,0,1-.577.589Z" transform="translate(-30.972 -36.74)" fill="#302d3d"/>
      <path id="Trazado_1042587" data-name="Trazado 1042587" d="M69.8,89.782a.577.577,0,0,1-.577-.577V87.577a.577.577,0,1,1,1.154,0v1.616a.577.577,0,0,1-.577.589Z" transform="translate(-28 -36.74)" fill="#302d3d"/>
      <path id="Trazado_1042588" data-name="Trazado 1042588" d="M81.979,82.4v1.322a1.351,1.351,0,0,1-1.362,1.339H69.651A1.351,1.351,0,0,1,68.3,83.711V82.4a1.345,1.345,0,0,1,1.351-1.351H80.617A1.351,1.351,0,0,1,81.979,82.4Z" transform="translate(-27.611 -34.224)" fill="#ff6b50"/>
      <path id="Trazado_1042589" data-name="Trazado 1042589" d="M85.256,82.4v1.322a1.351,1.351,0,0,1-1.362,1.339H77.4a1.351,1.351,0,0,1-1.351-1.351V82.4A1.345,1.345,0,0,1,77.4,81.05h6.493A1.351,1.351,0,0,1,85.256,82.4Z" transform="translate(-30.888 -34.224)" fill="#ff9d6e"/>
      <path id="Trazado_1042590" data-name="Trazado 1042590" d="M86.737,82.82a.577.577,0,0,1-.577-.577V80.627a.577.577,0,1,1,1.154,0v1.616A.577.577,0,0,1,86.737,82.82Z" transform="translate(-35.163 -33.801)" fill="#302d3d"/>
      <path id="Trazado_1042591" data-name="Trazado 1042591" d="M79.717,82.82a.577.577,0,0,1-.577-.577V80.627a.577.577,0,1,1,1.154,0v1.616A.577.577,0,0,1,79.717,82.82Z" transform="translate(-32.194 -33.801)" fill="#302d3d"/>
      <path id="Trazado_1042592" data-name="Trazado 1042592" d="M72.7,82.82a.577.577,0,0,1-.577-.577V80.627a.577.577,0,1,1,1.154,0v1.616A.577.577,0,0,1,72.7,82.82Z" transform="translate(-29.226 -33.801)" fill="#302d3d"/>
      <rect id="Rectángulo_415734" data-name="Rectángulo 415734" width="13.673" height="4.029" rx="2.014" transform="translate(39.015 42.803)" fill="#ff7a41"/>
      <rect id="Rectángulo_415735" data-name="Rectángulo 415735" width="8.865" height="4.029" rx="2.014" transform="translate(43.823 42.803)" fill="#ffac55"/>
      <path id="Trazado_1042593" data-name="Trazado 1042593" d="M83.847,75.85a.577.577,0,0,1-.577-.577V73.657a.577.577,0,0,1,1.154,0v1.616A.577.577,0,0,1,83.847,75.85Z" transform="translate(-33.941 -30.854)" fill="#302d3d"/>
      <path id="Trazado_1042594" data-name="Trazado 1042594" d="M76.827,75.85a.577.577,0,0,1-.577-.577V73.657a.577.577,0,0,1,1.154,0v1.616A.577.577,0,0,1,76.827,75.85Z" transform="translate(-30.972 -30.854)" fill="#302d3d"/>
      <path id="Trazado_1042595" data-name="Trazado 1042595" d="M69.8,75.85a.577.577,0,0,1-.577-.577V73.657a.577.577,0,0,1,1.154,0v1.616A.577.577,0,0,1,69.8,75.85Z" transform="translate(-28 -30.854)" fill="#302d3d"/>
      <rect id="Rectángulo_415736" data-name="Rectángulo 415736" width="13.673" height="4.029" rx="2.014" transform="translate(39.771 38.786)" fill="#ff934b"/>
      <rect id="Rectángulo_415737" data-name="Rectángulo 415737" width="8.669" height="4.029" rx="2.014" transform="translate(44.775 38.786)" fill="#ffca6e"/>
      <path id="Trazado_1042596" data-name="Trazado 1042596" d="M85.157,68.89a.577.577,0,0,1-.577-.577V66.7a.577.577,0,0,1,1.154,0v1.616A.577.577,0,0,1,85.157,68.89Z" transform="translate(-34.495 -27.911)" fill="#302d3d"/>
      <path id="Trazado_1042597" data-name="Trazado 1042597" d="M78.127,68.89a.577.577,0,0,1-.577-.577V66.7a.577.577,0,0,1,1.154,0v1.616A.577.577,0,0,1,78.127,68.89Z" transform="translate(-31.522 -27.911)" fill="#302d3d"/>
      <path id="Trazado_1042598" data-name="Trazado 1042598" d="M71.107,68.89a.577.577,0,0,1-.577-.577V66.7a.577.577,0,0,1,1.154,0v1.616A.577.577,0,0,1,71.107,68.89Z" transform="translate(-28.554 -27.911)" fill="#302d3d"/>
      <rect id="Rectángulo_415738" data-name="Rectángulo 415738" width="13.673" height="4.029" rx="2.014" transform="translate(39.771 30.74)" fill="#ff934b"/>
      <rect id="Rectángulo_415739" data-name="Rectángulo 415739" width="9.079" height="4.029" rx="2.014" transform="translate(44.366 30.74)" fill="#ffca6e"/>
      <path id="Trazado_1042599" data-name="Trazado 1042599" d="M85.157,54.97a.577.577,0,0,1-.577-.577V52.777a.577.577,0,1,1,1.154,0v1.616A.577.577,0,0,1,85.157,54.97Z" transform="translate(-34.495 -22.025)" fill="#302d3d"/>
      <path id="Trazado_1042600" data-name="Trazado 1042600" d="M78.127,54.97a.577.577,0,0,1-.577-.577V52.777a.577.577,0,1,1,1.154,0v1.616A.577.577,0,0,1,78.127,54.97Z" transform="translate(-31.522 -22.025)" fill="#302d3d"/>
      <path id="Trazado_1042601" data-name="Trazado 1042601" d="M71.107,54.97a.577.577,0,0,1-.577-.577V52.777a.577.577,0,1,1,1.154,0v1.616A.577.577,0,0,1,71.107,54.97Z" transform="translate(-28.554 -22.025)" fill="#302d3d"/>
      <path id="Trazado_1042602" data-name="Trazado 1042602" d="M78.322,61.511v1.322a1.351,1.351,0,0,1-1.345,1.351H66.011a1.345,1.345,0,0,1-1.351-1.351V61.511a1.345,1.345,0,0,1,1.351-1.351H76.977a1.351,1.351,0,0,1,1.345,1.351Z" transform="translate(-26.072 -25.391)" fill="#ff6b50"/>
      <path id="Trazado_1042603" data-name="Trazado 1042603" d="M81.895,61.511v1.322a1.351,1.351,0,0,1-1.345,1.351H74.466a1.351,1.351,0,0,1-1.356-1.351V61.511a1.351,1.351,0,0,1,1.356-1.351H80.55A1.351,1.351,0,0,1,81.895,61.511Z" transform="translate(-29.645 -25.391)" fill="#ff9d6e"/>
      <path id="Trazado_1042604" data-name="Trazado 1042604" d="M83.087,61.97a.577.577,0,0,1-.577-.577V59.777a.577.577,0,0,1,1.154,0v1.616A.577.577,0,0,1,83.087,61.97Z" transform="translate(-33.619 -24.985)" fill="#302d3d"/>
      <path id="Trazado_1042605" data-name="Trazado 1042605" d="M76.067,61.97a.577.577,0,0,1-.577-.577V59.777a.577.577,0,1,1,1.154,0v1.616A.577.577,0,0,1,76.067,61.97Z" transform="translate(-30.651 -24.985)" fill="#302d3d"/>
      <path id="Trazado_1042606" data-name="Trazado 1042606" d="M69.047,61.97a.577.577,0,0,1-.577-.577V59.777a.577.577,0,1,1,1.154,0v1.616A.577.577,0,0,1,69.047,61.97Z" transform="translate(-27.683 -24.985)" fill="#302d3d"/>
      <path id="Trazado_1042607" data-name="Trazado 1042607" d="M80.393,36.2a6.88,6.88,0,1,1-2.015-4.876A6.891,6.891,0,0,1,80.393,36.2Z" transform="translate(-26.896 -12.347)" fill="#fff2a0"/>
      <path id="Trazado_1042608" data-name="Trazado 1042608" d="M75.739,33.283c6.349,1.408,5.772,11.416-1.5,11.416s-7.855-10-1.472-11.416A7.018,7.018,0,0,1,75.739,33.283Z" transform="translate(-27.633 -13.959)" fill="#ffca6e"/>
      <path id="Trazado_1042609" data-name="Trazado 1042609" d="M76.51,43.819a2.591,2.591,0,0,1-2.782-2.707,2.782,2.782,0,0,1,5.564,0,2.586,2.586,0,0,1-2.782,2.707Z" transform="translate(-29.905 -16.161)" fill="#fff"/>
      <g id="Grupo_1182544" data-name="Grupo 1182544" transform="translate(38.011 16.38)">
        <path id="Trazado_1042610" data-name="Trazado 1042610" d="M78.127,35.875a.577.577,0,0,1-.577-.577V34.1a.577.577,0,1,1,1.154,0v1.2A.577.577,0,0,1,78.127,35.875Z" transform="translate(-69.533 -30.507)" fill="#302d3d"/>
        <path id="Trazado_1042611" data-name="Trazado 1042611" d="M77.32,42.12h-.283c-1.732,0-2.268-2.309-1.154-2.309a.577.577,0,0,1,.577.577.577.577,0,0,0,.577.577h.283a.577.577,0,0,0,.577-.577v-.8a.144.144,0,0,0-.144-.144H76.6a1.3,1.3,0,0,1-1.3-1.3v-.8a1.732,1.732,0,0,1,1.731-1.732h.283c1.732,0,2.268,2.309,1.154,2.309a.577.577,0,0,1-.577-.577.577.577,0,0,0-.577-.577h-.283a.577.577,0,0,0-.577.577v.8a.144.144,0,0,0,.144.144h1.154a1.3,1.3,0,0,1,1.3,1.3v.8A1.732,1.732,0,0,1,77.32,42.12Z" transform="translate(-68.582 -31.391)" fill="#302d3d"/>
        <path id="Trazado_1042612" data-name="Trazado 1042612" d="M78.127,47.262a.577.577,0,0,1-.577-.577V45.467a.577.577,0,1,1,1.154,0v1.218A.577.577,0,0,1,78.127,47.262Z" transform="translate(-69.533 -35.315)" fill="#302d3d"/>
        <path id="Trazado_1042613" data-name="Trazado 1042613" d="M77.3,92.195H66.338a1.933,1.933,0,0,1-1.928-1.928V88.939A1.934,1.934,0,0,1,66.332,87H77.3a1.934,1.934,0,0,1,1.928,1.928v1.327A1.934,1.934,0,0,1,77.3,92.195Zm-10.966-4.04a.773.773,0,0,0-.773.773v1.327a.773.773,0,0,0,.768.785H77.3a.773.773,0,0,0,.773-.773V88.939a.773.773,0,0,0-.768-.785Z" transform="translate(-63.977 -53.12)" fill="#302d3d"/>
        <path id="Trazado_1042614" data-name="Trazado 1042614" d="M80.194,85.216H69.228A1.934,1.934,0,0,1,67.3,83.288v-1.31a1.928,1.928,0,0,1,1.928-1.928H80.194a1.928,1.928,0,0,1,1.939,1.928V83.3a1.933,1.933,0,0,1-1.939,1.916Zm-10.966-4.04a.779.779,0,0,0-.773.773v1.322a.779.779,0,0,0,.768.791H80.188a.773.773,0,0,0,.791-.762V81.978a.773.773,0,0,0-.773-.773Z" transform="translate(-65.199 -50.181)" fill="#302d3d"/>
        <path id="Trazado_1042615" data-name="Trazado 1042615" d="M77.3,78.263H66.338a1.933,1.933,0,0,1-1.928-1.928V75.008a1.934,1.934,0,0,1,1.928-1.928H77.3a1.934,1.934,0,0,1,1.928,1.928v1.327A1.934,1.934,0,0,1,77.3,78.263Zm-10.966-4.04a.773.773,0,0,0-.773.773v1.327a.773.773,0,0,0,.773.773H77.3a.773.773,0,0,0,.773-.773V75a.773.773,0,0,0-.773-.773Z" transform="translate(-63.977 -47.234)" fill="#302d3d"/>
        <path id="Trazado_1042616" data-name="Trazado 1042616" d="M78.614,71.3H67.648a1.934,1.934,0,0,1-1.928-1.928V68.048a1.934,1.934,0,0,1,1.928-1.928H78.614a1.934,1.934,0,0,1,1.928,1.928v1.327A1.934,1.934,0,0,1,78.614,71.3Zm-10.966-4.04a.773.773,0,0,0-.773.773v1.327a.773.773,0,0,0,.773.773H78.614a.773.773,0,0,0,.773-.773V68.036a.773.773,0,0,0-.773-.773Z" transform="translate(-64.531 -44.291)" fill="#302d3d"/>
        <path id="Trazado_1042617" data-name="Trazado 1042617" d="M78.614,57.363H67.648a1.934,1.934,0,0,1-1.928-1.928V54.108a1.934,1.934,0,0,1,1.928-1.928H78.614a1.934,1.934,0,0,1,1.928,1.928v1.327A1.934,1.934,0,0,1,78.614,57.363Zm-10.966-4.04a.773.773,0,0,0-.773.773v1.327a.773.773,0,0,0,.773.773H78.614a.773.773,0,0,0,.773-.773V54.1a.773.773,0,0,0-.773-.773Z" transform="translate(-64.531 -38.397)" fill="#302d3d"/>
        <path id="Trazado_1042618" data-name="Trazado 1042618" d="M76.554,64.337H65.588a1.922,1.922,0,0,1-1.928-1.928V61.088a1.922,1.922,0,0,1,1.928-1.928H76.554a1.928,1.928,0,0,1,1.928,1.928v1.322a1.928,1.928,0,0,1-1.928,1.928ZM65.588,60.3a.773.773,0,0,0-.773.773v1.322a.773.773,0,0,0,.773.791H76.554a.773.773,0,0,0,.773-.773V61.088a.773.773,0,0,0-.773-.773Z" transform="translate(-63.66 -41.349)" fill="#302d3d"/>
        <path id="Trazado_1042619" data-name="Trazado 1042619" d="M73.079,43.237a7.469,7.469,0,1,1,7.469-7.463,7.469,7.469,0,0,1-7.469,7.463Zm0-13.777a6.314,6.314,0,1,0,6.314,6.314A6.314,6.314,0,0,0,73.079,29.46Z" transform="translate(-64.485 -28.3)" fill="#302d3d"/>
      </g>
    </g>
  </g>
</svg>
