<svg xmlns="http://www.w3.org/2000/svg" xmlns:xlink="http://www.w3.org/1999/xlink" width="113" height="113" viewBox="0 0 113 113">
  <defs>
    <filter id="Trazado_982547" x="0" y="0" width="113" height="113" filterUnits="userSpaceOnUse">
      <feOffset dy="3" input="SourceAlpha"/>
      <feGaussianBlur stdDeviation="3" result="blur"/>
      <feFlood flood-opacity="0.161"/>
      <feComposite operator="in" in2="blur"/>
      <feComposite in="SourceGraphic"/>
    </filter>
  </defs>
  <g id="Grupo_1182635" data-name="Grupo 1182635" transform="translate(-171 -1132.432)">
    <g id="Grupo_1182270" data-name="Grupo 1182270" transform="translate(0 162.432)">
      <g id="Grupo_1173577" data-name="Grupo 1173577" transform="translate(0 -1581)">
        <g id="Grupo_1168598" data-name="Grupo 1168598" transform="translate(0 -730)">
          <g id="Grupo_1167519" data-name="Grupo 1167519" transform="translate(180 3287)">
            <g id="Grupo_1166845" data-name="Grupo 1166845" transform="translate(0)">
              <g id="Grupo_1166720" data-name="Grupo 1166720">
                <g id="Grupo_1164305" data-name="Grupo 1164305">
                  <g id="Grupo_1163948" data-name="Grupo 1163948">
                    <g id="Grupo_1158168" data-name="Grupo 1158168">
                      <g id="Grupo_1152576" data-name="Grupo 1152576">
                        <g id="Grupo_1148633" data-name="Grupo 1148633">
                          <g id="Grupo_1148525" data-name="Grupo 1148525">
                            <g transform="matrix(1, 0, 0, 1, -9, -6)" filter="url(#Trazado_982547)">
                              <g id="Trazado_982547-2" data-name="Trazado 982547" transform="translate(9 6)" fill="#fdf4ee">
                                <path d="M 47.5 93.5 C 41.28937149047852 93.5 35.26533508300781 92.28397369384766 29.59518623352051 89.88570404052734 C 24.11771965026855 87.56893157958984 19.19813346862793 84.25196075439453 14.97309303283691 80.02691650390625 C 10.74804019927979 75.80186462402344 7.431066513061523 70.88229370117188 5.114293098449707 65.40481567382812 C 2.716026782989502 59.73468017578125 1.5 53.71062850952148 1.5 47.5 C 1.5 41.28937149047852 2.716026782989502 35.26533508300781 5.114293098449707 29.59518623352051 C 7.431066513061523 24.11771965026855 10.74804019927979 19.19813346862793 14.97309303283691 14.97309303283691 C 19.19813346862793 10.74804019927979 24.11771965026855 7.431066513061523 29.59518623352051 5.114293098449707 C 35.26533508300781 2.716026782989502 41.28937149047852 1.5 47.5 1.5 C 53.71062850952148 1.5 59.73468017578125 2.716026782989502 65.40481567382812 5.114293098449707 C 70.88229370117188 7.431066513061523 75.80186462402344 10.74804019927979 80.02691650390625 14.97309303283691 C 84.25196075439453 19.19813346862793 87.56893157958984 24.11771965026855 89.88570404052734 29.59518623352051 C 92.28397369384766 35.26533508300781 93.5 41.28937149047852 93.5 47.5 C 93.5 53.71062850952148 92.28397369384766 59.73468017578125 89.88570404052734 65.40481567382812 C 87.56893157958984 70.88229370117188 84.25196075439453 75.80186462402344 80.02691650390625 80.02691650390625 C 75.80186462402344 84.25196075439453 70.88229370117188 87.56893157958984 65.40481567382812 89.88570404052734 C 59.73468017578125 92.28397369384766 53.71062850952148 93.5 47.5 93.5 Z" stroke="none"/>
                                <path d="M 47.5 3 C 41.49121475219727 3 35.66376876831055 4.176155090332031 30.17950439453125 6.495796203613281 C 24.88084411621094 8.736953735351562 20.12152099609375 11.94598388671875 16.03375244140625 16.03375244140625 C 11.94598388671875 20.12152099609375 8.736953735351562 24.88084411621094 6.495796203613281 30.17950439453125 C 4.176155090332031 35.66376876831055 3 41.49121475219727 3 47.5 C 3 53.50878524780273 4.176155090332031 59.33623123168945 6.495796203613281 64.82049560546875 C 8.736953735351562 70.11915588378906 11.94598388671875 74.87847900390625 16.03375244140625 78.96624755859375 C 20.12152099609375 83.05401611328125 24.88084411621094 86.26304626464844 30.17950439453125 88.50419616699219 C 35.66376876831055 90.82384490966797 41.49121475219727 92 47.5 92 C 53.50878524780273 92 59.33623123168945 90.82384490966797 64.82049560546875 88.50419616699219 C 70.11915588378906 86.26304626464844 74.87847900390625 83.05401611328125 78.96624755859375 78.96624755859375 C 83.05401611328125 74.87847900390625 86.26304626464844 70.11915588378906 88.50419616699219 64.82049560546875 C 90.82384490966797 59.33623123168945 92 53.50878524780273 92 47.5 C 92 41.49121475219727 90.82384490966797 35.66376876831055 88.50419616699219 30.17950439453125 C 86.26304626464844 24.88084411621094 83.05401611328125 20.12152099609375 78.96624755859375 16.03375244140625 C 74.87847900390625 11.94598388671875 70.11915588378906 8.736953735351562 64.82049560546875 6.495796203613281 C 59.33623123168945 4.176155090332031 53.50878524780273 3 47.5 3 M 47.5 0 C 73.7335205078125 0 95 21.2664794921875 95 47.5 C 95 73.7335205078125 73.7335205078125 95 47.5 95 C 21.2664794921875 95 0 73.7335205078125 0 47.5 C 0 21.2664794921875 21.2664794921875 0 47.5 0 Z" stroke="none" fill="#ee9865"/>
                              </g>
                            </g>
                          </g>
                        </g>
                      </g>
                    </g>
                  </g>
                </g>
              </g>
            </g>
          </g>
        </g>
      </g>
    </g>
    <g id="layer2" transform="translate(197.359 1155.394)">
      <path id="path6751" d="M55.08,5.821a2.955,2.955,0,0,1,2.961,2.961V41.355a2.955,2.955,0,0,1-2.961,2.961H4.247A3.492,3.492,0,0,1,.817,41.108C.813,28.217.794,18.653.794,5.821" transform="translate(0.724 14.449)" fill="#e4eff8"/>
      <path id="path6753" d="M57.875,41.265a2.955,2.955,0,0,1-2.961,2.961H4.081A3.608,3.608,0,0,1,.855,41.994a3.287,3.287,0,0,0,1.251.258H52.94A2.955,2.955,0,0,0,55.9,39.291V6.7a2.937,2.937,0,0,0-.137-.85,2.945,2.945,0,0,1,2.111,2.824Z" transform="translate(0.891 14.539)" fill="#c4dcf0"/>
      <path id="path6755" d="M.794,7.917a3.948,3.948,0,0,1,7.9,0V39.5a2.955,2.955,0,0,1-2.961,2.961H4.248A3.447,3.447,0,0,0,.794,45.919Z" transform="translate(0.723 9.392)" fill="#549ad4"/>
      <path id="path6757" d="M8.69,39.25a2.955,2.955,0,0,1-2.961,2.961H4.248A3.447,3.447,0,0,0,.794,45.666V40.579a3.438,3.438,0,0,1,1.481-.341H3.755a2.955,2.955,0,0,0,2.961-2.961V5.682a3.938,3.938,0,0,0-.353-1.621,3.934,3.934,0,0,1,2.327,3.6Z" transform="translate(0.722 9.645)" fill="#3588cb"/>
      <path id="path6759" d="M13.738,12.557a1.974,1.974,0,1,1-1.974-1.974A1.974,1.974,0,0,1,13.738,12.557Z" transform="translate(25.286 27.454)" fill="#ff5151"/>
      <path id="path6761" d="M27.658,12.638A11.845,11.845,0,1,1,15.813.794,11.845,11.845,0,0,1,27.658,12.638Z" transform="translate(9.392 0.723)" fill="#ffca28"/>
      <path id="path6763" d="M13.93.794A11.845,11.845,0,0,0,4.659,5.288,11.834,11.834,0,0,1,21.226,21.963,11.841,11.841,0,0,0,13.93.794Z" transform="translate(11.276 0.723)" fill="#ecb200"/>
      <path id="path6765" d="M10.563,10.441A1.974,1.974,0,1,1,8.589,8.467,1.974,1.974,0,0,1,10.563,10.441Z" transform="translate(16.617 21.674)" fill="#ff5151"/>
      <path id="path6767" d="M13.687,7.408h3.948a.985.985,0,0,1,.987.987v2.961a.985.985,0,0,1-.987.987H13.687a.985.985,0,0,1-.987-.987V8.4A.985.985,0,0,1,13.687,7.408Z" transform="translate(33.234 18.784)" fill="#549ad4"/>
      <path id="path6769" d="M13.687,7.408A.985.985,0,0,0,12.7,8.4v2.961a.985.985,0,0,0,.987.987h3.948a.985.985,0,0,0,.987-.987V10.37H15.661a.985.985,0,0,1-.987-.987V7.408Z" transform="translate(33.234 18.784)" fill="#3588cb"/>
      <path id="path6771" d="M13.494,2.618l9.871,4.935L13.494,11.5" transform="translate(35.401 5.704)" fill="#ff5151"/>
      <g id="Grupo_1182634" data-name="Grupo 1182634" transform="translate(23.231 8.322)">
        <path id="path6773" d="M13.494,2.618V11.5l1.974-.79V3.6Z" transform="translate(12.17 -2.618)" fill="#ff2929"/>
        <path id="path6775" d="M11.124,10.614A1.97,1.97,0,1,0,13.7,12.851a1.961,1.961,0,0,1-2.576-2.236Z" transform="translate(2.055 19.217)" fill="#ff2929"/>
        <path id="path6777" d="M7.949,8.5a1.97,1.97,0,1,0,2.576,2.236A1.961,1.961,0,0,1,7.949,8.5Z" transform="translate(-6.615 13.437)" fill="#ff2929"/>
      </g>
      <path id="path6779" d="M12.374,13.361a12.736,12.736,0,0,0,1.452,5.924H10.4V17.311a4.937,4.937,0,0,0-9.874,0v38a4.434,4.434,0,0,0,4.446,4.444H55.8A3.947,3.947,0,0,0,59.752,55.8V23.233A3.939,3.939,0,0,0,55.8,19.285H49.88V17.872l9.254-3.7a.987.987,0,0,0,.073-1.793L49.88,7.71V7.437a.987.987,0,1,0-1.974,0V19.285H36.58a12.829,12.829,0,1,0-24.206-5.924ZM48.881.529a.987.987,0,0,0-.975,1v.991a.987.987,0,0,0,1.974,0V1.528a.987.987,0,0,0-1-1ZM25.209,2.505A10.856,10.856,0,1,1,14.348,13.361,10.859,10.859,0,0,1,25.209,2.505Zm18.34,2.017.7.7a.989.989,0,0,0,1.4-1.4l-.7-.7a.94.94,0,0,0-.689-.288A.986.986,0,0,0,43.549,4.522Zm9.3-1.4-.7.7a.989.989,0,0,0,1.4,1.4l.7-.7a.989.989,0,0,0-.733-1.685.948.948,0,0,0-.667.287ZM24.217,6.454v6.907a.987.987,0,0,0,.293.7l2.957,2.957a.987.987,0,0,0,1.4-1.392l-2.674-2.674v-6.5a.988.988,0,0,0-1.976,0ZM49.88,9.922l6.478,3.235L49.88,15.748ZM5.463,14.344a2.963,2.963,0,0,1,2.965,2.967V48.9a1.976,1.976,0,0,1-1.974,1.974H4.975a4.436,4.436,0,0,0-2.47.738v-34.3a2.957,2.957,0,0,1,2.957-2.967ZM10.4,21.259h4.689a12.835,12.835,0,0,0,20.229,0H47.906v3.95h-.983a1.969,1.969,0,0,0-1.976,1.974v2.957a.989.989,0,1,0,0,1.976h1.92l-7.8,5.728A2.955,2.955,0,0,0,35.08,37.8l-6.988-5.041a2.9,2.9,0,0,0,.075-.642,2.962,2.962,0,1,0-5.924,0,2.87,2.87,0,0,0,.106.733l-9.593,7.368a.987.987,0,1,0,1.211,1.56l9.477-7.283a2.969,2.969,0,0,0,3.6-.054l7.085,5.107a3.233,3.233,0,0,0-.034.468,2.962,2.962,0,0,0,5.924,0,2.77,2.77,0,0,0-.03-.4l10.216-7.5h2.643a.988.988,0,0,0,0-1.976V27.184a1.977,1.977,0,0,0-1.974-1.974H49.88v-3.95H55.8a1.963,1.963,0,0,1,1.974,1.974V55.8A1.968,1.968,0,0,1,55.8,57.778H4.975a2.467,2.467,0,1,1,0-4.933H6.454A3.949,3.949,0,0,0,10.4,48.9Zm24.671,5.917a.992.992,0,0,0-.7,1.691l.785.781-.785.785a.987.987,0,0,0,1.4,1.392l.781-.781.785.781a.984.984,0,1,0,1.392-1.392l-.781-.785.781-.781a.987.987,0,0,0-.706-1.691,1,1,0,0,0-.686.291l-.785.785-.781-.785a.962.962,0,0,0-.7-.291Zm11.849.008h3.948v2.957H46.923ZM25.21,31.124a.991.991,0,0,1,.983.993.98.98,0,0,1-.983.983.988.988,0,1,1,0-1.976Zm24.678,5.924a.986.986,0,0,0-.708,1.683l.785.785-.785.783a.99.99,0,1,0,1.4,1.4l.781-.785.785.785a.987.987,0,0,0,1.392-1.4l-.775-.783.783-.785a.986.986,0,0,0-.729-1.683.961.961,0,0,0-.671.291l-.785.783-.781-.783A.945.945,0,0,0,49.888,37.049ZM37.048,39.023a.988.988,0,1,1-.983.993A.99.99,0,0,1,37.048,39.023ZM18.287,42.965a.987.987,0,0,0-.54.168L14.79,45.107a.989.989,0,1,0,1.093,1.648l2.412-1.612,2.419,1.612a.987.987,0,0,0,1.091,0l2.412-1.612,2.414,1.612a.987.987,0,0,0,1.1,0l2.412-1.612,2.412,1.612a.989.989,0,1,0,1.093-1.648l-2.957-1.974a.987.987,0,0,0-1.093,0l-2.412,1.61-2.419-1.61a.987.987,0,0,0-1.093,0l-2.412,1.61-2.419-1.61a.987.987,0,0,0-.553-.168Zm24.686,3.956a.987.987,0,1,0,0,1.974h.987a.987.987,0,1,0,0-1.974Zm4.935,0a.987.987,0,1,0,0,1.974H48.9a.987.987,0,1,0,0-1.974Zm4.935,0a.987.987,0,1,0,0,1.974h.987a.987.987,0,1,0,0-1.974Zm-34.557.985a.987.987,0,0,0-.54.168L14.79,50.04a.988.988,0,1,0,1.093,1.646l2.412-1.61,2.419,1.61a.987.987,0,0,0,1.091,0l2.412-1.61,2.414,1.61a.987.987,0,0,0,1.1,0l2.412-1.61,2.412,1.61a.988.988,0,1,0,1.093-1.646l-2.957-1.966a.987.987,0,0,0-1.093,0l-2.412,1.6-2.419-1.6a.987.987,0,0,0-1.093,0l-2.412,1.6-2.419-1.6a.987.987,0,0,0-.553-.168Z" transform="translate(0 0)"/>
    </g>
  </g>
</svg>
