<svg xmlns="http://www.w3.org/2000/svg" xmlns:xlink="http://www.w3.org/1999/xlink" width="400" height="323" viewBox="0 0 400 323">
  <defs>
    <clipPath id="clip-path">
      <rect id="Rectángulo_415598" data-name="Rectángulo 415598" width="400" height="323" transform="translate(285 388)" fill="#fff" stroke="#707070" stroke-width="1"/>
    </clipPath>
    <clipPath id="clip-path-2">
      <path id="Trazado_1042118" data-name="Trazado 1042118" d="M414.409,176.582H222.975a8.254,8.254,0,0,1-8.254-8.254V79.865a8.254,8.254,0,0,1,8.254-8.254H414.409a8.254,8.254,0,0,1,8.254,8.254v88.463A8.255,8.255,0,0,1,414.409,176.582Z" transform="translate(-214.721 -71.611)" opacity="0.3"/>
    </clipPath>
    <clipPath id="clip-path-3">
      <path id="Trazado_1042140" data-name="Trazado 1042140" d="M94.621,246.221l8.47,145.491h340.2V246.221Z" transform="translate(-94.621 -246.221)"/>
    </clipPath>
  </defs>
  <g id="Enmascarar_grupo_1098823" data-name="Enmascarar grupo 1098823" transform="translate(-285 -388)" clip-path="url(#clip-path)">
    <g id="OBJECTS" transform="translate(221.939 394.297)">
      <g id="Grupo_1182394" data-name="Grupo 1182394" transform="translate(55.303 33.798)">
        <path id="Trazado_1042092" data-name="Trazado 1042092" d="M452.134,349.2H84.087c-15.083-12.05-21.925-35.634-15.662-53.9s24.715-31.623,44.019-31.877c14.468-.191,29.5,6.162,42.968.873,12.147-4.769,19.373-19.493,15.715-32.02-5.888-20.165-32.963-27.574-40.213-47.29-6.239-16.967,5.264-35.789,19.966-46.308,10.52-7.527,23.116-12.522,36.05-12.64s26.141,5,34.513,14.859c14.148,16.662,13.816,44.558,32.648,55.654,16.174,9.531,36.978.571,51.772-10.987s28.658-26.3,47.141-29.587a42.389,42.389,0,0,1,49.048,49.751c-2.276,11.815-9.428,22.094-13.138,33.541s-2.691,26.273,7.563,32.568c8.446,5.185,19.266,2.422,29.162,2.956a43.155,43.155,0,0,1,36.954,26.658C468.47,316.391,463.27,337.649,452.134,349.2Z" transform="translate(-59.119 -66.371)" fill="#a4f1d6"/>
        <g id="Grupo_1182365" data-name="Grupo 1182365" transform="translate(337.931 191.903)">
          <path id="Trazado_1042093" data-name="Trazado 1042093" d="M588.118,366.2c1.974-8.077,4.106-16.152,7.353-23.807a25.306,25.306,0,0,1,5.388-8.659c2.477-2.364,6.026-3.843,9.364-3.081,4.537,1.036,7.353,5.912,7.566,10.56s-2.432,9.263-4.192,13.571c2.11-1.923,4.3-3.894,6.987-4.85s6.041-.649,7.923,1.5c2.335,2.662,1.527,6.8.089,10.04a35.905,35.905,0,0,1-13.869,15.49,19.3,19.3,0,0,1,6.1-2.348,6.581,6.581,0,0,1,5.987,1.934,6.29,6.29,0,0,1,1,5.467,13.946,13.946,0,0,1-2.7,5.046,37.75,37.75,0,0,1-22.492,13.6,17.009,17.009,0,0,1,5.041.659,6.02,6.02,0,0,1,3.751,3.225c1.095,2.715-.654,5.73-2.656,7.865a28.815,28.815,0,0,1-27.574,8.037L577.7,417.1Q581.946,391.466,588.118,366.2Z" transform="translate(-577.699 -330.454)" fill="#cacae0"/>
          <path id="Trazado_1042094" data-name="Trazado 1042094" d="M613.148,347.145a617.68,617.68,0,0,0-24.636,76.738" transform="translate(-581.517 -336.348)" fill="none" stroke="#fff" stroke-miterlimit="10" stroke-width="1"/>
          <path id="Trazado_1042095" data-name="Trazado 1042095" d="M633.673,374.409a40.988,40.988,0,0,1-25.361,15.683" transform="translate(-588.509 -345.975)" fill="none" stroke="#fff" stroke-miterlimit="10" stroke-width="1"/>
          <path id="Trazado_1042096" data-name="Trazado 1042096" d="M629.231,410.059a47.977,47.977,0,0,1-29.757,9.034" transform="translate(-585.388 -358.564)" fill="none" stroke="#fff" stroke-miterlimit="10" stroke-width="1"/>
          <path id="Trazado_1042097" data-name="Trazado 1042097" d="M611.475,446.676a55.922,55.922,0,0,1-21.375,5.883" transform="translate(-582.078 -371.494)" fill="none" stroke="#fff" stroke-miterlimit="10" stroke-width="1"/>
        </g>
        <g id="Grupo_1182366" data-name="Grupo 1182366" transform="translate(19.335 191.903)">
          <path id="Trazado_1042098" data-name="Trazado 1042098" d="M127.053,366.2c-1.974-8.077-4.106-16.152-7.353-23.807a25.3,25.3,0,0,0-5.388-8.659c-2.477-2.364-6.026-3.843-9.364-3.081-4.537,1.036-7.353,5.912-7.566,10.56s2.432,9.263,4.192,13.571c-2.11-1.923-4.3-3.894-6.987-4.85s-6.041-.649-7.923,1.5c-2.335,2.662-1.527,6.8-.089,10.04a35.908,35.908,0,0,0,13.869,15.49,19.3,19.3,0,0,0-6.1-2.348,6.583,6.583,0,0,0-5.988,1.934,6.289,6.289,0,0,0-1,5.467,13.945,13.945,0,0,0,2.7,5.046,37.75,37.75,0,0,0,22.492,13.6,17.01,17.01,0,0,0-5.041.659,6.02,6.02,0,0,0-3.751,3.225c-1.095,2.715.654,5.73,2.656,7.865a28.815,28.815,0,0,0,27.574,8.037l3.491-3.357Q133.227,391.466,127.053,366.2Z" transform="translate(-85.192 -330.454)" fill="#cacae0"/>
          <path id="Trazado_1042099" data-name="Trazado 1042099" d="M117.113,347.145a617.68,617.68,0,0,1,24.636,76.738" transform="translate(-96.464 -336.348)" fill="none" stroke="#fff" stroke-miterlimit="10" stroke-width="1"/>
          <path id="Trazado_1042100" data-name="Trazado 1042100" d="M96.193,374.409a40.986,40.986,0,0,0,25.361,15.683" transform="translate(-89.077 -345.975)" fill="none" stroke="#fff" stroke-miterlimit="10" stroke-width="1"/>
          <path id="Trazado_1042101" data-name="Trazado 1042101" d="M98.235,410.059a47.977,47.977,0,0,0,29.757,9.034" transform="translate(-89.798 -358.564)" fill="none" stroke="#fff" stroke-miterlimit="10" stroke-width="1"/>
          <path id="Trazado_1042102" data-name="Trazado 1042102" d="M120.566,446.676a55.923,55.923,0,0,0,21.375,5.883" transform="translate(-97.683 -371.494)" fill="none" stroke="#fff" stroke-miterlimit="10" stroke-width="1"/>
        </g>
        <g id="Grupo_1182392" data-name="Grupo 1182392" transform="translate(0 2.634)">
          <g id="Grupo_1182371" data-name="Grupo 1182371" transform="translate(99.091 13.231)">
            <path id="Trazado_1042103" data-name="Trazado 1042103" d="M220.772,171.363a12.3,12.3,0,0,1-12.288-12.288V70.612a12.3,12.3,0,0,1,12.288-12.288H412.206a12.3,12.3,0,0,1,12.288,12.288v88.463a12.3,12.3,0,0,1-12.288,12.288H220.772Z" transform="translate(-208.484 -58.324)" fill="#1a0e90"/>
            <path id="Trazado_1042104" data-name="Trazado 1042104" d="M220.772,178.414a12.3,12.3,0,0,1-12.288-12.288V77.662a12.3,12.3,0,0,1,12.288-12.288H412.206a12.3,12.3,0,0,1,12.288,12.288v88.463a12.3,12.3,0,0,1-12.288,12.288H220.772Z" transform="translate(-208.484 -60.813)" fill="#4145e7"/>
            <path id="Trazado_1042105" data-name="Trazado 1042105" d="M414.409,176.582H222.975a8.254,8.254,0,0,1-8.254-8.254V79.865a8.254,8.254,0,0,1,8.254-8.254H414.409a8.254,8.254,0,0,1,8.254,8.254v88.463A8.255,8.255,0,0,1,414.409,176.582Z" transform="translate(-210.686 -63.016)" fill="#4ab7d6"/>
            <g id="Grupo_1182367" data-name="Grupo 1182367" transform="translate(28.918 18.341)">
              <rect id="Rectángulo_415564" data-name="Rectángulo 415564" width="7.807" height="21.701" transform="translate(0 5.559)" fill="#9698ed"/>
              <rect id="Rectángulo_415565" data-name="Rectángulo 415565" width="7.807" height="21.701" transform="translate(0 28.903)" fill="#fff"/>
              <rect id="Rectángulo_415566" data-name="Rectángulo 415566" width="7.807" height="10.851" transform="translate(13.623 16.409)" fill="#4145e7"/>
              <rect id="Rectángulo_415567" data-name="Rectángulo 415567" width="7.807" height="10.144" transform="translate(13.623 28.903)" fill="#fff"/>
              <rect id="Rectángulo_415568" data-name="Rectángulo 415568" width="7.807" height="24.505" transform="translate(27.246 2.755)" fill="#373ac4"/>
              <rect id="Rectángulo_415569" data-name="Rectángulo 415569" width="7.807" height="31.52" transform="translate(27.246 28.903)" fill="#fff"/>
              <rect id="Rectángulo_415570" data-name="Rectángulo 415570" width="7.807" height="16.426" transform="translate(40.869 10.834)" fill="#1a0e90"/>
              <rect id="Rectángulo_415571" data-name="Rectángulo 415571" width="7.807" height="17.67" transform="translate(40.869 28.903)" fill="#fff"/>
              <rect id="Rectángulo_415572" data-name="Rectángulo 415572" width="7.807" height="7.807" transform="translate(54.492 19.453)" fill="#9698ed"/>
              <rect id="Rectángulo_415573" data-name="Rectángulo 415573" width="7.807" height="12.544" transform="translate(54.492 28.903)" fill="#fff"/>
              <rect id="Rectángulo_415574" data-name="Rectángulo 415574" width="7.807" height="17.003" transform="translate(68.115 10.256)" fill="#4145e7"/>
              <rect id="Rectángulo_415575" data-name="Rectángulo 415575" width="7.807" height="17.67" transform="translate(68.115 28.903)" fill="#fff"/>
              <rect id="Rectángulo_415576" data-name="Rectángulo 415576" width="7.807" height="9.652" transform="translate(81.738 17.608)" fill="#373ac4"/>
              <rect id="Rectángulo_415577" data-name="Rectángulo 415577" width="7.807" height="30.786" transform="translate(81.738 28.903)" fill="#fff"/>
              <rect id="Rectángulo_415578" data-name="Rectángulo 415578" width="7.807" height="27.26" transform="translate(95.362)" fill="#1a0e90"/>
              <rect id="Rectángulo_415579" data-name="Rectángulo 415579" width="7.807" height="9.276" transform="translate(95.362 28.903)" fill="#fff"/>
              <rect id="Rectángulo_415580" data-name="Rectángulo 415580" width="7.807" height="12.738" transform="translate(108.984 14.522)" fill="#9698ed"/>
              <rect id="Rectángulo_415581" data-name="Rectángulo 415581" width="7.807" height="25.795" transform="translate(108.984 28.903)" fill="#fff"/>
              <rect id="Rectángulo_415582" data-name="Rectángulo 415582" width="7.807" height="8.502" transform="translate(122.608 18.758)" fill="#4145e7"/>
              <rect id="Rectángulo_415583" data-name="Rectángulo 415583" width="7.807" height="14.177" transform="translate(122.608 28.903)" fill="#fff"/>
              <rect id="Rectángulo_415584" data-name="Rectángulo 415584" width="7.807" height="16.096" transform="translate(136.231 11.163)" fill="#373ac4"/>
              <rect id="Rectángulo_415585" data-name="Rectángulo 415585" width="7.807" height="12.897" transform="translate(136.231 28.903)" fill="#fff"/>
              <rect id="Rectángulo_415586" data-name="Rectángulo 415586" width="7.807" height="25.626" transform="translate(149.854 1.633)" fill="#1a0e90"/>
              <rect id="Rectángulo_415587" data-name="Rectángulo 415587" width="7.807" height="21.701" transform="translate(149.854 28.903)" fill="#fff"/>
            </g>
            <g id="Grupo_1182368" data-name="Grupo 1182368" transform="translate(29.899 75.433)">
              <path id="Trazado_1042106" data-name="Trazado 1042106" d="M257.982,195.392l13.623-9.183,13.623,18.033,13.623-11.414,13.623-13.079L323.858,191.2l15.862,14.147,13.623-18.172,13.623,11.534,13.623-11.187,13.623-9.437,13.623,14.779" transform="translate(-255.862 -176.046)" fill="none" stroke="#1a0e90" stroke-miterlimit="10" stroke-width="1"/>
              <path id="Trazado_1042107" data-name="Trazado 1042107" d="M258.945,203.551a2.121,2.121,0,1,1-2.121-2.12A2.12,2.12,0,0,1,258.945,203.551Z" transform="translate(-254.704 -184.29)" fill="#fff"/>
              <path id="Trazado_1042108" data-name="Trazado 1042108" d="M280,189.371a2.121,2.121,0,1,1-2.12-2.12A2.12,2.12,0,0,1,280,189.371Z" transform="translate(-262.14 -179.282)" fill="#fff"/>
              <circle id="Elipse_13097" data-name="Elipse 13097" cx="2.12" cy="2.12" r="2.12" transform="translate(27.246 25.997)" fill="#fff"/>
              <path id="Trazado_1042109" data-name="Trazado 1042109" d="M322.123,199.717A2.12,2.12,0,1,1,320,197.6,2.12,2.12,0,0,1,322.123,199.717Z" transform="translate(-277.013 -182.936)" fill="#fff"/>
              <path id="Trazado_1042110" data-name="Trazado 1042110" d="M343.183,179.561a2.121,2.121,0,1,1-2.121-2.12A2.12,2.12,0,0,1,343.183,179.561Z" transform="translate(-284.449 -175.818)" fill="#fff"/>
              <path id="Trazado_1042111" data-name="Trazado 1042111" d="M364.242,200.48a2.121,2.121,0,1,1-2.121-2.12A2.12,2.12,0,0,1,364.242,200.48Z" transform="translate(-291.886 -183.205)" fill="#fff"/>
              <path id="Trazado_1042112" data-name="Trazado 1042112" d="M385.3,219.072a2.12,2.12,0,1,1-2.12-2.121A2.12,2.12,0,0,1,385.3,219.072Z" transform="translate(-299.322 -189.77)" fill="#fff"/>
              <path id="Trazado_1042113" data-name="Trazado 1042113" d="M406.361,191.033a2.121,2.121,0,1,1-2.12-2.121A2.12,2.12,0,0,1,406.361,191.033Z" transform="translate(-306.758 -179.869)" fill="#fff"/>
              <path id="Trazado_1042114" data-name="Trazado 1042114" d="M427.42,208.354a2.121,2.121,0,1,1-2.121-2.12A2.12,2.12,0,0,1,427.42,208.354Z" transform="translate(-314.195 -185.985)" fill="#fff"/>
              <path id="Trazado_1042115" data-name="Trazado 1042115" d="M448.48,191.033a2.12,2.12,0,1,1-2.12-2.121A2.12,2.12,0,0,1,448.48,191.033Z" transform="translate(-321.631 -179.869)" fill="#fff"/>
              <path id="Trazado_1042116" data-name="Trazado 1042116" d="M469.539,177.054a2.12,2.12,0,1,1-2.12-2.121A2.12,2.12,0,0,1,469.539,177.054Z" transform="translate(-329.067 -174.933)" fill="#fff"/>
              <path id="Trazado_1042117" data-name="Trazado 1042117" d="M490.6,199.986a2.121,2.121,0,1,1-2.121-2.12A2.12,2.12,0,0,1,490.6,199.986Z" transform="translate(-336.504 -183.031)" fill="#fff"/>
            </g>
            <g id="Grupo_1182370" data-name="Grupo 1182370" transform="translate(4.035 8.595)" opacity="0.3">
              <g id="Grupo_1182369" data-name="Grupo 1182369" clip-path="url(#clip-path-2)">
                <rect id="Rectángulo_415588" data-name="Rectángulo 415588" width="34.741" height="155.359" transform="translate(71.042 -45.724) rotate(45)" fill="#a9ecf4"/>
                <rect id="Rectángulo_415589" data-name="Rectángulo 415589" width="13.628" height="189.402" transform="translate(114.616 -26.222) rotate(45)" fill="#a9ecf4"/>
                <rect id="Rectángulo_415590" data-name="Rectángulo 415590" width="34.741" height="198.622" transform="translate(197.193 -28.143) rotate(45)" fill="#a9ecf4"/>
                <rect id="Rectángulo_415591" data-name="Rectángulo 415591" width="13.628" height="189.402" transform="translate(227.193 4.933) rotate(45)" fill="#a9ecf4"/>
              </g>
            </g>
          </g>
          <g id="Grupo_1182372" data-name="Grupo 1182372" transform="translate(369.211 110.163)">
            <path id="Trazado_1042119" data-name="Trazado 1042119" d="M653.285,220.483h-1.972a2.034,2.034,0,0,1-1.439-3.472l1.422-1.423a2.039,2.039,0,0,0,0-2.875l-.464-.46a2.031,2.031,0,0,0-2.875,0l-1.4,1.392a2.033,2.033,0,0,1-3.472-1.435V210.2a2.035,2.035,0,0,0-2.037-2.033H640.4a2.034,2.034,0,0,0-2.033,2.033v1.977a2.036,2.036,0,0,1-3.476,1.435l-1.418-1.418a2.036,2.036,0,0,0-2.879,0l-.46.46a2.036,2.036,0,0,0,0,2.879l1.4,1.392a2.037,2.037,0,0,1-1.439,3.476h-2.007a2.034,2.034,0,0,0-2.033,2.033v.653a2.034,2.034,0,0,0,2.033,2.033h1.972a2.034,2.034,0,0,1,1.439,3.472l-1.418,1.423a2.031,2.031,0,0,0,0,2.875l.46.46a2.03,2.03,0,0,0,2.875,0l1.4-1.392a2.033,2.033,0,0,1,3.472,1.435V235.4a2.035,2.035,0,0,0,2.037,2.033h.649a2.035,2.035,0,0,0,2.037-2.033v-1.977a2.033,2.033,0,0,1,3.472-1.435l1.418,1.418a2.036,2.036,0,0,0,2.879,0l.46-.46a2.036,2.036,0,0,0,0-2.879l-1.4-1.392a2.037,2.037,0,0,1,1.439-3.476h2.007a2.035,2.035,0,0,0,2.037-2.033v-.653A2.035,2.035,0,0,0,653.285,220.483ZM640.686,228a5.2,5.2,0,1,1,5.2-5.2A5.2,5.2,0,0,1,640.686,228Z" transform="translate(-626.054 -208.167)" fill="#e6e6ff"/>
            <path id="Trazado_1042120" data-name="Trazado 1042120" d="M649.782,229.458a2.442,2.442,0,1,1-2.442-2.444A2.443,2.443,0,0,1,649.782,229.458Z" transform="translate(-632.708 -214.822)" fill="#e6e6ff"/>
          </g>
          <g id="Grupo_1182373" data-name="Grupo 1182373" transform="translate(43.762 14.88)">
            <path id="Trazado_1042121" data-name="Trazado 1042121" d="M150.183,73.189h-1.972a2.034,2.034,0,0,1-1.439-3.472l1.422-1.423a2.039,2.039,0,0,0,0-2.875l-.464-.46a2.031,2.031,0,0,0-2.875,0l-1.4,1.392a2.033,2.033,0,0,1-3.472-1.435V62.906a2.035,2.035,0,0,0-2.037-2.033H137.3a2.034,2.034,0,0,0-2.032,2.033v1.977a2.036,2.036,0,0,1-3.476,1.435L130.374,64.9a2.036,2.036,0,0,0-2.879,0l-.46.46a2.036,2.036,0,0,0,0,2.879l1.4,1.392a2.037,2.037,0,0,1-1.439,3.476h-2.007a2.034,2.034,0,0,0-2.033,2.033v.653a2.034,2.034,0,0,0,2.033,2.033h1.972A2.034,2.034,0,0,1,128.4,81.3l-1.418,1.423a2.031,2.031,0,0,0,0,2.875l.46.46a2.031,2.031,0,0,0,2.875,0l1.4-1.392a2.033,2.033,0,0,1,3.472,1.435V88.11a2.035,2.035,0,0,0,2.037,2.033h.649a2.035,2.035,0,0,0,2.037-2.033V86.132a2.033,2.033,0,0,1,3.472-1.435l1.418,1.418a2.036,2.036,0,0,0,2.879,0l.46-.46a2.036,2.036,0,0,0,0-2.879l-1.4-1.392a2.037,2.037,0,0,1,1.439-3.476h2.007a2.035,2.035,0,0,0,2.037-2.033v-.653A2.036,2.036,0,0,0,150.183,73.189Zm-12.6,7.516a5.2,5.2,0,1,1,5.2-5.2A5.2,5.2,0,0,1,137.584,80.7Z" transform="translate(-122.953 -60.873)" fill="#e6e6ff"/>
            <path id="Trazado_1042122" data-name="Trazado 1042122" d="M146.679,82.163a2.442,2.442,0,1,1-2.442-2.444A2.443,2.443,0,0,1,146.679,82.163Z" transform="translate(-129.606 -67.528)" fill="#e6e6ff"/>
          </g>
          <g id="Grupo_1182374" data-name="Grupo 1182374" transform="translate(225.462 139.811)">
            <path id="Trazado_1042123" data-name="Trazado 1042123" d="M431.066,266.315h-1.972a2.034,2.034,0,0,1-1.439-3.472l1.422-1.422a2.039,2.039,0,0,0,0-2.875l-.464-.46a2.031,2.031,0,0,0-2.875,0l-1.4,1.392a2.033,2.033,0,0,1-3.472-1.435v-2.011A2.035,2.035,0,0,0,418.833,254h-.649a2.034,2.034,0,0,0-2.033,2.033v1.977a2.036,2.036,0,0,1-3.476,1.435l-1.418-1.418a2.036,2.036,0,0,0-2.879,0l-.46.46a2.036,2.036,0,0,0,0,2.879l1.4,1.392a2.037,2.037,0,0,1-1.439,3.476h-2.007a2.034,2.034,0,0,0-2.033,2.032v.653a2.034,2.034,0,0,0,2.033,2.033h1.972a2.034,2.034,0,0,1,1.439,3.472l-1.418,1.423a2.031,2.031,0,0,0,0,2.875l.46.46a2.031,2.031,0,0,0,2.875,0l1.4-1.392a2.033,2.033,0,0,1,3.472,1.435v2.011a2.035,2.035,0,0,0,2.037,2.033h.649a2.035,2.035,0,0,0,2.037-2.033v-1.977a2.033,2.033,0,0,1,3.472-1.435l1.418,1.418a2.036,2.036,0,0,0,2.879,0l.46-.46a2.036,2.036,0,0,0,0-2.879l-1.4-1.392a2.037,2.037,0,0,1,1.439-3.476h2.007A2.035,2.035,0,0,0,433.1,269v-.653A2.036,2.036,0,0,0,431.066,266.315Zm-12.6,7.516a5.2,5.2,0,1,1,5.2-5.2A5.2,5.2,0,0,1,418.467,273.831Z" transform="translate(-403.836 -253.999)" fill="#fff"/>
            <path id="Trazado_1042124" data-name="Trazado 1042124" d="M427.563,275.289a2.442,2.442,0,1,1-2.442-2.444A2.443,2.443,0,0,1,427.563,275.289Z" transform="translate(-410.49 -260.654)" fill="#fff"/>
          </g>
          <path id="Trazado_1042125" data-name="Trazado 1042125" d="M128.791,238.561l-4.222-5.77-4.222-5.77-4.222,5.77-4.222,5.77h4.81v13.3h7.269v-13.3Z" transform="translate(-75.289 -104.662)" fill="#a9ecf4"/>
          <path id="Trazado_1042126" data-name="Trazado 1042126" d="M598.1,49.41l-4.222-5.77-4.222-5.77-4.222,5.77-4.222,5.77h4.81v13.3h7.269V49.41Z" transform="translate(-241.006 -37.87)" fill="#a9ecf4"/>
          <path id="Trazado_1042127" data-name="Trazado 1042127" d="M669.745,297.955l4.222,5.77,4.222,5.77,4.222-5.77,4.222-5.77h-4.81v-13.3h-7.269v13.3Z" transform="translate(-284.27 -117.013)" fill="#ff7cb7"/>
          <path id="Trazado_1042128" data-name="Trazado 1042128" d="M55.3,89.008l4.222,5.77,4.222,5.77,4.222-5.77,4.222-5.77h-4.81v-13.3H60.113v13.3Z" transform="translate(-40.303 -68.231)" fill="#ff7cb7"/>
          <path id="Trazado_1042129" data-name="Trazado 1042129" d="M199.471,387.758l2.915,3.983,2.915,3.984,2.915-3.984,2.915-3.983h-3.32v-9.182h-5.019v9.182Z" transform="translate(-106.211 -158.178)" fill="#fff"/>
          <path id="Trazado_1042130" data-name="Trazado 1042130" d="M532.478,373.288l-2.915-3.984-2.915-3.983-2.915,3.983-2.915,3.984h3.32v9.182h5.019v-9.182Z" transform="translate(-219.682 -153.497)" fill="#fff"/>
          <g id="Grupo_1182375" data-name="Grupo 1182375" transform="translate(23.392 108.431)">
            <path id="Trazado_1042131" data-name="Trazado 1042131" d="M60.22,205.929l1.117-1.379a4.865,4.865,0,0,0,1.187.939,2.333,2.333,0,0,0,1.145.285l-.369-3.31a5.31,5.31,0,0,1-2.687-.864,2.709,2.709,0,0,1-1.049-1.957,2.742,2.742,0,0,1,.661-2.235,3.93,3.93,0,0,1,2.38-1.164l-.117-1.051.96-.107.117,1.051a4.808,4.808,0,0,1,1.8.3,5.21,5.21,0,0,1,1.591.986l-1.081,1.421a3.591,3.591,0,0,0-1.021-.823,2.243,2.243,0,0,0-1.1-.241l.335,3.008a6,6,0,0,1,2.871.973,2.92,2.92,0,0,1,1.058,2.078,2.887,2.887,0,0,1-.7,2.362,3.923,3.923,0,0,1-2.489,1.177l.171,1.534-.96.107-.171-1.534a4.632,4.632,0,0,1-3.64-1.551Zm2.868-5.362-.308-2.758a2.106,2.106,0,0,0-1.19.516,1.3,1.3,0,0,0,.171,1.879A2.831,2.831,0,0,0,63.089,200.567Zm1.546,5.152a1.982,1.982,0,0,0,1.23-.493,1.27,1.27,0,0,0,.314-1.087,1.445,1.445,0,0,0-.517-1.036,2.692,2.692,0,0,0-1.369-.437Z" transform="translate(-59.541 -195.086)" fill="#4145e7"/>
          </g>
          <g id="Grupo_1182376" data-name="Grupo 1182376" transform="translate(382.188 18.273)">
            <path id="Trazado_1042132" data-name="Trazado 1042132" d="M678.19,86.4l.549-1.687a4.87,4.87,0,0,0,1.444.452,2.331,2.331,0,0,0,1.171-.143l-1.528-2.96a5.306,5.306,0,0,1-2.817.154,2.709,2.709,0,0,1-1.679-1.452,2.743,2.743,0,0,1-.182-2.324,3.935,3.935,0,0,1,1.806-1.938l-.485-.939.858-.443.485.939a4.8,4.8,0,0,1,1.784-.365,5.207,5.207,0,0,1,1.838.352l-.5,1.714a3.593,3.593,0,0,0-1.248-.4,2.24,2.24,0,0,0-1.115.169l1.389,2.689a6,6,0,0,1,3.029-.118,2.917,2.917,0,0,1,1.731,1.562,2.887,2.887,0,0,1,.186,2.458,3.92,3.92,0,0,1-1.9,1.989l.708,1.371-.858.443-.708-1.371a4.623,4.623,0,0,1-3.954-.149Zm.761-6.034L677.677,77.9a2.105,2.105,0,0,0-.927.907,1.3,1.3,0,0,0,.832,1.693A2.8,2.8,0,0,0,678.951,80.366Zm3.286,4.26a1.984,1.984,0,0,0,.973-.9,1.269,1.269,0,0,0-.094-1.128,1.449,1.449,0,0,0-.853-.783,2.7,2.7,0,0,0-1.434.082Z" transform="translate(-674.971 -75.119)" fill="#4145e7"/>
          </g>
          <g id="Grupo_1182377" data-name="Grupo 1182377" transform="translate(96.523 170.876)">
            <path id="Trazado_1042133" data-name="Trazado 1042133" d="M204.515,311.024l1.565-.836a4.875,4.875,0,0,0,.728,1.327,2.336,2.336,0,0,0,.944.709l.95-3.192a5.3,5.3,0,0,1-2.137-1.842,2.71,2.71,0,0,1-.2-2.21,2.742,2.742,0,0,1,1.48-1.8,3.934,3.934,0,0,1,2.646-.146l.3-1.013.926.276-.3,1.013a4.8,4.8,0,0,1,1.539.974,5.222,5.222,0,0,1,1.081,1.527l-1.549.888a3.593,3.593,0,0,0-.62-1.157,2.246,2.246,0,0,0-.921-.651l-.863,2.9a6,6,0,0,1,2.265,2.014,3.23,3.23,0,0,1-1.4,4.227,3.919,3.919,0,0,1-2.751.114l-.44,1.479-.926-.276.44-1.479a4.861,4.861,0,0,1-1.7-1.12A4.812,4.812,0,0,1,204.515,311.024Zm4.73-3.821.791-2.661a2.106,2.106,0,0,0-1.3.011,1.3,1.3,0,0,0-.574,1.8A2.824,2.824,0,0,0,209.245,307.2Zm-.583,5.348a1.984,1.984,0,0,0,1.325.025,1.272,1.272,0,0,0,.714-.878,1.446,1.446,0,0,0-.072-1.156,2.7,2.7,0,0,0-1.091-.935Z" transform="translate(-204.515 -302.021)" fill="#4145e7"/>
          </g>
          <g id="Grupo_1182378" data-name="Grupo 1182378" transform="translate(307.957 150.216)">
            <path id="Trazado_1042134" data-name="Trazado 1042134" d="M533.785,281.389l.737-1.615a4.862,4.862,0,0,0,1.384.613,2.333,2.333,0,0,0,1.18-.01l-1.184-3.113a5.306,5.306,0,0,1-2.817-.166,2.71,2.71,0,0,1-1.5-1.633,2.743,2.743,0,0,1,.082-2.329,3.929,3.929,0,0,1,2.014-1.721l-.376-.988.9-.343.376.988a4.8,4.8,0,0,1,1.814-.161,5.2,5.2,0,0,1,1.786.558l-.692,1.646a3.593,3.593,0,0,0-1.195-.543,2.244,2.244,0,0,0-1.127.042l1.076,2.829a6,6,0,0,1,3.023.226,3.231,3.231,0,0,1,1.451,4.212,3.917,3.917,0,0,1-2.117,1.761l.549,1.443-.9.343-.549-1.443a4.859,4.859,0,0,1-2.029.141A4.8,4.8,0,0,1,533.785,281.389Zm1.439-5.908-.986-2.595a2.107,2.107,0,0,0-1.023.8,1.3,1.3,0,0,0,.635,1.776A2.808,2.808,0,0,0,535.224,275.481Zm2.784,4.6a1.985,1.985,0,0,0,1.069-.785,1.271,1.271,0,0,0,.034-1.131,1.446,1.446,0,0,0-.759-.875,2.69,2.69,0,0,0-1.434-.081Z" transform="translate(-531.363 -270.083)" fill="#4145e7"/>
          </g>
          <g id="Grupo_1182386" data-name="Grupo 1182386" transform="translate(25.434 134.78)">
            <g id="Grupo_1182379" data-name="Grupo 1182379" clip-path="url(#clip-path-3)">
              <path id="Trazado_1042135" data-name="Trazado 1042135" d="M244.382,368.678s1.461-53.7.42-58.219-3.995-15.761-4.7-24.3-4.03-15.466-1.227-17c1.631-.892,3.859,5.907,5.326,11.243a.969.969,0,0,0,1.015.71h0a.966.966,0,0,0,.884-1.084c-.485-3.809-2.15-16.875.514-19.738a1.181,1.181,0,0,1,1.835.186c.931,1.447,2.345,5.764,2.622,18.641a.8.8,0,0,0,.814.779h0a.826.826,0,0,0,.787-.857c.083-4.628-1.912-24.045,1.426-24.141,4.181-.121,3.478,20.565,3.3,24.54a.745.745,0,0,0,.624.768h0a.747.747,0,0,0,.873-.663c.37-3.841,2.155-20.182,5.659-19.159,3.969,1.159-.876,17.793-1.327,24.23s-.257,9.152,2.869,9.177,14.289-8.225,17-4.6-6.288,4.7-11.518,10-8.692,4.881-10.125,8.742,4.46,58.946,4.46,58.946Z" transform="translate(-145.168 -249.283)" fill="#f87f67"/>
              <path id="Trazado_1042136" data-name="Trazado 1042136" d="M245.644,403.336l-.836,54.353,31.91-.921-6.986-57.2Z" transform="translate(-147.654 -300.369)" fill="#ff4298"/>
              <path id="Trazado_1042137" data-name="Trazado 1042137" d="M269.909,387.805l-26.874,2.63-.245,10.925,28.59-3.025Z" transform="translate(-146.941 -296.216)" fill="#ff7cb7"/>
              <path id="Trazado_1042138" data-name="Trazado 1042138" d="M274.666,405.16l3.48,14.015a.315.315,0,0,0,.622-.081l-.209-14.346Z" transform="translate(-158.197 -302.199)" fill="#eb3d8c"/>
              <path id="Trazado_1042139" data-name="Trazado 1042139" d="M248.871,388.3l.052-3.242,18.038-2.271.334,3.71Z" transform="translate(-149.089 -294.445)" fill="#d46d58"/>
            </g>
            <g id="Grupo_1182380" data-name="Grupo 1182380" clip-path="url(#clip-path-3)">
              <path id="Trazado_1042141" data-name="Trazado 1042141" d="M132.432,334.409l17.54-1.811s-3.526-15.831-2.6-18.134,4.6-8.836,4.373-12.566,2.707-15.353.9-16.955a6.072,6.072,0,0,0-4.253-1.347s-.788-2.412-3.039-2.49a4.334,4.334,0,0,0-3.159.833,4.759,4.759,0,0,0-3.949-1.748,2.987,2.987,0,0,0-3.062,2.2,4.1,4.1,0,0,0-4.451-1.166c-2.669.987-3.275,2.245-2.254,7.245s1.036,8.805-4.257,9.736-8.243-.865-11.168.03-4.187,3.2-3.267,4.147,4.328.922,7.34,2.033,5.492,1.1,8.129,1.949a7.681,7.681,0,0,1,5.2,6.506C130.793,315.971,132.432,334.409,132.432,334.409Z" transform="translate(-99.872 -258.215)" fill="#d45c39"/>
              <path id="Trazado_1042142" data-name="Trazado 1042142" d="M160.752,351.7l-.3-5.8L140.99,347.48l1.152,6.537Z" transform="translate(-110.994 -281.417)" fill="#fff"/>
              <path id="Trazado_1042143" data-name="Trazado 1042143" d="M147.675,440.95l30.775-5.426L162.162,353.8,141.349,356l.265,3.549,1.768,23.75Z" transform="translate(-111.121 -284.209)" fill="#4145e7"/>
              <path id="Trazado_1042144" data-name="Trazado 1042144" d="M143.526,386.422h0a4.813,4.813,0,0,0,4.555-5.185l-1.118-14.146a4.813,4.813,0,0,0-5.027-4.428l-.177.008Z" transform="translate(-111.266 -287.336)" fill="#373ac4"/>
              <path id="Trazado_1042145" data-name="Trazado 1042145" d="M144.031,368.525a1.081,1.081,0,1,0,.877-1.252A1.081,1.081,0,0,0,144.031,368.525Z" transform="translate(-112.062 -288.96)" fill="#fff"/>
              <path id="Trazado_1042146" data-name="Trazado 1042146" d="M144.571,376.2a1.081,1.081,0,1,0,.877-1.252A1.081,1.081,0,0,0,144.571,376.2Z" transform="translate(-112.253 -291.669)" fill="#fff"/>
              <path id="Trazado_1042147" data-name="Trazado 1042147" d="M145.1,384.207a1.081,1.081,0,1,0,.877-1.252A1.081,1.081,0,0,0,145.1,384.207Z" transform="translate(-112.44 -294.498)" fill="#fff"/>
              <path id="Trazado_1042148" data-name="Trazado 1042148" d="M145.473,392.385a1.081,1.081,0,1,0,.877-1.252A1.081,1.081,0,0,0,145.473,392.385Z" transform="translate(-112.572 -297.385)" fill="#fff"/>
              <path id="Trazado_1042149" data-name="Trazado 1042149" d="M159.471,341l-16.2,2.766.168,1.854,16.534-1.347Z" transform="translate(-111.8 -279.687)" fill="#a8492d"/>
            </g>
            <g id="Grupo_1182383" data-name="Grupo 1182383" clip-path="url(#clip-path-3)">
              <path id="Trazado_1042151" data-name="Trazado 1042151" d="M584.19,341.656s-.3-12.675,1.145-17.081,5.413-15.333,6.9-23.776,5.422-15.036,2.77-16.817c-1.544-1.037-4.382,5.531-6.328,10.711a.968.968,0,0,1-1.076.615h0a.967.967,0,0,1-.781-1.16c.829-3.749,3.678-16.609,1.286-19.7a1.181,1.181,0,0,0-1.844.018c-1.06,1.357-2.861,5.527-4.309,18.324a.8.8,0,0,1-.882.7h0a.825.825,0,0,1-.705-.924c.338-4.616,4.093-23.771.779-24.17-4.153-.5-5.336,20.162-5.526,24.137a.746.746,0,0,1-.692.708h0a.747.747,0,0,1-.809-.739c-.019-3.859-.309-20.295-3.891-19.595-4.058.792-.749,17.8-.886,24.25s-.578,9.137-3.693,8.878-13.48-9.492-16.509-6.129,5.835,5.249,10.56,11,8.212,5.652,9.287,9.628S566,339.756,566,339.756Z" transform="translate(-254.898 -254.048)" fill="#d45c39"/>
              <g id="Grupo_1182382" data-name="Grupo 1182382" transform="translate(312.166 71.967)">
                <path id="Trazado_1042152" data-name="Trazado 1042152" d="M594.613,368.393l-2.365-.519-1.807-.39-13.253-2.9,1.452-7.114,12.577,1.54,1.825.22,2.117.261Z" transform="translate(-577.188 -357.472)" fill="#fff"/>
                <g id="Grupo_1182381" data-name="Grupo 1182381" transform="translate(13.22 1.54)">
                  <path id="Trazado_1042153" data-name="Trazado 1042153" d="M599.45,368.856l-1.826-.164.033-.367.777-8.472,1.825.22-.8,8.642Z" transform="translate(-597.624 -359.853)" fill="#cfcfcf"/>
                </g>
              </g>
              <path id="Trazado_1042154" data-name="Trazado 1042154" d="M568.151,367.315l19.231,2.705-6.171,79.011-27.649-3.889Z" transform="translate(-256.679 -288.981)" fill="#ff7cb7"/>
              <path id="Trazado_1042155" data-name="Trazado 1042155" d="M579.974,356.571l.2-1.774,16.1.886-.5,2.82Z" transform="translate(-266.005 -284.561)" fill="#a8492d"/>
            </g>
            <g id="Grupo_1182384" data-name="Grupo 1182384" clip-path="url(#clip-path-3)">
              <path id="Trazado_1042157" data-name="Trazado 1042157" d="M486.5,293.058c.065-2.214-2.886-8.657-2.886-8.657s3.631-15.092,4.684-21.536-.047-8.525-1.2-8.9-2.17.26-3.064,2.692-4.073,17.883-4.073,17.883l-1.549-.055s-.494-4.305-3.33-4.055-2.877,3.516-2.877,3.516-.156-2.027-3.036-1.5S466.328,277,466.328,277c-.488-1.159-1.411-2.438-3.073-2.122-2.917.555-2.164,5.678-2.164,5.678-3.075,9.494.981,19.471,1.785,24.311s-.584,17.1-.584,17.1l18.74,2.577c-.609-5.4-.6-19.047-.6-19.047C483.032,302.1,486.433,295.273,486.5,293.058Z" transform="translate(-223.625 -248.921)" fill="#f87f67"/>
              <path id="Trazado_1042158" data-name="Trazado 1042158" d="M462.13,353.664l-.2-6.336,21.012-.054-.631,6.945Z" transform="translate(-224.323 -281.904)" fill="#fff"/>
              <path id="Trazado_1042159" data-name="Trazado 1042159" d="M478.482,443.706l-32.694-2.971,9.521-86.992,22.607.479-.014,28.75Z" transform="translate(-218.623 -284.188)" fill="#1a0e90"/>
              <path id="Trazado_1042160" data-name="Trazado 1042160" d="M489.926,359.131a1.081,1.081,0,1,0,1.175-.979A1.082,1.082,0,0,0,489.926,359.131Z" transform="translate(-234.207 -285.744)" fill="#fff"/>
              <path id="Trazado_1042161" data-name="Trazado 1042161" d="M489.805,366.135a1.081,1.081,0,1,0,1.175-.979A1.081,1.081,0,0,0,489.805,366.135Z" transform="translate(-234.164 -288.217)" fill="#fff"/>
              <path id="Trazado_1042162" data-name="Trazado 1042162" d="M489.685,373.138a1.081,1.081,0,1,0,1.175-.979A1.082,1.082,0,0,0,489.685,373.138Z" transform="translate(-234.121 -290.69)" fill="#fff"/>
              <path id="Trazado_1042163" data-name="Trazado 1042163" d="M482.09,340.949l-17.384,1.433-.133,2.708,17.585-.05Z" transform="translate(-225.256 -279.671)" fill="#d46d58"/>
            </g>
            <g id="Grupo_1182385" data-name="Grupo 1182385" clip-path="url(#clip-path-3)">
              <path id="Trazado_1042165" data-name="Trazado 1042165" d="M373.392,373.039l-22-.25-5.634,72.737,29.946,2.525Z" transform="translate(-183.301 -290.914)" fill="#11738a"/>
              <path id="Trazado_1042166" data-name="Trazado 1042166" d="M356.5,322.669c-.221-2.18-3.8-6.1-5.043-8.774a11.93,11.93,0,0,1-1.2-6.559c.252-1.305,2.971-7.579,2.971-7.579s-1.256-6.128-1.522-7.633-1.192-5.645,2.15-6.533,4.81,3.293,4.81,3.293.768-4.654,3.775-4.2c2.409.362,2.584,3.187,2.56,4.3.127-.549.686-1.427,2.947-1.6,3.336-.25,3.339,4.581,3.339,4.581.589-1.794,1.527-2.871,3.559-1.932s1.459,5.274,1.459,5.274c.628.426,1.294,7.393,1.073,11.491s-2.3,10.029-3.316,15.312-.653,18.658-.653,18.658l-18.654,1.461S356.725,324.849,356.5,322.669Z" transform="translate(-184.857 -259.791)" fill="#faa392"/>
              <path id="Trazado_1042167" data-name="Trazado 1042167" d="M377.718,355.621,352,354.675l-1.344,12.682,26.885.607Z" transform="translate(-185.029 -284.517)" fill="#45aac7"/>
              <path id="Trazado_1042168" data-name="Trazado 1042168" d="M359.432,350.752l-.215,2.389,17.378.639.155-3.886Z" transform="translate(-188.053 -282.829)" fill="#fa8d78"/>
              <path id="Trazado_1042169" data-name="Trazado 1042169" d="M376.746,421.012l-3.977,35.632h5.993l-1.245-35.6A.387.387,0,0,0,376.746,421.012Z" transform="translate(-192.839 -307.821)" fill="#189fbf"/>
            </g>
          </g>
          <g id="Grupo_1182389" data-name="Grupo 1182389" transform="translate(298.352 46.798)">
            <path id="Trazado_1042171" data-name="Trazado 1042171" d="M602.008,114.689a4.476,4.476,0,0,0-4.476-4.476h-76.54a4.476,4.476,0,0,0-4.476,4.476v1.565h85.493Z" transform="translate(-516.515 -110.213)" fill="#1a0e90"/>
            <path id="Trazado_1042172" data-name="Trazado 1042172" d="M516.515,119.553v37.123a4.476,4.476,0,0,0,4.476,4.476h76.54a4.476,4.476,0,0,0,4.477-4.476V119.553Z" transform="translate(-516.515 -113.511)" fill="#9698ed"/>
            <g id="Grupo_1182387" data-name="Grupo 1182387" transform="translate(71.032 1.791)">
              <path id="Trazado_1042173" data-name="Trazado 1042173" d="M641.52,114.211a1.23,1.23,0,1,1-1.23-1.23A1.231,1.231,0,0,1,641.52,114.211Z" transform="translate(-630.819 -112.981)" fill="#fff"/>
              <path id="Trazado_1042174" data-name="Trazado 1042174" d="M635.151,114.211a1.23,1.23,0,1,1-1.23-1.23A1.231,1.231,0,0,1,635.151,114.211Z" transform="translate(-628.57 -112.981)" fill="#fff"/>
              <path id="Trazado_1042175" data-name="Trazado 1042175" d="M628.782,114.211a1.23,1.23,0,1,1-1.23-1.23A1.231,1.231,0,0,1,628.782,114.211Z" transform="translate(-626.321 -112.981)" fill="#fff"/>
            </g>
            <rect id="Rectángulo_415592" data-name="Rectángulo 415592" width="5.749" height="9.175" transform="translate(8.613 32.972)" fill="#fff"/>
            <rect id="Rectángulo_415593" data-name="Rectángulo 415593" width="5.749" height="13.202" transform="translate(20.59 28.945)" fill="#fff"/>
            <rect id="Rectángulo_415594" data-name="Rectángulo 415594" width="5.749" height="17.797" transform="translate(32.567 24.35)" fill="#fff"/>
            <rect id="Rectángulo_415595" data-name="Rectángulo 415595" width="5.749" height="21.277" transform="translate(44.544 20.87)" fill="#fff"/>
            <rect id="Rectángulo_415596" data-name="Rectángulo 415596" width="5.749" height="25.865" transform="translate(56.52 16.282)" fill="#fff"/>
            <path id="Trazado_1042176" data-name="Trazado 1042176" d="M560.452,125.882l-2.928.192,1.67,1.959c-13.27,11.519-32.166,11.142-32.357,11.137l-.041,1.481c.2.005,19.647.409,33.361-11.488l1.917,2.249.652-2.861.652-2.861Z" transform="translate(-520.145 -115.678)" fill="#fff"/>
            <path id="Trazado_1042177" data-name="Trazado 1042177" d="M627.56,139.241h0a5.726,5.726,0,0,1-5.726-5.726h0a5.726,5.726,0,0,1,5.726-5.726h0a5.726,5.726,0,0,1,5.726,5.726h0A5.726,5.726,0,0,1,627.56,139.241Z" transform="translate(-553.705 -116.419)" fill="#fff"/>
            <g id="Grupo_1182388" data-name="Grupo 1182388" transform="translate(66.79 27.979)">
              <path id="Trazado_1042178" data-name="Trazado 1042178" d="M633.56,155.205H620.634a.871.871,0,0,1-.871-.871h0a.871.871,0,0,1,.871-.871H633.56a.871.871,0,0,1,.871.871h0A.871.871,0,0,1,633.56,155.205Z" transform="translate(-619.763 -153.464)" fill="#fff"/>
              <path id="Trazado_1042179" data-name="Trazado 1042179" d="M633.56,160.8H620.634a.871.871,0,0,1-.871-.871h0a.871.871,0,0,1,.871-.871H633.56a.871.871,0,0,1,.871.871h0A.871.871,0,0,1,633.56,160.8Z" transform="translate(-619.763 -155.438)" fill="#fff"/>
              <path id="Trazado_1042180" data-name="Trazado 1042180" d="M633.56,166.387H620.634a.871.871,0,0,1-.871-.871h0a.871.871,0,0,1,.871-.871H633.56a.871.871,0,0,1,.871.871h0A.871.871,0,0,1,633.56,166.387Z" transform="translate(-619.763 -157.413)" fill="#fff"/>
              <path id="Trazado_1042181" data-name="Trazado 1042181" d="M633.56,171.978H620.634a.871.871,0,0,1-.871-.871h0a.871.871,0,0,1,.871-.871H633.56a.871.871,0,0,1,.871.871h0A.871.871,0,0,1,633.56,171.978Z" transform="translate(-619.763 -159.387)" fill="#fff"/>
            </g>
          </g>
          <g id="Grupo_1182391" data-name="Grupo 1182391" transform="translate(45.058 70.569)">
            <path id="Trazado_1042182" data-name="Trazado 1042182" d="M196.922,150.728a3.768,3.768,0,0,0-3.768-3.768H128.725a3.768,3.768,0,0,0-3.768,3.768v1.318h71.965Z" transform="translate(-124.957 -146.96)" fill="#1a0e90"/>
            <path id="Trazado_1042183" data-name="Trazado 1042183" d="M124.957,154.822v34.821a3.768,3.768,0,0,0,3.768,3.768h64.429a3.768,3.768,0,0,0,3.768-3.768V154.822Z" transform="translate(-124.957 -149.736)" fill="#9698ed"/>
            <path id="Trazado_1042184" data-name="Trazado 1042184" d="M230.435,150.233a1.206,1.206,0,1,1-1.206-1.206A1.206,1.206,0,0,1,230.435,150.233Z" transform="translate(-161.351 -147.69)" fill="#fff"/>
            <path id="Trazado_1042185" data-name="Trazado 1042185" d="M224.172,150.233a1.206,1.206,0,1,1-1.206-1.206A1.206,1.206,0,0,1,224.172,150.233Z" transform="translate(-159.139 -147.69)" fill="#fff"/>
            <path id="Trazado_1042186" data-name="Trazado 1042186" d="M217.909,150.233a1.206,1.206,0,1,1-1.206-1.206A1.206,1.206,0,0,1,217.909,150.233Z" transform="translate(-156.928 -147.69)" fill="#fff"/>
            <g id="Grupo_1182390" data-name="Grupo 1182390" transform="translate(1.535 11.455)">
              <rect id="Rectángulo_415597" data-name="Rectángulo 415597" width="62.47" height="0.647" transform="translate(3.007 27.297)" fill="#fff"/>
              <path id="Trazado_1042187" data-name="Trazado 1042187" d="M132.016,190.057a1.2,1.2,0,0,0-.4-.893,24.006,24.006,0,0,1,4.525-8.247c2.6-2.83,6.142-4.216,9.255-3.61a9.055,9.055,0,0,1,2.293.8c0,.024-.007.046-.007.071a1.2,1.2,0,0,0,.522.992c-.218,1.056-.4,2.136-.552,3.244l-.041.32a9.482,9.482,0,0,1-.889,3.448,2.874,2.874,0,0,1-2.952,1.6A4.266,4.266,0,0,1,141.661,186a5.855,5.855,0,0,0-2.061-1.91,3.988,3.988,0,0,0-4.55,1.429,8.634,8.634,0,0,0-1.459,3.119,1.21,1.21,0,1,0,.666.027,7.837,7.837,0,0,1,1.3-2.741,3.392,3.392,0,0,1,3.778-1.245,5.326,5.326,0,0,1,1.818,1.719,4.792,4.792,0,0,0,2.461,2.014,3.528,3.528,0,0,0,3.671-1.912,9.977,9.977,0,0,0,.966-3.681l.041-.318c.142-1.066.32-2.1.528-3.122.023,0,.043.006.066.006a1.2,1.2,0,0,0,.628-.18c1.022.715,2,1.539,2.952,2.357l.471.4c2.445,2.08,5.163,3.993,8.265,3.949a9.862,9.862,0,0,0,5.682-2.223,1.2,1.2,0,0,0,.693.36l.058.243a8.768,8.768,0,0,0,1.439,3.566A3.2,3.2,0,0,0,172.767,189a4.424,4.424,0,0,0,1.924-2.45,5.106,5.106,0,0,1,1.3-2c1.236-.965,3.152-.351,4.165.83a8.078,8.078,0,0,1,1.545,3.512,1.2,1.2,0,1,0,.823-.29,1.218,1.218,0,0,0-.224.014,8.613,8.613,0,0,0-1.654-3.658c-1.206-1.406-3.526-2.11-5.053-.919a5.666,5.666,0,0,0-1.493,2.235,3.9,3.9,0,0,1-1.608,2.135,2.6,2.6,0,0,1-2.915-.954,8.294,8.294,0,0,1-1.314-3.309l-.041-.17a1.2,1.2,0,0,0,.507-1.817q.525-.477,1.035-.973l.2-.19c2.283-2.218,4.643-4.511,7.671-5.025,3.183-.54,6.785,1.148,9.172,4.3a25.244,25.244,0,0,1,3.829,8.869,1.2,1.2,0,1,0,.654-.168c-.01,0-.019,0-.028,0a25.8,25.8,0,0,0-3.939-9.094c-2.53-3.346-6.373-5.135-9.8-4.552-3.226.548-5.66,2.912-8.014,5.2l-.2.19q-.539.524-1.1,1.028a1.2,1.2,0,0,0-.461-.092c-.028,0-.054.006-.082.008l-1.888-7.94a1.184,1.184,0,0,0,.7-1.5,5.036,5.036,0,0,1,1.092-.219,9.5,9.5,0,0,1,3.652.7,10.725,10.725,0,0,0,3.714.748c2.2-.082,4.08-1.448,5.624-2.773.215-.184.428-.371.643-.558a13.71,13.71,0,0,1,4.286-2.894,4.65,4.65,0,0,1,4.313.574,1.224,1.224,0,1,0,.5-.444,5.312,5.312,0,0,0-5.022-.741,14.208,14.208,0,0,0-4.5,3.018c-.213.186-.425.371-.638.554-1.461,1.253-3.223,2.543-5.228,2.617a10.1,10.1,0,0,1-3.489-.716,10.179,10.179,0,0,0-3.9-.734,5.675,5.675,0,0,0-1.433.308,1.2,1.2,0,0,0-.747-.266c-.041,0-.081.008-.121.012-.655-2.476-1.639-4.987-3.879-6.157a6.64,6.64,0,0,0-6.922.954,14.18,14.18,0,0,0-4.048,5.831,36.343,36.343,0,0,0-1.5,4.341c-.3-.142-.593-.286-.884-.43a17.58,17.58,0,0,0-4.391-1.686,11.478,11.478,0,0,0-9.97,3.57,22.685,22.685,0,0,0-4.792,8.074,1.2,1.2,0,1,0,.566.331,22.206,22.206,0,0,1,4.685-7.95c2.663-2.687,6.263-3.987,9.39-3.389a17.1,17.1,0,0,1,4.227,1.632c.317.156.637.312.961.465a1.2,1.2,0,0,0-.772.5,9.623,9.623,0,0,0-2.381-.822c-3.33-.644-7.108.813-9.853,3.808a24.468,24.468,0,0,0-4.632,8.393,1.18,1.18,0,0,0-.22-.022,1.206,1.206,0,1,0,1.205,1.2Zm34.535-7.193a1.209,1.209,0,0,0,.026.248,9.331,9.331,0,0,1-5.387,2.156h-.108c-2.869,0-5.409-1.821-7.728-3.795l-.47-.4c-.948-.811-1.913-1.627-2.93-2.346a1.174,1.174,0,0,0-.053-1.187,13.09,13.09,0,0,0,1.427.5,10.885,10.885,0,0,0,8.683-1.309,23.384,23.384,0,0,0,2.423-1.884c.647-.551,1.281-1.085,1.932-1.543a1.2,1.2,0,0,0,.771.485l1.924,8.09A1.2,1.2,0,0,0,166.551,182.864Zm-15.579-10.572a13.58,13.58,0,0,1,3.845-5.569c1.6-1.227,4.145-1.98,6.228-.893,2.04,1.065,2.954,3.458,3.572,5.821a1.2,1.2,0,0,0-.479.956c0,.025.006.047.007.071a25.551,25.551,0,0,0-2.131,1.678,22.744,22.744,0,0,1-2.354,1.833,10.233,10.233,0,0,1-8.159,1.23,14.388,14.388,0,0,1-2.031-.765A36.108,36.108,0,0,1,150.972,172.292Z" transform="translate(-127.33 -164.667)" fill="#fff"/>
            </g>
          </g>
        </g>
        <g id="Grupo_1182393" data-name="Grupo 1182393" transform="translate(8.604)">
          <path id="Trazado_1042188" data-name="Trazado 1042188" d="M317.562,275.039a2.634,2.634,0,1,1-2.634-2.634A2.634,2.634,0,0,1,317.562,275.039Z" transform="translate(-154.654 -118.053)" fill="none" stroke="#4145e7" stroke-miterlimit="10" stroke-width="1"/>
          <path id="Trazado_1042189" data-name="Trazado 1042189" d="M697.048,173.5a2.634,2.634,0,1,1-2.634-2.634A2.634,2.634,0,0,1,697.048,173.5Z" transform="translate(-306.655 -81.197)" fill="none" stroke="#4145e7" stroke-miterlimit="10" stroke-width="1"/>
          <path id="Trazado_1042190" data-name="Trazado 1042190" d="M375.005,36.432a2.634,2.634,0,1,1-2.634-2.634A2.634,2.634,0,0,1,375.005,36.432Z" transform="translate(-174.938 -33.798)" fill="none" stroke="#4145e7" stroke-miterlimit="10" stroke-width="1"/>
          <path id="Trazado_1042191" data-name="Trazado 1042191" d="M178.859,114.235a2.634,2.634,0,1,1-2.634-2.634A2.634,2.634,0,0,1,178.859,114.235Z" transform="translate(-105.676 -61.271)" fill="none" stroke="#4145e7" stroke-miterlimit="10" stroke-width="1"/>
          <path id="Trazado_1042192" data-name="Trazado 1042192" d="M73.872,293.345a2.634,2.634,0,1,1-2.634-2.634A2.634,2.634,0,0,1,73.872,293.345Z" transform="translate(-68.604 -124.517)" fill="none" stroke="#4145e7" stroke-miterlimit="10" stroke-width="1"/>
        </g>
      </g>
    </g>
  </g>
</svg>
