<svg xmlns="http://www.w3.org/2000/svg" xmlns:xlink="http://www.w3.org/1999/xlink" width="93.656" height="93.656" viewBox="0 0 93.656 93.656">
  <defs>
    <filter id="Trazado_982547" x="0" y="0" width="93.656" height="93.656" filterUnits="userSpaceOnUse">
      <feOffset dy="3" input="SourceAlpha"/>
      <feGaussianBlur stdDeviation="3" result="blur"/>
      <feFlood flood-opacity="0.161"/>
      <feComposite operator="in" in2="blur"/>
      <feComposite in="SourceGraphic"/>
    </filter>
  </defs>
  <g id="Grupo_1182654" data-name="Grupo 1182654" transform="translate(-187.701 -5949.285)">
    <g id="Grupo_1181616" data-name="Grupo 1181616" transform="translate(196.701 5955.285)">
      <g id="Grupo_1180309" data-name="Grupo 1180309">
        <g id="Grupo_1174894" data-name="Grupo 1174894">
          <g id="Grupo_1172067" data-name="Grupo 1172067" transform="translate(0 0)">
            <g id="Grupo_1164308" data-name="Grupo 1164308" transform="translate(0 0)">
              <g id="Grupo_1163948" data-name="Grupo 1163948" transform="translate(0)">
                <g id="Grupo_1158168" data-name="Grupo 1158168">
                  <g id="Grupo_1152576" data-name="Grupo 1152576">
                    <g id="Grupo_1148633" data-name="Grupo 1148633">
                      <g id="Grupo_1148525" data-name="Grupo 1148525">
                        <g transform="matrix(1, 0, 0, 1, -9, -6)" filter="url(#Trazado_982547)">
                          <g id="Trazado_982547-2" data-name="Trazado 982547" transform="translate(9 6)" fill="#e4f2f4">
                            <path d="M 37.8281364440918 74.15627288818359 C 32.92320251464844 74.15627288818359 28.16579246520996 73.19596862792969 23.68804740905762 71.30204772949219 C 19.36230278015137 69.47240447998047 15.47705841064453 66.85280609130859 12.1402702331543 63.51601409912109 C 8.803469657897949 60.17921447753906 6.1838698387146 56.29397964477539 4.354236602783203 51.96822357177734 C 2.460303068161011 47.49048233032227 1.500003099441528 42.73307037353516 1.500003099441528 37.8281364440918 C 1.500003099441528 32.92321395874023 2.460303068161011 28.16579246520996 4.354236602783203 23.68804740905762 C 6.1838698387146 19.36230278015137 8.803469657897949 15.47706985473633 12.1402702331543 12.1402702331543 C 15.47706985473633 8.803469657897949 19.36230278015137 6.1838698387146 23.68804740905762 4.354236602783203 C 28.16579246520996 2.460303068161011 32.92321395874023 1.500003099441528 37.8281364440918 1.500003099441528 C 42.73307037353516 1.500003099441528 47.49048233032227 2.460303068161011 51.96822357177734 4.354236602783203 C 56.29397964477539 6.1838698387146 60.17921447753906 8.803469657897949 63.51601409912109 12.1402702331543 C 66.85280609130859 15.47705841064453 69.47240447998047 19.36230278015137 71.30204772949219 23.68804740905762 C 73.19596862792969 28.16579246520996 74.15627288818359 32.92320251464844 74.15627288818359 37.8281364440918 C 74.15627288818359 42.73307037353516 73.19596862792969 47.49048233032227 71.30204772949219 51.96822357177734 C 69.47240447998047 56.29397964477539 66.85280609130859 60.17921447753906 63.51601409912109 63.51601409912109 C 60.17921447753906 66.85280609130859 56.29397964477539 69.47240447998047 51.96822357177734 71.30204772949219 C 47.49048233032227 73.19596862792969 42.73307037353516 74.15627288818359 37.8281364440918 74.15627288818359 Z" stroke="none"/>
                            <path d="M 37.8281364440918 3 C 33.12504959106445 3 28.56423568725586 3.920433044433594 24.27237319946289 5.735733032226562 C 20.12542343139648 7.48974609375 16.40044784545898 10.00139617919922 13.20092391967773 13.20092391967773 C 10.00139617919922 16.40044784545898 7.48974609375 20.12542343139648 5.735733032226562 24.27237319946289 C 3.920433044433594 28.56423568725586 3 33.12504959106445 3 37.8281364440918 C 3 42.53122329711914 3.920433044433594 47.09203720092773 5.735733032226562 51.3838996887207 C 7.48974609375 55.53084945678711 10.00139617919922 59.25582122802734 13.20092391967773 62.45534896850586 C 16.40044784545898 65.65487670898438 20.12542343139648 68.16652679443359 24.27237319946289 69.92053985595703 C 28.56423568725586 71.73583984375 33.12504959106445 72.65627288818359 37.8281364440918 72.65627288818359 C 42.53122329711914 72.65627288818359 47.09203720092773 71.73583984375 51.3838996887207 69.92053985595703 C 55.53084945678711 68.16652679443359 59.25582122802734 65.65487670898438 62.45534896850586 62.45534896850586 C 65.65487670898438 59.25582122802734 68.16652679443359 55.53084945678711 69.92053985595703 51.3838996887207 C 71.73583984375 47.09203720092773 72.65627288818359 42.53122329711914 72.65627288818359 37.8281364440918 C 72.65627288818359 33.12504959106445 71.73583984375 28.56423568725586 69.92053985595703 24.27237319946289 C 68.16652679443359 20.12542343139648 65.65487670898438 16.40044784545898 62.45534896850586 13.20092391967773 C 59.25582122802734 10.00139617919922 55.53084945678711 7.48974609375 51.3838996887207 5.735733032226562 C 47.09203720092773 3.920433044433594 42.53122329711914 3 37.8281364440918 3 M 37.8281364440918 0 C 58.72003555297852 0 75.65627288818359 16.93623733520508 75.65627288818359 37.8281364440918 C 75.65627288818359 58.72003555297852 58.72003555297852 75.65627288818359 37.8281364440918 75.65627288818359 C 16.93623733520508 75.65627288818359 0 58.72003555297852 0 37.8281364440918 C 0 16.93623733520508 16.93623733520508 0 37.8281364440918 0 Z" stroke="none" fill="#01899b"/>
                          </g>
                        </g>
                      </g>
                    </g>
                  </g>
                </g>
              </g>
            </g>
          </g>
        </g>
      </g>
    </g>
    <g id="recibo" transform="translate(210.701 5970.5)">
      <g id="Grupo_1182652" data-name="Grupo 1182652" transform="translate(1.713 1.713)">
        <path id="Trazado_1043106" data-name="Trazado 1043106" d="M25.994,2V9.844l-.014.1.014,0V29.708l-.014,0,.014.1V44.073l1.426-1.426,1.426,2.139,1.426-2.139L31.7,44.786l1.426-2.139,1.426,2.139,1.426-2.139L37.4,44.786l1.426-2.139,1.426,2.139,1.426-2.139,1.426,2.139,1.426-2.139,1.426,2.139,1.426-2.139,1.426,1.426V2Z" transform="translate(-8.88 -2)" fill="#e6e9ed"/>
        <path id="Trazado_1043107" data-name="Trazado 1043107" d="M24.852,2V6.279H22.713A.715.715,0,0,1,22,5.565V2.713A.715.715,0,0,1,22.713,2Z" transform="translate(-7.738 -2)" fill="#aab2bd"/>
        <path id="Trazado_1043108" data-name="Trazado 1043108" d="M60.852,2.713V5.565a.715.715,0,0,1-.713.713H58V2h2.139A.715.715,0,0,1,60.852,2.713Z" transform="translate(-18.067 -2)" fill="#aab2bd"/>
        <path id="Trazado_1043109" data-name="Trazado 1043109" d="M56.262,34.139V37.7a11.222,11.222,0,0,1-2.924,7.78A11.484,11.484,0,0,1,49.131,48.4a11.545,11.545,0,0,1-4.906-3.744A11.387,11.387,0,0,1,42,37.7V34.139l.449.15c2.346.784,4.935-.542,6.682-2.289a8.6,8.6,0,0,0,4.229,2.417,4.708,4.708,0,0,0,2.453-.128Z" transform="translate(-13.476 -10.607)" fill="#b4dd7f"/>
        <path id="Trazado_1043110" data-name="Trazado 1043110" d="M30,6H47.114V8.852H30Z" transform="translate(-10.033 -3.148)" fill="#ff826e"/>
        <path id="Trazado_1043111" data-name="Trazado 1043111" d="M10.557,41.565l-4.25,4.25A2.521,2.521,0,1,1,2.742,42.25L6.992,38Z" transform="translate(-2 -12.328)" fill="#969faa"/>
        <path id="Trazado_1043112" data-name="Trazado 1043112" d="M15.111,38.107l-2.546,2.546L9,37.088l2.139-2.139.278-.128A9.938,9.938,0,0,0,15.111,38.107Z" transform="translate(-4.008 -11.416)" fill="#fcd770"/>
        <path id="Trazado_1043113" data-name="Trazado 1043113" d="M15.4,31.847A9.981,9.981,0,0,1,19.983,13a10.282,10.282,0,0,1,1.412.1,9.984,9.984,0,0,1,0,19.767,10.283,10.283,0,0,1-1.412.1A9.927,9.927,0,0,1,15.4,31.847Z" transform="translate(-4.295 -5.156)" fill="#ffeaa7"/>
        <circle id="Elipse_13115" data-name="Elipse 13115" cx="7.5" cy="7.5" r="7.5" transform="translate(8.287 10.287)" fill="#69d6f4"/>
      </g>
      <g id="Grupo_1182653" data-name="Grupo 1182653" transform="translate(1 1)">
        <path id="Trazado_1043114" data-name="Trazado 1043114" d="M23.852,20H22.426v1.426H21V25.7h2.852v1.426H21v1.426h1.426v1.426h1.426V28.557h1.426V24.279H22.426V22.852h2.852V21.426H23.852Z" transform="translate(-6.738 -6.451)"/>
        <path id="Trazado_1043115" data-name="Trazado 1043115" d="M20.844,16a7.844,7.844,0,1,0,7.844,7.844A7.853,7.853,0,0,0,20.844,16Zm0,14.262a6.418,6.418,0,1,1,6.418-6.418A6.425,6.425,0,0,1,20.844,30.262Z" transform="translate(-4.443 -5.304)"/>
        <path id="Trazado_1043116" data-name="Trazado 1043116" d="M47.3,41.858l-1.008,1.008,2.643,2.643L55.145,39.3l-1.008-1.008-5.2,5.2Z" transform="translate(-13.995 -11.699)"/>
        <path id="Trazado_1043117" data-name="Trazado 1043117" d="M43.786,6.7a1.428,1.428,0,0,0,1.426-1.426V2.426A1.428,1.428,0,0,0,43.786,1h-27.1a1.428,1.428,0,0,0-1.426,1.426V5.279A1.428,1.428,0,0,0,16.688,6.7h1.426V8.88c-.237-.016-.472-.036-.713-.036a10.676,10.676,0,0,0-9.234,16.07l-6.22,6.22a3.234,3.234,0,1,0,4.574,4.574l6.446-6.445a10.618,10.618,0,0,0,4.435.975c.241,0,.476-.021.713-.036V45.507l2.029-2.028,1.537,2.305,1.426-2.139,1.426,2.139,1.426-2.139,1.426,2.139,1.426-2.139,1.426,2.139,1.426-2.139,1.426,2.139,1.426-2.139,1.426,2.139,1.426-2.139,1.426,2.139,1.537-2.305,2.029,2.028V36.775a11.961,11.961,0,0,0,2.852-7.964V24.256l-1.391.463a3.9,3.9,0,0,1-1.462.184V6.7Zm0-4.279V5.279H42.36V2.426Zm-27.1,2.852V2.426h1.426V5.279ZM5.512,34.7a1.808,1.808,0,0,1-2.557-2.557L6.7,28.393,9.262,30.95Zm4.758-4.757L7.713,27.385l1.269-1.269a10.763,10.763,0,0,0,2.678,2.435Zm-2.139-10.4a9.27,9.27,0,1,1,9.27,9.27,9.281,9.281,0,0,1-9.27-9.27Zm35.655,6.668v2.6a10.57,10.57,0,0,1-6.418,9.924,10.57,10.57,0,0,1-6.418-9.924v-2.6c2.343.533,4.738-.649,6.418-2.126C39.048,25.559,41.44,26.742,43.786,26.209ZM37.872,22.6l-.5-.5-.5.5c-1.487,1.486-3.829,2.822-5.95,2.117l-1.39-.463v4.555A11.981,11.981,0,0,0,37.1,40.17l.265.106.265-.106a12.315,12.315,0,0,0,3.3-1.983v3.878l-.824-.824-1.316,1.973-1.426-2.139-1.426,2.139-1.426-2.139-1.426,2.139-1.426-2.139-1.426,2.139-1.426-2.139-1.426,2.139-1.426-2.139-1.426,2.139-1.426-2.139L21.68,43.213,20.364,41.24l-.824.824V30.022a10.7,10.7,0,0,0,0-20.962V2.426H40.933v22.18a8.539,8.539,0,0,1-3.061-2Z" transform="translate(-1 -1)"/>
        <path id="Trazado_1043118" data-name="Trazado 1043118" d="M29,5V9.279H47.541V5ZM46.114,7.852H30.426V6.426H46.114Z" transform="translate(-9.033 -2.148)"/>
        <path id="Trazado_1043119" data-name="Trazado 1043119" d="M41,14h9.983v1.426H41Z" transform="translate(-12.476 -4.73)"/>
        <path id="Trazado_1043120" data-name="Trazado 1043120" d="M41,18h4.279v1.426H41Z" transform="translate(-12.476 -5.877)"/>
        <path id="Trazado_1043121" data-name="Trazado 1043121" d="M41,22h4.279v1.426H41Z" transform="translate(-12.476 -7.025)"/>
        <path id="Trazado_1043122" data-name="Trazado 1043122" d="M49,18h4.279v1.426H49Z" transform="translate(-14.771 -5.877)"/>
        <path id="Trazado_1043123" data-name="Trazado 1043123" d="M49,22h4.279v1.426H49Z" transform="translate(-14.771 -7.025)"/>
        <path id="Trazado_1043124" data-name="Trazado 1043124" d="M41,26h9.983v1.426H41Z" transform="translate(-12.476 -8.173)"/>
        <path id="Trazado_1043125" data-name="Trazado 1043125" d="M29,43h2.852v1.426H29Z" transform="translate(-9.033 -13.05)"/>
        <path id="Trazado_1043126" data-name="Trazado 1043126" d="M35,43h2.852v1.426H35Z" transform="translate(-10.755 -13.05)"/>
        <path id="Trazado_1043127" data-name="Trazado 1043127" d="M29,47h2.852v1.426H29Z" transform="translate(-9.033 -14.198)"/>
        <path id="Trazado_1043128" data-name="Trazado 1043128" d="M35,47h2.852v1.426H35Z" transform="translate(-10.755 -14.198)"/>
        <path id="Trazado_1043129" data-name="Trazado 1043129" d="M29,51h7.131v1.426H29Z" transform="translate(-9.033 -15.345)"/>
      </g>
    </g>
  </g>
</svg>
