<svg xmlns="http://www.w3.org/2000/svg" width="669.621" height="39.423" viewBox="0 0 669.621 39.423">
  <g id="Grupo_1182817" data-name="Grupo 1182817" transform="translate(-252 -4829.797)">
    <path id="Trazado_1043529" data-name="Trazado 1043529" d="M11.646-10.512q-.255-.167-.584-.343a5.345,5.345,0,0,0-.725-.316A5.725,5.725,0,0,0,9.47-11.4a5.476,5.476,0,0,0-1.006-.088,5.845,5.845,0,0,0-2.377.466,5.219,5.219,0,0,0-1.8,1.283,5.758,5.758,0,0,0-1.138,1.92,6.95,6.95,0,0,0-.4,2.386,5.439,5.439,0,0,0,.29,1.85,3.707,3.707,0,0,0,.826,1.354A3.482,3.482,0,0,0,5.15-1.4,4.657,4.657,0,0,0,6.8-1.116a7.707,7.707,0,0,0,1.055-.066,6.107,6.107,0,0,0,.879-.185,5.671,5.671,0,0,0,.76-.281q.356-.163.69-.347L9.844-.448a7.264,7.264,0,0,1-1.525.5A8.872,8.872,0,0,1,6.5.22a5.763,5.763,0,0,1-2.175-.4A4.7,4.7,0,0,1,2.65-1.3,5.033,5.033,0,0,1,1.582-3.041,6.483,6.483,0,0,1,1.2-5.309a8.492,8.492,0,0,1,.523-3.032,6.854,6.854,0,0,1,1.485-2.373,6.737,6.737,0,0,1,2.312-1.547,7.812,7.812,0,0,1,2.993-.554,7.425,7.425,0,0,1,1.991.242,7.813,7.813,0,0,1,1.463.549Zm8.808,4.843A7.491,7.491,0,0,1,20.116-3.4a5.8,5.8,0,0,1-.976,1.876A4.714,4.714,0,0,1,17.593-.25a4.4,4.4,0,0,1-2.052.47,3.747,3.747,0,0,1-1.393-.246,2.9,2.9,0,0,1-1.055-.708,3.134,3.134,0,0,1-.668-1.116,4.4,4.4,0,0,1-.233-1.481,7.334,7.334,0,0,1,.356-2.316,5.848,5.848,0,0,1,1-1.872A4.681,4.681,0,0,1,15.1-8.767a4.371,4.371,0,0,1,1.991-.453,3.721,3.721,0,0,1,1.384.246,2.94,2.94,0,0,1,1.059.708,3.2,3.2,0,0,1,.681,1.116A4.255,4.255,0,0,1,20.454-5.669Zm-1.477.07a3.36,3.36,0,0,0-.141-1.015,2.159,2.159,0,0,0-.4-.747,1.716,1.716,0,0,0-.615-.466,1.945,1.945,0,0,0-.809-.163,2.556,2.556,0,0,0-1.4.4,3.536,3.536,0,0,0-1.055,1.042A5.164,5.164,0,0,0,13.9-5.084,6.143,6.143,0,0,0,13.669-3.4a3.362,3.362,0,0,0,.136.989,2.245,2.245,0,0,0,.387.756,1.67,1.67,0,0,0,.615.479,1.952,1.952,0,0,0,.822.167A2.593,2.593,0,0,0,17.035-1.4,3.487,3.487,0,0,0,18.09-2.439a5.069,5.069,0,0,0,.659-1.472A6.3,6.3,0,0,0,18.977-5.6Zm8.536-1.819a3.746,3.746,0,0,0-.888-.413,3.2,3.2,0,0,0-.984-.158,1.941,1.941,0,0,0-1.279.378,1.24,1.24,0,0,0-.453,1,1.255,1.255,0,0,0,.083.466,1.407,1.407,0,0,0,.246.4,2.234,2.234,0,0,0,.413.365q.25.176.576.378a4.531,4.531,0,0,1,1.419,1.173,2.262,2.262,0,0,1,.435,1.358,2.74,2.74,0,0,1-.189,1,2.247,2.247,0,0,1-.6.861,3.088,3.088,0,0,1-1.068.6,4.873,4.873,0,0,1-1.6.229,5.285,5.285,0,0,1-.58-.035,6.145,6.145,0,0,1-.637-.105A5.559,5.559,0,0,1,21.8-.092a2.708,2.708,0,0,1-.514-.233l.29-1.371a3.028,3.028,0,0,0,.435.246,4.5,4.5,0,0,0,.563.22,5.257,5.257,0,0,0,.633.158,3.562,3.562,0,0,0,.655.062,2.063,2.063,0,0,0,1.314-.352,1.185,1.185,0,0,0,.435-.976,1.3,1.3,0,0,0-.066-.422,1.184,1.184,0,0,0-.233-.387,2.585,2.585,0,0,0-.439-.391q-.272-.2-.686-.444A4.44,4.44,0,0,1,22.86-5.12a2.241,2.241,0,0,1-.426-1.34,2.736,2.736,0,0,1,.2-1.042,2.52,2.52,0,0,1,.6-.879,2.929,2.929,0,0,1,1.006-.611,4,4,0,0,1,1.415-.229,5.645,5.645,0,0,1,1.2.123,4.26,4.26,0,0,1,.962.316Zm6.8-.36H32.05L31.04-3.006q-.053.272-.105.589a3.254,3.254,0,0,0-.053.51.888.888,0,0,0,.2.646.86.86,0,0,0,.628.2A1.382,1.382,0,0,0,31.98-1.1q.167-.035.343-.088t.347-.119l.3-.119L32.7-.158a4.262,4.262,0,0,1-.7.224,3.237,3.237,0,0,1-.743.092,2.513,2.513,0,0,1-.853-.127,1.461,1.461,0,0,1-.576-.365,1.413,1.413,0,0,1-.325-.576,2.653,2.653,0,0,1-.1-.76,4.261,4.261,0,0,1,.048-.593,6.15,6.15,0,0,1,.119-.62l1.037-4.9H29.115L29.387-9h1.477l.466-2.2a2.709,2.709,0,0,1,.268-.083q.233-.066.51-.149l.51-.154.259-.079L32.323-9H34.59Zm8.7,2.109A7.491,7.491,0,0,1,42.682-3.4a5.8,5.8,0,0,1-.976,1.876A4.714,4.714,0,0,1,40.16-.25a4.4,4.4,0,0,1-2.052.47,3.747,3.747,0,0,1-1.393-.246A2.9,2.9,0,0,1,35.66-.734a3.134,3.134,0,0,1-.668-1.116,4.4,4.4,0,0,1-.233-1.481,7.334,7.334,0,0,1,.356-2.316,5.848,5.848,0,0,1,1-1.872,4.681,4.681,0,0,1,1.547-1.248,4.371,4.371,0,0,1,1.991-.453,3.721,3.721,0,0,1,1.384.246,2.94,2.94,0,0,1,1.059.708,3.2,3.2,0,0,1,.681,1.116A4.255,4.255,0,0,1,43.021-5.669Zm-1.477.07A3.36,3.36,0,0,0,41.4-6.614a2.159,2.159,0,0,0-.4-.747,1.716,1.716,0,0,0-.615-.466,1.945,1.945,0,0,0-.809-.163,2.556,2.556,0,0,0-1.4.4,3.536,3.536,0,0,0-1.055,1.042,5.164,5.164,0,0,0-.664,1.468A6.143,6.143,0,0,0,36.236-3.4a3.362,3.362,0,0,0,.136.989,2.245,2.245,0,0,0,.387.756,1.67,1.67,0,0,0,.615.479,1.952,1.952,0,0,0,.822.167A2.593,2.593,0,0,0,39.6-1.4a3.487,3.487,0,0,0,1.055-1.037,5.069,5.069,0,0,0,.659-1.472A6.3,6.3,0,0,0,41.544-5.6Zm15.033,2.83q-.062.281-.119.677t-.1.8q-.044.4-.075.751T56.252,0H54.758q0-.149.022-.4t.053-.523q.031-.272.066-.523t.062-.409h-.035a8.877,8.877,0,0,1-.633.9,3.663,3.663,0,0,1-.668.65,2.684,2.684,0,0,1-.747.391,2.738,2.738,0,0,1-.87.132A2.688,2.688,0,0,1,50.9,0a2.256,2.256,0,0,1-.839-.646A2.977,2.977,0,0,1,49.528-1.7a5.141,5.141,0,0,1-.185-1.446A7.115,7.115,0,0,1,49.48-4.5,6.931,6.931,0,0,1,49.9-5.88a6.467,6.467,0,0,1,.725-1.283,5,5,0,0,1,1.046-1.063,4.96,4.96,0,0,1,1.389-.725,5.372,5.372,0,0,1,1.749-.268,5.932,5.932,0,0,1,.914.066q.422.066.729.136l.914-4.307h1.424ZM56.2-7.778a5.662,5.662,0,0,0-.7-.154,5.029,5.029,0,0,0-.778-.057,3.566,3.566,0,0,0-1.349.237,3.4,3.4,0,0,0-1.02.633,3.788,3.788,0,0,0-.729.9,5.676,5.676,0,0,0-.475,1.037A5.9,5.9,0,0,0,50.9-4.135a6.508,6.508,0,0,0-.075.927,4.443,4.443,0,0,0,.083.9,2,2,0,0,0,.272.694,1.3,1.3,0,0,0,.488.448,1.522,1.522,0,0,0,.721.158,1.865,1.865,0,0,0,.822-.185,2.83,2.83,0,0,0,.716-.5,4.136,4.136,0,0,0,.606-.729,7.077,7.077,0,0,0,.492-.879A7.81,7.81,0,0,0,55.4-4.25q.154-.479.25-.918Zm10.637.888a2.679,2.679,0,0,1-.316,1.3,2.622,2.622,0,0,1-1.046,1,6.282,6.282,0,0,1-1.925.646,16.513,16.513,0,0,1-2.953.237,1.129,1.129,0,0,0-.018.2v.176a2.989,2.989,0,0,0,.132.9,2.023,2.023,0,0,0,.409.738,1.928,1.928,0,0,0,.712.5,2.633,2.633,0,0,0,1.033.185,4.383,4.383,0,0,0,1.332-.233,5.723,5.723,0,0,0,1.384-.664L65.307-.483a5.713,5.713,0,0,1-1.151.492A4.949,4.949,0,0,1,62.661.22a4.06,4.06,0,0,1-1.674-.308,2.948,2.948,0,0,1-1.1-.822,3.2,3.2,0,0,1-.6-1.187A5.306,5.306,0,0,1,59.1-3.507a6.525,6.525,0,0,1,.176-1.525,6.209,6.209,0,0,1,.5-1.367,5.792,5.792,0,0,1,.769-1.156,5,5,0,0,1,.993-.892A4.6,4.6,0,0,1,62.7-9.018,4.166,4.166,0,0,1,64-9.22a3.734,3.734,0,0,1,1.226.185,2.562,2.562,0,0,1,.888.505,2.155,2.155,0,0,1,.541.743A2.212,2.212,0,0,1,66.836-6.891Zm-1.468.07a1.016,1.016,0,0,0-.409-.861,1.761,1.761,0,0,0-1.085-.308,2.434,2.434,0,0,0-1.037.233,3.356,3.356,0,0,0-.923.642,4,4,0,0,0-.729.976,4.543,4.543,0,0,0-.448,1.226,15.192,15.192,0,0,0,2.136-.127A5.541,5.541,0,0,0,64.3-5.414a1.926,1.926,0,0,0,.809-.6A1.348,1.348,0,0,0,65.368-6.82ZM80.085-2.883q-.07.334-.136.751t-.114.826q-.048.409-.079.76T79.724,0H78.23q.009-.176.026-.422t.048-.51q.031-.264.062-.519t.066-.439H78.4q-.272.431-.554.813a3.913,3.913,0,0,1-.624.672,2.732,2.732,0,0,1-.765.457,2.691,2.691,0,0,1-.993.167A2.684,2.684,0,0,1,74.385.009a2.256,2.256,0,0,1-.839-.628A2.9,2.9,0,0,1,73-1.666a5.1,5.1,0,0,1-.189-1.463,7.333,7.333,0,0,1,.105-1.16,7.1,7.1,0,0,1,.356-1.327,6.757,6.757,0,0,1,.668-1.323,5.023,5.023,0,0,1,1.037-1.156,4.947,4.947,0,0,1,1.463-.817A5.683,5.683,0,0,1,78.4-9.22a10.373,10.373,0,0,1,1.45.105q.747.105,1.485.255Zm-.413-4.931q-.308-.07-.721-.123a6.128,6.128,0,0,0-.773-.053,3.508,3.508,0,0,0-1.349.242,3.462,3.462,0,0,0-1.015.633,3.727,3.727,0,0,0-.725.9,5.586,5.586,0,0,0-.47,1.042,6.13,6.13,0,0,0-.25,1.05,6.649,6.649,0,0,0-.075.94,4.212,4.212,0,0,0,.088.9,1.967,1.967,0,0,0,.277.681,1.3,1.3,0,0,0,.483.435,1.49,1.49,0,0,0,.7.154,1.9,1.9,0,0,0,.822-.18,2.849,2.849,0,0,0,.716-.488,4,4,0,0,0,.606-.712,7,7,0,0,0,.492-.857,7.329,7.329,0,0,0,.374-.923q.154-.47.25-.91ZM89.807-2.769q-.062.281-.119.677t-.1.8q-.044.4-.075.751T89.482,0H87.988q0-.149.022-.4t.053-.523q.031-.272.066-.523t.062-.409h-.035a8.877,8.877,0,0,1-.633.9,3.663,3.663,0,0,1-.668.65,2.684,2.684,0,0,1-.747.391,2.738,2.738,0,0,1-.87.132A2.688,2.688,0,0,1,84.129,0a2.256,2.256,0,0,1-.839-.646A2.977,2.977,0,0,1,82.758-1.7a5.141,5.141,0,0,1-.185-1.446A7.115,7.115,0,0,1,82.71-4.5a6.931,6.931,0,0,1,.422-1.38,6.467,6.467,0,0,1,.725-1.283A5,5,0,0,1,84.9-8.227a4.96,4.96,0,0,1,1.389-.725A5.372,5.372,0,0,1,88.04-9.22a5.932,5.932,0,0,1,.914.066q.422.066.729.136l.914-4.307h1.424Zm-.378-5.01a5.662,5.662,0,0,0-.7-.154,5.029,5.029,0,0,0-.778-.057,3.566,3.566,0,0,0-1.349.237,3.4,3.4,0,0,0-1.02.633,3.788,3.788,0,0,0-.729.9,5.676,5.676,0,0,0-.475,1.037,5.9,5.9,0,0,0-.255,1.046,6.508,6.508,0,0,0-.075.927,4.443,4.443,0,0,0,.083.9,2,2,0,0,0,.272.694,1.3,1.3,0,0,0,.488.448,1.522,1.522,0,0,0,.721.158,1.865,1.865,0,0,0,.822-.185,2.83,2.83,0,0,0,.716-.5,4.136,4.136,0,0,0,.606-.729,7.077,7.077,0,0,0,.492-.879,7.81,7.81,0,0,0,.374-.945q.154-.479.25-.918ZM98.106,4.175H96.647L97.534.018q.079-.431.189-.905t.207-.844h-.018a7.248,7.248,0,0,1-.62.822,3.876,3.876,0,0,1-.677.615,2.869,2.869,0,0,1-.756.382,2.749,2.749,0,0,1-.866.132A2.719,2.719,0,0,1,93.883,0a2.193,2.193,0,0,1-.839-.65,3.072,3.072,0,0,1-.527-1.055,5.094,5.094,0,0,1-.185-1.441A7.308,7.308,0,0,1,92.45-4.4a6.913,6.913,0,0,1,.387-1.354,6.632,6.632,0,0,1,.694-1.3,4.885,4.885,0,0,1,1.042-1.1,5.073,5.073,0,0,1,1.433-.769,5.525,5.525,0,0,1,1.854-.29q.475,0,.918.044t.826.105q.382.062.7.136t.545.136ZM99.187-7.778q-.308-.079-.668-.145a4.628,4.628,0,0,0-.826-.066,3.482,3.482,0,0,0-1.327.237,3.466,3.466,0,0,0-1.015.628,3.744,3.744,0,0,0-.729.892A5.55,5.55,0,0,0,94.146-5.2a6.172,6.172,0,0,0-.259,1.05,6.287,6.287,0,0,0-.079.94,4.581,4.581,0,0,0,.079.879,2,2,0,0,0,.264.694,1.339,1.339,0,0,0,.483.457,1.5,1.5,0,0,0,.738.167,1.915,1.915,0,0,0,.853-.193,2.87,2.87,0,0,0,.729-.514,4.279,4.279,0,0,0,.606-.734,6.381,6.381,0,0,0,.479-.866,8.4,8.4,0,0,0,.352-.9,7.823,7.823,0,0,0,.224-.835Zm10.39,5.221q-.079.343-.145.712l-.127.712q-.062.343-.105.642t-.07.492h-1.406q.044-.343.1-.716t.11-.69q.062-.369.114-.721h-.035a7.432,7.432,0,0,1-.681.91,5.1,5.1,0,0,1-.809.747,3.84,3.84,0,0,1-.923.505,2.845,2.845,0,0,1-1.015.185A2.639,2.639,0,0,1,103.57.04a1.959,1.959,0,0,1-.725-.505,2.122,2.122,0,0,1-.435-.782,3.361,3.361,0,0,1-.145-1.02,2.476,2.476,0,0,1,.035-.343q.035-.229.079-.492t.1-.523q.057-.259.092-.444L103.618-9h1.459l-1.116,5.273q-.035.141-.07.325t-.066.369q-.031.185-.048.338a2.261,2.261,0,0,0-.018.242,1.606,1.606,0,0,0,.321,1.05,1.172,1.172,0,0,0,.962.391,2.029,2.029,0,0,0,.773-.158,3.519,3.519,0,0,0,.751-.426,4.728,4.728,0,0,0,.69-.624,6.086,6.086,0,0,0,.589-.756,5.488,5.488,0,0,0,.448-.822,4.532,4.532,0,0,0,.272-.809L109.507-9h1.45Zm5.53,2.522a3.368,3.368,0,0,1-.5.114,3.5,3.5,0,0,1-.549.044,1.793,1.793,0,0,1-1.327-.444,1.618,1.618,0,0,1-.439-1.191,3.631,3.631,0,0,1,.044-.519q.044-.3.141-.738L113.789-9h1.459L113.93-2.733q-.079.369-.11.571a2.338,2.338,0,0,0-.031.343.724.724,0,0,0,.2.549.886.886,0,0,0,.628.189,2.662,2.662,0,0,0,.4-.026,1.772,1.772,0,0,0,.321-.079Zm1.028-12.173a.946.946,0,0,1-.268.677.88.88,0,0,1-.664.281.934.934,0,0,1-.672-.277.911.911,0,0,1-.286-.681.843.843,0,0,1,.286-.659.977.977,0,0,1,.672-.255.921.921,0,0,1,.659.259A.865.865,0,0,1,116.136-12.208Zm6.348,4.79a3.746,3.746,0,0,0-.888-.413,3.2,3.2,0,0,0-.984-.158,1.941,1.941,0,0,0-1.279.378,1.24,1.24,0,0,0-.453,1,1.255,1.255,0,0,0,.083.466,1.407,1.407,0,0,0,.246.4,2.234,2.234,0,0,0,.413.365q.25.176.576.378a4.531,4.531,0,0,1,1.419,1.173,2.262,2.262,0,0,1,.435,1.358,2.74,2.74,0,0,1-.189,1,2.247,2.247,0,0,1-.6.861,3.088,3.088,0,0,1-1.068.6,4.873,4.873,0,0,1-1.6.229,5.285,5.285,0,0,1-.58-.035,6.145,6.145,0,0,1-.637-.105,5.559,5.559,0,0,1-.615-.171,2.708,2.708,0,0,1-.514-.233l.29-1.371a3.028,3.028,0,0,0,.435.246,4.5,4.5,0,0,0,.563.22,5.257,5.257,0,0,0,.633.158,3.562,3.562,0,0,0,.655.062,2.063,2.063,0,0,0,1.314-.352,1.185,1.185,0,0,0,.435-.976,1.3,1.3,0,0,0-.066-.422,1.184,1.184,0,0,0-.233-.387,2.585,2.585,0,0,0-.439-.391q-.272-.2-.686-.444a4.44,4.44,0,0,1-1.323-1.138,2.241,2.241,0,0,1-.426-1.34,2.736,2.736,0,0,1,.2-1.042,2.52,2.52,0,0,1,.6-.879,2.929,2.929,0,0,1,1.006-.611,4,4,0,0,1,1.415-.229,5.645,5.645,0,0,1,1.2.123,4.26,4.26,0,0,1,.962.316Zm4.4,7.383a3.368,3.368,0,0,1-.5.114,3.5,3.5,0,0,1-.549.044,1.793,1.793,0,0,1-1.327-.444,1.618,1.618,0,0,1-.439-1.191,3.631,3.631,0,0,1,.044-.519q.044-.3.141-.738L125.561-9h1.459L125.7-2.733q-.079.369-.11.571a2.338,2.338,0,0,0-.031.343.724.724,0,0,0,.2.549.886.886,0,0,0,.628.189,2.662,2.662,0,0,0,.4-.026,1.772,1.772,0,0,0,.321-.079Zm1.028-12.173a.946.946,0,0,1-.268.677.88.88,0,0,1-.664.281.934.934,0,0,1-.672-.277.911.911,0,0,1-.286-.681.843.843,0,0,1,.286-.659.977.977,0,0,1,.672-.255.921.921,0,0,1,.659.259A.865.865,0,0,1,127.908-12.208Zm7.569,4.992a3.309,3.309,0,0,0-.892-.549,2.9,2.9,0,0,0-1.156-.224,2.73,2.73,0,0,0-1.094.211,3.02,3.02,0,0,0-.866.563,3.648,3.648,0,0,0-.65.809,5.389,5.389,0,0,0-.448.949,5.842,5.842,0,0,0-.259.98,5.408,5.408,0,0,0-.083.91,2.871,2.871,0,0,0,.554,1.907,1.881,1.881,0,0,0,1.512.65,3.327,3.327,0,0,0,1.2-.242,5.8,5.8,0,0,0,1.178-.62l-.308,1.441a6.169,6.169,0,0,1-1.138.479,4.124,4.124,0,0,1-1.2.171,3.408,3.408,0,0,1-1.437-.281,2.816,2.816,0,0,1-1.015-.773A3.314,3.314,0,0,1,128.771-2a5.031,5.031,0,0,1-.2-1.455,7.1,7.1,0,0,1,.149-1.455,6.263,6.263,0,0,1,.444-1.354,5.87,5.87,0,0,1,.725-1.182,4.675,4.675,0,0,1,.989-.936A4.693,4.693,0,0,1,132.12-9,4.754,4.754,0,0,1,133.6-9.22a4.738,4.738,0,0,1,.721.053,4.277,4.277,0,0,1,.624.141,4.2,4.2,0,0,1,.5.189,2.059,2.059,0,0,1,.352.2ZM139.39-.035a3.368,3.368,0,0,1-.5.114,3.5,3.5,0,0,1-.549.044,1.793,1.793,0,0,1-1.327-.444,1.618,1.618,0,0,1-.439-1.191,3.631,3.631,0,0,1,.044-.519q.044-.3.141-.738L138.072-9h1.459l-1.318,6.267q-.079.369-.11.571a2.338,2.338,0,0,0-.031.343.724.724,0,0,0,.2.549.886.886,0,0,0,.628.189,2.662,2.662,0,0,0,.4-.026,1.772,1.772,0,0,0,.321-.079Zm1.028-12.173a.946.946,0,0,1-.268.677.88.88,0,0,1-.664.281.934.934,0,0,1-.672-.277.911.911,0,0,1-.286-.681.843.843,0,0,1,.286-.659.977.977,0,0,1,.672-.255.921.921,0,0,1,.659.259A.865.865,0,0,1,140.418-12.208Zm8.923,6.539A7.491,7.491,0,0,1,149-3.4a5.8,5.8,0,0,1-.976,1.876A4.714,4.714,0,0,1,146.48-.25a4.4,4.4,0,0,1-2.052.47,3.747,3.747,0,0,1-1.393-.246,2.9,2.9,0,0,1-1.055-.708,3.134,3.134,0,0,1-.668-1.116,4.4,4.4,0,0,1-.233-1.481,7.334,7.334,0,0,1,.356-2.316,5.848,5.848,0,0,1,1-1.872,4.681,4.681,0,0,1,1.547-1.248,4.371,4.371,0,0,1,1.991-.453,3.721,3.721,0,0,1,1.384.246,2.94,2.94,0,0,1,1.059.708A3.2,3.2,0,0,1,149.1-7.15,4.255,4.255,0,0,1,149.341-5.669Zm-1.477.07a3.36,3.36,0,0,0-.141-1.015,2.159,2.159,0,0,0-.4-.747,1.716,1.716,0,0,0-.615-.466,1.945,1.945,0,0,0-.809-.163,2.556,2.556,0,0,0-1.4.4,3.536,3.536,0,0,0-1.055,1.042,5.164,5.164,0,0,0-.664,1.468,6.143,6.143,0,0,0-.233,1.683,3.362,3.362,0,0,0,.136.989,2.245,2.245,0,0,0,.387.756,1.67,1.67,0,0,0,.615.479,1.952,1.952,0,0,0,.822.167,2.593,2.593,0,0,0,1.406-.391,3.487,3.487,0,0,0,1.055-1.037,5.069,5.069,0,0,0,.659-1.472A6.3,6.3,0,0,0,147.864-5.6Zm-1.854-5.115h-1.081l2.54-2.874h1.415ZM159.222-6.75a2.864,2.864,0,0,1-.031.36q-.031.229-.079.492t-.1.523q-.048.259-.092.444L157.877,0h-1.459l1.1-5.273q.035-.141.07-.325t.062-.369q.026-.185.044-.338a2.261,2.261,0,0,0,.018-.242,1.6,1.6,0,0,0-.321-1.055,1.168,1.168,0,0,0-.954-.387,2.218,2.218,0,0,0-1.151.343,4.737,4.737,0,0,0-1.055.87,5.934,5.934,0,0,0-.831,1.16,4.445,4.445,0,0,0-.47,1.222L151.988,0h-1.459l1.389-6.425q.07-.343.141-.716t.132-.721q.062-.347.105-.646t.07-.492h1.406q-.044.343-.105.716t-.105.69q-.053.369-.114.721h.035a7.433,7.433,0,0,1,.681-.91,5.1,5.1,0,0,1,.809-.747,3.84,3.84,0,0,1,.923-.505,2.869,2.869,0,0,1,1.024-.185,2.657,2.657,0,0,1,1.028.18,1.926,1.926,0,0,1,.716.505,2.058,2.058,0,0,1,.422.782A3.5,3.5,0,0,1,159.222-6.75Zm6.884,2.3H161.3l.255-1.134h4.808ZM172.585,0h-1.477l-1.89-12.6h1.529l1.389,9.87a4.7,4.7,0,0,1,.062.558,3.213,3.213,0,0,1-.009.541h.035q.044-.114.1-.255t.132-.286l.149-.29q.075-.145.136-.268l5.634-9.87h1.7Zm14.02-2.883q-.07.334-.136.751t-.114.826q-.048.409-.079.76T186.245,0h-1.494q.009-.176.026-.422t.048-.51q.031-.264.062-.519t.066-.439h-.035q-.272.431-.554.813a3.913,3.913,0,0,1-.624.672,2.732,2.732,0,0,1-.765.457,2.691,2.691,0,0,1-.993.167,2.684,2.684,0,0,1-1.077-.211,2.256,2.256,0,0,1-.839-.628,2.9,2.9,0,0,1-.541-1.046,5.1,5.1,0,0,1-.189-1.463,7.333,7.333,0,0,1,.105-1.16,7.1,7.1,0,0,1,.356-1.327,6.757,6.757,0,0,1,.668-1.323A5.023,5.023,0,0,1,181.5-8.095a4.947,4.947,0,0,1,1.463-.817,5.683,5.683,0,0,1,1.951-.308,10.373,10.373,0,0,1,1.45.105q.747.105,1.485.255Zm-.413-4.931q-.308-.07-.721-.123a6.128,6.128,0,0,0-.773-.053,3.508,3.508,0,0,0-1.349.242,3.462,3.462,0,0,0-1.015.633,3.727,3.727,0,0,0-.725.9,5.586,5.586,0,0,0-.47,1.042,6.13,6.13,0,0,0-.25,1.05,6.649,6.649,0,0,0-.075.94,4.212,4.212,0,0,0,.088.9,1.967,1.967,0,0,0,.277.681,1.3,1.3,0,0,0,.483.435,1.49,1.49,0,0,0,.7.154,1.9,1.9,0,0,0,.822-.18,2.849,2.849,0,0,0,.716-.488,4,4,0,0,0,.606-.712A7,7,0,0,0,185-3.248a7.329,7.329,0,0,0,.374-.923q.154-.47.25-.91Zm5.873,7.778a3.368,3.368,0,0,1-.5.114,3.5,3.5,0,0,1-.549.044,1.793,1.793,0,0,1-1.327-.444,1.618,1.618,0,0,1-.439-1.191,3.631,3.631,0,0,1,.044-.519q.044-.3.141-.738l2.25-10.564h1.459l-2.259,10.6q-.079.369-.11.571a2.338,2.338,0,0,0-.031.343.724.724,0,0,0,.2.549.886.886,0,0,0,.628.189,2.662,2.662,0,0,0,.4-.026,1.772,1.772,0,0,0,.321-.079Zm9.951-5.634a7.491,7.491,0,0,1-.338,2.268,5.8,5.8,0,0,1-.976,1.876A4.714,4.714,0,0,1,199.155-.25,4.4,4.4,0,0,1,197.1.22a3.747,3.747,0,0,1-1.393-.246,2.9,2.9,0,0,1-1.055-.708,3.134,3.134,0,0,1-.668-1.116,4.4,4.4,0,0,1-.233-1.481,7.334,7.334,0,0,1,.356-2.316,5.848,5.848,0,0,1,1-1.872,4.681,4.681,0,0,1,1.547-1.248,4.371,4.371,0,0,1,1.991-.453,3.721,3.721,0,0,1,1.384.246,2.94,2.94,0,0,1,1.059.708,3.2,3.2,0,0,1,.681,1.116A4.255,4.255,0,0,1,202.016-5.669Zm-1.477.07a3.36,3.36,0,0,0-.141-1.015,2.159,2.159,0,0,0-.4-.747,1.716,1.716,0,0,0-.615-.466,1.945,1.945,0,0,0-.809-.163,2.556,2.556,0,0,0-1.4.4,3.536,3.536,0,0,0-1.055,1.042,5.164,5.164,0,0,0-.664,1.468,6.143,6.143,0,0,0-.233,1.683,3.362,3.362,0,0,0,.136.989,2.245,2.245,0,0,0,.387.756,1.67,1.67,0,0,0,.615.479,1.952,1.952,0,0,0,.822.167A2.593,2.593,0,0,0,198.6-1.4a3.487,3.487,0,0,0,1.055-1.037,5.069,5.069,0,0,0,.659-1.472A6.3,6.3,0,0,0,200.539-5.6Zm8.9-1.872H209.4a2.6,2.6,0,0,0-.461-.207,1.691,1.691,0,0,0-.567-.1,1.664,1.664,0,0,0-.976.33,3.587,3.587,0,0,0-.848.87,6.243,6.243,0,0,0-.668,1.235,8.434,8.434,0,0,0-.444,1.424L204.593,0h-1.441l1.266-5.977q.079-.369.158-.773t.145-.809q.066-.4.119-.773T204.918-9h1.424q-.026.264-.062.558t-.07.571q-.035.277-.07.5t-.053.347h.035a9.7,9.7,0,0,1,.571-.905,4.182,4.182,0,0,1,.611-.69,2.589,2.589,0,0,1,.681-.444,1.924,1.924,0,0,1,.782-.158,2.481,2.481,0,0,1,.488.048q.242.048.435.1Zm11.341,0h-.035a2.6,2.6,0,0,0-.461-.207,1.691,1.691,0,0,0-.567-.1,1.664,1.664,0,0,0-.976.33,3.587,3.587,0,0,0-.848.87,6.243,6.243,0,0,0-.668,1.235,8.434,8.434,0,0,0-.444,1.424L215.934,0h-1.441l1.266-5.977q.079-.369.158-.773t.145-.809q.066-.4.119-.773T216.26-9h1.424q-.026.264-.062.558t-.07.571q-.035.277-.07.5t-.053.347h.035a9.7,9.7,0,0,1,.571-.905,4.182,4.182,0,0,1,.611-.69,2.589,2.589,0,0,1,.681-.444,1.924,1.924,0,0,1,.782-.158,2.481,2.481,0,0,1,.488.048q.242.048.435.1Zm8.079.58a2.679,2.679,0,0,1-.316,1.3,2.622,2.622,0,0,1-1.046,1,6.282,6.282,0,0,1-1.925.646,16.513,16.513,0,0,1-2.953.237,1.129,1.129,0,0,0-.018.2v.176a2.989,2.989,0,0,0,.132.9,2.023,2.023,0,0,0,.409.738,1.928,1.928,0,0,0,.712.5,2.633,2.633,0,0,0,1.033.185,4.383,4.383,0,0,0,1.332-.233,5.723,5.723,0,0,0,1.384-.664l-.272,1.424a5.713,5.713,0,0,1-1.151.492,4.949,4.949,0,0,1-1.494.211,4.06,4.06,0,0,1-1.674-.308,2.948,2.948,0,0,1-1.1-.822,3.2,3.2,0,0,1-.6-1.187,5.306,5.306,0,0,1-.185-1.411,6.525,6.525,0,0,1,.176-1.525,6.209,6.209,0,0,1,.5-1.367,5.792,5.792,0,0,1,.769-1.156,5,5,0,0,1,.993-.892,4.6,4.6,0,0,1,1.169-.571,4.166,4.166,0,0,1,1.292-.2,3.734,3.734,0,0,1,1.226.185,2.562,2.562,0,0,1,.888.505,2.155,2.155,0,0,1,.541.743A2.212,2.212,0,0,1,228.856-6.891Zm-1.468.07a1.016,1.016,0,0,0-.409-.861,1.761,1.761,0,0,0-1.085-.308,2.434,2.434,0,0,0-1.037.233,3.356,3.356,0,0,0-.923.642,4,4,0,0,0-.729.976,4.543,4.543,0,0,0-.448,1.226,15.192,15.192,0,0,0,2.136-.127,5.541,5.541,0,0,0,1.433-.374,1.926,1.926,0,0,0,.809-.6A1.348,1.348,0,0,0,227.388-6.82Zm8.184-.6a3.746,3.746,0,0,0-.888-.413,3.2,3.2,0,0,0-.984-.158,1.941,1.941,0,0,0-1.279.378,1.24,1.24,0,0,0-.453,1,1.255,1.255,0,0,0,.083.466,1.407,1.407,0,0,0,.246.4,2.234,2.234,0,0,0,.413.365q.25.176.576.378a4.531,4.531,0,0,1,1.419,1.173,2.262,2.262,0,0,1,.435,1.358,2.74,2.74,0,0,1-.189,1,2.247,2.247,0,0,1-.6.861,3.088,3.088,0,0,1-1.068.6,4.873,4.873,0,0,1-1.6.229,5.285,5.285,0,0,1-.58-.035,6.145,6.145,0,0,1-.637-.105,5.559,5.559,0,0,1-.615-.171,2.708,2.708,0,0,1-.514-.233l.29-1.371a3.028,3.028,0,0,0,.435.246,4.5,4.5,0,0,0,.563.22,5.257,5.257,0,0,0,.633.158,3.562,3.562,0,0,0,.655.062,2.063,2.063,0,0,0,1.314-.352,1.185,1.185,0,0,0,.435-.976,1.3,1.3,0,0,0-.066-.422,1.184,1.184,0,0,0-.233-.387,2.585,2.585,0,0,0-.439-.391q-.272-.2-.686-.444a4.44,4.44,0,0,1-1.323-1.138,2.241,2.241,0,0,1-.426-1.34,2.736,2.736,0,0,1,.2-1.042,2.52,2.52,0,0,1,.6-.879,2.929,2.929,0,0,1,1.006-.611,4,4,0,0,1,1.415-.229,5.645,5.645,0,0,1,1.2.123,4.26,4.26,0,0,1,.962.316Zm4.4,7.383a3.368,3.368,0,0,1-.5.114,3.5,3.5,0,0,1-.549.044A1.793,1.793,0,0,1,237.6-.321a1.618,1.618,0,0,1-.439-1.191,3.631,3.631,0,0,1,.044-.519q.044-.3.141-.738L238.651-9h1.459l-1.318,6.267q-.079.369-.11.571a2.338,2.338,0,0,0-.031.343.724.724,0,0,0,.2.549.886.886,0,0,0,.628.189,2.662,2.662,0,0,0,.4-.026,1.772,1.772,0,0,0,.321-.079ZM241-12.208a.946.946,0,0,1-.268.677.88.88,0,0,1-.664.281.934.934,0,0,1-.672-.277.911.911,0,0,1-.286-.681.843.843,0,0,1,.286-.659.977.977,0,0,1,.672-.255.921.921,0,0,1,.659.259A.865.865,0,0,1,241-12.208Zm7.894,9.439q-.062.281-.119.677t-.1.8q-.044.4-.075.751T248.567,0h-1.494q0-.149.022-.4t.053-.523q.031-.272.066-.523t.062-.409h-.035a8.877,8.877,0,0,1-.633.9,3.663,3.663,0,0,1-.668.65,2.684,2.684,0,0,1-.747.391,2.738,2.738,0,0,1-.87.132A2.688,2.688,0,0,1,243.214,0a2.256,2.256,0,0,1-.839-.646,2.977,2.977,0,0,1-.532-1.055,5.141,5.141,0,0,1-.185-1.446,7.115,7.115,0,0,1,.136-1.354,6.931,6.931,0,0,1,.422-1.38,6.467,6.467,0,0,1,.725-1.283,5,5,0,0,1,1.046-1.063,4.96,4.96,0,0,1,1.389-.725,5.372,5.372,0,0,1,1.749-.268,5.932,5.932,0,0,1,.914.066q.422.066.729.136l.914-4.307h1.424Zm-.378-5.01a5.662,5.662,0,0,0-.7-.154,5.029,5.029,0,0,0-.778-.057,3.566,3.566,0,0,0-1.349.237,3.4,3.4,0,0,0-1.02.633,3.788,3.788,0,0,0-.729.9,5.676,5.676,0,0,0-.475,1.037,5.9,5.9,0,0,0-.255,1.046,6.508,6.508,0,0,0-.075.927,4.443,4.443,0,0,0,.083.9,2,2,0,0,0,.272.694,1.3,1.3,0,0,0,.488.448,1.522,1.522,0,0,0,.721.158,1.865,1.865,0,0,0,.822-.185,2.83,2.83,0,0,0,.716-.5,4.136,4.136,0,0,0,.606-.729,7.077,7.077,0,0,0,.492-.879,7.81,7.81,0,0,0,.374-.945q.154-.479.25-.918ZM258.9-2.558q-.079.343-.145.712l-.127.712q-.062.343-.105.642t-.07.492H257.05q.044-.343.1-.716t.11-.69q.061-.369.114-.721h-.035a7.439,7.439,0,0,1-.681.91,5.1,5.1,0,0,1-.809.747,3.84,3.84,0,0,1-.923.505,2.845,2.845,0,0,1-1.015.185A2.639,2.639,0,0,1,252.9.04a1.959,1.959,0,0,1-.725-.505,2.122,2.122,0,0,1-.435-.782,3.361,3.361,0,0,1-.145-1.02,2.476,2.476,0,0,1,.035-.343q.035-.229.079-.492t.1-.523q.057-.259.092-.444L252.945-9H254.4l-1.116,5.273q-.035.141-.07.325t-.066.369q-.031.185-.048.338a2.261,2.261,0,0,0-.018.242,1.606,1.606,0,0,0,.321,1.05,1.172,1.172,0,0,0,.962.391,2.029,2.029,0,0,0,.773-.158,3.519,3.519,0,0,0,.751-.426,4.731,4.731,0,0,0,.69-.624,6.092,6.092,0,0,0,.589-.756,5.488,5.488,0,0,0,.448-.822,4.532,4.532,0,0,0,.272-.809L258.834-9h1.45Zm9.828-.325q-.07.334-.136.751t-.114.826q-.048.409-.079.76T268.372,0h-1.494q.009-.176.026-.422t.048-.51q.031-.264.062-.519t.066-.439h-.035q-.272.431-.554.813a3.913,3.913,0,0,1-.624.672,2.732,2.732,0,0,1-.765.457,2.691,2.691,0,0,1-.993.167,2.684,2.684,0,0,1-1.077-.211,2.256,2.256,0,0,1-.839-.628,2.9,2.9,0,0,1-.541-1.046,5.1,5.1,0,0,1-.189-1.463,7.333,7.333,0,0,1,.105-1.16,7.1,7.1,0,0,1,.356-1.327,6.757,6.757,0,0,1,.668-1.323,5.023,5.023,0,0,1,1.037-1.156,4.947,4.947,0,0,1,1.463-.817,5.683,5.683,0,0,1,1.951-.308,10.373,10.373,0,0,1,1.45.105q.747.105,1.485.255Zm-.413-4.931q-.308-.07-.721-.123a6.128,6.128,0,0,0-.773-.053,3.508,3.508,0,0,0-1.349.242,3.462,3.462,0,0,0-1.015.633,3.727,3.727,0,0,0-.725.9,5.586,5.586,0,0,0-.47,1.042,6.13,6.13,0,0,0-.25,1.05,6.649,6.649,0,0,0-.075.94,4.212,4.212,0,0,0,.088.9,1.967,1.967,0,0,0,.277.681,1.3,1.3,0,0,0,.483.435,1.49,1.49,0,0,0,.7.154,1.9,1.9,0,0,0,.822-.18,2.849,2.849,0,0,0,.716-.488,4,4,0,0,0,.606-.712,7,7,0,0,0,.492-.857,7.329,7.329,0,0,0,.374-.923q.154-.47.25-.91Zm5.873,7.778a3.368,3.368,0,0,1-.5.114,3.5,3.5,0,0,1-.549.044,1.793,1.793,0,0,1-1.327-.444,1.618,1.618,0,0,1-.439-1.191,3.631,3.631,0,0,1,.044-.519q.044-.3.141-.738l2.25-10.564h1.459l-2.259,10.6q-.079.369-.11.571a2.338,2.338,0,0,0-.031.343.724.724,0,0,0,.2.549.886.886,0,0,0,.628.189,2.662,2.662,0,0,0,.4-.026,1.772,1.772,0,0,0,.321-.079Z" transform="translate(258.637 4844)" fill="#fff"/>
    <path id="Trazado_1043530" data-name="Trazado 1043530" d="M5.238,0H3.762L1.872-12.6H3.4L4.79-2.733a4.7,4.7,0,0,1,.062.558,3.213,3.213,0,0,1-.009.541h.035q.044-.114.1-.255t.132-.286l.149-.29q.075-.145.136-.268L11.03-12.6h1.7Zm9.723-.035a3.368,3.368,0,0,1-.5.114,3.5,3.5,0,0,1-.549.044,1.793,1.793,0,0,1-1.327-.444,1.618,1.618,0,0,1-.439-1.191,3.631,3.631,0,0,1,.044-.519q.044-.3.141-.738L13.642-9H15.1L13.783-2.733q-.079.369-.11.571a2.338,2.338,0,0,0-.031.343.724.724,0,0,0,.2.549.886.886,0,0,0,.628.189,2.662,2.662,0,0,0,.4-.026,1.772,1.772,0,0,0,.321-.079Zm1.028-12.173a.946.946,0,0,1-.268.677.88.88,0,0,1-.664.281.934.934,0,0,1-.672-.277.911.911,0,0,1-.286-.681.843.843,0,0,1,.286-.659.977.977,0,0,1,.672-.255.921.921,0,0,1,.659.259A.865.865,0,0,1,15.989-12.208Zm7.894,9.439q-.062.281-.119.677t-.1.8q-.044.4-.075.751T23.558,0H22.064q0-.149.022-.4t.053-.523q.031-.272.066-.523t.062-.409h-.035a8.877,8.877,0,0,1-.633.9,3.663,3.663,0,0,1-.668.65,2.684,2.684,0,0,1-.747.391,2.738,2.738,0,0,1-.87.132A2.688,2.688,0,0,1,18.206,0a2.256,2.256,0,0,1-.839-.646A2.977,2.977,0,0,1,16.835-1.7a5.141,5.141,0,0,1-.185-1.446A7.115,7.115,0,0,1,16.786-4.5a6.931,6.931,0,0,1,.422-1.38,6.467,6.467,0,0,1,.725-1.283,5,5,0,0,1,1.046-1.063,4.96,4.96,0,0,1,1.389-.725,5.372,5.372,0,0,1,1.749-.268,5.932,5.932,0,0,1,.914.066q.422.066.729.136l.914-4.307H26.1Zm-.378-5.01a5.662,5.662,0,0,0-.7-.154,5.029,5.029,0,0,0-.778-.057,3.566,3.566,0,0,0-1.349.237,3.4,3.4,0,0,0-1.02.633,3.788,3.788,0,0,0-.729.9,5.676,5.676,0,0,0-.475,1.037A5.9,5.9,0,0,0,18.2-4.135a6.508,6.508,0,0,0-.075.927,4.443,4.443,0,0,0,.083.9,2,2,0,0,0,.272.694,1.3,1.3,0,0,0,.488.448,1.522,1.522,0,0,0,.721.158,1.865,1.865,0,0,0,.822-.185,2.83,2.83,0,0,0,.716-.5,4.136,4.136,0,0,0,.606-.729,7.077,7.077,0,0,0,.492-.879A7.81,7.81,0,0,0,22.7-4.25q.154-.479.25-.918Zm10.171,4.9q-.07.334-.136.751t-.114.826q-.048.409-.079.76T33.316,0H31.822q.009-.176.026-.422t.048-.51q.031-.264.062-.519t.066-.439h-.035q-.272.431-.554.813a3.913,3.913,0,0,1-.624.672,2.732,2.732,0,0,1-.765.457,2.691,2.691,0,0,1-.993.167A2.684,2.684,0,0,1,27.977.009a2.256,2.256,0,0,1-.839-.628A2.9,2.9,0,0,1,26.6-1.666a5.1,5.1,0,0,1-.189-1.463,7.333,7.333,0,0,1,.105-1.16,7.1,7.1,0,0,1,.356-1.327,6.757,6.757,0,0,1,.668-1.323,5.023,5.023,0,0,1,1.037-1.156,4.947,4.947,0,0,1,1.463-.817,5.683,5.683,0,0,1,1.951-.308,10.373,10.373,0,0,1,1.45.105q.747.105,1.485.255Zm-.413-4.931q-.308-.07-.721-.123a6.128,6.128,0,0,0-.773-.053,3.508,3.508,0,0,0-1.349.242,3.462,3.462,0,0,0-1.015.633,3.727,3.727,0,0,0-.725.9,5.586,5.586,0,0,0-.47,1.042,6.13,6.13,0,0,0-.25,1.05,6.649,6.649,0,0,0-.075.94,4.212,4.212,0,0,0,.088.9,1.967,1.967,0,0,0,.277.681,1.3,1.3,0,0,0,.483.435,1.49,1.49,0,0,0,.7.154,1.9,1.9,0,0,0,.822-.18,2.849,2.849,0,0,0,.716-.488,4,4,0,0,0,.606-.712,7,7,0,0,0,.492-.857,7.329,7.329,0,0,0,.374-.923q.154-.47.25-.91ZM48.6-2.558q-.079.343-.145.712l-.127.712q-.062.343-.105.642T48.155,0H46.749q.044-.343.1-.716t.11-.69q.062-.369.114-.721h-.035a7.432,7.432,0,0,1-.681.91,5.1,5.1,0,0,1-.809.747,3.84,3.84,0,0,1-.923.505A2.845,2.845,0,0,1,43.612.22,2.639,2.639,0,0,1,42.6.04a1.959,1.959,0,0,1-.725-.505,2.122,2.122,0,0,1-.435-.782,3.361,3.361,0,0,1-.145-1.02,2.476,2.476,0,0,1,.035-.343q.035-.229.079-.492t.1-.523q.057-.259.092-.444L42.645-9H44.1L42.988-3.727q-.035.141-.07.325t-.066.369q-.031.185-.048.338a2.261,2.261,0,0,0-.018.242,1.606,1.606,0,0,0,.321,1.05,1.172,1.172,0,0,0,.962.391,2.029,2.029,0,0,0,.773-.158,3.519,3.519,0,0,0,.751-.426,4.728,4.728,0,0,0,.69-.624,6.086,6.086,0,0,0,.589-.756,5.488,5.488,0,0,0,.448-.822,4.532,4.532,0,0,0,.272-.809L48.533-9h1.45Zm-2.215-8.156H45.308l2.54-2.874h1.415ZM56.542-7.778H54.274L53.264-3.006q-.053.272-.105.589a3.254,3.254,0,0,0-.053.51.888.888,0,0,0,.2.646.86.86,0,0,0,.628.2A1.382,1.382,0,0,0,54.2-1.1q.167-.035.343-.088t.347-.119l.3-.119L54.925-.158a4.261,4.261,0,0,1-.7.224,3.237,3.237,0,0,1-.743.092,2.513,2.513,0,0,1-.853-.127,1.461,1.461,0,0,1-.576-.365A1.413,1.413,0,0,1,51.73-.91a2.653,2.653,0,0,1-.1-.76,4.261,4.261,0,0,1,.048-.593,6.15,6.15,0,0,1,.119-.62l1.037-4.9H51.339L51.611-9h1.477l.466-2.2a2.709,2.709,0,0,1,.268-.083q.233-.066.51-.149l.51-.154.259-.079L54.547-9h2.268ZM59.954-.035a3.368,3.368,0,0,1-.5.114,3.5,3.5,0,0,1-.549.044,1.793,1.793,0,0,1-1.327-.444,1.618,1.618,0,0,1-.439-1.191,3.631,3.631,0,0,1,.044-.519q.044-.3.141-.738L58.636-9h1.459L58.776-2.733q-.079.369-.11.571a2.338,2.338,0,0,0-.031.343.724.724,0,0,0,.2.549.886.886,0,0,0,.628.189,2.662,2.662,0,0,0,.4-.026,1.772,1.772,0,0,0,.321-.079Zm1.028-12.173a.946.946,0,0,1-.268.677.88.88,0,0,1-.664.281.934.934,0,0,1-.672-.277.911.911,0,0,1-.286-.681.843.843,0,0,1,.286-.659.977.977,0,0,1,.672-.255.921.921,0,0,1,.659.259A.865.865,0,0,1,60.982-12.208ZM64.614-.035a3.369,3.369,0,0,1-.5.114,3.5,3.5,0,0,1-.549.044,1.793,1.793,0,0,1-1.327-.444A1.618,1.618,0,0,1,61.8-1.512a3.631,3.631,0,0,1,.044-.519q.044-.3.141-.738l2.25-10.564H65.7l-2.259,10.6q-.079.369-.11.571a2.338,2.338,0,0,0-.031.343.724.724,0,0,0,.2.549.886.886,0,0,0,.628.189,2.662,2.662,0,0,0,.4-.026,1.772,1.772,0,0,0,.321-.079Z" transform="translate(376.637 4869)" fill="#fff"/>
    <path id="Trazado_1030190" data-name="Trazado 1030190" d="M128.441,28.01H435.808" transform="translate(123.559 4822.986)" fill="#fff" stroke="#fff" stroke-width="1"/>
    <path id="Trazado_1043531" data-name="Trazado 1043531" d="M10.3-6.539H2.039V-7.7H10.3Zm0,3.744H2.039v-1.16H10.3Z" transform="translate(567.637 4856)" fill="#fff"/>
    <path id="Trazado_1043532" data-name="Trazado 1043532" d="M5.414-.07V1.837H4.5V0A5.516,5.516,0,0,1,1.459-.756V-2.285a4.118,4.118,0,0,0,1.393.751,5.094,5.094,0,0,0,1.648.3v-4.5A6.9,6.9,0,0,1,2-7.449a3.078,3.078,0,0,1-.571-1.859,3.108,3.108,0,0,1,.87-2.2A3.6,3.6,0,0,1,4.5-12.621V-14.2h.914v1.547a4.865,4.865,0,0,1,2.382.492v1.494a3.992,3.992,0,0,0-2.382-.756v4.641A7.47,7.47,0,0,1,7.915-5.1a2.823,2.823,0,0,1,.672,1.85,2.863,2.863,0,0,1-.839,2.1A4.078,4.078,0,0,1,5.414-.07ZM4.5-7.277v-4.1a2,2,0,0,0-1.169.655A1.826,1.826,0,0,0,2.9-9.492a2.055,2.055,0,0,0,.352,1.239A3.788,3.788,0,0,0,4.5-7.277Zm.914,2V-1.3q1.7-.369,1.7-1.828Q7.11-4.342,5.414-5.273ZM16.068,0H14.627V-10.89a3.336,3.336,0,0,1-.488.382,7.951,7.951,0,0,1-.721.426q-.4.211-.844.4a6.132,6.132,0,0,1-.866.29v-1.459a8.379,8.379,0,0,0,1.006-.356q.532-.224,1.046-.5t.971-.58a7.711,7.711,0,0,0,.791-.593h.545ZM28.375-6.354a12.381,12.381,0,0,1-.286,2.8,6.533,6.533,0,0,1-.826,2.061A3.718,3.718,0,0,1,25.936-.215,3.633,3.633,0,0,1,24.147.22,3.393,3.393,0,0,1,22.455-.2,3.546,3.546,0,0,1,21.2-1.415a6.17,6.17,0,0,1-.773-1.964,12.146,12.146,0,0,1-.264-2.667,13.749,13.749,0,0,1,.277-2.918,6.674,6.674,0,0,1,.813-2.123,3.619,3.619,0,0,1,1.332-1.292,3.739,3.739,0,0,1,1.824-.435Q28.375-12.814,28.375-6.354ZM26.9-6.214q0-5.379-2.558-5.379-2.7,0-2.7,5.476,0,5.106,2.646,5.106Q26.9-1.011,26.9-6.214ZM38.08-6.354a12.381,12.381,0,0,1-.286,2.8,6.533,6.533,0,0,1-.826,2.061A3.718,3.718,0,0,1,35.641-.215,3.633,3.633,0,0,1,33.852.22,3.393,3.393,0,0,1,32.16-.2a3.546,3.546,0,0,1-1.252-1.217,6.17,6.17,0,0,1-.773-1.964,12.146,12.146,0,0,1-.264-2.667,13.749,13.749,0,0,1,.277-2.918,6.674,6.674,0,0,1,.813-2.123,3.619,3.619,0,0,1,1.332-1.292,3.739,3.739,0,0,1,1.824-.435Q38.08-12.814,38.08-6.354ZM36.6-6.214q0-5.379-2.558-5.379-2.7,0-2.7,5.476,0,5.106,2.646,5.106Q36.6-1.011,36.6-6.214ZM41.6-2,40.191,2.32H39.162L40.191-2ZM51.689-6.354a12.381,12.381,0,0,1-.286,2.8,6.533,6.533,0,0,1-.826,2.061A3.718,3.718,0,0,1,49.25-.215,3.633,3.633,0,0,1,47.461.22,3.393,3.393,0,0,1,45.769-.2a3.546,3.546,0,0,1-1.252-1.217,6.17,6.17,0,0,1-.773-1.964,12.146,12.146,0,0,1-.264-2.667,13.749,13.749,0,0,1,.277-2.918,6.674,6.674,0,0,1,.813-2.123A3.619,3.619,0,0,1,45.9-12.379a3.739,3.739,0,0,1,1.824-.435Q51.689-12.814,51.689-6.354Zm-1.477.141q0-5.379-2.558-5.379-2.7,0-2.7,5.476,0,5.106,2.646,5.106Q50.212-1.011,50.212-6.214Zm11.181-.141a12.381,12.381,0,0,1-.286,2.8,6.533,6.533,0,0,1-.826,2.061A3.718,3.718,0,0,1,58.955-.215,3.633,3.633,0,0,1,57.166.22,3.393,3.393,0,0,1,55.474-.2a3.546,3.546,0,0,1-1.252-1.217,6.17,6.17,0,0,1-.773-1.964,12.146,12.146,0,0,1-.264-2.667,13.749,13.749,0,0,1,.277-2.918,6.674,6.674,0,0,1,.813-2.123,3.619,3.619,0,0,1,1.332-1.292,3.739,3.739,0,0,1,1.824-.435Q61.394-12.814,61.394-6.354Zm-1.477.141q0-5.379-2.558-5.379-2.7,0-2.7,5.476,0,5.106,2.646,5.106Q59.917-1.011,59.917-6.214ZM71.1-6.354a12.382,12.382,0,0,1-.286,2.8,6.533,6.533,0,0,1-.826,2.061A3.718,3.718,0,0,1,68.66-.215,3.633,3.633,0,0,1,66.871.22,3.393,3.393,0,0,1,65.179-.2a3.546,3.546,0,0,1-1.252-1.217,6.17,6.17,0,0,1-.773-1.964,12.146,12.146,0,0,1-.264-2.667,13.749,13.749,0,0,1,.277-2.918,6.674,6.674,0,0,1,.813-2.123,3.619,3.619,0,0,1,1.332-1.292,3.739,3.739,0,0,1,1.824-.435Q71.1-12.814,71.1-6.354Zm-1.477.141q0-5.379-2.558-5.379-2.7,0-2.7,5.476,0,5.106,2.646,5.106Q69.622-1.011,69.622-6.214ZM77.9-4.447H73.1V-5.581h4.8ZM84.453-.07V1.837h-.914V0A5.516,5.516,0,0,1,80.5-.756V-2.285a4.118,4.118,0,0,0,1.393.751,5.094,5.094,0,0,0,1.648.3v-4.5a6.9,6.9,0,0,1-2.5-1.718,3.078,3.078,0,0,1-.571-1.859,3.108,3.108,0,0,1,.87-2.2,3.6,3.6,0,0,1,2.206-1.112V-14.2h.914v1.547a4.865,4.865,0,0,1,2.382.492v1.494a3.992,3.992,0,0,0-2.382-.756v4.641a7.47,7.47,0,0,1,2.5,1.683,2.823,2.823,0,0,1,.672,1.85,2.863,2.863,0,0,1-.839,2.1A4.078,4.078,0,0,1,84.453-.07Zm-.914-7.207v-4.1a2,2,0,0,0-1.169.655,1.826,1.826,0,0,0-.431,1.226,2.055,2.055,0,0,0,.352,1.239A3.788,3.788,0,0,0,83.539-7.277Zm.914,2V-1.3q1.7-.369,1.7-1.828Q86.149-4.342,84.453-5.273ZM95.107,0H93.665V-10.89a3.336,3.336,0,0,1-.488.382,7.951,7.951,0,0,1-.721.426q-.4.211-.844.4a6.132,6.132,0,0,1-.866.29v-1.459a8.379,8.379,0,0,0,1.006-.356q.532-.224,1.046-.5t.971-.58a7.71,7.71,0,0,0,.791-.593h.545Zm12.306-6.354a12.381,12.381,0,0,1-.286,2.8A6.533,6.533,0,0,1,106.3-1.49a3.718,3.718,0,0,1-1.327,1.274,3.633,3.633,0,0,1-1.789.435A3.393,3.393,0,0,1,101.494-.2a3.546,3.546,0,0,1-1.252-1.217,6.17,6.17,0,0,1-.773-1.964A12.146,12.146,0,0,1,99.2-6.047a13.749,13.749,0,0,1,.277-2.918,6.674,6.674,0,0,1,.813-2.123,3.619,3.619,0,0,1,1.332-1.292,3.739,3.739,0,0,1,1.824-.435Q107.413-12.814,107.413-6.354Zm-1.477.141q0-5.379-2.558-5.379-2.7,0-2.7,5.476,0,5.106,2.646,5.106Q105.937-1.011,105.937-6.214ZM110.931-2,109.525,2.32H108.5L109.525-2Zm10.092-4.351a12.381,12.381,0,0,1-.286,2.8,6.533,6.533,0,0,1-.826,2.061,3.718,3.718,0,0,1-1.327,1.274,3.633,3.633,0,0,1-1.789.435A3.393,3.393,0,0,1,115.1-.2a3.546,3.546,0,0,1-1.252-1.217,6.17,6.17,0,0,1-.773-1.964,12.146,12.146,0,0,1-.264-2.667,13.749,13.749,0,0,1,.277-2.918,6.674,6.674,0,0,1,.813-2.123,3.619,3.619,0,0,1,1.332-1.292,3.739,3.739,0,0,1,1.824-.435Q121.022-12.814,121.022-6.354Zm-1.477.141q0-5.379-2.558-5.379-2.7,0-2.7,5.476,0,5.106,2.646,5.106Q119.546-1.011,119.546-6.214Zm11.181-.141a12.383,12.383,0,0,1-.286,2.8,6.533,6.533,0,0,1-.826,2.061,3.718,3.718,0,0,1-1.327,1.274A3.633,3.633,0,0,1,126.5.22,3.393,3.393,0,0,1,124.808-.2a3.546,3.546,0,0,1-1.252-1.217,6.17,6.17,0,0,1-.773-1.964,12.146,12.146,0,0,1-.264-2.667,13.749,13.749,0,0,1,.277-2.918,6.674,6.674,0,0,1,.813-2.123,3.619,3.619,0,0,1,1.332-1.292,3.739,3.739,0,0,1,1.824-.435Q130.727-12.814,130.727-6.354Zm-1.477.141q0-5.379-2.558-5.379-2.7,0-2.7,5.476,0,5.106,2.646,5.106Q129.251-1.011,129.251-6.214Zm11.181-.141a12.381,12.381,0,0,1-.286,2.8,6.533,6.533,0,0,1-.826,2.061,3.718,3.718,0,0,1-1.327,1.274A3.633,3.633,0,0,1,136.2.22,3.393,3.393,0,0,1,134.513-.2a3.546,3.546,0,0,1-1.252-1.217,6.17,6.17,0,0,1-.773-1.964,12.146,12.146,0,0,1-.264-2.667,13.749,13.749,0,0,1,.277-2.918,6.674,6.674,0,0,1,.813-2.123,3.619,3.619,0,0,1,1.332-1.292,3.739,3.739,0,0,1,1.824-.435Q140.432-12.814,140.432-6.354Zm-1.477.141q0-5.379-2.558-5.379-2.7,0-2.7,5.476,0,5.106,2.646,5.106Q138.956-1.011,138.956-6.214Z" transform="translate(590.637 4844)" fill="#fff"/>
    <path id="Trazado_1043533" data-name="Trazado 1043533" d="M6.363,0H4.922V-10.89a3.336,3.336,0,0,1-.488.382,7.951,7.951,0,0,1-.721.426q-.4.211-.844.4A6.132,6.132,0,0,1,2-9.4v-1.459A8.379,8.379,0,0,0,3.01-11.21q.532-.224,1.046-.5t.971-.58a7.71,7.71,0,0,0,.791-.593h.545ZM18.67-6.354a12.381,12.381,0,0,1-.286,2.8,6.533,6.533,0,0,1-.826,2.061A3.718,3.718,0,0,1,16.231-.215,3.633,3.633,0,0,1,14.442.22,3.393,3.393,0,0,1,12.75-.2,3.546,3.546,0,0,1,11.5-1.415a6.17,6.17,0,0,1-.773-1.964,12.146,12.146,0,0,1-.264-2.667,13.749,13.749,0,0,1,.277-2.918,6.674,6.674,0,0,1,.813-2.123,3.619,3.619,0,0,1,1.332-1.292,3.739,3.739,0,0,1,1.824-.435Q18.67-12.814,18.67-6.354Zm-1.477.141q0-5.379-2.558-5.379-2.7,0-2.7,5.476,0,5.106,2.646,5.106Q17.193-1.011,17.193-6.214ZM32.244,0H30.8V-1.406h-.035A3.018,3.018,0,0,1,28,.211a2.959,2.959,0,0,1-2.1-.712,2.466,2.466,0,0,1-.76-1.89q0-2.522,2.971-2.936L30.8-5.7Q30.8-8,28.948-8a4.431,4.431,0,0,0-2.936,1.107V-8.367a5.577,5.577,0,0,1,3.059-.844q3.173,0,3.173,3.357ZM30.8-4.553l-2.171.3a3.525,3.525,0,0,0-1.512.5A1.432,1.432,0,0,0,26.61-2.5a1.374,1.374,0,0,0,.47,1.077A1.817,1.817,0,0,0,28.333-1,2.314,2.314,0,0,0,30.1-1.753a2.685,2.685,0,0,0,.7-1.9ZM42.432,0H40.991V-5.133Q40.991-8,38.9-8a2.269,2.269,0,0,0-1.789.813A3.013,3.013,0,0,0,36.4-5.133V0H34.961V-9H36.4v1.494h.035a3.248,3.248,0,0,1,2.953-1.705,2.753,2.753,0,0,1,2.259.954A4.248,4.248,0,0,1,42.432-5.5Zm-.949-12.814a2.514,2.514,0,0,1-.422,1.507,1.337,1.337,0,0,1-1.143.584,2.949,2.949,0,0,1-1.424-.457,2.411,2.411,0,0,0-1.046-.378q-.773,0-.773.993h-.826a2.466,2.466,0,0,1,.422-1.507,1.384,1.384,0,0,1,1.178-.567,2.572,2.572,0,0,1,1.31.457,2.3,2.3,0,0,0,1.125.387q.738,0,.738-1.02ZM48.911.211A4.175,4.175,0,0,1,45.725-1.05a4.672,4.672,0,0,1-1.191-3.344,4.867,4.867,0,0,1,1.239-3.542,4.455,4.455,0,0,1,3.349-1.274,4.037,4.037,0,0,1,3.142,1.239,4.914,4.914,0,0,1,1.129,3.437,4.835,4.835,0,0,1-1.217,3.45A4.265,4.265,0,0,1,48.911.211ZM49.017-8a2.742,2.742,0,0,0-2.2.945,3.88,3.88,0,0,0-.809,2.606,3.67,3.67,0,0,0,.817,2.522A2.778,2.778,0,0,0,49.017-1a2.635,2.635,0,0,0,2.149-.905,3.928,3.928,0,0,0,.751-2.575,4,4,0,0,0-.751-2.6A2.623,2.623,0,0,0,49.017-8ZM55.153-.325V-1.872A4.266,4.266,0,0,0,57.746-1q1.9,0,1.9-1.266a1.1,1.1,0,0,0-.163-.611,1.62,1.62,0,0,0-.439-.444,3.383,3.383,0,0,0-.65-.347q-.374-.154-.8-.321a10.357,10.357,0,0,1-1.05-.479,3.173,3.173,0,0,1-.756-.545,2.028,2.028,0,0,1-.457-.69,2.441,2.441,0,0,1-.154-.905,2.15,2.15,0,0,1,.29-1.121,2.572,2.572,0,0,1,.773-.817,3.607,3.607,0,0,1,1.1-.5,4.893,4.893,0,0,1,1.279-.167,5.164,5.164,0,0,1,2.092.4v1.459A4.077,4.077,0,0,0,58.423-8a2.671,2.671,0,0,0-.729.092,1.786,1.786,0,0,0-.558.259,1.2,1.2,0,0,0-.36.4,1.053,1.053,0,0,0-.127.514,1.233,1.233,0,0,0,.127.589,1.3,1.3,0,0,0,.374.422,2.855,2.855,0,0,0,.6.334q.352.149.8.325a11.131,11.131,0,0,1,1.072.47,3.678,3.678,0,0,1,.809.545,2.129,2.129,0,0,1,.514.7,2.254,2.254,0,0,1,.18.94,2.217,2.217,0,0,1-.294,1.16,2.523,2.523,0,0,1-.787.817,3.6,3.6,0,0,1-1.134.483,5.6,5.6,0,0,1-1.345.158A5.106,5.106,0,0,1,55.153-.325Z" transform="translate(640.637 4869)" fill="#fff"/>
    <path id="Trazado_1038752" data-name="Trazado 1038752" d="M128.441,28.01H296.774" transform="translate(456.559 4822.986)" fill="#fff" stroke="#fff" stroke-width="1"/>
    <path id="Trazado_1043534" data-name="Trazado 1043534" d="M10.3-6.539H2.039V-7.7H10.3Zm0,3.744H2.039v-1.16H10.3Z" transform="translate(759.637 4856)" fill="#fff"/>
    <path id="Trazado_1043535" data-name="Trazado 1043535" d="M5.414-.07V1.837H4.5V0A5.516,5.516,0,0,1,1.459-.756V-2.285a4.118,4.118,0,0,0,1.393.751,5.094,5.094,0,0,0,1.648.3v-4.5A6.9,6.9,0,0,1,2-7.449a3.078,3.078,0,0,1-.571-1.859,3.108,3.108,0,0,1,.87-2.2A3.6,3.6,0,0,1,4.5-12.621V-14.2h.914v1.547a4.865,4.865,0,0,1,2.382.492v1.494a3.992,3.992,0,0,0-2.382-.756v4.641A7.47,7.47,0,0,1,7.915-5.1a2.823,2.823,0,0,1,.672,1.85,2.863,2.863,0,0,1-.839,2.1A4.078,4.078,0,0,1,5.414-.07ZM4.5-7.277v-4.1a2,2,0,0,0-1.169.655A1.826,1.826,0,0,0,2.9-9.492a2.055,2.055,0,0,0,.352,1.239A3.788,3.788,0,0,0,4.5-7.277Zm.914,2V-1.3q1.7-.369,1.7-1.828Q7.11-4.342,5.414-5.273ZM18.529-7.058a12.554,12.554,0,0,1-.343,3.081,6.872,6.872,0,0,1-1,2.285A4.435,4.435,0,0,1,15.576-.268,4.663,4.663,0,0,1,13.414.22a5.179,5.179,0,0,1-2.2-.439V-1.6a4.479,4.479,0,0,0,2.232.589,3.242,3.242,0,0,0,1.525-.352,3.158,3.158,0,0,0,1.138-1.024,5.027,5.027,0,0,0,.712-1.657A9.355,9.355,0,0,0,17.07-6.3h-.035a2.879,2.879,0,0,1-2.813,1.626,3.782,3.782,0,0,1-1.485-.286,3.4,3.4,0,0,1-1.169-.809A3.7,3.7,0,0,1,10.8-7.014,4.466,4.466,0,0,1,10.531-8.6a4.634,4.634,0,0,1,.3-1.705,3.974,3.974,0,0,1,.844-1.332,3.775,3.775,0,0,1,1.283-.866,4.2,4.2,0,0,1,1.622-.308,3.59,3.59,0,0,1,1.683.382A3.373,3.373,0,0,1,17.5-11.316a5.515,5.515,0,0,1,.765,1.806A10.312,10.312,0,0,1,18.529-7.058ZM16.973-8.35a4.388,4.388,0,0,0-.189-1.327,3.213,3.213,0,0,0-.523-1.024,2.346,2.346,0,0,0-.8-.659,2.2,2.2,0,0,0-1.006-.233,2.282,2.282,0,0,0-.967.207,2.324,2.324,0,0,0-.778.58,2.77,2.77,0,0,0-.519.888A3.225,3.225,0,0,0,12.008-8.8a3.686,3.686,0,0,0,.18,1.2,2.5,2.5,0,0,0,.514.892,2.22,2.22,0,0,0,.8.558,2.714,2.714,0,0,0,1.042.193,2.387,2.387,0,0,0,.945-.189,2.5,2.5,0,0,0,.773-.51,2.349,2.349,0,0,0,.519-.756A2.324,2.324,0,0,0,16.973-8.35ZM22.187-2,20.781,2.32H19.753L20.781-2ZM32.279-6.354a12.381,12.381,0,0,1-.286,2.8,6.533,6.533,0,0,1-.826,2.061A3.718,3.718,0,0,1,29.84-.215,3.633,3.633,0,0,1,28.051.22,3.393,3.393,0,0,1,26.359-.2a3.546,3.546,0,0,1-1.252-1.217,6.17,6.17,0,0,1-.773-1.964,12.146,12.146,0,0,1-.264-2.667,13.749,13.749,0,0,1,.277-2.918,6.674,6.674,0,0,1,.813-2.123,3.619,3.619,0,0,1,1.332-1.292,3.739,3.739,0,0,1,1.824-.435Q32.279-12.814,32.279-6.354ZM30.8-6.214q0-5.379-2.558-5.379-2.7,0-2.7,5.476,0,5.106,2.646,5.106Q30.8-1.011,30.8-6.214Zm11.181-.141a12.381,12.381,0,0,1-.286,2.8,6.533,6.533,0,0,1-.826,2.061A3.718,3.718,0,0,1,39.545-.215,3.633,3.633,0,0,1,37.756.22,3.393,3.393,0,0,1,36.064-.2a3.546,3.546,0,0,1-1.252-1.217,6.17,6.17,0,0,1-.773-1.964,12.146,12.146,0,0,1-.264-2.667,13.749,13.749,0,0,1,.277-2.918,6.674,6.674,0,0,1,.813-2.123A3.619,3.619,0,0,1,36.2-12.379a3.739,3.739,0,0,1,1.824-.435Q41.984-12.814,41.984-6.354Zm-1.477.141q0-5.379-2.558-5.379-2.7,0-2.7,5.476,0,5.106,2.646,5.106Q40.507-1.011,40.507-6.214Z" transform="translate(879.637 4856)" fill="#fff"/>
    <path id="Trazado_1043536" data-name="Trazado 1043536" d="M6.363,0H4.922V-10.89a3.336,3.336,0,0,1-.488.382,7.951,7.951,0,0,1-.721.426q-.4.211-.844.4A6.132,6.132,0,0,1,2-9.4v-1.459A8.379,8.379,0,0,0,3.01-11.21q.532-.224,1.046-.5t.971-.58a7.71,7.71,0,0,0,.791-.593h.545ZM18.67-6.354a12.381,12.381,0,0,1-.286,2.8,6.533,6.533,0,0,1-.826,2.061A3.718,3.718,0,0,1,16.231-.215,3.633,3.633,0,0,1,14.442.22,3.393,3.393,0,0,1,12.75-.2,3.546,3.546,0,0,1,11.5-1.415a6.17,6.17,0,0,1-.773-1.964,12.146,12.146,0,0,1-.264-2.667,13.749,13.749,0,0,1,.277-2.918,6.674,6.674,0,0,1,.813-2.123,3.619,3.619,0,0,1,1.332-1.292,3.739,3.739,0,0,1,1.824-.435Q18.67-12.814,18.67-6.354Zm-1.477.141q0-5.379-2.558-5.379-2.7,0-2.7,5.476,0,5.106,2.646,5.106Q17.193-1.011,17.193-6.214Z" transform="translate(806.637 4869)" fill="#fff"/>
    <path id="Trazado_1038753" data-name="Trazado 1038753" d="M128.441,28.01h80.077" transform="translate(648.559 4822.986)" fill="#fff" stroke="#fff" stroke-width="1"/>
    <path id="Trazado_1043537" data-name="Trazado 1043537" d="M10.3-6.539H2.039V-7.7H10.3Zm0,3.744H2.039v-1.16H10.3Z" transform="translate(862.637 4856)" fill="#fff"/>
    <path id="Trazado_1043538" data-name="Trazado 1043538" d="M5.414-.07V1.837H4.5V0A5.516,5.516,0,0,1,1.459-.756V-2.285a4.118,4.118,0,0,0,1.393.751,5.094,5.094,0,0,0,1.648.3v-4.5A6.9,6.9,0,0,1,2-7.449a3.078,3.078,0,0,1-.571-1.859,3.108,3.108,0,0,1,.87-2.2A3.6,3.6,0,0,1,4.5-12.621V-14.2h.914v1.547a4.865,4.865,0,0,1,2.382.492v1.494a3.992,3.992,0,0,0-2.382-.756v4.641A7.47,7.47,0,0,1,7.915-5.1a2.823,2.823,0,0,1,.672,1.85,2.863,2.863,0,0,1-.839,2.1A4.078,4.078,0,0,1,5.414-.07ZM4.5-7.277v-4.1a2,2,0,0,0-1.169.655A1.826,1.826,0,0,0,2.9-9.492a2.055,2.055,0,0,0,.352,1.239A3.788,3.788,0,0,0,4.5-7.277Zm.914,2V-1.3q1.7-.369,1.7-1.828Q7.11-4.342,5.414-5.273ZM18.529-7.058a12.554,12.554,0,0,1-.343,3.081,6.872,6.872,0,0,1-1,2.285A4.435,4.435,0,0,1,15.576-.268,4.663,4.663,0,0,1,13.414.22a5.179,5.179,0,0,1-2.2-.439V-1.6a4.479,4.479,0,0,0,2.232.589,3.242,3.242,0,0,0,1.525-.352,3.158,3.158,0,0,0,1.138-1.024,5.027,5.027,0,0,0,.712-1.657A9.355,9.355,0,0,0,17.07-6.3h-.035a2.879,2.879,0,0,1-2.813,1.626,3.782,3.782,0,0,1-1.485-.286,3.4,3.4,0,0,1-1.169-.809A3.7,3.7,0,0,1,10.8-7.014,4.466,4.466,0,0,1,10.531-8.6a4.634,4.634,0,0,1,.3-1.705,3.974,3.974,0,0,1,.844-1.332,3.775,3.775,0,0,1,1.283-.866,4.2,4.2,0,0,1,1.622-.308,3.59,3.59,0,0,1,1.683.382A3.373,3.373,0,0,1,17.5-11.316a5.515,5.515,0,0,1,.765,1.806A10.312,10.312,0,0,1,18.529-7.058ZM16.973-8.35a4.388,4.388,0,0,0-.189-1.327,3.213,3.213,0,0,0-.523-1.024,2.346,2.346,0,0,0-.8-.659,2.2,2.2,0,0,0-1.006-.233,2.282,2.282,0,0,0-.967.207,2.324,2.324,0,0,0-.778.58,2.77,2.77,0,0,0-.519.888A3.225,3.225,0,0,0,12.008-8.8a3.686,3.686,0,0,0,.18,1.2,2.5,2.5,0,0,0,.514.892,2.22,2.22,0,0,0,.8.558,2.714,2.714,0,0,0,1.042.193,2.387,2.387,0,0,0,.945-.189,2.5,2.5,0,0,0,.773-.51,2.349,2.349,0,0,0,.519-.756A2.324,2.324,0,0,0,16.973-8.35Zm11.4,2a12.381,12.381,0,0,1-.286,2.8,6.533,6.533,0,0,1-.826,2.061A3.718,3.718,0,0,1,25.936-.215,3.633,3.633,0,0,1,24.147.22,3.393,3.393,0,0,1,22.455-.2,3.546,3.546,0,0,1,21.2-1.415a6.17,6.17,0,0,1-.773-1.964,12.146,12.146,0,0,1-.264-2.667,13.749,13.749,0,0,1,.277-2.918,6.674,6.674,0,0,1,.813-2.123,3.619,3.619,0,0,1,1.332-1.292,3.739,3.739,0,0,1,1.824-.435Q28.375-12.814,28.375-6.354ZM26.9-6.214q0-5.379-2.558-5.379-2.7,0-2.7,5.476,0,5.106,2.646,5.106Q26.9-1.011,26.9-6.214ZM31.892-2,30.486,2.32H29.458L30.486-2ZM41.984-6.354a12.381,12.381,0,0,1-.286,2.8,6.533,6.533,0,0,1-.826,2.061A3.718,3.718,0,0,1,39.545-.215,3.633,3.633,0,0,1,37.756.22,3.393,3.393,0,0,1,36.064-.2a3.546,3.546,0,0,1-1.252-1.217,6.17,6.17,0,0,1-.773-1.964,12.146,12.146,0,0,1-.264-2.667,13.749,13.749,0,0,1,.277-2.918,6.674,6.674,0,0,1,.813-2.123A3.619,3.619,0,0,1,36.2-12.379a3.739,3.739,0,0,1,1.824-.435Q41.984-12.814,41.984-6.354Zm-1.477.141q0-5.379-2.558-5.379-2.7,0-2.7,5.476,0,5.106,2.646,5.106Q40.507-1.011,40.507-6.214Zm11.181-.141a12.381,12.381,0,0,1-.286,2.8,6.533,6.533,0,0,1-.826,2.061A3.718,3.718,0,0,1,49.25-.215,3.633,3.633,0,0,1,47.461.22,3.393,3.393,0,0,1,45.769-.2a3.546,3.546,0,0,1-1.252-1.217,6.17,6.17,0,0,1-.773-1.964,12.146,12.146,0,0,1-.264-2.667,13.749,13.749,0,0,1,.277-2.918,6.674,6.674,0,0,1,.813-2.123A3.619,3.619,0,0,1,45.9-12.379a3.739,3.739,0,0,1,1.824-.435Q51.689-12.814,51.689-6.354Zm-1.477.141q0-5.379-2.558-5.379-2.7,0-2.7,5.476,0,5.106,2.646,5.106Q50.212-1.011,50.212-6.214Zm11.181-.141a12.381,12.381,0,0,1-.286,2.8,6.533,6.533,0,0,1-.826,2.061A3.718,3.718,0,0,1,58.955-.215,3.633,3.633,0,0,1,57.166.22,3.393,3.393,0,0,1,55.474-.2a3.546,3.546,0,0,1-1.252-1.217,6.17,6.17,0,0,1-.773-1.964,12.146,12.146,0,0,1-.264-2.667,13.749,13.749,0,0,1,.277-2.918,6.674,6.674,0,0,1,.813-2.123,3.619,3.619,0,0,1,1.332-1.292,3.739,3.739,0,0,1,1.824-.435Q61.394-12.814,61.394-6.354Zm-1.477.141q0-5.379-2.558-5.379-2.7,0-2.7,5.476,0,5.106,2.646,5.106Q59.917-1.011,59.917-6.214Z" transform="translate(782.637 4844)" fill="#fff"/>
  </g>
</svg>
