<svg xmlns="http://www.w3.org/2000/svg" xmlns:xlink="http://www.w3.org/1999/xlink" width="93.656" height="93.656" viewBox="0 0 93.656 93.656">
  <defs>
    <filter id="Trazado_982547" x="0" y="0" width="93.656" height="93.656" filterUnits="userSpaceOnUse">
      <feOffset dy="3" input="SourceAlpha"/>
      <feGaussianBlur stdDeviation="3" result="blur"/>
      <feFlood flood-opacity="0.161"/>
      <feComposite operator="in" in2="blur"/>
      <feComposite in="SourceGraphic"/>
    </filter>
  </defs>
  <g id="Grupo_1182659" data-name="Grupo 1182659" transform="translate(-815.344 -5949.285)">
    <g id="Grupo_1181638" data-name="Grupo 1181638" transform="translate(824.344 5955.285)">
      <g id="Grupo_1180313" data-name="Grupo 1180313">
        <g id="Grupo_1180312" data-name="Grupo 1180312">
          <g id="Grupo_1174895" data-name="Grupo 1174895">
            <g id="Grupo_1172067" data-name="Grupo 1172067" transform="translate(0 0)">
              <g id="Grupo_1164308" data-name="Grupo 1164308" transform="translate(0 0)">
                <g id="Grupo_1163948" data-name="Grupo 1163948" transform="translate(0)">
                  <g id="Grupo_1158168" data-name="Grupo 1158168">
                    <g id="Grupo_1152576" data-name="Grupo 1152576">
                      <g id="Grupo_1148633" data-name="Grupo 1148633">
                        <g id="Grupo_1148525" data-name="Grupo 1148525">
                          <g transform="matrix(1, 0, 0, 1, -9, -6)" filter="url(#Trazado_982547)">
                            <g id="Trazado_982547-2" data-name="Trazado 982547" transform="translate(9 6)" fill="#e4f2f4">
                              <path d="M 37.8281364440918 74.15627288818359 C 32.92320251464844 74.15627288818359 28.16579246520996 73.19596862792969 23.68804740905762 71.30204772949219 C 19.36230278015137 69.47240447998047 15.47705841064453 66.85280609130859 12.1402702331543 63.51601409912109 C 8.803469657897949 60.17921447753906 6.1838698387146 56.29397964477539 4.354236602783203 51.96822357177734 C 2.460303068161011 47.49048233032227 1.500003099441528 42.73307037353516 1.500003099441528 37.8281364440918 C 1.500003099441528 32.92321395874023 2.460303068161011 28.16579246520996 4.354236602783203 23.68804740905762 C 6.1838698387146 19.36230278015137 8.803469657897949 15.47706985473633 12.1402702331543 12.1402702331543 C 15.47706985473633 8.803469657897949 19.36230278015137 6.1838698387146 23.68804740905762 4.354236602783203 C 28.16579246520996 2.460303068161011 32.92321395874023 1.500003099441528 37.8281364440918 1.500003099441528 C 42.73307037353516 1.500003099441528 47.49048233032227 2.460303068161011 51.96822357177734 4.354236602783203 C 56.29397964477539 6.1838698387146 60.17921447753906 8.803469657897949 63.51601409912109 12.1402702331543 C 66.85280609130859 15.47705841064453 69.47240447998047 19.36230278015137 71.30204772949219 23.68804740905762 C 73.19596862792969 28.16579246520996 74.15627288818359 32.92320251464844 74.15627288818359 37.8281364440918 C 74.15627288818359 42.73307037353516 73.19596862792969 47.49048233032227 71.30204772949219 51.96822357177734 C 69.47240447998047 56.29397964477539 66.85280609130859 60.17921447753906 63.51601409912109 63.51601409912109 C 60.17921447753906 66.85280609130859 56.29397964477539 69.47240447998047 51.96822357177734 71.30204772949219 C 47.49048233032227 73.19596862792969 42.73307037353516 74.15627288818359 37.8281364440918 74.15627288818359 Z" stroke="none"/>
                              <path d="M 37.8281364440918 3 C 33.12504959106445 3 28.56423568725586 3.920433044433594 24.27237319946289 5.735733032226562 C 20.12542343139648 7.48974609375 16.40044784545898 10.00139617919922 13.20092391967773 13.20092391967773 C 10.00139617919922 16.40044784545898 7.48974609375 20.12542343139648 5.735733032226562 24.27237319946289 C 3.920433044433594 28.56423568725586 3 33.12504959106445 3 37.8281364440918 C 3 42.53122329711914 3.920433044433594 47.09203720092773 5.735733032226562 51.3838996887207 C 7.48974609375 55.53084945678711 10.00139617919922 59.25582122802734 13.20092391967773 62.45534896850586 C 16.40044784545898 65.65487670898438 20.12542343139648 68.16652679443359 24.27237319946289 69.92053985595703 C 28.56423568725586 71.73583984375 33.12504959106445 72.65627288818359 37.8281364440918 72.65627288818359 C 42.53122329711914 72.65627288818359 47.09203720092773 71.73583984375 51.3838996887207 69.92053985595703 C 55.53084945678711 68.16652679443359 59.25582122802734 65.65487670898438 62.45534896850586 62.45534896850586 C 65.65487670898438 59.25582122802734 68.16652679443359 55.53084945678711 69.92053985595703 51.3838996887207 C 71.73583984375 47.09203720092773 72.65627288818359 42.53122329711914 72.65627288818359 37.8281364440918 C 72.65627288818359 33.12504959106445 71.73583984375 28.56423568725586 69.92053985595703 24.27237319946289 C 68.16652679443359 20.12542343139648 65.65487670898438 16.40044784545898 62.45534896850586 13.20092391967773 C 59.25582122802734 10.00139617919922 55.53084945678711 7.48974609375 51.3838996887207 5.735733032226562 C 47.09203720092773 3.920433044433594 42.53122329711914 3 37.8281364440918 3 M 37.8281364440918 0 C 58.72003555297852 0 75.65627288818359 16.93623733520508 75.65627288818359 37.8281364440918 C 75.65627288818359 58.72003555297852 58.72003555297852 75.65627288818359 37.8281364440918 75.65627288818359 C 16.93623733520508 75.65627288818359 0 58.72003555297852 0 37.8281364440918 C 0 16.93623733520508 16.93623733520508 0 37.8281364440918 0 Z" stroke="none" fill="#01899b"/>
                            </g>
                          </g>
                        </g>
                      </g>
                    </g>
                  </g>
                </g>
              </g>
            </g>
          </g>
        </g>
      </g>
    </g>
    <g id="acuerdo_1_" data-name="acuerdo (1)" transform="translate(818.045 5967.508)">
      <g id="Grupo_1182658" data-name="Grupo 1182658" transform="translate(22.273 1.742)">
        <g id="Grupo_1182655" data-name="Grupo 1182655" transform="translate(0)">
          <path id="Trazado_1043130" data-name="Trazado 1043130" d="M100.769,141.9,101.543,161H95.821L96.6,141.9Zm-24.45,0L77.093,161H71.371l.774-19.108Zm8.15,0L85.243,161H79.521L80.3,141.9Zm8.15,0L93.393,161H87.671l.774-19.108Z" transform="translate(-67.331 -129.043)" fill="#8d9ca8" fill-rule="evenodd"/>
          <path id="Trazado_1043131" data-name="Trazado 1043131" d="M46.464,140.9h32.18l1.549,3.719H44.915ZM45.3,119.763h34.5l-1.549,3.553H46.851Z" transform="translate(-43.428 -109.045)" fill="#7a8c98" fill-rule="evenodd"/>
          <path id="Trazado_1043132" data-name="Trazado 1043132" d="M30.276,43.045h36.7l.774,2.416H29.5ZM48.628,8.676l19.126,10-.774,1.707h-36.7L29.5,18.677Z" transform="translate(-29.502 -8.676)" fill="#8d9ca8" fill-rule="evenodd"/>
          <circle id="Elipse_13116" data-name="Elipse 13116" cx="2.776" cy="2.776" r="2.776" transform="translate(16.35 3.517)" fill="#eff4f7"/>
        </g>
        <g id="Grupo_1182657" data-name="Grupo 1182657" transform="translate(12.581 28.179)">
          <path id="Trazado_1043133" data-name="Trazado 1043133" d="M198.546,317.711l9.389,11.661a1.638,1.638,0,0,1-2.316,2.316A1.638,1.638,0,0,1,203.3,334l-1.263-1.263a1.638,1.638,0,0,1-2.316,2.316l-2.229-2.229a1.638,1.638,0,0,1-2.316,2.316l-9.134-9.134,1.852-8.3Z" transform="translate(-183.522 -316.072)" fill="#ffd6bd" fill-rule="evenodd"/>
          <path id="Trazado_1043134" data-name="Trazado 1043134" d="M283.157,406.292a.663.663,0,0,1,.938-.938l4.511,4.511a.663.663,0,0,1-.938.938Zm-5.184,4.079a.663.663,0,0,1,.938-.938l1.582,1.582a.663.663,0,0,1-.938.938Zm2.592-2.04,3.524,3.524a.663.663,0,0,0,.938-.938l-3.524-3.524a.663.663,0,1,0-.938.938Z" transform="translate(-266.404 -395.083)" fill="#f9c6aa" fill-rule="evenodd"/>
          <path id="Trazado_1043135" data-name="Trazado 1043135" d="M283.227,310c-.079.03-3.13-7.676-3.207-7.647-2.93,1.095-5.176,1.494-8.2-1a2.448,2.448,0,0,0-3.193-.082l-3.843,3.209a1.511,1.511,0,0,0-.583,1.5l1.166,5.342c2.964-.73,2.95-2.839,3.159-5.057.1-.849,1.473-.617,3.2.953l7.089,7.192Z" transform="translate(-254.109 -300.722)" fill="#eaab92" fill-rule="evenodd"/>
          <g id="Grupo_1182656" data-name="Grupo 1182656" transform="translate(0 0.167)">
            <path id="Trazado_1043136" data-name="Trazado 1043136" d="M418.348,303.033l2.866-.571a.572.572,0,0,1,.671.448l2.227,11.18a.572.572,0,0,1-.448.671l-2.866.571a.572.572,0,0,1-.671-.448L417.9,303.7A.572.572,0,0,1,418.348,303.033Z" transform="translate(-392.995 -302.451)" fill="#64b5f6" fill-rule="evenodd"/>
            <path id="Trazado_1043137" data-name="Trazado 1043137" d="M165.663,303.033l-2.866-.571a.572.572,0,0,0-.671.448L159.9,314.09a.572.572,0,0,0,.448.671l2.866.571a.572.572,0,0,0,.671-.448l2.227-11.18A.572.572,0,0,0,165.663,303.033Z" transform="translate(-159.888 -302.451)" fill="#64b5f6" fill-rule="evenodd"/>
          </g>
        </g>
      </g>
      <path id="Trazado_1043138" data-name="Trazado 1043138" d="M62.628,42.181,60.5,31.475l2.445-.487,2.133,10.705Zm-3.125.342,1.351-1.351-1.63-8.178c-1.892.542-4.306.6-7.162-1.753a1.881,1.881,0,0,0-1.14-.456H50.9a1.545,1.545,0,0,0-1.023.37l-3.818,3.188a.758.758,0,0,0-.32.734l.977,4.475c1.417-.612,1.59-1.754,1.759-3.671.013-.142.025-.285.039-.428a.135.135,0,0,1,0-.019,1.256,1.256,0,0,1,.82-1.07c.881-.328,2.208.232,3.642,1.537l.03.028Zm-.839,2.461a.86.86,0,0,1-1.209,0h0L52.611,40.14a.772.772,0,1,0-1.091,1.091l4.844,4.845a.855.855,0,0,1-1.21,1.209l-5.118-5.119a.772.772,0,0,0-1.091,1.091l3.862,3.863s0,0,0,0A.855.855,0,0,1,51.6,48.331L47.46,44.192a.772.772,0,0,0-1.092,1.092l1.924,1.923h0a.855.855,0,0,1-1.21,1.208l-7.124-7.125,1.768-8.878H45.96l-.893.746a2.254,2.254,0,0,0-.839,2.249l1.159,5.308a.771.771,0,0,0,.939.585c3.291-.81,3.5-3.186,3.685-5.282,0-.062.011-.123.015-.184a4.723,4.723,0,0,1,1.894,1.2l6.933,7.035a.861.861,0,0,1-.189.918Zm-22.9-3.29,2.445.487,2.133-10.706-2.446-.487ZM23.33,37.786l.28-.872H35.139l-.175.872ZM25.823,34.4h9.816l-.193.967H25.42Zm1.948-17.586h2.806l.65,16.042H27.12Zm-2.014-2.564H57.04l-.444,1.02H26.2Zm-2.48-2.133L41.4,2.644,59.52,12.12l-.267.59H23.544Zm20.793,4.7h2.806l.57,14.053H43.5ZM40.805,29.994l-.533-13.177h2.254l-.559,13.776a.767.767,0,0,0-.569-.481Zm-8.033,2.865-.65-16.042h2.254l-.65,16.042Zm3.759-2.93-.584,2.93h-.676l.649-16.042h2.807l.521,12.866-1.81-.361a.775.775,0,0,0-.579.115A.767.767,0,0,0,36.531,29.929Zm12.422-.01-.531-13.1h2.254l-.507,12.5A3.142,3.142,0,0,0,48.953,29.919Zm6.67,1.6a7.6,7.6,0,0,1-2.578-1.466,3.565,3.565,0,0,0-1.332-.7l.507-12.533h2.806ZM66.738,42.149,64.3,29.929a.772.772,0,0,0-.908-.606l-3.959.79a.77.77,0,0,0-.606.908l.09.453a6.027,6.027,0,0,1-1.743.277l-.606-14.933H57.1a.771.771,0,0,0,.707-.464l.916-2.1H59.75a.771.771,0,0,0,.7-.453l.775-1.707a.772.772,0,0,0-.346-1l-19.125-10a.777.777,0,0,0-.716,0l-19.125,10a.772.772,0,0,0-.345,1l.775,1.707a.771.771,0,0,0,.7.453h1.026l.916,2.1a.772.772,0,0,0,.707.464h.53l-.649,16.042h-.267a.773.773,0,0,0-.713.475l-.847,2.036h-.7a.772.772,0,0,0-.735.537l-.774,2.416a.772.772,0,0,0,.735,1.007H34.658l-.562,2.82a.772.772,0,0,0,.606.908l3.959.788a.716.716,0,0,0,.152.015.771.771,0,0,0,.756-.622l.025-.126,6.4,6.4a2.4,2.4,0,0,0,3.887-.716l.629.63a2.4,2.4,0,0,0,3.394,0,2.371,2.371,0,0,0,.511-.757,2.4,2.4,0,0,0,3.744-1.89,2.38,2.38,0,0,0,1.6-.7,2.422,2.422,0,0,0,.633-2.256l.827-.827.048.246a.774.774,0,0,0,.758.622.7.7,0,0,0,.15-.015l3.96-.788a.773.773,0,0,0,.606-.908ZM41.4,6.061a2,2,0,1,0,2,2A2.006,2.006,0,0,0,41.4,6.061Zm0,5.552a3.548,3.548,0,1,0-3.548-3.548A3.551,3.551,0,0,0,41.4,11.613Z" transform="translate(0)" fill-rule="evenodd"/>
    </g>
  </g>
</svg>
