<svg xmlns="http://www.w3.org/2000/svg" xmlns:xlink="http://www.w3.org/1999/xlink" width="190" height="150" viewBox="0 0 190 150">
  <defs>
    <clipPath id="clip-path">
      <rect id="Rectángulo_415914" data-name="Rectángulo 415914" width="190" height="150" transform="translate(810.461 8254)" fill="#fff" stroke="#707070" stroke-width="1" opacity="0.69"/>
    </clipPath>
  </defs>
  <g id="Enmascarar_grupo_1098828" data-name="Enmascarar grupo 1098828" transform="translate(-810.461 -8254)" clip-path="url(#clip-path)">
    <g id="Grupo_1182781" data-name="Grupo 1182781" transform="translate(821 8253.789)">
      <path id="Trazado_1043246" data-name="Trazado 1043246" d="M1108.588,254.711c-6.773,0-7.156-9.77-5.623-14.178,0,0-8.815-5.749-3.449-16.672s13.414-.575,14.564,1.916,11.69-9.39,17.63-8.815,6.132,6.9,7.474,6.9,10.126-2.3,15.22,1.15,1.445,6.9,2.5,8.624,8.915,3.641,3.166,9.582c0,0,9.582-.958,10.54,3.833s-2.3,6.707-1.916,8.432,8.624,11.686-8.623,14.946c0,0-.5,26.256-22.194,15.908S1108.588,254.711,1108.588,254.711Z" transform="translate(-1034.509 -216.941)" fill="#a56a42"/>
      <path id="Trazado_1043247" data-name="Trazado 1043247" d="M1031.265,480.653l4.927,49.131h29.428c-3.234-8.548-12.313-32.415-15.131-38.519-3.45-7.474-10.157-8.049-10.157-8.049A39.222,39.222,0,0,0,1031.265,480.653Z" transform="translate(-907.102 -393.318)" fill="#3bad96"/>
      <path id="Trazado_1043248" data-name="Trazado 1043248" d="M1264.434,530.429h37.852V481.617a68.509,68.509,0,0,0-7.438,2.084,21.016,21.016,0,0,0-11.151,8.975C1280.605,497.974,1269.448,520.336,1264.434,530.429Z" transform="translate(-1220.989 -393.963)" fill="#3bad96"/>
      <path id="Trazado_1043249" data-name="Trazado 1043249" d="M1107.621,525.516h62.45V478.948a39.211,39.211,0,0,0-9.067-2.563,159.737,159.737,0,0,0-18.177-2.036,94.126,94.126,0,0,0-24.689,2.356,68.5,68.5,0,0,0-7.438,2.084l-1.764,26.761-.475,7.262Z" transform="translate(-1036.84 -389.05)" fill="#3bad96"/>
      <path id="Trazado_1043250" data-name="Trazado 1043250" d="M1392.35,485.683l.072,3.25.978,43.318h21.076c-2.368-7.055-11.3-33.876-13.638-44.14a12.957,12.957,0,0,1-.535-3.769Z" transform="translate(-1375.541 -395.785)" fill="#ffaf82"/>
      <path id="Trazado_1043251" data-name="Trazado 1043251" d="M1056.825,605.726c-8.174.179-14.412,9.623-6.08,20.908a1.549,1.549,0,0,0,2.781-.8,8.865,8.865,0,0,0-.15-2.474s2.108,2.4,3.45-.1c0,0,.863,2.108,3.258.287,0,0,.958,2.683,3.737,1.054s5.462-10.732,2.683-15.235S1056.825,605.726,1056.825,605.726Z" transform="translate(-914.302 -476.925)" fill="#ffaf82"/>
      <path id="Trazado_1043252" data-name="Trazado 1043252" d="M1060.406,640.294a.6.6,0,0,0,.506-.278,21.743,21.743,0,0,0,2.776-9.594.6.6,0,0,0-1.2-.043c0,.052-.218,5.255-2.59,9a.6.6,0,0,0,.185.826A.584.584,0,0,0,1060.406,640.294Z" transform="translate(-914.624 -493.073)" fill="#fe976a"/>
      <path id="Trazado_1043253" data-name="Trazado 1043253" d="M1076.455,637.1a.6.6,0,0,0,.587-.482,35.176,35.176,0,0,0,.419-10.644.6.6,0,0,0-1.187.166,34.616,34.616,0,0,1-.407,10.244.6.6,0,0,0,.47.7A.616.616,0,0,0,1076.455,637.1Z" transform="translate(-933.931 -490.169)" fill="#fe976a"/>
      <path id="Trazado_1043254" data-name="Trazado 1043254" d="M1089.715,637.78a.6.6,0,0,0,.535-.867c-1.527-3.053-.622-9.836-.613-9.9a.6.6,0,0,0-1.187-.163c-.04.293-.964,7.217.728,10.6A.6.6,0,0,0,1089.715,637.78Z" transform="translate(-950.639 -490.75)" fill="#fe976a"/>
      <g id="Grupo_1182780" data-name="Grupo 1182780" transform="translate(71.619 116.5)">
        <path id="Trazado_1043255" data-name="Trazado 1043255" d="M1107.623,575.978a183.248,183.248,0,0,0,40.563,4.691,141.66,141.66,0,0,0,21.048-1.477v-7.3c-9.542,1.505-32.015,3.6-61.136-3.174Z" transform="translate(-1107.623 -568.716)" fill="#0091cc"/>
      </g>
      <path id="Trazado_1043256" data-name="Trazado 1043256" d="M1160.859,399.605v26.913s1.218,7.474,9.65,6.9a10.094,10.094,0,0,0,9.582-8.24V399.605h-19.232Z" transform="translate(-1064.491 -339.111)" fill="#ffaf82"/>
      <path id="Trazado_1043257" data-name="Trazado 1043257" d="M1160.86,399.605v24.969c11.522-.487,16.433-10.017,19.231-19.02v-5.949Z" transform="translate(-1064.493 -339.111)" fill="#fe976a"/>
      <path id="Trazado_1043258" data-name="Trazado 1043258" d="M1156.222,273.811c-8.624,15.091-12.073,53.036,12.073,53.036s31.045-19.835,25.44-42.687S1156.222,273.811,1156.222,273.811Z" transform="translate(-1076.291 -252.694)" fill="#ffaf82"/>
      <path id="Trazado_1043259" data-name="Trazado 1043259" d="M1117.63,371.084c2.468,7.617,16,5.4,16.815-3.155.792-8.3-8.65-11.836-14.852-6.377S1117.63,371.084,1117.63,371.084Z" transform="translate(-1004.107 -311.91)" fill="#ffaf82"/>
      <path id="Trazado_1043260" data-name="Trazado 1043260" d="M1135.806,378.521a.6.6,0,0,0,.482-.954c-.024-.033-2.442-3.379-1.138-5.884a.6.6,0,0,0-1.063-.553c-1.649,3.169,1.118,6.987,1.237,7.147A.594.594,0,0,0,1135.806,378.521Z" transform="translate(-1011.765 -319.85)" fill="#fe976a"/>
      <path id="Trazado_1043261" data-name="Trazado 1043261" d="M1141.575,382.183a8.121,8.121,0,0,0,2.58-.373.6.6,0,1,0-.386-1.134,10.7,10.7,0,0,1-4.981-.014.6.6,0,0,0-.29,1.162A14.034,14.034,0,0,0,1141.575,382.183Z" transform="translate(-1021.406 -326.429)" fill="#fe976a"/>
      <path id="Trazado_1043262" data-name="Trazado 1043262" d="M1228.559,402.025a12.317,12.317,0,0,0,6.024-1.815.6.6,0,0,0-.662-1c-.268.178-6.6,4.267-10.743-1.178a.6.6,0,0,0-.953.726A7.671,7.671,0,0,0,1228.559,402.025Z" transform="translate(-1139.533 -337.903)" fill="#6a2810"/>
      <path id="Trazado_1043263" data-name="Trazado 1043263" d="M1188.715,373.248a3.782,3.782,0,0,0,1.745-.443,2.816,2.816,0,0,0,1.628-2.428,3.191,3.191,0,0,0-1.369-2.74,1.715,1.715,0,0,0-1.755-.108.6.6,0,1,0,.563,1.057.506.506,0,0,1,.555.065,2,2,0,0,1,.809,1.677,1.623,1.623,0,0,1-.983,1.414,2.266,2.266,0,0,1-2.8-.388,3.437,3.437,0,0,1-.413-4.07,3.156,3.156,0,0,1,3.053-1.854,2.952,2.952,0,0,1,2.572,1.956.6.6,0,0,0,1.13-.4,4.15,4.15,0,0,0-3.612-2.753,4.357,4.357,0,0,0-4.2,2.487,4.627,4.627,0,0,0,.62,5.474A3.434,3.434,0,0,0,1188.715,373.248Z" transform="translate(-1085.883 -315.448)" fill="#fe976a"/>
      <path id="Trazado_1043264" data-name="Trazado 1043264" d="M1266.208,362.016a3.779,3.779,0,0,0,1.744-.443,2.815,2.815,0,0,0,1.628-2.428,3.191,3.191,0,0,0-1.369-2.74,1.715,1.715,0,0,0-1.755-.108.6.6,0,1,0,.563,1.057.5.5,0,0,1,.555.066,2,2,0,0,1,.81,1.677,1.624,1.624,0,0,1-.983,1.414,2.268,2.268,0,0,1-2.8-.388,3.437,3.437,0,0,1-.413-4.07,3.157,3.157,0,0,1,3.053-1.853,2.952,2.952,0,0,1,2.572,1.956.6.6,0,0,0,1.13-.4,4.15,4.15,0,0,0-3.612-2.753,4.355,4.355,0,0,0-4.2,2.486,4.627,4.627,0,0,0,.62,5.474A3.431,3.431,0,0,0,1266.208,362.016Z" transform="translate(-1189.039 -307.936)" fill="#fe976a"/>
      <path id="Trazado_1043265" data-name="Trazado 1043265" d="M1247.025,360.317a.6.6,0,0,0,.34-1.092l-4.733-3.258,4.885-7.076a.6.6,0,0,0-.986-.68l-5.226,7.57a.6.6,0,0,0,.153.833l5.226,3.6A.6.6,0,0,0,1247.025,360.317Z" transform="translate(-1158.633 -304.564)" fill="#6a2810"/>
      <path id="Trazado_1043266" data-name="Trazado 1043266" d="M1197.782,341c0,1.611.648,2.517,1.447,2.517s1.447-.906,1.447-2.517-.648-2.474-1.447-2.474S1197.782,339.388,1197.782,341Z" transform="translate(-1097.305 -298.258)" fill="#6a2810"/>
      <path id="Trazado_1043267" data-name="Trazado 1043267" d="M1256.862,333.462c0,1.611.648,2.517,1.447,2.517s1.447-.906,1.447-2.517-.648-2.474-1.447-2.474S1256.862,331.852,1256.862,333.462Z" transform="translate(-1175.95 -293.218)" fill="#6a2810"/>
      <path id="Trazado_1043268" data-name="Trazado 1043268" d="M1135.542,269.463c4.68-6.159,7.636-3.45,9.726,0s4.773.736,7.839-1.836,8.721-1.8,8.1,2.028,2.68,5.366,7.256,2.491,9.942,3.45,7.259,6.516-3.05,8.567,2.978,9.65,7.386-4.38,6.8-12.476-2.658-23.044-23.563-24.386-25.182,7.665-26.4,10.923A12.44,12.44,0,0,0,1135.542,269.463Z" transform="translate(-1061.463 -239.93)" fill="#a56a42"/>
      <path id="Trazado_1043269" data-name="Trazado 1043269" d="M1142.48,270.23c1.809-2.029,3.328-2.618,4.62-2.367,1.535.3,2.754,1.778,3.758,3.442.839,1.383,1.778,1.725,2.8,1.474h0c1.406-.346,2.971-1.809,4.658-3.222a6.447,6.447,0,0,1,4.608-1.4c1.915.182,3.427,1.307,3.1,3.332-.418,2.568,1.018,4.05,3.423,3.75a8.8,8.8,0,0,0,3.484-1.379,4.331,4.331,0,0,1,2.922-.657c3.324.444,5.972,4.589,3.986,6.858-2.553,2.918-2.9,8.153,2.834,9.183a6.876,6.876,0,0,0,1.9.1c4.126-.372,5.064-5.205,4.578-11.975-.555-7.7-2.53-21.929-22.423-23.206q-1.8-.114-3.438-.125h-.057c-15.911.235-19.422,7.678-20.486,10.52A10.945,10.945,0,0,0,1142.48,270.23Z" transform="translate(-1067.493 -241.752)" fill="#fe976a"/>
      <path id="Trazado_1043270" data-name="Trazado 1043270" d="M1138.889,268.341c.14.7.276,1.13.276,1.13,1.753-2.308,3.266-3.37,4.579-3.617,2.2-.407,3.841,1.461,5.146,3.617a3.146,3.146,0,0,0,1.745,1.549h0c1.765.5,3.825-1.481,6.092-3.386a6.72,6.72,0,0,1,3.645-1.473c2.523-.232,4.863.962,4.452,3.5-.363,2.24.611,3.693,2.4,3.941a7.6,7.6,0,0,0,4.859-1.449,4.7,4.7,0,0,1,1.872-.691c4-.535,7.706,4.555,5.386,7.206-2.683,3.066-3.05,8.568,2.978,9.65.276.048.539.084.794.108,4.336-.391,5.322-5.47,4.811-12.584-.583-8.1-2.659-23.044-23.563-24.386q-1.892-.12-3.613-.132h-.06c-16.72.247-20.409,8.069-21.527,11.055A11.563,11.563,0,0,0,1138.889,268.341Z" transform="translate(-1065.088 -239.938)" fill="#a56a42"/>
      <path id="Trazado_1043271" data-name="Trazado 1043271" d="M1424.77,443.363c1.92,3.545,7.765,5.557,10.161,5.749s5.813,1.337,5.845,2.779l.072,3.25,8.416-.822a12.957,12.957,0,0,1-.535-3.769,16.169,16.169,0,0,1,2.587-7.282c2.491-4.024.288-7.761-1.629-6.037s-1.916,5.366-4.12,5.653-6.515-1.342-10.157-4.216-6.324-6.8-7.953-3.737c0,0-3.545-.479-2.491,3.545C1424.962,438.476,1422.849,439.818,1424.77,443.363Z" transform="translate(-1423.963 -361.992)" fill="#ffaf82"/>
      <path id="Trazado_1043272" data-name="Trazado 1043272" d="M1478.814,445.195a.6.6,0,0,0,.17-1.173c-8.256-2.449-9.152-8.077-9.159-8.134a.6.6,0,0,0-1.186.17c.038.262,1.02,6.447,10,9.113A.619.619,0,0,0,1478.814,445.195Z" transform="translate(-1465.741 -363.033)" fill="#fe976a"/>
      <path id="Trazado_1043273" data-name="Trazado 1043273" d="M1487.888,453.888a.6.6,0,0,0,.073-1.193c-5.8-.714-8.316-6.2-8.341-6.26a.6.6,0,0,0-1.095.485c.111.251,2.8,6.165,9.29,6.964A.666.666,0,0,0,1487.888,453.888Z" transform="translate(-1478.074 -370.194)" fill="#fe976a"/>
      <path id="Trazado_1043274" data-name="Trazado 1043274" d="M1106.411,576.729a.6.6,0,0,0,.6-.6V550.547a.6.6,0,1,0-1.2,0V576.13A.6.6,0,0,0,1106.411,576.729Z" transform="translate(-973.18 -439.664)" fill="#6a2810"/>
      <path id="Trazado_1043275" data-name="Trazado 1043275" d="M1289.206,569.711a.6.6,0,0,0,.6-.559l1.913-29.058a.6.6,0,0,0-1.2-.079l-1.913,29.058a.6.6,0,0,0,.558.637Z" transform="translate(-1218.425 -432.646)" fill="#6a2810"/>
    </g>
  </g>
</svg>
