<svg xmlns="http://www.w3.org/2000/svg" xmlns:xlink="http://www.w3.org/1999/xlink" width="113" height="113" viewBox="0 0 113 113">
  <defs>
    <filter id="Trazado_982547" x="0" y="0" width="113" height="113" filterUnits="userSpaceOnUse">
      <feOffset dy="3" input="SourceAlpha"/>
      <feGaussianBlur stdDeviation="3" result="blur"/>
      <feFlood flood-opacity="0.161"/>
      <feComposite operator="in" in2="blur"/>
      <feComposite in="SourceGraphic"/>
    </filter>
  </defs>
  <g id="Grupo_1182625" data-name="Grupo 1182625" transform="translate(-614 -6361)">
    <g id="Grupo_1178992" data-name="Grupo 1178992" transform="translate(443 5391)">
      <g id="Grupo_1173577" data-name="Grupo 1173577" transform="translate(0 -1581)">
        <g id="Grupo_1168598" data-name="Grupo 1168598" transform="translate(0 -730)">
          <g id="Grupo_1167519" data-name="Grupo 1167519" transform="translate(180 3287)">
            <g id="Grupo_1166845" data-name="Grupo 1166845" transform="translate(0)">
              <g id="Grupo_1166720" data-name="Grupo 1166720">
                <g id="Grupo_1164305" data-name="Grupo 1164305">
                  <g id="Grupo_1163948" data-name="Grupo 1163948">
                    <g id="Grupo_1158168" data-name="Grupo 1158168">
                      <g id="Grupo_1152576" data-name="Grupo 1152576">
                        <g id="Grupo_1148633" data-name="Grupo 1148633">
                          <g id="Grupo_1148525" data-name="Grupo 1148525">
                            <g transform="matrix(1, 0, 0, 1, -9, -6)" filter="url(#Trazado_982547)">
                              <g id="Trazado_982547-2" data-name="Trazado 982547" transform="translate(9 6)" fill="#f5fdfa">
                                <path d="M 47.5 93.5 C 41.28937149047852 93.5 35.26533508300781 92.28397369384766 29.59518623352051 89.88570404052734 C 24.11771965026855 87.56893157958984 19.19813346862793 84.25196075439453 14.97309303283691 80.02691650390625 C 10.74804019927979 75.80186462402344 7.431066513061523 70.88229370117188 5.114293098449707 65.40481567382812 C 2.716026782989502 59.73468017578125 1.5 53.71062850952148 1.5 47.5 C 1.5 41.28937149047852 2.716026782989502 35.26533508300781 5.114293098449707 29.59518623352051 C 7.431066513061523 24.11771965026855 10.74804019927979 19.19813346862793 14.97309303283691 14.97309303283691 C 19.19813346862793 10.74804019927979 24.11771965026855 7.431066513061523 29.59518623352051 5.114293098449707 C 35.26533508300781 2.716026782989502 41.28937149047852 1.5 47.5 1.5 C 53.71062850952148 1.5 59.73468017578125 2.716026782989502 65.40481567382812 5.114293098449707 C 70.88229370117188 7.431066513061523 75.80186462402344 10.74804019927979 80.02691650390625 14.97309303283691 C 84.25196075439453 19.19813346862793 87.56893157958984 24.11771965026855 89.88570404052734 29.59518623352051 C 92.28397369384766 35.26533508300781 93.5 41.28937149047852 93.5 47.5 C 93.5 53.71062850952148 92.28397369384766 59.73468017578125 89.88570404052734 65.40481567382812 C 87.56893157958984 70.88229370117188 84.25196075439453 75.80186462402344 80.02691650390625 80.02691650390625 C 75.80186462402344 84.25196075439453 70.88229370117188 87.56893157958984 65.40481567382812 89.88570404052734 C 59.73468017578125 92.28397369384766 53.71062850952148 93.5 47.5 93.5 Z" stroke="none"/>
                                <path d="M 47.5 3 C 41.49121475219727 3 35.66376876831055 4.176155090332031 30.17950439453125 6.495796203613281 C 24.88084411621094 8.736953735351562 20.12152099609375 11.94598388671875 16.03375244140625 16.03375244140625 C 11.94598388671875 20.12152099609375 8.736953735351562 24.88084411621094 6.495796203613281 30.17950439453125 C 4.176155090332031 35.66376876831055 3 41.49121475219727 3 47.5 C 3 53.50878524780273 4.176155090332031 59.33623123168945 6.495796203613281 64.82049560546875 C 8.736953735351562 70.11915588378906 11.94598388671875 74.87847900390625 16.03375244140625 78.96624755859375 C 20.12152099609375 83.05401611328125 24.88084411621094 86.26304626464844 30.17950439453125 88.50419616699219 C 35.66376876831055 90.82384490966797 41.49121475219727 92 47.5 92 C 53.50878524780273 92 59.33623123168945 90.82384490966797 64.82049560546875 88.50419616699219 C 70.11915588378906 86.26304626464844 74.87847900390625 83.05401611328125 78.96624755859375 78.96624755859375 C 83.05401611328125 74.87847900390625 86.26304626464844 70.11915588378906 88.50419616699219 64.82049560546875 C 90.82384490966797 59.33623123168945 92 53.50878524780273 92 47.5 C 92 41.49121475219727 90.82384490966797 35.66376876831055 88.50419616699219 30.17950439453125 C 86.26304626464844 24.88084411621094 83.05401611328125 20.12152099609375 78.96624755859375 16.03375244140625 C 74.87847900390625 11.94598388671875 70.11915588378906 8.736953735351562 64.82049560546875 6.495796203613281 C 59.33623123168945 4.176155090332031 53.50878524780273 3 47.5 3 M 47.5 0 C 73.7335205078125 0 95 21.2664794921875 95 47.5 C 95 73.7335205078125 73.7335205078125 95 47.5 95 C 21.2664794921875 95 0 73.7335205078125 0 47.5 C 0 21.2664794921875 21.2664794921875 0 47.5 0 Z" stroke="none" fill="#598475"/>
                              </g>
                            </g>
                          </g>
                        </g>
                      </g>
                    </g>
                  </g>
                </g>
              </g>
            </g>
          </g>
        </g>
      </g>
    </g>
    <g id="acuerdo" transform="translate(633 6371.174)">
      <g id="Grupo_1182623" data-name="Grupo 1182623" transform="translate(1.093 7.923)">
        <path id="Trazado_1043009" data-name="Trazado 1043009" d="M152.879,77.593l-3.458-4.616-3.458,4.616c-6.445,3.98-14.72,15.889-14.72,23.816,0,10.04,8.139,13.406,18.179,13.406s18.179-3.366,18.179-13.406C167.6,93.482,159.324,81.573,152.879,77.593Z" transform="translate(-113.211 -64.436)" fill="#e19974"/>
        <path id="Trazado_1043010" data-name="Trazado 1043010" d="M248.023,77.593l-3.458-4.616-1.95,2.6,1.434,2.013c6.129,3.98,14,15.889,14,23.816,0,9.381-6.758,12.935-15.433,13.361q.961.045,1.95.045c10.04,0,18.179-3.366,18.179-13.406C262.743,93.482,254.468,81.573,248.023,77.593Z" transform="translate(-208.355 -64.436)" fill="#dd7f66"/>
        <path id="Trazado_1043011" data-name="Trazado 1043011" d="M213.083,17.187a3.2,3.2,0,0,0-4.315-.918l-.046.029a.352.352,0,0,1-.45-.07l-.479-.557a3.773,3.773,0,0,0-5.72,0l-.479.557a.351.351,0,0,1-.45.07l-.046-.029a3.2,3.2,0,0,0-4.3,4.56l4.675,6.687h6.917l4.675-6.687A3.2,3.2,0,0,0,213.083,17.187Z" transform="translate(-168.723 -14.358)" fill="#e19974"/>
        <path id="Trazado_1043012" data-name="Trazado 1043012" d="M261.126,25.623a3.2,3.2,0,0,0-3.117-1.355,3.336,3.336,0,0,1-.066,3.559l-5.483,8.124h3.974l4.675-6.687A3.2,3.2,0,0,0,261.126,25.623Z" transform="translate(-216.766 -22.794)" fill="#dd7f66"/>
        <path id="Trazado_1043013" data-name="Trazado 1043013" d="M231.651,220.153l-15.889,11.586a1.455,1.455,0,0,1-1.377.183l-3.6-1.377a5.678,5.678,0,0,0-5.81,1.068l-4.849,4.331a2.729,2.729,0,0,0,3.506,4.179l4.7-3.7a1.437,1.437,0,0,1,1.735-.032l1.07.78,10.758,10.6A6.915,6.915,0,0,1,224,245.275l16.954-12.362Z" transform="translate(-171.278 -190.166)" fill="#d78878"/>
        <path id="Trazado_1043014" data-name="Trazado 1043014" d="M348.346,220.153l-.423.308,7.336,10.06-13.853,10.1-4.084,2.9a6.911,6.911,0,0,0-1.509,1.511l2.774,2.732a6.916,6.916,0,0,1,2.111-2.494l16.954-12.362Z" transform="translate(-287.973 -190.166)" fill="#ca6e59"/>
        <path id="Trazado_1043015" data-name="Trazado 1043015" d="M74.416,245.184l-16.6-12.1-5.041-.778a2.6,2.6,0,0,1-1.137-.469L35.62,220.153l-9.3,12.76L43.27,245.275a6.917,6.917,0,0,1,2.111,2.494l1.061,2.121a6.917,6.917,0,0,0,2.111,2.494l10.524,7.674a2.681,2.681,0,0,0,3.66-.431,2.632,2.632,0,0,0-.5-3.778l1.375,1a2.681,2.681,0,0,0,3.66-.431,2.632,2.632,0,0,0-.5-3.778l.689.5a2.681,2.681,0,0,0,3.66-.431,2.632,2.632,0,0,0-.5-3.778l.749.546a2.632,2.632,0,0,0,3.75-.68A2.681,2.681,0,0,0,74.416,245.184Z" transform="translate(-23.574 -190.166)" fill="#ffcebf"/>
        <path id="Trazado_1043016" data-name="Trazado 1043016" d="M251.309,381.9l-2.348-1.712a2.669,2.669,0,0,1,.469,3.418,2.632,2.632,0,0,1-3.75.68l-.749-.546a2.632,2.632,0,0,1,.5,3.778,2.681,2.681,0,0,1-3.66.431l-.689-.5a2.632,2.632,0,0,1,.5,3.778,2.681,2.681,0,0,1-3.66.431l-1.375-1a2.632,2.632,0,0,1,.5,3.778,2.681,2.681,0,0,1-3.66.431l2.588,1.911a2.681,2.681,0,0,0,3.66-.431,2.632,2.632,0,0,0-.5-3.778l1.375,1a2.681,2.681,0,0,0,3.66-.431,2.632,2.632,0,0,0-.5-3.778l.689.5a2.681,2.681,0,0,0,3.66-.431,2.632,2.632,0,0,0-.5-3.778l.749.546a2.632,2.632,0,0,0,3.75-.68A2.681,2.681,0,0,0,251.309,381.9Z" transform="translate(-200.467 -326.882)" fill="#ffb09e"/>
        <path id="Trazado_1043017" data-name="Trazado 1043017" d="M61.346,257.787l-10.524-7.674a6.917,6.917,0,0,1-2.111-2.494L47.65,245.5A6.917,6.917,0,0,0,45.54,243L28.586,230.642l7.435-10.2-.4-.293-9.3,12.76,16.954,12.362a6.917,6.917,0,0,1,2.111,2.494l1.061,2.121a6.917,6.917,0,0,0,2.111,2.494l10.524,7.674a2.681,2.681,0,0,0,3.66-.431,2.62,2.62,0,0,0,.561-1.332A2.751,2.751,0,0,1,61.346,257.787Z" transform="translate(-23.573 -190.166)" fill="#ffb09e"/>
        <path id="Trazado_1043018" data-name="Trazado 1043018" d="M0,0H15.792V6.94H0Z" transform="translate(10.985 48.752) rotate(-53.909)" fill="#e5eef9"/>
        <path id="Trazado_1043019" data-name="Trazado 1043019" d="M0,0H3.173V6.94H0Z" transform="translate(10.984 48.751) rotate(-53.909)" fill="#c4e2ff"/>
        <path id="Trazado_1043020" data-name="Trazado 1043020" d="M18.943,215.795l8.849,6.453L17.538,236.309a1.189,1.189,0,0,1-1.661.26l-7.889-5.752a1.189,1.189,0,0,1-.26-1.661l9.553-13.1a1.189,1.189,0,0,1,1.661-.26Z" transform="translate(-7.5 -186.248)" fill="#0ed2b3"/>
        <path id="Trazado_1043021" data-name="Trazado 1043021" d="M7.728,299.4l1.174-1.61a1.281,1.281,0,0,0,.454.609l8.542,6.228a1.281,1.281,0,0,0,.868.241l-1.228,1.684a1.189,1.189,0,0,1-1.661.26l-7.889-5.752a1.188,1.188,0,0,1-.26-1.661Z" transform="translate(-7.5 -256.487)" fill="#0ab69f"/>
        <path id="Trazado_1043022" data-name="Trazado 1043022" d="M210.784,289.279a5.678,5.678,0,0,0-5.81,1.069l-4.849,4.331a2.729,2.729,0,0,0,3.506,4.179l4.7-3.7a1.437,1.437,0,0,1,1.735-.032l1.07.78,3.251-5.251Z" transform="translate(-171.279 -248.9)" fill="#d78878"/>
        <path id="Trazado_1043023" data-name="Trazado 1043023" d="M0,0H6.94V15.792H0Z" transform="translate(46.513 40.097) rotate(-36.091)" fill="#e5eef9"/>
        <path id="Trazado_1043024" data-name="Trazado 1043024" d="M377.1,334.548l1.968,2.7,5.608-4.089-1.968-2.7Z" transform="translate(-323.247 -284.399)" fill="#c4e2ff"/>
        <path id="Trazado_1043025" data-name="Trazado 1043025" d="M374.092,215.795l-8.849,6.453L375.5,236.309a1.189,1.189,0,0,0,1.661.26l7.889-5.752a1.189,1.189,0,0,0,.26-1.661l-9.553-13.1A1.188,1.188,0,0,0,374.092,215.795Z" transform="translate(-313.116 -186.248)" fill="#596c76"/>
        <path id="Trazado_1043026" data-name="Trazado 1043026" d="M438.222,299.4l-1.174-1.61a1.282,1.282,0,0,1-.454.609l-8.542,6.228a1.281,1.281,0,0,1-.868.241l1.228,1.684a1.189,1.189,0,0,0,1.661.26l7.889-5.752A1.189,1.189,0,0,0,438.222,299.4Z" transform="translate(-366.032 -256.487)" fill="#465a61"/>
        <g id="Grupo_1182622" data-name="Grupo 1182622" transform="translate(18.641 55.961)">
          <path id="Trazado_1043027" data-name="Trazado 1043027" d="M139.721,398.8a2.267,2.267,0,0,0-3.075.5l-.742.953a2.225,2.225,0,1,0,3.511,2.735l.781-1A2.225,2.225,0,0,0,139.721,398.8Z" transform="translate(-135.434 -398.41)" fill="#d78878"/>
          <path id="Trazado_1043028" data-name="Trazado 1043028" d="M163.278,417.835a2.356,2.356,0,0,0-3.2.522l-.771.99a2.313,2.313,0,0,0,3.649,2.842l.811-1.042A2.313,2.313,0,0,0,163.278,417.835Z" transform="translate(-155.414 -414.654)" fill="#d78878"/>
          <path id="Trazado_1043029" data-name="Trazado 1043029" d="M188.322,437.342a2.356,2.356,0,0,0-3.2.521l-.771.99A2.313,2.313,0,0,0,188,441.7l.811-1.042A2.313,2.313,0,0,0,188.322,437.342Z" transform="translate(-176.809 -431.319)" fill="#d78878"/>
          <path id="Trazado_1043030" data-name="Trazado 1043030" d="M213.366,456.849a2.356,2.356,0,0,0-3.2.521l-.771.99a2.313,2.313,0,0,0,3.649,2.842l.811-1.042A2.313,2.313,0,0,0,213.366,456.849Z" transform="translate(-198.204 -447.983)" fill="#d78878"/>
        </g>
      </g>
      <g id="Grupo_1182624" data-name="Grupo 1182624" transform="translate(0 6.826)">
        <path id="Trazado_1043031" data-name="Trazado 1043031" d="M232.228,175.273a1.093,1.093,0,0,0,1.093-1.093v-.81a3.589,3.589,0,0,0,2.916-2.786c.224-1.253-.348-2.891-2.622-3.73l-.407-.15a16.1,16.1,0,0,1-2.1-.861.524.524,0,0,1-.258-.551,1.034,1.034,0,0,1,.789-.856,3.084,3.084,0,0,1,2.554.589,1.093,1.093,0,0,0,1.4-1.678,5.745,5.745,0,0,0-2.271-1.08v-.833a1.093,1.093,0,1,0-2.186,0v.873c-.043.012-.086.022-.13.035a3.228,3.228,0,0,0-2.333,2.724,2.694,2.694,0,0,0,1.387,2.7,17.531,17.531,0,0,0,2.393.993l.406.149c.411.152,1.354.582,1.226,1.295a1.587,1.587,0,0,1-1.64,1.076,3.224,3.224,0,0,1-2.369-.993,1.093,1.093,0,0,0-1.62,1.468,5.3,5.3,0,0,0,2.679,1.553v.877a1.092,1.092,0,0,0,1.093,1.093Z" transform="translate(-194.926 -137.974)"/>
        <path id="Trazado_1043032" data-name="Trazado 1043032" d="M74.167,50.185l-9.553-13.1a2.282,2.282,0,0,0-3.188-.5l-5.478,3.994a37.706,37.706,0,0,0-5.9-11.725,1.093,1.093,0,0,0-1.772,1.28A34.056,34.056,0,0,1,54.04,41.969L44.932,48.61a.363.363,0,0,1-.343.046l-3.6-1.377a6.748,6.748,0,0,0-6.93,1.274l-.933.834-2.665-.411A1.519,1.519,0,0,1,29.8,48.7l-7.772-5.666-1.463-1.067c1.614-7.36,8.424-16.448,13.6-19.8h6.283a25.576,25.576,0,0,1,4.665,4.076,1.093,1.093,0,0,0,1.6-1.484A29.454,29.454,0,0,0,42.3,20.787l4.035-5.771a4.293,4.293,0,0,0-5.248-6.389,4.915,4.915,0,0,0-3.782-1.8,5.025,5.025,0,0,0-3.782,1.8,4.293,4.293,0,0,0-5.248,6.389l4.036,5.773C27,24.575,20.644,33.112,18.654,40.577l-5.476-3.993a2.281,2.281,0,0,0-3.188.5L5.416,43.356a1.093,1.093,0,0,0,1.766,1.288l4.574-6.273a.1.1,0,0,1,.134-.021l7.966,5.809-9.61,13.179a.1.1,0,0,1-.134.021L2.224,51.606a.1.1,0,0,1-.021-.134l1.975-2.708a1.093,1.093,0,0,0-1.766-1.288L.437,50.185a2.284,2.284,0,0,0,.5,3.188l7.889,5.752a2.28,2.28,0,0,0,3.188-.5l.306-.42c.3.216,7.761,5.659,7.889,5.755-.042.048-.085.094-.124.145l-.742.953a3.315,3.315,0,0,0,2.733,5.353,3.412,3.412,0,0,0,1.287,2.27,3.37,3.37,0,0,0,2.383.7A3.4,3.4,0,0,0,29.4,76.228,3.4,3.4,0,0,0,35.141,78.1l.808.59a3.84,3.84,0,0,0,2.27.747,3.707,3.707,0,0,0,3.691-3.3,3.708,3.708,0,0,0,4.558-3.615,3.7,3.7,0,0,0,3.851-3.692,3.706,3.706,0,0,0,3.734-4.591c.305-.269-.3.185,8.232-6.035l.306.42a2.28,2.28,0,0,0,3.188.5l7.889-5.752a2.284,2.284,0,0,0,.5-3.188ZM30.053,11.366a2.1,2.1,0,0,1,2.841-.6l.046.029a1.438,1.438,0,0,0,1.851-.289A3.221,3.221,0,0,1,37.3,9.012a2.678,2.678,0,0,1,2.032.932l.479.556a1.438,1.438,0,0,0,1.852.289l.046-.028a2.107,2.107,0,0,1,2.83,3l-4.349,6.221H34.414l-4.349-6.221a2.117,2.117,0,0,1-.012-2.4ZM13.607,56.44l8.016-10.994,3.842,2.8L17.449,59.241Zm7.657,11.551a1.132,1.132,0,0,1-.2-1.589l.742-.953a1.227,1.227,0,0,1,.961-.474,1.073,1.073,0,0,1,.622.193,1.132,1.132,0,0,1,.243,1.623l-.781,1a1.134,1.134,0,0,1-1.589.2Zm3.442,2.966a1.231,1.231,0,0,1-.128-1.821l.687-.882a1.268,1.268,0,0,1,1.7-.3,1.213,1.213,0,0,1,.505.819,1.234,1.234,0,0,1-.284.98l-.771.99a1.22,1.22,0,0,1-1.712.213ZM28.355,73.8a1.222,1.222,0,0,1-.213-1.712l.771-.99a1.268,1.268,0,0,1,1.7-.3,1.213,1.213,0,0,1,.506.819,1.236,1.236,0,0,1-.284.98l-.771.99a1.221,1.221,0,0,1-1.712.213ZM32,76.643a1.22,1.22,0,0,1-.213-1.712l.771-.99a1.268,1.268,0,0,1,1.7-.3,1.22,1.22,0,0,1,.261,1.748l-.811,1.042A1.221,1.221,0,0,1,32,76.643Zm7.4.055a1.592,1.592,0,0,1-2.163.233l-.751-.548a3.423,3.423,0,0,0,.445-2.244,3.371,3.371,0,0,0-1.119-2.057l3.29,2.4.008.006,0,0A1.538,1.538,0,0,1,39.4,76.7ZM51.731,65.954a1.538,1.538,0,0,1-2.193.4L43.08,61.645a1.093,1.093,0,0,0-1.288,1.766l5.7,4.156.007.006a1.54,1.54,0,0,1,.292,2.21,1.6,1.6,0,0,1-2.165.233l-.689-.5-5.043-3.677A1.093,1.093,0,0,0,38.607,67.6L43.65,71.28a1.54,1.54,0,0,1,.291,2.21,1.6,1.6,0,0,1-2.158.238L35.8,69.364a1.093,1.093,0,0,0-1.288,1.766l.837.61a3.351,3.351,0,0,0-2.069-.483,3.38,3.38,0,0,0-3.649-2.842,3.382,3.382,0,0,0-3.614-2.846,3.3,3.3,0,0,0-3.774-2.742,7.969,7.969,0,0,0-.808-.68L19.215,60.53l8.017-10.994,1.279.932a3.716,3.716,0,0,0,1.616.669l.889.137-1.8,1.611a3.822,3.822,0,0,0,4.91,5.853l4.7-3.7a.34.34,0,0,1,.4-.017l12.072,8.8a1.593,1.593,0,0,1,.44,2.131Zm1.192-3.615a3.9,3.9,0,0,0-.344-.283L40.472,53.229a2.515,2.515,0,0,0-3,.092l-4.7,3.7a1.636,1.636,0,0,1-2.1-2.505l4.848-4.33a4.571,4.571,0,0,1,4.693-.863l3.6,1.378a2.544,2.544,0,0,0,2.409-.322l1.154-.841L55.39,60.529c-2.324,1.7-2.156,1.563-2.467,1.81Zm4.233-3.1L49.139,48.247l3.842-2.8L61,56.439ZM72.38,51.606l-7.889,5.752a.094.094,0,0,1-.071.017.092.092,0,0,1-.063-.038l-9.61-13.179,7.966-5.809a.1.1,0,0,1,.134.021l9.554,13.1a.1.1,0,0,1-.021.134Z" transform="translate(0 -6.826)"/>
      </g>
    </g>
  </g>
</svg>
