<svg xmlns="http://www.w3.org/2000/svg" xmlns:xlink="http://www.w3.org/1999/xlink" width="113" height="113" viewBox="0 0 113 113">
  <defs>
    <filter id="Trazado_982547" x="0" y="0" width="113" height="113" filterUnits="userSpaceOnUse">
      <feOffset dy="3" input="SourceAlpha"/>
      <feGaussianBlur stdDeviation="3" result="blur"/>
      <feFlood flood-opacity="0.161"/>
      <feComposite operator="in" in2="blur"/>
      <feComposite in="SourceGraphic"/>
    </filter>
  </defs>
  <g id="Grupo_1182628" data-name="Grupo 1182628" transform="translate(-324 -6808)">
    <g id="Grupo_1182237" data-name="Grupo 1182237" transform="translate(0 4616)">
      <g id="Grupo_1179952" data-name="Grupo 1179952" transform="translate(-0.461 -2181)">
        <g id="Grupo_1174861" data-name="Grupo 1174861" transform="translate(0.461 -1575.015)">
          <g id="Grupo_1174057" data-name="Grupo 1174057" transform="translate(333 5954.015)">
            <g id="Grupo_1172010" data-name="Grupo 1172010">
              <g id="Grupo_1171046" data-name="Grupo 1171046">
                <g id="Grupo_1148525" data-name="Grupo 1148525">
                  <g transform="matrix(1, 0, 0, 1, -9, -6)" filter="url(#Trazado_982547)">
                    <g id="Trazado_982547-2" data-name="Trazado 982547" transform="translate(9 6)" fill="#e8edf7">
                      <path d="M 47.5 93.5 C 41.28937149047852 93.5 35.26533508300781 92.28397369384766 29.59518623352051 89.88570404052734 C 24.11771965026855 87.56893157958984 19.19813346862793 84.25196075439453 14.97309303283691 80.02691650390625 C 10.74804019927979 75.80186462402344 7.431066513061523 70.88229370117188 5.114293098449707 65.40481567382812 C 2.716026782989502 59.73468017578125 1.5 53.71062850952148 1.5 47.5 C 1.5 41.28937149047852 2.716026782989502 35.26533508300781 5.114293098449707 29.59518623352051 C 7.431066513061523 24.11771965026855 10.74804019927979 19.19813346862793 14.97309303283691 14.97309303283691 C 19.19813346862793 10.74804019927979 24.11771965026855 7.431066513061523 29.59518623352051 5.114293098449707 C 35.26533508300781 2.716026782989502 41.28937149047852 1.5 47.5 1.5 C 53.71062850952148 1.5 59.73468017578125 2.716026782989502 65.40481567382812 5.114293098449707 C 70.88229370117188 7.431066513061523 75.80186462402344 10.74804019927979 80.02691650390625 14.97309303283691 C 84.25196075439453 19.19813346862793 87.56893157958984 24.11771965026855 89.88570404052734 29.59518623352051 C 92.28397369384766 35.26533508300781 93.5 41.28937149047852 93.5 47.5 C 93.5 53.71062850952148 92.28397369384766 59.73468017578125 89.88570404052734 65.40481567382812 C 87.56893157958984 70.88229370117188 84.25196075439453 75.80186462402344 80.02691650390625 80.02691650390625 C 75.80186462402344 84.25196075439453 70.88229370117188 87.56893157958984 65.40481567382812 89.88570404052734 C 59.73468017578125 92.28397369384766 53.71062850952148 93.5 47.5 93.5 Z" stroke="none"/>
                      <path d="M 47.5 3 C 41.49121475219727 3 35.66376876831055 4.176155090332031 30.17950439453125 6.495796203613281 C 24.88084411621094 8.736953735351562 20.12152099609375 11.94598388671875 16.03375244140625 16.03375244140625 C 11.94598388671875 20.12152099609375 8.736953735351562 24.88084411621094 6.495796203613281 30.17950439453125 C 4.176155090332031 35.66376876831055 3 41.49121475219727 3 47.5 C 3 53.50878524780273 4.176155090332031 59.33623123168945 6.495796203613281 64.82049560546875 C 8.736953735351562 70.11915588378906 11.94598388671875 74.87847900390625 16.03375244140625 78.96624755859375 C 20.12152099609375 83.05401611328125 24.88084411621094 86.26304626464844 30.17950439453125 88.50419616699219 C 35.66376876831055 90.82384490966797 41.49121475219727 92 47.5 92 C 53.50878524780273 92 59.33623123168945 90.82384490966797 64.82049560546875 88.50419616699219 C 70.11915588378906 86.26304626464844 74.87847900390625 83.05401611328125 78.96624755859375 78.96624755859375 C 83.05401611328125 74.87847900390625 86.26304626464844 70.11915588378906 88.50419616699219 64.82049560546875 C 90.82384490966797 59.33623123168945 92 53.50878524780273 92 47.5 C 92 41.49121475219727 90.82384490966797 35.66376876831055 88.50419616699219 30.17950439453125 C 86.26304626464844 24.88084411621094 83.05401611328125 20.12152099609375 78.96624755859375 16.03375244140625 C 74.87847900390625 11.94598388671875 70.11915588378906 8.736953735351562 64.82049560546875 6.495796203613281 C 59.33623123168945 4.176155090332031 53.50878524780273 3 47.5 3 M 47.5 0 C 73.7335205078125 0 95 21.2664794921875 95 47.5 C 95 73.7335205078125 73.7335205078125 95 47.5 95 C 21.2664794921875 95 0 73.7335205078125 0 47.5 C 0 21.2664794921875 21.2664794921875 0 47.5 0 Z" stroke="none" fill="#2e5bb6"/>
                    </g>
                  </g>
                </g>
              </g>
            </g>
          </g>
        </g>
      </g>
    </g>
    <g id="presupuesto_1_" data-name="presupuesto (1)" transform="translate(349 6799.4)">
      <g id="Grupo_1182627" data-name="Grupo 1182627" transform="translate(1.067 32.664)">
        <path id="Trazado_1043033" data-name="Trazado 1043033" d="M78.124,110.115A27.259,27.259,0,1,1,58.849,63.58V90.839Z" transform="translate(-28.444 -60.38)" fill="red" fill-rule="evenodd"/>
        <path id="Trazado_1043034" data-name="Trazado 1043034" d="M58.849,118.1a27.259,27.259,0,0,1,0-54.517V118.1Z" transform="translate(-28.444 -60.38)" fill="#e60000" fill-rule="evenodd"/>
        <path id="Trazado_1043035" data-name="Trazado 1043035" d="M18.546,199.157A10.548,10.548,0,1,0,8,188.606,10.566,10.566,0,0,0,18.546,199.157Z" transform="translate(-8 -159.594)" fill="#fd9200" fill-rule="evenodd"/>
        <path id="Trazado_1043036" data-name="Trazado 1043036" d="M18.546,199.157a10.548,10.548,0,0,1,0-21.1Z" transform="translate(-8 -159.594)" fill="#e48300" fill-rule="evenodd"/>
        <g id="Grupo_1182626" data-name="Grupo 1182626" transform="translate(0 39.562)">
          <path id="Trazado_1043037" data-name="Trazado 1043037" d="M11.024,336.27H26.067a3.024,3.024,0,1,1,0,6.049H11.024a3.024,3.024,0,0,1,0-6.049Z" transform="translate(-8 -336.27)" fill="#fd9200" fill-rule="evenodd"/>
          <path id="Trazado_1043038" data-name="Trazado 1043038" d="M11.024,381.63H26.067a3.026,3.026,0,1,1,0,6.053H11.024a3.026,3.026,0,0,1,0-6.053Z" transform="translate(-8 -375.581)" fill="#fd9200" fill-rule="evenodd"/>
          <path id="Trazado_1043039" data-name="Trazado 1043039" d="M11.024,427.03H26.067a3.026,3.026,0,1,1,0,6.053H11.024a3.026,3.026,0,0,1,0-6.053Z" transform="translate(-8 -414.927)" fill="#fd9200" fill-rule="evenodd"/>
        </g>
        <path id="Trazado_1043040" data-name="Trazado 1043040" d="M11.024,336.27h7.521v6.05H11.024a3.025,3.025,0,0,1,0-6.05Z" transform="translate(-8 -296.708)" fill="#e48300" fill-rule="evenodd"/>
        <path id="Trazado_1043041" data-name="Trazado 1043041" d="M11.024,381.63h7.521v6.053H11.024a3.026,3.026,0,0,1,0-6.053Z" transform="translate(-8 -336.019)" fill="#e48300" fill-rule="evenodd"/>
        <path id="Trazado_1043042" data-name="Trazado 1043042" d="M11.024,427.03h7.521v6.053H11.024a3.026,3.026,0,0,1,0-6.053Z" transform="translate(-8 -375.365)" fill="#e48300" fill-rule="evenodd"/>
        <path id="Trazado_1043043" data-name="Trazado 1043043" d="M272.28,39.58a27.26,27.26,0,0,1,27.259,27.259H272.28Z" transform="translate(-237.039 -39.58)" fill="#2ebd33" fill-rule="evenodd"/>
        <path id="Trazado_1043044" data-name="Trazado 1043044" d="M326.839,280.28a27.173,27.173,0,0,1-7.983,19.273L299.58,280.28Z" transform="translate(-260.699 -248.184)" fill="#4bb9ec" fill-rule="evenodd"/>
      </g>
      <path id="Trazado_1043045" data-name="Trazado 1043045" d="M14.565,61.78a2.883,2.883,0,0,1,.9,2.378,3.118,3.118,0,0,1-1.395,2.279,3.9,3.9,0,0,1-1.387.556v.887a1.065,1.065,0,1,1-2.131,0V66.862A4.438,4.438,0,0,1,7.837,64.27,1.066,1.066,0,1,1,9.8,63.446a2.284,2.284,0,0,0,1.441,1.4,2.042,2.042,0,0,0,1.656-.191.969.969,0,0,0,.443-.7.775.775,0,0,0-.261-.647,3.572,3.572,0,0,0-1.311-.46A5.477,5.477,0,0,1,8.946,61.54a3.07,3.07,0,0,1,1.305-5.016c.1-.033.2-.061.3-.088v-.959a1.065,1.065,0,1,1,2.131,0v.917a3.934,3.934,0,0,1,1.036.383,3.169,3.169,0,0,1,1.6,2.062,1.066,1.066,0,1,1-2.07.509,1.06,1.06,0,0,0-.552-.7,2.336,2.336,0,0,0-1.76-.1.932.932,0,0,0-.655.68.9.9,0,0,0,.193.829,3.776,3.776,0,0,0,1.787.721,4.714,4.714,0,0,1,2.3,1.008ZM51.5,81.644a1.066,1.066,0,0,1,0,1.507A28.357,28.357,0,0,1,22.313,89.93a4.084,4.084,0,0,1-3.175,1.516H4.094a4.089,4.089,0,0,1-2.75-7.117,4.086,4.086,0,0,1,0-6.051,4.09,4.09,0,0,1,2.75-7.118h.821A11.6,11.6,0,0,1,5.5,51.809,28.276,28.276,0,0,1,31.472,34.8a1.065,1.065,0,0,1,1.065,1.065V62.68ZM11.616,71.16a9.482,9.482,0,1,0-9.484-9.48A9.49,9.49,0,0,0,11.616,71.16ZM4.094,77.211H19.138a1.96,1.96,0,0,0,0-3.919H4.094a1.96,1.96,0,0,0,0,3.919Zm0,6.051H19.138a1.96,1.96,0,0,0,0-3.919H4.094a1.96,1.96,0,0,0,0,3.919Zm17,4.094a1.962,1.962,0,0,0-1.958-1.962H4.094a1.96,1.96,0,0,0,0,3.919H19.138A1.958,1.958,0,0,0,21.1,87.356Zm28.132-4.974-18.508-18.5a1.065,1.065,0,0,1-.312-.753V36.954A26.14,26.14,0,0,0,8.526,50.482,11.612,11.612,0,0,1,18.314,71.16h.824a4.09,4.09,0,0,1,2.75,7.118,4.086,4.086,0,0,1,0,6.051,4.091,4.091,0,0,1,1.293,3.644,26.23,26.23,0,0,0,26.047-5.591ZM35.243,59.925V32.665A1.065,1.065,0,0,1,36.309,31.6,28.325,28.325,0,0,1,64.633,59.927a1.065,1.065,0,0,1-1.065,1.065H36.31a1.066,1.066,0,0,1-1.067-1.067Zm2.132-1.065h25.1a26.23,26.23,0,0,0-25.1-25.108Zm30.9,5.9a28.133,28.133,0,0,1-8.3,20.027,1.066,1.066,0,0,1-1.507,0L39.2,65.514a1.067,1.067,0,0,1,.753-1.82H67.206a1.066,1.066,0,0,1,1.067,1.067ZM66.12,65.826h-23.6L59.208,82.512A25.985,25.985,0,0,0,66.12,65.826Z"/>
    </g>
  </g>
</svg>
