<svg xmlns="http://www.w3.org/2000/svg" xmlns:xlink="http://www.w3.org/1999/xlink" width="295" height="293" viewBox="0 0 295 293">
  <defs>
    <clipPath id="clip-path">
      <rect id="Rectángulo_415636" data-name="Rectángulo 415636" width="295" height="293" transform="translate(180 698)" fill="#fff" stroke="#707070" stroke-width="1" opacity="0.62"/>
    </clipPath>
  </defs>
  <g id="Enmascarar_grupo_1098824" data-name="Enmascarar grupo 1098824" transform="translate(-180 -698)" clip-path="url(#clip-path)">
    <g id="Grupo_1182468" data-name="Grupo 1182468" transform="translate(0.442)">
      <g id="Grupo_1182437" data-name="Grupo 1182437" transform="translate(1614.414 -582.133)">
        <path id="Trazado_1042193" data-name="Trazado 1042193" d="M566.867,471.479c33.744,68.65,89.26,73.608,98.671,74.18,46.819,2.848,111.34-32.386,134.879-126.458,21.284-85.058-1.693-175.235-38.019-227.484-38.4-55.236-99.708-79.554-151.173-38.856-64.472,50.983-75.992,174.328-65.176,247.972C551.8,440.023,563.944,465.531,566.867,471.479Z" transform="translate(-1962.886 1183.099)" fill="#e4f2f4" opacity="0.35"/>
        <g id="Grupo_1182436" data-name="Grupo 1182436" transform="translate(-1382.87 1286.133)">
          <path id="Trazado_1042325" data-name="Trazado 1042325" d="M637.866,168.169s8.5,1.253,30.725,61.683c0,0,4.086,18.968-21,24.478L621,197.355Z" transform="translate(-490.886 -62.609)" fill="#de8a68"/>
          <path id="Trazado_1042326" data-name="Trazado 1042326" d="M631.443,372.959s-9.687,12.469-6.4,18.763,17.71,22.565,17.917,28.477-.262,9.539,8.077,13.639,29.779,7.387,35.963,6.678-13.85-23.368-13.85-23.368Z" transform="translate(-487.068 169.835)" fill="#383534"/>
          <path id="Trazado_1042327" data-name="Trazado 1042327" d="M624.378,380.682l1.915,32.7,6.749-.049,2.15-3.177c.8-6.189.617-17.836,1-18.59C636.748,390.452,624.378,380.682,624.378,380.682Z" transform="translate(-487.051 178.601)" fill="#383534"/>
          <path id="Trazado_1042328" data-name="Trazado 1042328" d="M646.175,375.967l23.21,41.181a15.06,15.06,0,0,1-16.831-2.507c-6.239-5.688-17.631-24.848-21.239-32.476-.737-1.556-3.636-9.206-3.636-9.206Z" transform="translate(-483.304 169.835)" fill="#fabaa5"/>
          <path id="Trazado_1042329" data-name="Trazado 1042329" d="M675.078,409.756c-2.665-22.815,5.959-117.286-8.058-175.024l-64.6-4.479s6.162,91.977,38.394,183.342c0,0-6.049,24.055.064,39.413,18.011,45.261,15.385,75.644,15.806,82.049,3.745,1.5,8.177,11.518,19.32,10.519C682.611,510.434,681.014,460.6,675.078,409.756Z" transform="translate(-511.968 7.859)" fill="#fabaa5"/>
          <path id="Trazado_1042330" data-name="Trazado 1042330" d="M611.413,229.335s-20.578,130.214-12.637,203.623c0,0-34.882,18.351-27.931,80.09,2.494,22.145,3.694,57.029,3.694,57.029s8.611-1,22.17-7.821c0,0,4.407-22.651,11.963-49.793,13.557-48.717,16.534-55.569,16.534-55.569s49.322-122.7,50.376-167.709S611.413,229.335,611.413,229.335Z" transform="translate(-548.852 6.817)" fill="#fabaa5"/>
          <path id="Trazado_1042331" data-name="Trazado 1042331" d="M597.525,385.267s-4.319,11.726.083,33.112-15.976,36.5-15.976,36.5-8.036-2.112-11.692-16.3,7.755-9.377,5.412-45.5Z" transform="translate(-549.666 183.805)" fill="#fabaa5"/>
          <path id="Trazado_1042332" data-name="Trazado 1042332" d="M597.578,229.034s1.211,11.282-15.336,75.264-3.956,146.165-3.956,146.165,41.926,14.753,70.277,1.475l2.983-6.292s38.183-23.611,59.894-22.744c0,0,25.371-150.7-28.3-202.8C683.141,220.1,608.133,232.245,597.578,229.034Z" transform="translate(-544.571 -3.664)" fill="#6d89b3"/>
          <path id="Trazado_1042333" data-name="Trazado 1042333" d="M616.732,345.753l-1.046-.214c11.926-58.756,25.364-108.855,25.5-109.354l1.029.278C642.082,236.962,628.65,287.031,616.732,345.753Z" transform="translate(-496.916 14.592)" fill="#4d4d4d"/>
          <path id="Trazado_1042334" data-name="Trazado 1042334" d="M610.879,353.135l-.937-.512c.139-.254,13.987-25.8,20.644-50.788l1.029.275C624.926,327.226,611.018,352.878,610.879,353.135Z" transform="translate(-503.436 89.106)" fill="#4d4d4d"/>
          <path id="Trazado_1042335" data-name="Trazado 1042335" d="M576.144,182.8l28.1,74.045-9.458,33.191s53.03,23.69,90.978-4.866l-5.733-34.233,1.9-2.214a26.262,26.262,0,0,0,6.352-17.17l-.107-63.579Z" transform="translate(-541.798 -62.835)" fill="#de8a68"/>
          <rect id="Rectángulo_415600" data-name="Rectángulo 415600" width="65.738" height="89.157" transform="translate(67.376 142.183) rotate(-3.761)" fill="#fff"/>
          <path id="Trazado_1042336" data-name="Trazado 1042336" d="M602.492,404.292l-12.742,9.193a10.2,10.2,0,0,1-13.376-1.249l-2.107-4.571s-14.185,24.28-6.621,28.712,34.9-1.364,39.253-3.433S602.492,404.292,602.492,404.292Z" transform="translate(-553.965 205.399)" fill="#172c42"/>
          <path id="Trazado_1042337" data-name="Trazado 1042337" d="M639.688,163.559s-53.188,6.508-61.38,18.837,61.824,23.327,61.824,23.327,55.118-28.5,46.354-32.747S639.688,163.559,639.688,163.559Z" transform="translate(-540.099 -67.841)" fill="#de8a68"/>
          <path id="Trazado_1042338" data-name="Trazado 1042338" d="M689.518,227.415s-1.736-26.413-29.94-25.96c-51.982.835-43.081.026-43.081.026s-6.145-3.16-2.959,14.123C613.54,215.6,684.182,240.5,689.518,227.415Z" transform="translate(-500.394 -25.056)" fill="#fabaa5"/>
          <path id="Trazado_1042339" data-name="Trazado 1042339" d="M605.7,186.393a24.7,24.7,0,0,0-.1-3.305c-.788-8.638-1.234-17.294-1.751-25.962q-.5-8.455-1.008-16.905l25.046-2.583q1.294,12.974,2.585,25.949c.517,5.182-.149,10.711.89,15.9,1.492,7.438,2.455,9.369,6.371,11.743a58.383,58.383,0,0,0,12.385,5.511c-1.3,2.116-8.451,10.983-27.538,13.517-13.831,1.836-33.736-9.911-33.155-10.126,1.552-.572,3.079-1.211,4.571-1.928,3.019-1.452,8.717-3.418,10.37-6.463A12.259,12.259,0,0,0,605.7,186.393Z" transform="translate(-526.739 -97.264)" fill="#fabaa5"/>
          <path id="Trazado_1042340" data-name="Trazado 1042340" d="M620.964,163.922a29.872,29.872,0,0,1-22.394-12.571s2.293,19.591,23.767,18.178Z" transform="translate(-516.344 -81.698)" fill="#de937a"/>
          <g id="Grupo_1182426" data-name="Grupo 1182426" transform="translate(38.223 244.571)">
            <path id="Trazado_1042341" data-name="Trazado 1042341" d="M584.7,241.822l15.7-7.234c2.615-.566,7.686.378,7.686.378s2.4,5.7-9.458,21.171l-5.54,1.27-8.523,2.641S569.612,254.391,584.7,241.822Z" transform="translate(-577.96 -231.997)" fill="#fabaa5"/>
            <path id="Trazado_1042342" data-name="Trazado 1042342" d="M588.354,236.4s3.708-1.394,5.344-1.151,15.616-3.329,16.645-1.4-1.906,4.834-6.089,5.572a63.154,63.154,0,0,0-7.323,1.736l-7.095,8.192S590.572,241.182,588.354,236.4Z" transform="translate(-566.162 -233.278)" fill="#fabaa5"/>
            <path id="Trazado_1042343" data-name="Trazado 1042343" d="M590.3,238.371s7.981-2.41,9.292-1.4,15.257,4.706,15.216,6.89-4.022,3.292-8.034,1.9a63.013,63.013,0,0,0-7.24-2.054l-10.188,3.7S589.909,243.625,590.3,238.371Z" transform="translate(-565.034 -229.368)" fill="#fabaa5"/>
            <path id="Trazado_1042344" data-name="Trazado 1042344" d="M588.015,239.968s7.981-2.41,9.292-1.4,15.257,4.706,15.216,6.89-4.022,3.292-8.034,1.9a63.554,63.554,0,0,0-7.24-2.054L587.061,249S587.62,245.222,588.015,239.968Z" transform="translate(-567.63 -227.556)" fill="#fabaa5"/>
            <path id="Trazado_1042345" data-name="Trazado 1042345" d="M585.3,242.84s6.939-1.889,8.045-.991,13.047,4.417,12.96,6.3-3.546,2.744-6.973,1.448a54.4,54.4,0,0,0-6.2-1.941l-9.025,1.875A34.144,34.144,0,0,0,585.3,242.84Z" transform="translate(-570.981 -223.826)" fill="#fabaa5"/>
            <path id="Trazado_1042346" data-name="Trazado 1042346" d="M602.171,239.611a69.34,69.34,0,0,0-8.427-2.861,5.713,5.713,0,0,0-4.682.66l-.67-.831a6.713,6.713,0,0,1,5.585-.873,68.606,68.606,0,0,1,8.6,2.919Z" transform="translate(-566.12 -230.769)" fill="#4d4d4d"/>
            <path id="Trazado_1042347" data-name="Trazado 1042347" d="M610.046,244.118c-1.86-.638-4.563-1.319-7.172-1.977-4.172-1.05-8.111-2.043-9.526-3.021-.372-.252-2.453.619-4.281,1.783l-.572-.9c1.251-.8,4.307-2.562,5.459-1.759,1.258.867,5.286,1.881,9.181,2.863,2.632.664,5.357,1.349,7.257,2Z" transform="translate(-566.002 -227.876)" fill="#4d4d4d"/>
          </g>
          <g id="Grupo_1182427" data-name="Grupo 1182427" transform="translate(69.003 156.654)">
            <path id="Trazado_1042348" data-name="Trazado 1042348" d="M628.733,206.646l-8.346-6.719-10.261-3.1c-2.791-.5-8.124.692-8.124.692s-2.325,6.121,10.82,22.057l5.916,1.136,7.039.06C625.311,210.34,626.671,208.856,628.733,206.646Z" transform="translate(-581.631 -186.876)" fill="#fabaa5"/>
            <path id="Trazado_1042349" data-name="Trazado 1042349" d="M619.657,197.75s-3.662-2.669-5.739-1.616c-1.563.79-15.972,6.125-19.864,8.48-1.981,1.2,1.132,3.01,5.587,3.632s11.4-4.578,11.4-4.578l7.823,8.4S617.492,202.893,619.657,197.75Z" transform="translate(-591.164 -187.801)" fill="#fabaa5"/>
            <path id="Trazado_1042350" data-name="Trazado 1042350" d="M618.117,200.757s-8.542-2.248-9.891-1.132-15.977,5.562-15.848,7.874,4.383,3.333,8.579,1.7a66.934,66.934,0,0,1,7.588-2.449l10.927,3.525S618.734,206.3,618.117,200.757Z" transform="translate(-592.377 -183.912)" fill="#fabaa5"/>
            <path id="Trazado_1042351" data-name="Trazado 1042351" d="M620.627,202.361s-8.542-2.248-9.892-1.132-16.892,5.807-15.848,7.874c.64,1.27,3.971,2.628,8.167,1a26.954,26.954,0,0,1,8-1.744l10.927,3.525S621.244,207.908,620.627,202.361Z" transform="translate(-589.585 -182.091)" fill="#fabaa5"/>
            <path id="Trazado_1042352" data-name="Trazado 1042352" d="M620.342,205.527s-6.555-2.417-7.9-1.732-14.5,1.644-14.834,3.612,2.85,2.539,6.689,1.966a57.82,57.82,0,0,1,6.851-.619l6.552,2.912S619.806,210.311,620.342,205.527Z" transform="translate(-586.469 -178.965)" fill="#fabaa5"/>
            <path id="Trazado_1042353" data-name="Trazado 1042353" d="M595.3,206.239l-.367-1c.115-.043,11.536-4.262,14.2-6.638,2.338-2.088,7.041-.135,7.238-.049l-.416.982c-.045-.017-4.266-1.778-6.111-.137C607.033,201.907,595.78,206.062,595.3,206.239Z" transform="translate(-589.474 -185.816)" fill="#4d4d4d"/>
            <path id="Trazado_1042354" data-name="Trazado 1042354" d="M595.45,208.144l-.384-1c1.366-.525,3.092-1.14,4.924-1.8,4.55-1.627,10.21-3.649,11.8-4.84,1.2-.9,4.37.207,4.99.436l-.372,1c-1.529-.566-3.482-.95-3.98-.581-1.725,1.285-7.229,3.254-12.084,4.987C598.525,207.008,596.808,207.623,595.45,208.144Z" transform="translate(-589.324 -182.949)" fill="#4d4d4d"/>
            <path id="Trazado_1042355" data-name="Trazado 1042355" d="M622.405,210.446c.348-.1-5.95-6.725-7.031-8.421s-6.772-9.223-8.062-9.866-2.342,4.1-.322,6.26,1.524,5.688,1.524,5.688S617.05,211.99,622.405,210.446Z" transform="translate(-577.073 -192.1)" fill="#fabaa5"/>
            <path id="Trazado_1042356" data-name="Trazado 1042356" d="M598.118,208.006l-.38-1c1.029-.393,10.129-3.854,12.078-3.931.041,0,.085,0,.128,0,2.056,0,5.092,1.8,5.222,1.877l-.547.918c-.82-.489-3.217-1.727-4.671-1.727-.032,0-.06,0-.092,0C608.358,204.205,600.874,206.953,598.118,208.006Z" transform="translate(-586.291 -179.642)" fill="#4d4d4d"/>
          </g>
          <path id="Trazado_1042357" data-name="Trazado 1042357" d="M598.579,172.163s-28.84,38.42-38.5,72.019c0,0,11.132,14.781,24.749,14.288L610.416,209.3Z" transform="translate(-560.031 -58.076)" fill="#de8a68"/>
          <rect id="Rectángulo_415601" data-name="Rectángulo 415601" width="1.068" height="20.501" transform="translate(40.471 138.357) rotate(-21.598)" fill="#4d4d4d"/>
          <path id="Trazado_1042358" data-name="Trazado 1042358" d="M630.629,211.1,625.1,191.79l.038-.143,2.588-9.7,1.029.275-2.547,9.554,5.447,19.027Z" transform="translate(-486.23 -46.967)" fill="#4d4d4d"/>
          <g id="Grupo_1182435" data-name="Grupo 1182435" transform="translate(45.379 0)">
            <path id="Trazado_1042359" data-name="Trazado 1042359" d="M619.45,144.51a3.356,3.356,0,1,0,3.459,3.25A3.356,3.356,0,0,0,619.45,144.51Z" transform="translate(-541.712 -89.465)" fill="#fff"/>
            <path id="Trazado_1042360" data-name="Trazado 1042360" d="M613.274,148.708c1.144,4.554,5.41,7.409,9.524,6.373s6.52-5.566,5.374-10.12-5.41-7.409-9.524-6.373S612.128,144.154,613.274,148.708Z" transform="translate(-545.357 -96.426)" fill="#de937a"/>
            <path id="Trazado_1042361" data-name="Trazado 1042361" d="M611.454,123.432c34.914-6.871,33.714,29.931,33.849,30.984,2.494,19.512-3.085,41.753-10.637,43.369-27.945,5.989-35.337-23.014-35.337-23.014-.581-1.586-5-9.035-5.353-10.737C589.867,144.1,589.995,127.655,611.454,123.432Z" transform="translate(-569.311 -114.356)" fill="#fabaa5"/>
            <path id="Trazado_1042362" data-name="Trazado 1042362" d="M600.745,135.861s2.133,9.584.907,13.792a10.85,10.85,0,0,0-9.864-1.977l-.5-7.609,10.124-4.251" transform="translate(-569.986 -99.331)" fill="#80624e"/>
            <g id="Grupo_1182432" data-name="Grupo 1182432" transform="translate(39.129 35.796)">
              <path id="Trazado_1042363" data-name="Trazado 1042363" d="M615.119,152.464a11.889,11.889,0,0,0,4.11-1.262l-.589-1.016c-.271.156-6.7,3.73-15.526-1.977l-.638.986C607.665,152.547,612.113,152.878,615.119,152.464Z" transform="translate(-596.418 -121.06)" fill="#4f4f4f"/>
              <path id="Trazado_1042364" data-name="Trazado 1042364" d="M601.882,143.6c.324,1.424,1.262,2.425,2.092,2.235s1.24-1.5.914-2.923-1.262-2.425-2.092-2.235S601.558,142.179,601.882,143.6Z" transform="translate(-597.218 -129.632)" fill="#4f4f4f"/>
              <path id="Trazado_1042365" data-name="Trazado 1042365" d="M612.948,141.908c.3,1.3,1.149,2.212,1.906,2.037s1.129-1.364.833-2.662-1.149-2.21-1.907-2.039S612.651,140.608,612.948,141.908Z" transform="translate(-584.647 -131.259)" fill="#4f4f4f"/>
              <g id="Grupo_1182429" data-name="Grupo 1182429" transform="translate(0 0.611)">
                <g id="Grupo_1182428" data-name="Grupo 1182428">
                  <path id="Trazado_1042366" data-name="Trazado 1042366" d="M607.381,137.258c.011-.79-2.652-2.107-5.043-1.136-1.428.581-2.912,2.041-2.675,2.684C600.133,140.066,607.364,138.554,607.381,137.258Z" transform="translate(-599.638 -135.779)" fill="#80624e"/>
                </g>
              </g>
              <g id="Grupo_1182431" data-name="Grupo 1182431" transform="translate(25.457)">
                <g id="Grupo_1182430" data-name="Grupo 1182430">
                  <path id="Trazado_1042367" data-name="Trazado 1042367" d="M619.428,137.461c.122-.781-2.329-2.46-4.834-1.83-1.5.376-3.17,1.614-3.023,2.282C611.859,139.225,619.229,138.74,619.428,137.461Z" transform="translate(-611.562 -135.493)" fill="#80624e"/>
                </g>
              </g>
            </g>
            <path id="Trazado_1042368" data-name="Trazado 1042368" d="M600.14,151.457c-8.542.931-16.4-3.032-18.351-9.966-2.539-9.044,5.56-21.075,12.08-22.587,10.667-2.474,23.573,21.709,15.552,29.438C606.957,150.716,602.919,151.156,600.14,151.457Z" transform="translate(-581.311 -118.727)" fill="#80624e"/>
            <path id="Trazado_1042369" data-name="Trazado 1042369" d="M602.782,153.547s18.188,2.511,25-20.394c0,0,8.431,13.553,19.8,16.019,0,0,11.807-38.569-37.293-24.647-33.783,9.58-16.295,41.465-16.295,41.465Z" transform="translate(-572.055 -115.585)" fill="#80624e"/>
            <path id="Trazado_1042370" data-name="Trazado 1042370" d="M606.655,153.915a7.766,7.766,0,1,1,7.759-8.275v0a7.777,7.777,0,0,1-7.24,8.258C607,153.911,606.827,153.915,606.655,153.915Zm.015-14.463c-.145,0-.295,0-.442.015a6.69,6.69,0,1,0,.442-.015Z" transform="translate(-561.35 -96.417)" fill="#fff"/>
            <path id="Trazado_1042371" data-name="Trazado 1042371" d="M618.01,152.25a7.638,7.638,0,0,1-7.3-6.484A8.033,8.033,0,0,1,611.824,140a6.9,6.9,0,0,1,10.109-1.8,8.175,8.175,0,0,1,1.917,10.784,6.954,6.954,0,0,1-4.654,3.151A6.593,6.593,0,0,1,618.01,152.25Zm-.333-14.435a5.785,5.785,0,0,0-1.01.09,5.9,5.9,0,0,0-3.943,2.677,6.937,6.937,0,0,0-.963,5,6.448,6.448,0,0,0,7.246,5.517,5.9,5.9,0,0,0,3.943-2.677,7.107,7.107,0,0,0-1.661-9.356A5.962,5.962,0,0,0,617.677,137.815Z" transform="translate(-548.09 -98.276)" fill="#fff"/>
            <path id="Trazado_1042372" data-name="Trazado 1042372" d="M606.466,143.771l-.767-.743c.06-.064,6.162-6.249,11.4-1.42l-.726.784C611.91,138.267,606.683,143.543,606.466,143.771Z" transform="translate(-553.63 -94.847)" fill="#fff"/>
            <path id="Trazado_1042373" data-name="Trazado 1042373" d="M602.846,143.888l-7.044-1.595.237-1.04,7.043,1.593Z" transform="translate(-564.864 -93.16)" fill="#fff"/>
            <g id="Grupo_1182433" data-name="Grupo 1182433" transform="translate(61.213 48.495)">
              <path id="Trazado_1042374" data-name="Trazado 1042374" d="M610.02,141.688s5.348.822,4.571,3.653a6.326,6.326,0,0,1-3.38,3.911" transform="translate(-609.939 -141.161)" fill="#fabaa5"/>
              <path id="Trazado_1042375" data-name="Trazado 1042375" d="M611.459,150.026l-.41-.984a5.844,5.844,0,0,0,3.07-3.563,1.313,1.313,0,0,0-.16-1.117c-.741-1.14-3.123-1.736-3.978-1.866l.162-1.055c.143.021,3.559.566,4.71,2.34a2.361,2.361,0,0,1,.3,1.981A6.827,6.827,0,0,1,611.459,150.026Z" transform="translate(-609.982 -141.441)" fill="#4d4d4d"/>
            </g>
            <g id="Grupo_1182434" data-name="Grupo 1182434" transform="translate(18.112 46.658)">
              <path id="Trazado_1042376" data-name="Trazado 1042376" d="M590.143,153.217c1.4,5.57,6.614,9.059,11.647,7.793s7.974-6.807,6.574-12.377-6.614-9.059-11.647-7.793S588.743,147.649,590.143,153.217Z" transform="translate(-589.795 -140.58)" fill="#fabaa5"/>
              <path id="Trazado_1042377" data-name="Trazado 1042377" d="M595.394,150.948c.617-1.424,3.312-1.971,4.3-2.062l.649-.06-.216-.617c-.841-2.4-2.094-3.941-3.723-4.582a5.155,5.155,0,0,0-4.014.194l.474.9a4.205,4.205,0,0,1,3.181-.143,5.644,5.644,0,0,1,2.9,3.382c-1.211.209-3.73.843-4.484,2.581Z" transform="translate(-586.853 -137.491)" fill="#4f4f4f"/>
            </g>
            <path id="Trazado_1042378" data-name="Trazado 1042378" d="M597.44,147.838a2.958,2.958,0,1,0,3.049,2.865A2.958,2.958,0,0,0,597.44,147.838Z" transform="translate(-566.258 -85.687)" fill="#fff"/>
          </g>
          <path id="Trazado_1042379" data-name="Trazado 1042379" d="M601.695,124.889s-13.617,6.249-10.934,19.681C590.761,144.57,580.639,126.021,601.695,124.889Z" transform="translate(-527.968 -111.733)" fill="#de8a68"/>
          <path id="Trazado_1042380" data-name="Trazado 1042380" d="M658.582,197.06s7.7,19.9,10.112,29.111c0,0-26.643,1.228-32.491-4.543l-6.386-16.557S645.1,206.666,658.582,197.06Z" transform="translate(-480.877 -29.817)" fill="#fabaa5"/>
          <path id="Trazado_1042381" data-name="Trazado 1042381" d="M656.061,211.283c-8.775-12.75-25.866-9.076-26.041-9.038l-.233-1.04c.175-.043,17.962-3.881,27.155,9.475Z" transform="translate(-480.911 -25.727)" fill="#4d4d4d"/>
          <path id="Trazado_1042382" data-name="Trazado 1042382" d="M609.927,281.065s-15.517-2.966-25.072-53.837l5.293-10.363c-10.077-3.892-20.212-12.394-25.4-17.179a134.392,134.392,0,0,0-4.639,13.254c-1.723,49.842,42.645,86.625,42.645,86.625C623.081,299.1,609.927,281.065,609.927,281.065Z" transform="translate(-560.057 -26.836)" fill="#fabaa5"/>
          <path id="Trazado_1042383" data-name="Trazado 1042383" d="M584.828,252.411a7.7,7.7,0,0,1-5.193-2.592c-1.631-1.922-2.229-4.684-1.778-8.213l1.059.137c-.41,3.211.1,5.692,1.524,7.374a6.727,6.727,0,0,0,4.426,2.229Z" transform="translate(-540.018 20.745)" fill="#4d4d4d"/>
        </g>
      </g>
      <g id="Grupo_1182448" data-name="Grupo 1182448" transform="translate(394.565 772.525)">
        <path id="Trazado_1042423" data-name="Trazado 1042423" d="M62.055,235.231l4.134-5.106a18.013,18.013,0,0,0,4.395,3.475,8.637,8.637,0,0,0,4.239,1.056L73.455,222.4q-6.589-.654-9.946-3.2a10.031,10.031,0,0,1-3.882-7.245,10.15,10.15,0,0,1,2.448-8.275q3-3.352,8.811-4.311l-.433-3.89,3.554-.4.434,3.889a17.8,17.8,0,0,1,6.653,1.1,19.291,19.291,0,0,1,5.889,3.65l-4,5.262a13.3,13.3,0,0,0-3.782-3.049,8.3,8.3,0,0,0-4.079-.891l1.241,11.137q7.275.973,10.629,3.6a10.809,10.809,0,0,1,3.918,7.693,10.687,10.687,0,0,1-2.608,8.747q-3.19,3.542-9.216,4.357l.635,5.678-3.554.4-.632-5.681a17.149,17.149,0,0,1-13.477-5.743Zm10.62-19.852-1.14-10.212a7.8,7.8,0,0,0-4.4,1.909,4.8,4.8,0,0,0,.632,6.955A10.483,10.483,0,0,0,72.675,215.379ZM78.4,234.455a7.339,7.339,0,0,0,4.555-1.825,4.7,4.7,0,0,0,1.164-4.026,5.348,5.348,0,0,0-1.914-3.837,9.965,9.965,0,0,0-5.068-1.617Z" transform="translate(-59.541 -195.086)" fill="#ee9865"/>
      </g>
      <g id="Grupo_1182447" data-name="Grupo 1182447" transform="translate(218.635 778.906)">
        <path id="Trazado_1042415" data-name="Trazado 1042415" d="M436.216,268.644H433.87a2.419,2.419,0,0,1-1.711-4.128l1.692-1.691a2.424,2.424,0,0,0,0-3.419l-.552-.547a2.415,2.415,0,0,0-3.418,0l-1.661,1.655a2.417,2.417,0,0,1-4.128-1.707v-2.392A2.419,2.419,0,0,0,421.669,254H420.9a2.418,2.418,0,0,0-2.417,2.417v2.351a2.421,2.421,0,0,1-4.134,1.707l-1.686-1.686a2.421,2.421,0,0,0-3.424,0l-.547.547a2.421,2.421,0,0,0,0,3.424l1.661,1.655a2.422,2.422,0,0,1-1.711,4.134h-2.386a2.418,2.418,0,0,0-2.417,2.417v.777a2.418,2.418,0,0,0,2.417,2.417H408.6a2.419,2.419,0,0,1,1.712,4.128l-1.686,1.692a2.415,2.415,0,0,0,0,3.418l.547.547a2.415,2.415,0,0,0,3.418,0l1.661-1.655a2.417,2.417,0,0,1,4.128,1.707v2.391A2.419,2.419,0,0,0,420.8,288.8h.772a2.42,2.42,0,0,0,2.422-2.417v-2.351a2.417,2.417,0,0,1,4.128-1.707l1.686,1.686a2.421,2.421,0,0,0,3.424,0l.547-.547a2.421,2.421,0,0,0,0-3.424l-1.661-1.655a2.422,2.422,0,0,1,1.712-4.134h2.386a2.42,2.42,0,0,0,2.422-2.417v-.777A2.421,2.421,0,0,0,436.216,268.644Zm-14.981,8.937a6.18,6.18,0,1,1,6.178-6.178A6.179,6.179,0,0,1,421.234,277.581Z" transform="translate(-403.836 -253.999)" fill="#fdf4ee"/>
        <path id="Trazado_1042416" data-name="Trazado 1042416" d="M428.487,275.751a2.9,2.9,0,1,1-2.9-2.906A2.9,2.9,0,0,1,428.487,275.751Z" transform="translate(-408.185 -258.348)" fill="#fdf4ee"/>
      </g>
      <g id="Grupo_1182467" data-name="Grupo 1182467" transform="translate(216.635 812.906)">
        <path id="Trazado_1042415-2" data-name="Trazado 1042415" d="M427.469,264.688h-1.712a1.765,1.765,0,0,1-1.249-3.013l1.235-1.235a1.77,1.77,0,0,0,0-2.5l-.4-.4a1.762,1.762,0,0,0-2.495,0l-1.212,1.208a1.764,1.764,0,0,1-3.013-1.246v-1.745A1.766,1.766,0,0,0,416.852,254h-.563a1.765,1.765,0,0,0-1.764,1.764v1.716a1.767,1.767,0,0,1-3.017,1.246l-1.231-1.231a1.767,1.767,0,0,0-2.5,0l-.4.4a1.767,1.767,0,0,0,0,2.5l1.212,1.208a1.768,1.768,0,0,1-1.249,3.017H405.6a1.765,1.765,0,0,0-1.764,1.764v.567a1.765,1.765,0,0,0,1.764,1.764h1.712a1.765,1.765,0,0,1,1.249,3.013l-1.231,1.235a1.762,1.762,0,0,0,0,2.495l.4.4a1.762,1.762,0,0,0,2.5,0l1.212-1.208a1.764,1.764,0,0,1,3.013,1.246v1.745a1.766,1.766,0,0,0,1.768,1.764h.563a1.766,1.766,0,0,0,1.768-1.764v-1.716a1.764,1.764,0,0,1,3.013-1.246l1.231,1.231a1.767,1.767,0,0,0,2.5,0l.4-.4a1.767,1.767,0,0,0,0-2.5l-1.212-1.208a1.768,1.768,0,0,1,1.249-3.017h1.741a1.766,1.766,0,0,0,1.768-1.764v-.567A1.767,1.767,0,0,0,427.469,264.688Zm-10.934,6.523a4.511,4.511,0,1,1,4.509-4.509A4.51,4.51,0,0,1,416.534,271.211Z" transform="translate(-403.836 -253.999)" fill="#fdf4ee"/>
        <path id="Trazado_1042416-2" data-name="Trazado 1042416" d="M426.918,274.966a2.119,2.119,0,1,1-2.119-2.121A2.12,2.12,0,0,1,426.918,274.966Z" transform="translate(-412.1 -262.264)" fill="#fdf4ee"/>
      </g>
      <g id="Grupo_1182469" data-name="Grupo 1182469" transform="translate(408.62 923.906)">
        <path id="Trazado_1042415-3" data-name="Trazado 1042415" d="M436.216,268.644H433.87a2.419,2.419,0,0,1-1.711-4.128l1.692-1.691a2.424,2.424,0,0,0,0-3.419l-.552-.547a2.415,2.415,0,0,0-3.418,0l-1.661,1.655a2.417,2.417,0,0,1-4.128-1.707v-2.392A2.419,2.419,0,0,0,421.669,254H420.9a2.418,2.418,0,0,0-2.417,2.417v2.351a2.421,2.421,0,0,1-4.134,1.707l-1.686-1.686a2.421,2.421,0,0,0-3.424,0l-.547.547a2.421,2.421,0,0,0,0,3.424l1.661,1.655a2.422,2.422,0,0,1-1.711,4.134h-2.386a2.418,2.418,0,0,0-2.417,2.417v.777a2.418,2.418,0,0,0,2.417,2.417H408.6a2.419,2.419,0,0,1,1.712,4.128l-1.686,1.692a2.415,2.415,0,0,0,0,3.418l.547.547a2.415,2.415,0,0,0,3.418,0l1.661-1.655a2.417,2.417,0,0,1,4.128,1.707v2.391A2.419,2.419,0,0,0,420.8,288.8h.772a2.42,2.42,0,0,0,2.422-2.417v-2.351a2.417,2.417,0,0,1,4.128-1.707l1.686,1.686a2.421,2.421,0,0,0,3.424,0l.547-.547a2.421,2.421,0,0,0,0-3.424l-1.661-1.655a2.422,2.422,0,0,1,1.712-4.134h2.386a2.42,2.42,0,0,0,2.422-2.417v-.777A2.421,2.421,0,0,0,436.216,268.644Zm-14.981,8.937a6.18,6.18,0,1,1,6.178-6.178A6.179,6.179,0,0,1,421.234,277.581Z" transform="translate(-403.836 -253.999)" fill="#fdf4ee"/>
        <path id="Trazado_1042416-3" data-name="Trazado 1042416" d="M428.487,275.751a2.9,2.9,0,1,1-2.9-2.906A2.9,2.9,0,0,1,428.487,275.751Z" transform="translate(-408.185 -258.348)" fill="#fdf4ee"/>
      </g>
    </g>
  </g>
</svg>
