<svg id="Grupo_1182801" data-name="Grupo 1182801" xmlns="http://www.w3.org/2000/svg" width="146.705" height="221.001" viewBox="0 0 146.705 221.001">
  <g id="Grupo_1182796" data-name="Grupo 1182796" transform="translate(0 125.419)">
    <path id="Trazado_1043412" data-name="Trazado 1043412" d="M205.718,192.218l-13.88-11.651s.324-4.559-.248-6.147c-1.285-3.563-6.384-8.7-7.513-8.133-2.586,1.29,2.3,5.525.683,6.706-1.115.814-8.506-11.424-10.928-10.264-1.57.752,3.068,6.593,3.068,6.593s-5.853-6.893-6.865-6.231c-2.04,1.333,2.8,6.673,2.8,6.673s-3.912-3.167-4.9-2.36c-1.468,1.193,4.656,7.2,4.656,7.2s-4.072-2.7-4.843-1.925c-1.117,1.117,4.056,10.085,11.673,18.248,3.751,4.021,19.644,22.445,19.644,22.445Z" transform="translate(-167.596 -162.65)" fill="#f29a96"/>
    <path id="Trazado_1043413" data-name="Trazado 1043413" d="M179.614,190.672l-7.146-6s-4.624,14.406-4.873,20.953l5.365,6.2Z" transform="translate(-141.492 -161.105)" fill="#dd7d7f"/>
    <path id="Trazado_1043414" data-name="Trazado 1043414" d="M192.9,167.951a.19.19,0,0,1,.344-.045c.452.662.659,1.467,1.125,2.137.452.65,1.173,1.12,1.511,1.842a.165.165,0,0,1-.141.245C194.151,172.063,192.6,169.405,192.9,167.951Z" transform="translate(-184.819 -162.288)" fill="#09124c"/>
    <path id="Trazado_1043415" data-name="Trazado 1043415" d="M197.591,169.259a3.321,3.321,0,0,1,1.347,1.967c.028.118-.111.261-.227.174a3.3,3.3,0,0,1-1.274-2.024C197.425,169.294,197.507,169.207,197.591,169.259Z" transform="translate(-192.755 -162.188)" fill="#09124c"/>
    <path id="Trazado_1043416" data-name="Trazado 1043416" d="M197.01,174.251a5.218,5.218,0,0,1,.931,1.1,6.921,6.921,0,0,1,.855,1.424.164.164,0,0,1-.223.223,3.645,3.645,0,0,1-1.912-2.55A.233.233,0,0,1,197.01,174.251Z" transform="translate(-191.794 -161.839)" fill="#09124c"/>
    <path id="Trazado_1043417" data-name="Trazado 1043417" d="M181.591,178.973a.27.27,0,0,1,.4.231,4.482,4.482,0,0,1-.3,1.413,9.027,9.027,0,0,1-.381,1.448.464.464,0,0,1-.84-.11A3.3,3.3,0,0,1,181.591,178.973Z" transform="translate(-157.614 -161.508)" fill="#09124c"/>
  </g>
  <g id="Grupo_1182800" data-name="Grupo 1182800" transform="translate(28.503 0)">
    <g id="Grupo_1182797" data-name="Grupo 1182797" transform="translate(30.68)">
      <path id="Trazado_1043418" data-name="Trazado 1043418" d="M104.03,78.645l-13.27,26.628-7.78-3.616L95.264,75.233Z" transform="translate(-34.535 -43.367)" fill="#4f2f3a"/>
      <path id="Trazado_1043419" data-name="Trazado 1043419" d="M85.246,67.3c14.67,10.076,44.241,21.872,49.085,18.423,4.433-3.157-.731-7.116-2.388-9.09,1.521-.713,7.8,3.115,9.291-.092,1.876-4.037-.687-8-40.178-26.36-6.456-3-10.457,2.114-9.952,2.1,0,0-.323-4.764-4.616-6.759S66.134,85.979,66.134,85.979l8.7,3.715Z" transform="translate(-54.151 -45.456)" fill="#4f2f3a"/>
      <path id="Trazado_1043420" data-name="Trazado 1043420" d="M102.885,122.471l34.873,16.212,13.318-34.262L120.495,90.2Z" transform="translate(-102.885 -42.316)" fill="#f29a96"/>
      <path id="Trazado_1043421" data-name="Trazado 1043421" d="M139.3,104.421l-3.329,8.565a11.681,11.681,0,0,1-15.812,6.36l-10.512-4.888a11.681,11.681,0,0,1-5.33-16.189l4.4-8.066Z" transform="translate(-91.108 -42.316)" fill="#dd7d7f"/>
      <path id="Trazado_1043422" data-name="Trazado 1043422" d="M136.721,93.331l-12.247,20.48a10.846,10.846,0,0,1-13.88,4.269l-14.106-6.558A10.846,10.846,0,0,1,90.8,98.158l7.764-22.565a21.151,21.151,0,0,1,28.917-12.3h0A21.152,21.152,0,0,1,136.721,93.331Z" transform="translate(-77.971 -44.343)" fill="#f29a96"/>
      <path id="Trazado_1043423" data-name="Trazado 1043423" d="M96.824,78.356c-.375.616,2.754,3.2,4.786,4.441s3.036,1.164,3.412.548-1.805-2.627-3.838-3.864S97.2,77.74,96.824,78.356Z" transform="translate(-50.354 -43.166)" fill="#4f2f3a"/>
      <path id="Trazado_1043424" data-name="Trazado 1043424" d="M103.64,86.2c-.575,1.236-.564,2.46.025,2.733s1.531-.507,2.106-1.743.564-2.46-.025-2.733S104.214,84.968,103.64,86.2Z" transform="translate(-58.357 -42.723)" fill="#491800"/>
      <path id="Trazado_1043425" data-name="Trazado 1043425" d="M122.118,74.611c-.229.684-4.225-.04-6.481-.8s-2.847-1.571-2.618-2.255,3.172-.314,5.428.443S122.347,73.927,122.118,74.611Z" transform="translate(-84.744 -43.65)" fill="#4f2f3a"/>
      <path id="Trazado_1043426" data-name="Trazado 1043426" d="M120.36,80.413c-.575,1.236-1.518,2.016-2.106,1.743s-.6-1.5-.025-2.733,1.518-2.016,2.106-1.743S120.935,79.177,120.36,80.413Z" transform="translate(-88.559 -43.199)" fill="#491800"/>
      <path id="Trazado_1043427" data-name="Trazado 1043427" d="M141.2,83.677a6.09,6.09,0,0,1-8.487,2.853,6.975,6.975,0,0,1-2.982-8.99,6.09,6.09,0,0,1,8.487-2.853A6.974,6.974,0,0,1,141.2,83.677Z" transform="translate(-121.694 -43.457)" fill="#f29a96"/>
      <path id="Trazado_1043428" data-name="Trazado 1043428" d="M132.363,77.1a8.677,8.677,0,0,1,5.241,5.492,6.967,6.967,0,0,0-5.115-.608" transform="translate(-120.959 -43.236)" fill="none" stroke="#4f2f3a" stroke-miterlimit="10" stroke-width="0.5"/>
      <path id="Trazado_1043429" data-name="Trazado 1043429" d="M87.294,97.778a6.088,6.088,0,0,0,3.29,8.327,6.974,6.974,0,0,0,8.795-3.516,6.089,6.089,0,0,0-3.29-8.327A6.974,6.974,0,0,0,87.294,97.778Z" transform="translate(-34.461 -42.064)" fill="#f29a96"/>
      <path id="Trazado_1043430" data-name="Trazado 1043430" d="M96.7,99.546a8.674,8.674,0,0,0-7.577-.467,6.967,6.967,0,0,1,3.762,3.519" transform="translate(-33.785 -41.739)" fill="none" stroke="#4f2f3a" stroke-miterlimit="10" stroke-width="0.5"/>
      <path id="Trazado_1043431" data-name="Trazado 1043431" d="M120.935,84.874s-3.558,11.881-4.764,13.067-4.809-.926-4.809-.926" transform="translate(-81.814 -42.69)" fill="none" stroke="#4f2f3a" stroke-miterlimit="10" stroke-width="0.5"/>
      <path id="Trazado_1043432" data-name="Trazado 1043432" d="M89.845,67.76c.245,1.457-1.053,4.438-2.525,4.3C83,71.669,76.2,65.4,79.068,59.42c6.239-13,49.525,7.853,47.482,22.074C126.318,83.111,110.628,84.513,89.845,67.76Z" transform="translate(-52.206 -44.764)" fill="#4f2f3a"/>
      <path id="Trazado_1043433" data-name="Trazado 1043433" d="M129.781,106.146l-18.521-8.61s-3.278,7.469,6.367,11.952S129.781,106.146,129.781,106.146Z" transform="translate(-89.979 -41.801)" fill="#fff"/>
    </g>
    <g id="Grupo_1182798" data-name="Grupo 1182798" transform="translate(0 66.251)">
      <path id="Trazado_1043434" data-name="Trazado 1043434" d="M110.554,128.59s4.05-9.621,8.824-10.233,13.756,5.208,13.756,5.208l-5.11,13.146Z" transform="translate(-62.47 -106.595)" fill="#ededed"/>
      <path id="Trazado_1043435" data-name="Trazado 1043435" d="M145.429,129.358s5.263-10.277,3.533-13.324c-1.61-2.834-13.348-8.672-13.348-8.672l-7.588,13.9Z" transform="translate(-97.345 -107.363)" fill="#ededed"/>
      <path id="Trazado_1043436" data-name="Trazado 1043436" d="M102.043,110.934s81.1,31.8,81.042,54.016c-.016,5.724-11.8,101.229-44.134,96.758S94.1,244.174,92.606,232.253c0,0-6.954-6.457-8.444-9.437s5.463-37.75,5.463-37.75l12.417,8.26Z" transform="translate(-83.953 -107.112)" fill="#546393"/>
      <path id="Trazado_1043437" data-name="Trazado 1043437" d="M170.748,188.061a6.361,6.361,0,0,1,1.475,1.5c1.157,1.863.152,4.253-.713,6.268a43.706,43.706,0,0,0-2.359,7.135c-.446,1.88-.769,3.8-1.387,5.627-.263.782-.7,1.65-1.508,1.814a1.769,1.769,0,0,1-1.351-.367c-1.309-.945-1.554-2.762-1.687-4.371q-.466-5.622-.93-11.244-.207-2.493-.412-4.986a10.121,10.121,0,0,1,.091-3.31C163.405,180.447,168.573,186.293,170.748,188.061Z" transform="translate(-156.908 -102.005)" fill="#09124c" opacity="0.2"/>
      <path id="Trazado_1043438" data-name="Trazado 1043438" d="M175.122,211.249a8.37,8.37,0,0,1,.8,5.642c-.368,1.292-1.52,2.545-2.846,2.331-1.135-.183-1.834-1.312-2.345-2.342a14.435,14.435,0,0,1-1.4-3.783,5.927,5.927,0,0,1,.519-3.932,9.075,9.075,0,0,1,.733-1.061c1.15-1.506,1.392-2.346,2.61-.686A20.5,20.5,0,0,1,175.122,211.249Z" transform="translate(-168.253 -100.405)" fill="#09124c" opacity="0.2"/>
      <path id="Trazado_1043439" data-name="Trazado 1043439" d="M124.8,171.016c2.319-1.86,2.411,6.374-.735,13.163s-7.947,32.451-7.947,32.451l-6.813-2.758a96.481,96.481,0,0,0,5.015-19.57C115.864,183.489,120.563,174.411,124.8,171.016Z" transform="translate(-54.48 -102.914)" fill="#09124c" opacity="0.2"/>
      <path id="Trazado_1043440" data-name="Trazado 1043440" d="M102.061,214.749a106.185,106.185,0,0,0,4.073-16.251c.83-5.032.943-10.233,2.831-15.067,1.682-4.307,4.368-8.25,7.029-12.091,3.07-4.432,6.213-9.17,10.221-12.942.385-.363,1.037.1.76.54-5.524,8.774-13.7,16.543-16.839,26.489-1.5,4.758-1.569,9.823-2.419,14.7a106.023,106.023,0,0,1-3.833,15.083C103.531,216.283,101.7,215.826,102.061,214.749Z" transform="translate(-47.239 -103.79)" fill="#09124c"/>
      <path id="Trazado_1043441" data-name="Trazado 1043441" d="M115.09,187.133a43.507,43.507,0,0,1,11.27,6.6c3.433,2.672,6.071,6.041,9.13,9.1,3.908,3.908,8.571,5.835,13.622,7.865,4.609,1.852,9.885,3.3,14.129,5.876a.665.665,0,0,1-.51,1.21c-4.953-1.129-9.894-3.847-14.6-5.774-4.037-1.651-8.118-3.257-11.481-6.116-3.319-2.823-5.8-6.472-8.977-9.441-3.857-3.6-8.618-5.707-12.765-8.876C114.711,187.423,114.81,187.028,115.09,187.133Z" transform="translate(-97.444 -101.766)" fill="#09124c"/>
      <path id="Trazado_1043442" data-name="Trazado 1043442" d="M155.938,223.788c2.137-.847,4.791-.859,7.065-1.145a11.694,11.694,0,0,1,6.249.516c.424.182.2.884-.232.859a38.29,38.29,0,0,0-7.981.607c-1.805.265-3.539.62-5.161-.362A.264.264,0,0,1,155.938,223.788Z" transform="translate(-147.186 -99.285)" fill="#09124c"/>
      <path id="Trazado_1043443" data-name="Trazado 1043443" d="M165.084,207.42a122.457,122.457,0,0,0,4.151-16.773c.1-.571,1.036-.439,1.011.137-.232,5.419-2.026,10.763-3.747,15.863-1.855,5.5-3.62,11.028-5.486,16.52-.06.176-.374.162-.347-.047C161.369,217.728,163.39,212.559,165.084,207.42Z" transform="translate(-153.212 -101.544)" fill="#09124c"/>
      <path id="Trazado_1043444" data-name="Trazado 1043444" d="M164.305,189.107a28.658,28.658,0,0,1,3.61,3.342c1.269,1.272,2.608,2.505,3.756,3.891.23.277-.083.806-.422.547a36.506,36.506,0,0,1-3.824-3.567,23.322,23.322,0,0,1-3.389-3.945C163.939,189.215,164.142,188.992,164.305,189.107Z" transform="translate(-158.296 -101.628)" fill="#09124c"/>
      <path id="Trazado_1043445" data-name="Trazado 1043445" d="M166.623,199.465c1.251-.137,2.638.94,3.72,1.507a21.973,21.973,0,0,1,3.871,2.329.41.41,0,0,1-.4.681A36.9,36.9,0,0,1,169.8,201.9c-1.094-.584-2.709-1.016-3.376-2.089A.235.235,0,0,1,166.623,199.465Z" transform="translate(-163.424 -100.9)" fill="#09124c"/>
      <path id="Trazado_1043446" data-name="Trazado 1043446" d="M170.443,207.508c.842.855,1.689,1.706,2.573,2.517a30.6,30.6,0,0,1,2.644,2.427.409.409,0,0,1-.493.64c-2.081-1.053-3.961-3.087-5.542-4.766C169.114,207.786,169.918,206.975,170.443,207.508Z" transform="translate(-168.147 -100.347)" fill="#09124c"/>
      <path id="Trazado_1043447" data-name="Trazado 1043447" d="M88.987,154.183a17.106,17.106,0,0,1,5.767-2.412c1.554-.321,3.666-.775,5.028.2a.243.243,0,0,1,0,.415c-1.355.745-3.13.492-4.629.835a16.633,16.633,0,0,0-5.369,2.328C88.929,156.1,88.131,154.73,88.987,154.183Z" transform="translate(-5.761 -104.274)" fill="#09124c"/>
      <path id="Trazado_1043448" data-name="Trazado 1043448" d="M122.126,234.764a.715.715,0,0,1,1.3.548c-.737,3.511-1.478,6.557-.545,10.165.416,1.612,1.363,3.074-.14,4.217a.242.242,0,0,1-.353-.143C121.115,244.7,119.394,239.524,122.126,234.764Z" transform="translate(-63.723 -98.446)" fill="#09124c"/>
      <path id="Trazado_1043449" data-name="Trazado 1043449" d="M126.945,242.735a.306.306,0,0,1,.477-.062,2.653,2.653,0,0,1,.485,1.614c.08.745.149,1.489.171,2.238.016.531-.843.669-.944.127-.128-.691-.218-1.387-.3-2.086A2.943,2.943,0,0,1,126.945,242.735Z" transform="translate(-74.743 -97.873)" fill="#09124c"/>
      <path id="Trazado_1043450" data-name="Trazado 1043450" d="M141.068,160.69c.889-1,2.355-1.2,3.62-1.408a9.7,9.7,0,0,1,4-.022.411.411,0,0,1,0,.786c-1.294.261-2.627.239-3.93.484a11.877,11.877,0,0,1-3.5.622A.274.274,0,0,1,141.068,160.69Z" transform="translate(-110.889 -103.735)" fill="#09124c"/>
      <path id="Trazado_1043451" data-name="Trazado 1043451" d="M144.6,164.9a5.919,5.919,0,0,1,2,.534c.467.219.188.866-.243.9a5.623,5.623,0,0,1-1.924-.212C143.8,165.927,143.884,164.836,144.6,164.9Z" transform="translate(-111.985 -103.325)" fill="#09124c"/>
      <path id="Trazado_1043452" data-name="Trazado 1043452" d="M131.823,198.609q1.315-14.945,3.886-29.743c.2-1.169.754-2.636,1.94-2.6a194.86,194.86,0,0,0,3.925,29.7c1.155,5.462,2.724,11.191,6.791,15.016-.6-.9-.825-.165-1.8-.639C140.453,207.347,136.409,203.64,131.823,198.609Z" transform="translate(-100.464 -103.229)" fill="#09124c" opacity="0.2"/>
      <path id="Trazado_1043453" data-name="Trazado 1043453" d="M125.188,182.676c.276,3.44.384,6.9.325,10.348a16.756,16.756,0,0,1-.879,5.94c-.934,2.339-2.8,4.135-3.863,6.41a24.194,24.194,0,0,0-1.562,6.364A75.959,75.959,0,0,1,102.7,247.917c-1.352,1.611-3.032,3.278-5.061,3.205-1.478-.052-3.109-1.007-4.314-.1-.578.437-.882,1.221-1.507,1.58-1.615.926-3.613-1.681-5.236-.773-1.059.593-.993,2.377-.139,3.262a4.654,4.654,0,0,0,3.342,1.1,18.991,18.991,0,0,0,12.707-4.618c2.832-2.436,4.956-5.652,7.041-8.822,4.978-7.569,10-15.227,13.2-23.807a107.413,107.413,0,0,0,3.233-10.809q4.548-17.74,7.486-35.884c.19-1.184,1.45-5.583-.553-6.186-1.238-.372-1.835,3.5-2.69,4.649-1.373,1.841-3.533,2.61-4.515,4.808C124.718,177.692,125,180.378,125.188,182.676Z" transform="translate(-36.844 -103.244)" fill="#09124c" opacity="0.2"/>
      <path id="Trazado_1043454" data-name="Trazado 1043454" d="M140.458,230.569c.958,2.544,2.548,5.1,5.108,6.019,1.834.655,4.15.489,5.368,2.009a15.817,15.817,0,0,1,1.157,2.308c1.054,1.882,3.3,2.682,5.361,3.331l5.868,1.851c1.629.514,3.615,1.551,3.391,3.244-3.23-.729-6.4-1.683-9.546-2.729-4.483-1.491-8.969-3.2-12.771-6.006s-6.889-6.857-7.617-11.525C136.115,224.82,139.836,228.919,140.458,230.569Z" transform="translate(-124.044 -98.952)" fill="#09124c" opacity="0.2"/>
    </g>
    <g id="Grupo_1182799" data-name="Grupo 1182799" transform="translate(9.408 57.998)">
      <path id="Trazado_1043455" data-name="Trazado 1043455" d="M157.931,124.615a2.242,2.242,0,0,1-.3,1.682,1.889,1.889,0,0,1-2.062.3,3.236,3.236,0,0,1-1.469-1.44,6.339,6.339,0,0,1,.053-6.4c.813-1.366,5.313-4.5,6.326-1.644.393,1.108-1.057,2.261-1.552,3.188A8.269,8.269,0,0,0,157.931,124.615Z" transform="translate(-144.99 -98.507)" fill="#f29a96"/>
      <path id="Trazado_1043456" data-name="Trazado 1043456" d="M160.472,120.581a33.918,33.918,0,0,1-4.076.195,4.317,4.317,0,0,1-3.46-1.6,3.272,3.272,0,0,1-.442-2.064,3.97,3.97,0,0,1,2.048-2.613,2.709,2.709,0,0,1-2.468-1.8,2.323,2.323,0,0,1,1.369-2.536,4,4,0,0,1-1.865-2.572c-.128-1.031,1.29-2.105,2.475-2.3a2.546,2.546,0,0,1-1.7-2.421,3.6,3.6,0,0,1,2.674-2.772,13.493,13.493,0,0,1,4.364-.453l3.891.021c1.342.007,2.992.186,3.481,1.26.521,1.144-.738,2.387-.51,3.6.17.908,1.119,1.553,1.518,2.406,1.055,2.257-2.026,4.882-.808,7.078a9.027,9.027,0,0,0,1.206,1.4C171.076,118.745,165.072,120.116,160.472,120.581Z" transform="translate(-151.57 -99.651)" fill="#f29a96"/>
      <path id="Trazado_1043457" data-name="Trazado 1043457" d="M161.54,113.361a4.986,4.986,0,0,1,2.03-.264,6.7,6.7,0,0,1,2.329.235.185.185,0,0,1,0,.354,6.668,6.668,0,0,1-2.329.216,5.009,5.009,0,0,1-2.03-.281A.151.151,0,0,1,161.54,113.361Z" transform="translate(-159.259 -98.708)" fill="#09124c"/>
      <path id="Trazado_1043458" data-name="Trazado 1043458" d="M163.211,108.916a3.084,3.084,0,0,1,3.278.152.241.241,0,0,1-.12.444,15.206,15.206,0,0,1-1.644-.151,5.236,5.236,0,0,1-1.484-.216A.127.127,0,0,1,163.211,108.916Z" transform="translate(-161.632 -99.029)" fill="#09124c"/>
      <path id="Trazado_1043459" data-name="Trazado 1043459" d="M162.294,104.7a5.729,5.729,0,0,1,4.22-.025.218.218,0,0,1-.058.427c-.735.018-1.468-.048-2.2-.051a7.127,7.127,0,0,1-1.927-.115A.131.131,0,0,1,162.294,104.7Z" transform="translate(-160.714 -99.326)" fill="#09124c"/>
      <path id="Trazado_1043460" data-name="Trazado 1043460" d="M156.067,118.854a17.966,17.966,0,0,1,4.164-.232.1.1,0,0,1,0,.209c-1.368.151-2.719.438-4.09.574C155.829,119.435,155.759,118.918,156.067,118.854Z" transform="translate(-147.57 -98.321)" fill="#09124c"/>
    </g>
  </g>
</svg>
