<svg xmlns="http://www.w3.org/2000/svg" width="108.364" height="189.092" viewBox="0 0 108.364 189.092">
  <g id="Grupo_1182802" data-name="Grupo 1182802" transform="translate(-5801.556 -9903.467)">
    <path id="Trazado_1043327" data-name="Trazado 1043327" d="M381.566,406.94a15.29,15.29,0,0,1-14.477,5.6c-3.552-.632-6.771-2.524-10.3-3.28-9.111-1.953-17.947,3.86-27.156,5.279a29.335,29.335,0,0,1-16.094-2.091c-2.506-1.093-4.965-2.652-6.257-5.063a12.8,12.8,0,0,1-1.165-6.31,34.9,34.9,0,0,1,4.462-16.4c1.946-3.455,4.5-6.607,5.846-10.336,1.191-3.3,1.594-6.871-1.177-9.478-1.913-1.8-4.857-2.539-6.088-5.036-1.671-3.389-.456-7.47,1.28-10.575a31.477,31.477,0,0,1,6.484-8.085c3.392-3.029,7.864-6.163,7.591-10.7-.2-3.338-3.053-6.006-3.525-9.317-.576-4.038,2.481-7.71,2.927-11.764.681-6.2-4.658-11.29-6.587-17.217-2.766-8.5,2.381-18.331,10.4-22.279s17.961-2.608,25.639,1.965c4.455-5.956,14.87-7.422,20.1-2.133,3.731,3.774,4.78,9.351,7,14.171,3.536,7.679,10.081,13.457,15.782,19.7s10.921,13.838,10.709,22.289c-.175,6.973-4.005,13.237-6.5,19.75-3.1,8.091-4.082,17.561.021,25.193,4.144,7.708,13.11,13.1,13.94,21.812.439,4.605-1.621,9.092-4.166,12.954a6.629,6.629,0,0,1-2.147,2.29,6.558,6.558,0,0,1-2.87.629,41.582,41.582,0,0,1-10.064-.7C390.525,406.908,384.453,403.189,381.566,406.94Z" transform="translate(5495.443 9637)" fill="#7b2c17"/>
    <g id="Grupo_1182789" data-name="Grupo 1182789" transform="translate(5495.443 9637)">
      <path id="Trazado_1043328" data-name="Trazado 1043328" d="M381.882,328.325c-6.474,1.055-23.209,10.867-29.372,16.983-9.22,9.149-20.671,25.115-27.059,36.157a14.47,14.47,0,0,0-2.288,5.883c-.293,3.623,2.049,6.923,4.293,9.9,8.008,10.612,16.333,21.851,17.618,34.761.321,3.225.3,6.78,2.565,9.242,3.157,3.436,8.956,2.957,13.391,4.8,3.586,1.493,6.158,4.469,9.241,6.734s8.2,3.785,11.611,1.97Z" fill="#f1b777"/>
      <path id="Trazado_1043329" data-name="Trazado 1043329" d="M354.421,402.127a12.188,12.188,0,0,0,.972,3.464,18.24,18.24,0,0,0,2.45,3.185,18.687,18.687,0,0,1,4.12,9.367c.292,2.149.307,4.575,1.854,6.1.317-2.847,3.684-4.684,3.837-7.545a6.46,6.46,0,0,0-1.86-4.232,27.5,27.5,0,0,0-3.076-3.171c-1.769-1.551-3.783-2.928-4.968-4.961-1.7-2.919-1.122-6.935-3.155-9.63C352.919,395.691,354.142,400.545,354.421,402.127Z" fill="#b38759" opacity="0.2"/>
      <path id="Trazado_1043330" data-name="Trazado 1043330" d="M372.061,398.379a2.656,2.656,0,0,0-.542,1.054,9.682,9.682,0,0,0,1.186,7.342,6.266,6.266,0,0,0,1.581,2,2.851,2.851,0,0,0,2.41.586.817.817,0,0,0,.376-.191.951.951,0,0,0,.209-.526,25.8,25.8,0,0,0,.2-5.019,6.99,6.99,0,0,0-1.723-4.813C374.883,397.789,373.157,397.2,372.061,398.379Z" fill="#b38759" opacity="0.2"/>
      <path id="Trazado_1043331" data-name="Trazado 1043331" d="M337.136,373.721a14.014,14.014,0,0,0-9.713,6.591c-.21.343.306.766.57.44,3.92-4.836,12.787-9.77,16.236-1.726.126.294.561.122.568-.154C344.895,374.977,340.4,373.293,337.136,373.721Z" fill="#09124c"/>
      <path id="Trazado_1043332" data-name="Trazado 1043332" d="M368.12,415.041c-1.023-2.438-2.987-4.1-5-5.732-2.893-2.344-5.11-4.543-6.092-8.273-1.58-6-3.177-11.857-8.82-15.369a.432.432,0,0,0-.521.675,24.3,24.3,0,0,1,6,7.536c1.464,3.132,1.6,6.631,2.9,9.8,2.1,5.115,7.839,7.059,10.443,11.821C367.339,416.087,368.388,415.68,368.12,415.041Z" fill="#09124c"/>
      <path id="Trazado_1043333" data-name="Trazado 1043333" d="M375.035,394.374a7.1,7.1,0,0,0-7.276,2.91c-1.307,1.73-1.978,4.288-.492,6.071a.62.62,0,0,0,.011.329,19.8,19.8,0,0,1-2.083,16.549c-1.115,1.752-2.185,3.237-2.259,5.391a15.659,15.659,0,0,0,1.84,6.794.456.456,0,0,0,.4.229,2.892,2.892,0,0,0,1.2-.146.245.245,0,0,0,0-.467c-2.742-1.153-2.747-6.991-1.535-9.132,1.1-1.94,2.451-3.591,3.28-5.7a20.908,20.908,0,0,0,.432-13.87.637.637,0,0,0-.066-.121.535.535,0,0,0-.074-.293c-1.174-1.942-.5-3.9.976-5.472,1.593-1.7,3.317-1.684,5.493-1.922C375.481,395.459,375.738,394.517,375.035,394.374Z" fill="#09124c"/>
      <path id="Trazado_1043335" data-name="Trazado 1043335" d="M381.8,409.345a21.011,21.011,0,0,1-2.213.736,6.179,6.179,0,0,1-2.528-.334,12.5,12.5,0,0,1-4.617-3.111c-.376-.341-1.006.094-.724.559a9.5,9.5,0,0,0,5.842,3.964c1.519.351,4.092.437,4.71-1.343C382.377,409.522,382.069,409.288,381.8,409.345Z" fill="#09124c"/>
      <path id="Trazado_1043336" data-name="Trazado 1043336" d="M370.339,366.254c-2.3-.616-4.241-1.074-6.037-2.755a25.863,25.863,0,0,1-3.685-4.936,41.111,41.111,0,0,0-7.069-8.773c-.136-.118-.374.035-.264.2,1.334,2.042,2.864,3.948,4.258,5.949,1.406,2.018,2.611,4.177,4.071,6.157,1.849,2.507,5.283,5.883,8.725,4.652A.26.26,0,0,0,370.339,366.254Z" fill="#09124c"/>
      <path id="Trazado_1043337" data-name="Trazado 1043337" d="M379.236,348.7c-.044-.249-.381-.2-.452,0-2.012,5.486.738,12.667-4.311,16.884a.135.135,0,0,0-.021.161c.028.044.056.087.083.131a.326.326,0,0,0,.359.146c2.445-.667,3.292-4.058,3.587-6.171.256-1.831.362-3.69.528-5.531A21.567,21.567,0,0,0,379.236,348.7Z" fill="#09124c"/>
      <path id="Trazado_1043338" data-name="Trazado 1043338" d="M378.175,330.071c-.152-.287-.527-.072-.485.2.158,1.059.5,2.084.7,3.139a23.237,23.237,0,0,0,.6,3.128c.047.143.282.168.316,0A10.825,10.825,0,0,0,378.175,330.071Z" fill="#09124c"/>
      <path id="Trazado_1043339" data-name="Trazado 1043339" d="M374.681,443.621a.555.555,0,0,0-.921.536,20.981,20.981,0,0,1,1.13,4.259,10.515,10.515,0,0,1-.694,4.348c-.364.98,1.21,1.409,1.567.432C376.829,450.279,376.936,446.049,374.681,443.621Z" fill="#09124c"/>
      <path id="Trazado_1043340" data-name="Trazado 1043340" d="M378.873,446.167c-.233-.374-.884-.138-.735.31.168.507.318,1.208.8,1.5a.378.378,0,0,0,.551-.224A2.527,2.527,0,0,0,378.873,446.167Z" fill="#09124c"/>
      <path id="Trazado_1043341" data-name="Trazado 1043341" d="M338.936,404.335c-.009-.932.341-2.082-.357-2.8a.321.321,0,0,0-.383-.049c-.9.56-.759,1.9-.777,2.851a8.493,8.493,0,0,0,.5,3.831.643.643,0,0,0,1.164-.152A25.4,25.4,0,0,0,338.936,404.335Z" fill="#09124c"/>
      <path id="Trazado_1043342" data-name="Trazado 1043342" d="M343.244,407.306c-.308-.362-.616-.717-.908-1.092a1.705,1.705,0,0,0-.7-.649l-.055-.065c-.251-.3-.746.021-.64.372l.025.082c-.138.793.827,1.832,1.313,2.313C342.914,408.891,343.8,407.965,343.244,407.306Z" fill="#09124c"/>
      <path id="Trazado_1043343" data-name="Trazado 1043343" d="M344.656,419.486a49.632,49.632,0,0,1,4.8,17.307c.161,1.817.381,3.93,1.925,4.9,2.039,1.282,4.758-.406,7.091.189,1.68.428,2.815,1.932,3.979,3.216s2.782,2.514,4.471,2.125c.256-.818-.336-1.637-.89-2.292l-6.227-7.354a9.191,9.191,0,0,0-3.138-2.727c-1.882-.816-4.327-.395-5.781-1.842a5.233,5.233,0,0,1-1.225-2.809c-.617-3.24-.5-6.581-1.036-9.836s-1.883-6.6-4.632-8.425a24.425,24.425,0,0,1-2.338-1.482c-1.716-1.44-2.21-3.826-2.742-6-.359-1.465-1.89-6.334-4.237-5.791-1.613.373-.255,2.633.225,3.671C337.668,408.3,341.777,413.57,344.656,419.486Z" fill="#b38759" opacity="0.2"/>
      <path id="Trazado_1043344" data-name="Trazado 1043344" d="M369.081,420.995c-.085.51-.06,1.164.412,1.375a1.064,1.064,0,0,0,1.032-.253c1.474-1.131,1.759-3.364,3.259-4.461.952-.7,2.337-.891,2.912-1.922a2.57,2.57,0,0,0-.629-2.886,22.217,22.217,0,0,0-3.943-2.92c-1.249-.8-1.064-.538-.951.925C371.459,414.543,369.67,417.45,369.081,420.995Z" fill="#b38759" opacity="0.2"/>
      <path id="Trazado_1043345" data-name="Trazado 1043345" d="M382.32,373.937a.055.055,0,0,0-.08-.033,4.2,4.2,0,0,0-1.09,1.554,7.264,7.264,0,0,0-.913,2.011c-.028.16.15.368.316.243a4.805,4.805,0,0,0,1.278-1.856A3.362,3.362,0,0,0,382.32,373.937Z" fill="#09124c"/>
      <path id="Trazado_1043346" data-name="Trazado 1043346" d="M382.152,381.554a.165.165,0,0,0-.274-.072,4.01,4.01,0,0,0-.774,1.657,11.172,11.172,0,0,0-.7,2.12.193.193,0,0,0,.32.186,5.279,5.279,0,0,0,1.042-1.85A3.308,3.308,0,0,0,382.152,381.554Z" fill="#09124c"/>
      <path id="Trazado_1043334" data-name="Trazado 1043334" d="M381.882,409.292c1.013-8.128-.5-17.933,2.428-25.582,1.187-3.1-.1-4.784-2.275-2.473,1.22-3.033,2.464-6.834,2.176-7.549-.427-1.06-1.154-.956-1.977.381.428-.885.912-4.871.235-5.574s-1.48-.7-1.819.215c-4.212,11.391-7.631,16.569-7.667,18.692-.164,9.512,1.8,14.952,1.163,20.9C375.673,410.545,380.552,410.677,381.882,409.292Z" fill="#f29a96"/>
      <path id="Trazado_1043461" data-name="Trazado 1043461" d="M381.882,409.292c1.013-8.128-.5-17.933,2.428-25.582,1.187-3.1-.1-4.784-2.275-2.473,1.22-3.033,2.464-6.834,2.176-7.549-.427-1.06-1.154-.956-1.977.381.428-.885.912-4.871.235-5.574s-1.48-.7-1.819.215c-4.212,11.391-7.631,16.569-7.667,18.692-.164,9.512,1.8,14.952,1.163,20.9C375.673,410.545,380.552,410.677,381.882,409.292Z" fill="#f29a96"/>
    </g>
    <g id="Grupo_1182791" data-name="Grupo 1182791" transform="translate(5495.443 9637)">
      <path id="Trazado_1043347" data-name="Trazado 1043347" d="M367.436,310.137l8.162,27.232s.756,19.7-2.881,25.637-17.88-19.781-17.88-19.781l-4.317-25.979Z" fill="#f29a96"/>
      <path id="Trazado_1043348" data-name="Trazado 1043348" d="M350.519,317.246l3.285,19.77s8.58-1.971,12.245-7.652c3.733-5.787,1.386-19.227,1.386-19.227Z" fill="#dd7d7f"/>
      <path id="Trazado_1043349" data-name="Trazado 1043349" d="M331.533,293.76c-.81,9.853,9.165,38.856,20.807,38.856,7.7,0,15.274-10.216,15.1-22.479-.3-20.82-2.164-26.556-8.988-26.556C343.513,283.582,332.162,286.1,331.533,293.76Z" fill="#f29a96"/>
      <path id="Trazado_1043350" data-name="Trazado 1043350" d="M345.845,302c.119.505-2.6,1.577-4.266,1.969s-2.337.117-2.456-.388,1.822-1.394,3.489-1.786S345.726,301.5,345.845,302Z" fill="#7b2c17"/>
      <path id="Trazado_1043351" data-name="Trazado 1043351" d="M343.751,309.586c.152,1.265-.213,2.349-.815,2.421s-1.213-.895-1.365-2.159.213-2.349.815-2.421S343.6,308.321,343.751,309.586Z" fill="#491800"/>
      <path id="Trazado_1043352" data-name="Trazado 1043352" d="M350.64,301.655c0,.519,2.9.917,4.611.9s2.3-.438,2.294-.957-2.1-.923-3.812-.91S350.636,301.136,350.64,301.655Z" fill="#7b2c17"/>
      <path id="Trazado_1043353" data-name="Trazado 1043353" d="M354.465,308.6c.152,1.265.763,2.232,1.365,2.159s.967-1.156.815-2.421-.763-2.232-1.365-2.159S354.314,307.332,354.465,308.6Z" fill="#491800"/>
      <path id="Trazado_1043354" data-name="Trazado 1043354" d="M363.428,314.45c.285,1.022-.867,2.237-2.572,2.712s-3.319.031-3.6-.991.867-2.237,2.572-2.712S363.143,313.428,363.428,314.45Z" fill="#dd7d7f"/>
      <path id="Trazado_1043355" data-name="Trazado 1043355" d="M343.786,317.615c.285,1.023-.867,2.237-2.572,2.712s-3.319.031-3.6-.991.867-2.237,2.572-2.712S343.5,316.592,343.786,317.615Z" fill="#dd7d7f"/>
      <path id="Trazado_1043356" data-name="Trazado 1043356" d="M349.421,313.694a4.657,4.657,0,0,1-1,2.278,3.177,3.177,0,0,0-.479.66.742.742,0,0,0,.049.773.924.924,0,0,0,.693.252,3.555,3.555,0,0,0,1.278-.189" fill="none" stroke="#4f2f3a" stroke-miterlimit="10" stroke-width="0.5"/>
      <path id="Trazado_1043357" data-name="Trazado 1043357" d="M366.247,304.493a3.4,3.4,0,0,0,4.734,1.591,3.89,3.89,0,0,0,1.663-5.014,3.4,3.4,0,0,0-4.734-1.591A3.89,3.89,0,0,0,366.247,304.493Z" fill="#f29a96"/>
      <path id="Trazado_1043358" data-name="Trazado 1043358" d="M370.349,301.58a4.047,4.047,0,0,0-2.445,2.562,3.255,3.255,0,0,1,2.387-.284" fill="none" stroke="#4f2f3a" stroke-miterlimit="10" stroke-width="0.5"/>
      <path id="Trazado_1043359" data-name="Trazado 1043359" d="M336.584,295.1a11.592,11.592,0,0,0,8.98-.772,23.874,23.874,0,0,1,4.183-2.268c1.531-.462,3.537-.068,4.13,1.358.331.794.153,1.73.533,2.5.74,1.5,2.943,1.485,4.661,1.238a9.477,9.477,0,0,0,1.963,6.554,3.3,3.3,0,0,0,2.542,1.326c2.683.037,3.255-3.917,3.508-4.959,1.128-4.643,2.291-10.141,1.077-14.755s-6.605-5.852-10.833-8.335c-4.076-2.394-9.052-2.937-13.84-2.869-5.913.084-14.168,1.918-16.144,8.289C325.781,287.463,332.032,293.593,336.584,295.1Z" fill="#7b2c17"/>
      <path id="Trazado_1043360" data-name="Trazado 1043360" d="M370.184,308.5a1.063,1.063,0,0,0,.269,2.108A1.063,1.063,0,0,0,370.184,308.5Z" fill="#fff"/>
      <path id="Trazado_1043361" data-name="Trazado 1043361" d="M370.071,306.075a.2.2,0,0,0-.388.049c.012.34.239,1.981.281,2.318a1.6,1.6,0,0,0,.21.769.115.115,0,0,0,.2-.025,1.57,1.57,0,0,0,.01-.8C370.337,308.052,370.145,306.407,370.071,306.075Z" fill="#fff"/>
      <g id="Grupo_1182790" data-name="Grupo 1182790">
        <path id="Trazado_1043362" data-name="Trazado 1043362" d="M354.739,342.169a1.157,1.157,0,0,0,0,2.313A1.157,1.157,0,0,0,354.739,342.169Z" fill="#fff"/>
        <path id="Trazado_1043363" data-name="Trazado 1043363" d="M360.074,342.887a1.141,1.141,0,0,0,0,2.281A1.141,1.141,0,0,0,360.074,342.887Z" fill="#fff"/>
        <path id="Trazado_1043364" data-name="Trazado 1043364" d="M367.1,341.2a1.235,1.235,0,0,0,0,2.469A1.235,1.235,0,0,0,367.1,341.2Z" fill="#fff"/>
        <path id="Trazado_1043365" data-name="Trazado 1043365" d="M371.354,338.213a1.157,1.157,0,0,0,0,2.313A1.157,1.157,0,0,0,371.354,338.213Z" fill="#fff"/>
        <path id="Trazado_1043366" data-name="Trazado 1043366" d="M373.53,334.887a1.22,1.22,0,0,0,0,2.438A1.22,1.22,0,0,0,373.53,334.887Z" fill="#fff"/>
        <path id="Trazado_1043367" data-name="Trazado 1043367" d="M374.321,331.472a1.173,1.173,0,0,0,0,2.344A1.173,1.173,0,0,0,374.321,331.472Z" fill="#fff"/>
      </g>
      <path id="Trazado_1043368" data-name="Trazado 1043368" d="M346.894,321.012l7.464-.617s.563,7.6-3.324,7.92S346.894,321.012,346.894,321.012Z" fill="#fff"/>
    </g>
  </g>
</svg>
