<svg xmlns="http://www.w3.org/2000/svg" xmlns:xlink="http://www.w3.org/1999/xlink" width="93.656" height="93.656" viewBox="0 0 93.656 93.656">
  <defs>
    <filter id="Trazado_982547" x="0" y="0" width="93.656" height="93.656" filterUnits="userSpaceOnUse">
      <feOffset dy="3" input="SourceAlpha"/>
      <feGaussianBlur stdDeviation="3" result="blur"/>
      <feFlood flood-opacity="0.161"/>
      <feComposite operator="in" in2="blur"/>
      <feComposite in="SourceGraphic"/>
    </filter>
  </defs>
  <g id="Grupo_1182809" data-name="Grupo 1182809" transform="translate(-194.701 -10340.818)">
    <g id="Grupo_1181616" data-name="Grupo 1181616" transform="translate(-0.299 9259.818)">
      <g id="Grupo_1180309" data-name="Grupo 1180309" transform="translate(-5.461 -6709)">
        <g id="Grupo_1174894" data-name="Grupo 1174894" transform="translate(11.291 2507.168)">
          <g id="Grupo_1172067" data-name="Grupo 1172067" transform="translate(198.17 5288.832)">
            <g id="Grupo_1164308" data-name="Grupo 1164308" transform="translate(0 0)">
              <g id="Grupo_1163948" data-name="Grupo 1163948" transform="translate(0)">
                <g id="Grupo_1158168" data-name="Grupo 1158168" transform="translate(0)">
                  <g id="Grupo_1152576" data-name="Grupo 1152576">
                    <g id="Grupo_1148633" data-name="Grupo 1148633">
                      <g id="Grupo_1148525" data-name="Grupo 1148525">
                        <g transform="matrix(1, 0, 0, 1, -9, -6)" filter="url(#Trazado_982547)">
                          <g id="Trazado_982547-2" data-name="Trazado 982547" transform="translate(9 6)" fill="#e4f2f4">
                            <path d="M 37.8281364440918 74.15627288818359 C 32.92320251464844 74.15627288818359 28.16579246520996 73.19596862792969 23.68804740905762 71.30204772949219 C 19.36230278015137 69.47240447998047 15.47705841064453 66.85280609130859 12.1402702331543 63.51601409912109 C 8.803469657897949 60.17921447753906 6.1838698387146 56.29397964477539 4.354236602783203 51.96822357177734 C 2.460303068161011 47.49048233032227 1.500003099441528 42.73307037353516 1.500003099441528 37.8281364440918 C 1.500003099441528 32.92321395874023 2.460303068161011 28.16579246520996 4.354236602783203 23.68804740905762 C 6.1838698387146 19.36230278015137 8.803469657897949 15.47706985473633 12.1402702331543 12.1402702331543 C 15.47706985473633 8.803469657897949 19.36230278015137 6.1838698387146 23.68804740905762 4.354236602783203 C 28.16579246520996 2.460303068161011 32.92321395874023 1.500003099441528 37.8281364440918 1.500003099441528 C 42.73307037353516 1.500003099441528 47.49048233032227 2.460303068161011 51.96822357177734 4.354236602783203 C 56.29397964477539 6.1838698387146 60.17921447753906 8.803469657897949 63.51601409912109 12.1402702331543 C 66.85280609130859 15.47705841064453 69.47240447998047 19.36230278015137 71.30204772949219 23.68804740905762 C 73.19596862792969 28.16579246520996 74.15627288818359 32.92320251464844 74.15627288818359 37.8281364440918 C 74.15627288818359 42.73307037353516 73.19596862792969 47.49048233032227 71.30204772949219 51.96822357177734 C 69.47240447998047 56.29397964477539 66.85280609130859 60.17921447753906 63.51601409912109 63.51601409912109 C 60.17921447753906 66.85280609130859 56.29397964477539 69.47240447998047 51.96822357177734 71.30204772949219 C 47.49048233032227 73.19596862792969 42.73307037353516 74.15627288818359 37.8281364440918 74.15627288818359 Z" stroke="none"/>
                            <path d="M 37.8281364440918 3 C 33.12504959106445 3 28.56423568725586 3.920433044433594 24.27237319946289 5.735733032226562 C 20.12542343139648 7.48974609375 16.40044784545898 10.00139617919922 13.20092391967773 13.20092391967773 C 10.00139617919922 16.40044784545898 7.48974609375 20.12542343139648 5.735733032226562 24.27237319946289 C 3.920433044433594 28.56423568725586 3 33.12504959106445 3 37.8281364440918 C 3 42.53122329711914 3.920433044433594 47.09203720092773 5.735733032226562 51.3838996887207 C 7.48974609375 55.53084945678711 10.00139617919922 59.25582122802734 13.20092391967773 62.45534896850586 C 16.40044784545898 65.65487670898438 20.12542343139648 68.16652679443359 24.27237319946289 69.92053985595703 C 28.56423568725586 71.73583984375 33.12504959106445 72.65627288818359 37.8281364440918 72.65627288818359 C 42.53122329711914 72.65627288818359 47.09203720092773 71.73583984375 51.3838996887207 69.92053985595703 C 55.53084945678711 68.16652679443359 59.25582122802734 65.65487670898438 62.45534896850586 62.45534896850586 C 65.65487670898438 59.25582122802734 68.16652679443359 55.53084945678711 69.92053985595703 51.3838996887207 C 71.73583984375 47.09203720092773 72.65627288818359 42.53122329711914 72.65627288818359 37.8281364440918 C 72.65627288818359 33.12504959106445 71.73583984375 28.56423568725586 69.92053985595703 24.27237319946289 C 68.16652679443359 20.12542343139648 65.65487670898438 16.40044784545898 62.45534896850586 13.20092391967773 C 59.25582122802734 10.00139617919922 55.53084945678711 7.48974609375 51.3838996887207 5.735733032226562 C 47.09203720092773 3.920433044433594 42.53122329711914 3 37.8281364440918 3 M 37.8281364440918 0 C 58.72003555297852 0 75.65627288818359 16.93623733520508 75.65627288818359 37.8281364440918 C 75.65627288818359 58.72003555297852 58.72003555297852 75.65627288818359 37.8281364440918 75.65627288818359 C 16.93623733520508 75.65627288818359 0 58.72003555297852 0 37.8281364440918 C 0 16.93623733520508 16.93623733520508 0 37.8281364440918 0 Z" stroke="none" fill="#01899b"/>
                          </g>
                        </g>
                      </g>
                    </g>
                  </g>
                </g>
              </g>
            </g>
          </g>
        </g>
      </g>
    </g>
    <g id="banquero" transform="translate(215.701 10361.348)">
      <g id="Grupo_1182806" data-name="Grupo 1182806" transform="translate(0.683 0.686)">
        <g id="Grupo_1182805" data-name="Grupo 1182805" transform="translate(9.427 0)">
          <path id="Trazado_1043464" data-name="Trazado 1043464" d="M196.725,434.051H174.432l.544-2.649a5.509,5.509,0,0,1,5.4-4.4h10.4a5.51,5.51,0,0,1,5.4,4.4Z" transform="translate(-168.668 -388.824)" fill="#f7f9f9"/>
          <path id="Trazado_1043465" data-name="Trazado 1043465" d="M265.335,410.759l2.874,2.928,2.874-2.928-2.755-6.163Z" transform="translate(-251.298 -368.46)" fill="#e490d0"/>
          <path id="Trazado_1043466" data-name="Trazado 1043466" d="M182.612,426.991a1.849,1.849,0,0,0-.652.12c-1.2.447-2.168,2.1-2.422,4.284l-.309,2.649h-4.8l.543-2.649a5.512,5.512,0,0,1,5.4-4.4Z" transform="translate(-168.664 -388.817)" fill="#dae4ea"/>
          <path id="Trazado_1043467" data-name="Trazado 1043467" d="M250.151,427l-.783,4.684-4.42-1.6h0l-4.42,1.6L239.746,427" transform="translate(-228.038 -388.822)" fill="#dae4ea"/>
          <path id="Trazado_1043468" data-name="Trazado 1043468" d="M269.19,370.4v5.15a3.084,3.084,0,0,1-6.169,0V370.4Z" transform="translate(-249.195 -337.375)" fill="#ffddce"/>
          <g id="Grupo_1182803" data-name="Grupo 1182803" transform="translate(0 22.267)">
            <path id="Trazado_1043469" data-name="Trazado 1043469" d="M267.115,378.464a3.087,3.087,0,0,1-4.092-2.916V370.4h2.014v5.15A3.084,3.084,0,0,0,267.115,378.464Z" transform="translate(-249.197 -359.641)" fill="#ffcbbe"/>
            <path id="Trazado_1043470" data-name="Trazado 1043470" d="M115.116,258.662a4.03,4.03,0,0,1-3.927-4.917,1.988,1.988,0,0,1,3.927.438h25.768a1.988,1.988,0,0,1,3.927-.438,4.03,4.03,0,0,1-3.927,4.917" transform="translate(-111.09 -252.193)" fill="#ffcbbe"/>
            <path id="Trazado_1043471" data-name="Trazado 1043471" d="M263.021,370.4h6.169v4.745h-6.169Z" transform="translate(-249.195 -359.642)" fill="#ffcbbe"/>
          </g>
          <path id="Trazado_1043472" data-name="Trazado 1043472" d="M171.712,178.5h-6.987a9.391,9.391,0,0,1-9.391-9.391V155.87H181.1v13.244A9.391,9.391,0,0,1,171.712,178.5Z" transform="translate(-151.308 -142.369)" fill="#ffddce"/>
          <path id="Trazado_1043473" data-name="Trazado 1043473" d="M170.893,178.5h-6.169a9.391,9.391,0,0,1-9.391-9.391V155.864H161.5v13.245A9.391,9.391,0,0,0,170.893,178.5Z" transform="translate(-151.308 -142.363)" fill="#ffcbbe"/>
          <g id="Grupo_1182804" data-name="Grupo 1182804" transform="translate(7.212 26.131)">
            <ellipse id="Elipse_13119" data-name="Elipse 13119" cx="2.109" cy="1.282" rx="2.109" ry="1.282" transform="translate(15.179)" fill="#eaaadd"/>
            <ellipse id="Elipse_13120" data-name="Elipse 13120" cx="2.109" cy="1.282" rx="2.109" ry="1.282" fill="#eaaadd"/>
          </g>
          <path id="Trazado_1043474" data-name="Trazado 1043474" d="M141.314,54.847h-3.987a4.485,4.485,0,0,0-4.485,4.485v6.074a2.236,2.236,0,0,0,2.236,2.236h2.8a6.686,6.686,0,0,0,6.686-6.686V58.1A3.253,3.253,0,0,0,141.314,54.847Z" transform="translate(-130.862 -50.539)" fill="#4d5961"/>
          <path id="Trazado_1043475" data-name="Trazado 1043475" d="M141.29,54.84a4.486,4.486,0,0,0-4.485,4.486v8.31h-1.727a2.236,2.236,0,0,1-2.236-2.236V59.326a4.486,4.486,0,0,1,4.485-4.486Z" transform="translate(-130.862 -50.533)" fill="#4d5961"/>
          <path id="Trazado_1043476" data-name="Trazado 1043476" d="M250.228,23.52h-6.209a6.087,6.087,0,0,1-6.087-6.087V13.6a6.087,6.087,0,0,1,6.087-6.087H262.19v4.05A11.962,11.962,0,0,1,250.228,23.52Z" transform="translate(-226.389 -7.508)" fill="#4d5961"/>
          <path id="Trazado_1043477" data-name="Trazado 1043477" d="M249.387,23.521h-5.368a6.086,6.086,0,0,1-6.087-6.087V13.6a6.086,6.086,0,0,1,6.087-6.087h5.368A6.086,6.086,0,0,0,243.3,13.6v3.837A6.086,6.086,0,0,0,249.387,23.521Z" transform="translate(-226.389 -7.51)" fill="#454545"/>
        </g>
        <path id="Trazado_1043478" data-name="Trazado 1043478" d="M16.548,7.506a9.047,9.047,0,0,1,6.331,15.509,15.682,15.682,0,0,0,.941,2.928.885.885,0,0,1-.858,1.252,5.5,5.5,0,0,1-3.989-1.924A9.048,9.048,0,1,1,16.548,7.506Z" transform="translate(-7.501 -7.506)" fill="#f6e266"/>
      </g>
      <g id="Grupo_1182807" data-name="Grupo 1182807" transform="translate(0 0.003)">
        <ellipse id="Elipse_13121" data-name="Elipse 13121" cx="1.215" cy="2.018" rx="1.215" ry="2.018" transform="translate(19.195 21.117)"/>
        <path id="Trazado_1043479" data-name="Trazado 1043479" d="M356.2,234.07c0,1.113.545,2.018,1.215,2.018s1.215-.905,1.215-2.018-.545-2.018-1.215-2.018S356.2,232.957,356.2,234.07Z" transform="translate(-323.783 -210.935)"/>
        <path id="Trazado_1043480" data-name="Trazado 1043480" d="M262.983,306.476a.683.683,0,0,0-.364.894,3.334,3.334,0,0,0,6.145,0,.683.683,0,1,0-1.258-.53,1.969,1.969,0,0,1-3.629,0A.683.683,0,0,0,262.983,306.476Z" transform="translate(-238.671 -278.537)"/>
        <path id="Trazado_1043481" data-name="Trazado 1043481" d="M276.1,276.261h2.548a.683.683,0,1,0,0-1.365H276.1a.683.683,0,1,0,0,1.365Z" transform="translate(-250.354 -249.88)"/>
        <path id="Trazado_1043482" data-name="Trazado 1043482" d="M39.9,18.864a.682.682,0,0,0,.683-.683V15.493A12.647,12.647,0,0,0,46.593,4.736V.686A.682.682,0,0,0,45.91,0H27.739A6.78,6.78,0,0,0,21.4,4.4a3.935,3.935,0,0,0-.838-.09H17.805A9.728,9.728,0,1,0,4.131,17.691a.683.683,0,1,0,.786-1.116,8.366,8.366,0,1,1,10.666-.868.683.683,0,0,0-.188.64,16.308,16.308,0,0,0,.987,3.065.188.188,0,0,1-.017.193.2.2,0,0,1-.178.09,4.852,4.852,0,0,1-3.507-1.68.683.683,0,0,0-.708-.222,8.4,8.4,0,0,1-4.8-.094A.683.683,0,0,0,6.754,19a9.775,9.775,0,0,0,5.167.215,5.766,5.766,0,0,0,1.531,1.139V22.6a2.792,2.792,0,0,0-1.009-.309,2.605,2.605,0,0,0-2.9,2.066,4.711,4.711,0,0,0,4.267,5.737A10.092,10.092,0,0,0,23.253,37.5v.677H21.817a6.194,6.194,0,0,0-6.069,4.95l-.543,2.648a.682.682,0,0,0,.669.82H38.167a.682.682,0,0,0,.669-.82l-.544-2.648a6.194,6.194,0,0,0-6.069-4.95H30.786V37.5a10.092,10.092,0,0,0,9.442-7.409A4.711,4.711,0,0,0,44.5,24.354a2.606,2.606,0,0,0-2.9-2.066,2.79,2.79,0,0,0-1.01.309V20.91a.683.683,0,1,0-1.365,0v6.521a8.718,8.718,0,0,1-8.708,8.708H23.526a8.718,8.718,0,0,1-8.708-8.708v-6.57a7.253,7.253,0,0,0,1.284.2c.033,0,.066,0,.1,0a1.567,1.567,0,0,0,1.419-2.225c-.056-.119-.108-.244-.16-.371a7.38,7.38,0,0,0,5.591-2.978,6.744,6.744,0,0,0,4.689,1.894h6.209a12.57,12.57,0,0,0,5.272-1.153v1.954A.682.682,0,0,0,39.9,18.864Zm.683,6.078a1.306,1.306,0,0,1,2.579-.287,3.348,3.348,0,0,1-2.658,4.028,10.131,10.131,0,0,0,.078-1.252v-.749c.214-.234.675-.643,1.154-.449a.682.682,0,1,0,.511-1.266,2.088,2.088,0,0,0-1.665.046v-.072h0ZM24.913,41.981l-1.775.642-.515-3.081h.693a3.774,3.774,0,0,0,1.6,2.438Zm2.107.689,1.643.595L27.02,44.938l-1.643-1.674Zm2.107-.689a3.774,3.774,0,0,0,1.6-2.438h.693L30.9,42.623Zm.295-3.121a2.4,2.4,0,0,1-4.8,0V37.5h4.8V38.86ZM17.086,43.4a4.826,4.826,0,0,1,3.729-3.754c.142-.03.285-.053.43-.07l.682,4.079a.682.682,0,0,0,.905.529l1.134-.41,1.428,1.455H16.711Zm19.868,0,.376,1.828H28.646l1.428-1.455,1.133.41a.683.683,0,0,0,.905-.529l.682-4.079c.145.017.289.04.431.07A4.824,4.824,0,0,1,36.954,43.4ZM10.792,25.395a3.373,3.373,0,0,1,.082-.74,1.305,1.305,0,0,1,2.579.28v.079a2.088,2.088,0,0,0-1.664-.046.682.682,0,1,0,.511,1.266c.479-.193.939.214,1.153.448v.75a10.128,10.128,0,0,0,.078,1.252,3.349,3.349,0,0,1-2.739-3.288Zm6.336-8.287H17c-.07-.245-.133-.483-.188-.7A9.724,9.724,0,0,0,18.573,5.676h1.989a2.583,2.583,0,0,1,.49.047,6.792,6.792,0,0,0-.082,1.05v3.837a6.731,6.731,0,0,0,1.17,3.8,6.012,6.012,0,0,1-5.011,2.7Zm10.611-1.093a5.411,5.411,0,0,1-5.4-5.4V6.773a5.411,5.411,0,0,1,5.4-5.4H45.228V4.736A11.292,11.292,0,0,1,33.948,16.015H27.739Z" transform="translate(0 -0.003)"/>
        <path id="Trazado_1043483" data-name="Trazado 1043483" d="M73.766,53.688a3.7,3.7,0,0,1-2.241-.488.683.683,0,1,0-.647,1.2,4.658,4.658,0,0,0,2.209.64v.5a.683.683,0,0,0,1.365,0V55a3.1,3.1,0,0,0,2.668-2.5,2.575,2.575,0,0,0-2.093-2.8,11.08,11.08,0,0,1-2.574-.992.649.649,0,0,1-.272-.673,1.187,1.187,0,0,1,.951-.916,2.782,2.782,0,0,1,2.224.3.683.683,0,0,0,.821-1.091,3.824,3.824,0,0,0-1.725-.638v-.434a.683.683,0,0,0-1.365,0v.477c-.093.017-.187.037-.283.061a2.569,2.569,0,0,0-1.969,2.016,2,2,0,0,0,.878,2.044,11.3,11.3,0,0,0,2.933,1.156c.8.232,1.205.705,1.122,1.3A1.92,1.92,0,0,1,73.766,53.688Z" transform="translate(-64.102 -40.513)"/>
      </g>
    </g>
  </g>
</svg>
