<svg id="Grupo_1182258" data-name="Grupo 1182258" xmlns="http://www.w3.org/2000/svg" xmlns:xlink="http://www.w3.org/1999/xlink" width="295" height="413" viewBox="0 0 295 413">
  <defs>
    <clipPath id="clip-path">
      <rect id="Rect치ngulo_414858" data-name="Rect치ngulo 414858" width="294" height="357" rx="10" transform="translate(0)" fill="#273603"/>
    </clipPath>
    <clipPath id="clip-path-2">
      <rect id="Rect치ngulo_414859" data-name="Rect치ngulo 414859" width="295" height="413" transform="translate(0)" fill="#fff" stroke="#707070" stroke-width="1" opacity="0.56"/>
    </clipPath>
  </defs>
  <g id="Enmascarar_grupo_1098820" data-name="Enmascarar grupo 1098820" transform="translate(1 56)" clip-path="url(#clip-path)">
    <g id="Grupo_1182257" data-name="Grupo 1182257" transform="translate(-21 -10)">
      <path id="Trazado_1041974" data-name="Trazado 1041974" d="M10,0H284a10,10,0,0,1,10,10V347a10,10,0,0,1-10,10H10A10,10,0,0,1,0,347V10A10,10,0,0,1,10,0Z" transform="translate(21 10)" fill="#01899b"/>
      <g id="Elipse_13083" data-name="Elipse 13083" transform="translate(0 304)" fill="none" stroke="#e4f2f4" stroke-width="10" opacity="0.78">
        <ellipse cx="44.5" cy="41" rx="44.5" ry="41" stroke="none"/>
        <ellipse cx="44.5" cy="41" rx="39.5" ry="36" fill="none"/>
      </g>
      <g id="Elipse_13084" data-name="Elipse 13084" transform="translate(198 265)" fill="none" stroke="#e4f2f4" stroke-width="8" opacity="0.78">
        <ellipse cx="69.5" cy="63.5" rx="69.5" ry="63.5" stroke="none"/>
        <ellipse cx="69.5" cy="63.5" rx="65.5" ry="59.5" fill="none"/>
      </g>
      <g id="Elipse_13085" data-name="Elipse 13085" transform="translate(14)" fill="none" stroke="#e4f2f4" stroke-width="8" opacity="0.78">
        <ellipse cx="22" cy="20.5" rx="22" ry="20.5" stroke="none"/>
        <ellipse cx="22" cy="20.5" rx="18" ry="16.5" fill="none"/>
      </g>
      <g id="Elipse_13086" data-name="Elipse 13086" transform="translate(258 105)" fill="none" stroke="#e4f2f4" stroke-width="8" opacity="0.78">
        <ellipse cx="15" cy="14" rx="15" ry="14" stroke="none"/>
        <ellipse cx="15" cy="14" rx="11" ry="10" fill="none"/>
      </g>
      <g id="Elipse_13087" data-name="Elipse 13087" transform="translate(105 98)" fill="none" stroke="#e4f2f4" stroke-width="8" opacity="0.78">
        <ellipse cx="39.5" cy="36" rx="39.5" ry="36" stroke="none"/>
        <ellipse cx="39.5" cy="36" rx="35.5" ry="32" fill="none"/>
      </g>
      <g id="Elipse_13088" data-name="Elipse 13088" transform="translate(288 165)" fill="none" stroke="#e4f2f4" stroke-width="8" opacity="0.78">
        <ellipse cx="28" cy="25.5" rx="28" ry="25.5" stroke="none"/>
        <ellipse cx="28" cy="25.5" rx="24" ry="21.5" fill="none"/>
      </g>
      <g id="Elipse_13089" data-name="Elipse 13089" transform="translate(230 24)" fill="none" stroke="#e4f2f4" stroke-width="8" opacity="0.78">
        <ellipse cx="24.5" cy="22.5" rx="24.5" ry="22.5" stroke="none"/>
        <ellipse cx="24.5" cy="22.5" rx="20.5" ry="18.5" fill="none"/>
      </g>
      <g id="Elipse_13090" data-name="Elipse 13090" transform="translate(125 265)" fill="none" stroke="#e4f2f4" stroke-width="8" opacity="0.78">
        <ellipse cx="25" cy="23.5" rx="25" ry="23.5" stroke="none"/>
        <ellipse cx="25" cy="23.5" rx="21" ry="19.5" fill="none"/>
      </g>
      <g id="Elipse_13091" data-name="Elipse 13091" transform="translate(36 189)" fill="none" stroke="#e4f2f4" stroke-width="8" opacity="0.78">
        <ellipse cx="34.5" cy="31.5" rx="34.5" ry="31.5" stroke="none"/>
        <ellipse cx="34.5" cy="31.5" rx="30.5" ry="27.5" fill="none"/>
      </g>
    </g>
  </g>
  <g id="Enmascarar_grupo_1098797" data-name="Enmascarar grupo 1098797" transform="translate(0 0)" clip-path="url(#clip-path-2)">
    <g id="_16308819_60c822c622ab9023d35eb71c" data-name="16308819_60c822c622ab9023d35eb71c" transform="translate(2.634 4.424)">
      <path id="Trazado_1032831" data-name="Trazado 1032831" d="M629.762,800.079c-8.328,6.494-12.965,17.032-13.564,27.576A43.949,43.949,0,0,0,617.948,843c.159.516.783,2.49,1.576,4.887a.884.884,0,0,1,.263.115,36.169,36.169,0,0,0,7.25-1.982l.818-.289c-.448-1.121-.843-2.21-1.183-3.253A56.853,56.853,0,0,1,629.762,800.079Z" transform="translate(-580.603 -650.552)" fill="none"/>
      <path id="Trazado_1032832" data-name="Trazado 1032832" d="M1057.176,381.784a32.263,32.263,0,0,1-1.4,12.115,30.048,30.048,0,0,1-2.26,5.273,1.819,1.819,0,0,1,1.024,2.393l2.675,3.467a78.143,78.143,0,0,0,4.355-23.43A3.6,3.6,0,0,1,1057.176,381.784Z" transform="translate(-915.615 -330.028)" fill="#dd5313"/>
      <path id="Trazado_1032833" data-name="Trazado 1032833" d="M544.611,358.826c.075-.047.141-.1.219-.144a.888.888,0,0,1,.66-.083c-.792-2.4-1.417-4.371-1.576-4.887a43.956,43.956,0,0,1-1.75-15.341c.6-10.544,5.236-21.082,13.564-27.576a56.853,56.853,0,0,0-3.09,42.4c.34,1.043.735,2.133,1.183,3.253,5.428-1.92,9.541-3.345,14.632.6q.76.589,1.462,1.236c3.554,3.267,6.09,7.568,8.5,11.7a47.989,47.989,0,0,1,2.429,5.542l34.441,3.9a1.056,1.056,0,0,1,.152-.238c-1.508-2.129-2.945-4.309-4.255-6.565-.354-.609-.8-1.3-1.269-2.031a5.47,5.47,0,0,1-4.263-.988,8.734,8.734,0,0,1-1.817-2.97l-3.5-7.953c-7.3-16.574-16.023-34.849-9.518-53.068,2.38-6.664,6.3-12.944,10.987-19.053a22.84,22.84,0,0,0,2.111-3.075l.2.149c.714-2.13,3.2-5.074,6.158-8.016,6.339-7.209,15.672-12.447,20.423-14.824l-4.336-14.39a2.031,2.031,0,0,1-1-1.636c-8.485,1.448-16.789-2.013-23.242-8.017-.315,1.592-1.535,2.786-4.128,3.1a8.3,8.3,0,0,1-5.8-1.821,14.19,14.19,0,0,1-4.639-6.395,27.007,27.007,0,0,0,2.066,12.081c-2.749.037-5.2-1.516-7.393-3.238.73,2.237,1.559,4.444,2.5,6.6.482,1.1-1.143,2.062-1.629.952a77.909,77.909,0,0,1-3.5-9.736,29.89,29.89,0,0,1-5.3-5.774c-4.28-6.393-4.19-14.155-4.147-21.5a34.961,34.961,0,0,1,7.322-20.682c11.164-14.668,29.712-18.872,47.318-18.728,4.276.035,3.492,2.512,3,5.9a37.747,37.747,0,0,1-.936,4.425c.525.2,1.045.418,1.555.662.484-2.146,3.2-4.4,4.651-5.415a2.972,2.972,0,0,1,2.162-.718,3.148,3.148,0,0,1,1.606,1.112,38.719,38.719,0,0,1,8.16,13.782,25.163,25.163,0,0,1,1.185,5.328,4.5,4.5,0,0,1,3.717-.723,5.173,5.173,0,0,1,1.4.647c-.005-.029-.009-.058-.015-.087-.611-3.107-.636-6.378-1.417-9.393-1.531-5.918-7.189-10.811-13.4-10.826a2.158,2.158,0,0,1-1.27-.247,2.247,2.247,0,0,1-.654-1.514c-.681-3.67-3.5-6.658-6.766-8.462s-6.978-2.607-10.628-3.387c-11.115-2.375-21.865-2.081-32.089,3.278A52.232,52.232,0,0,0,563.4,187.645c-6.165,11.631-7.744,24.642-6.85,37.616.532,7.726,2.821,15.208,3.254,22.948.4,7.2-.319,11.419-4.351,17.732-5.876,9.2-12.856,17.64-19.167,26.548s-12.017,18.443-14.912,28.969-2.754,22.212,2.24,31.92c.177.344.376.677.566,1.015,5.827,1.446,11.592,3.228,17.462,4.273A12.846,12.846,0,0,0,544.611,358.826Zm38.277-52.455c2.755-20.366,17.672-37.516,17.548-58.444a.944.944,0,0,1,1.886,0,54.407,54.407,0,0,1-2.67,16.442c-5.8,18.662-20.078,37.814-13.815,58.215.358,1.165-1.464,1.659-1.819.5A38.917,38.917,0,0,1,582.888,306.371Zm-7.816-12.763a68.134,68.134,0,0,0-12.146,55.948c.272,1.184-1.548,1.684-1.819.5a68.465,68.465,0,0,1-1.716-13.316,69.954,69.954,0,0,1,14.053-44.086C574.169,291.7,575.807,292.642,575.071,293.608Zm-11.921-88.331a43.5,43.5,0,0,1,5.033-18.1c3.347-6.058,8.225-11.113,13.465-15.563.921-.782,2.261.547,1.334,1.334-5.971,5.07-11.484,10.939-14.664,18.2-5.207,11.885-3.4,25.343-1.865,37.8,1.551,12.587,3.25,25.808-1.412,37.968-.431,1.124-2.254.633-1.819-.5,2.674-6.975,3.231-14.418,2.884-21.825C565.493,231.474,562.224,218.456,563.151,205.277Zm-7.082,102.966a133.653,133.653,0,0,0,18.277-46.027c.232-1.192,2.049-.684,1.819.5A135.113,135.113,0,0,1,557.7,309.195C557.049,310.219,555.417,309.271,556.069,308.243ZM527.56,345.914c.486,1.1-1.141,2.061-1.629.952-3.6-8.18-.872-17.437,2.1-25.377a90.354,90.354,0,0,1,12.849-23.2c.729-.953,2.366-.012,1.629.952a88.949,88.949,0,0,0-12.3,21.8C527.272,328.619,524.075,338.007,527.56,345.914Z" transform="translate(-506.57 -161.268)" fill="#dd5313"/>
      <path id="Trazado_1032834" data-name="Trazado 1032834" d="M814.068,415.374a6.014,6.014,0,0,1,5.561-1.287c-.607-1.274-1.233-2.562-1.95-3.855q-.443-.8-.878-1.611A24.2,24.2,0,0,0,815,412.4,28.994,28.994,0,0,0,814.068,415.374Z" transform="translate(-732.217 -350.723)" fill="#dd5313"/>
      <path id="Trazado_1032835" data-name="Trazado 1032835" d="M794.035,1120.6q.048-10.283.1-20.565a44.19,44.19,0,0,1-13.976-5.315c-3.833-2.287-8.244-3.435-12.042-5.8a19.385,19.385,0,0,1-1.894-1.335,28.891,28.891,0,0,1-4.824-5.2c-.445-.246-.9-.482-1.337-.736a.864.864,0,0,1-.353-1.168l-34.441-3.9a14.16,14.16,0,0,1,.794,2.68c.157,1.459-1.725-.989-2.211.4a43.777,43.777,0,0,1-3.63,7.793c-2.153,3.638-2.876,6.815-4.028,10.8-.829,2.865-1.05,6.034-1.984,8.83-.873,2.616-3.4,3.031-5.771,2.951-.137,0-.273-.006-.41-.01,1.151.281,2.356.506,3.433.824q7.951,2.353,15.978,4.437,21.867,5.677,44.194,9.336,10.368,1.7,20.8,2.937a43.474,43.474,0,0,1,1.771-6.438A.854.854,0,0,1,794.035,1120.6Z" transform="translate(-650.996 -862.341)" fill="#f39776"/>
      <path id="Trazado_1032836" data-name="Trazado 1032836" d="M503.8,1030.938a13.04,13.04,0,0,0,3.755-.811,6.016,6.016,0,0,0,2.589-1.591c1.456-1.782-1.1-4.068-2.491-4.962a.882.882,0,0,1-.421-.766c-.42.078-.845.137-1.264.177a65.326,65.326,0,0,1-15.817-.52c-1.2-.179-.687-2,.5-1.82a64.849,64.849,0,0,0,12.277.651c1.666-.07,3.723.037,5.267-.7,1.806-.865,1.663-3.3.57-4.689a.994.994,0,0,1-.14-.275c-2.426.545-5.526-.585-7.663-1.133q-6.783-1.737-13.447-3.9c-1.152-.372-.657-2.193.5-1.819q7.228,2.333,14.6,4.187c1.8.451,4.973,1.755,6.626.336a4.875,4.875,0,0,0,1.189-2.94,2.012,2.012,0,0,0-.314-1.921,7.893,7.893,0,0,0-1.262-.969c-6.549-4.738-14.582-6.831-22.231-9.051a.944.944,0,0,1,.5-1.819c3.9,1.131,7.811,2.226,11.619,3.641a48.593,48.593,0,0,1,10.129,4.951,10.744,10.744,0,0,1,3.02,2.456,11.94,11.94,0,0,1,.829-6.572,19.889,19.889,0,0,1,4.768-6.088,24.413,24.413,0,0,1-12.375-1.762,7.248,7.248,0,0,1-4.23-4.178,3.633,3.633,0,0,1,1.543-4.294,12.791,12.791,0,0,1-2.974-.16c-5.87-1.045-11.635-2.828-17.461-4.273-1.973-.49-3.954-.941-5.948-1.312-2.444-.454-5.005-.853-7.382-.122s-4.487,2.941-4.259,5.417c.265,2.878,3.268,4.58,5.913,5.744q3.93,1.73,7.91,3.343c1.407.57,6.806,1.744,7.465,3.057.716,1.427-1.05,3.725-1.271,5.257-.45,3.124,1.518,5.288,1.9,8.218.3,2.318-1.01,4.8-.068,6.935.578,1.314,1.9,2.191,2.453,3.517s.224,2.892.64,4.28c.6,1.981,2.548,3.2,4.4,4.127a57.415,57.415,0,0,0,9.367,3.712.929.929,0,0,1,.7-1.56Z" transform="translate(-464.382 -787.202)" fill="#f39776"/>
      <path id="Trazado_1032837" data-name="Trazado 1032837" d="M652.609,1038.427c.934-2.8,1.156-5.965,1.984-8.83,1.152-3.984,1.875-7.16,4.028-10.8a43.8,43.8,0,0,0,3.63-7.794c.486-1.385,2.368,1.064,2.211-.4a14.173,14.173,0,0,0-.794-2.68,47.956,47.956,0,0,0-2.428-5.542c-2.406-4.13-4.942-8.431-8.5-11.7q-.7-.646-1.461-1.236c-5.091-3.945-9.2-2.519-14.632-.6l-.818.289a36.156,36.156,0,0,1-7.25,1.982.91.91,0,0,1,.029,1.6c-1.29.7-1.215,2.024-.477,3.151a7.8,7.8,0,0,0,4.292,2.7,23.57,23.57,0,0,0,11.578.792.956.956,0,0,1,1.172,1.084.82.82,0,0,1-.075,1.184c-2.054,1.869-4.192,3.809-5.469,6.318a10.951,10.951,0,0,0-.275,8.431,15.5,15.5,0,0,0,10.525,9.957.944.944,0,0,1-.5,1.819,17.454,17.454,0,0,1-11.844-11.276c-.034-.1-.06-.212-.092-.317a8.468,8.468,0,0,1-1.23,3.805,4.066,4.066,0,0,1-.9.967,5.419,5.419,0,0,1,.643,5.6,4.012,4.012,0,0,1-1.905,1.775c2.17,1.558,4.6,4.51,2.821,7.131a7.138,7.138,0,0,1-3.346,2.393,14.594,14.594,0,0,1-4.382,1.027,58.272,58.272,0,0,0,7.93,1.64,89.268,89.268,0,0,0,9.351.46c.137,0,.273.005.41.01C649.212,1041.456,651.736,1041.041,652.609,1038.427Z" transform="translate(-589.399 -793.678)" fill="#f39776"/>
      <path id="Trazado_1032838" data-name="Trazado 1032838" d="M621.441,1004.293c-.079.043-.145.1-.22.144a3.633,3.633,0,0,0-1.543,4.294,7.247,7.247,0,0,0,4.23,4.178,24.411,24.411,0,0,0,12.375,1.762c.419-.395.842-.785,1.263-1.169a.946.946,0,0,1,1.41.15.956.956,0,0,0-1.172-1.084,23.565,23.565,0,0,1-11.578-.793,7.8,7.8,0,0,1-4.292-2.7c-.738-1.127-.813-2.451.477-3.151a.91.91,0,0,0-.029-1.6.9.9,0,0,0-.923-.032Z" transform="translate(-583.18 -806.88)" fill="#d46566"/>
      <path id="Trazado_1032839" data-name="Trazado 1032839" d="M673.766,1043.179c-.421.384-.844.774-1.263,1.169a19.883,19.883,0,0,0-4.768,6.088,11.938,11.938,0,0,0-.829,6.573,2.965,2.965,0,0,1,.484,1.13,5.218,5.218,0,0,1,.057,1.308c.032.1.057.212.092.317a17.455,17.455,0,0,0,11.844,11.276.944.944,0,0,0,.5-1.82,15.5,15.5,0,0,1-10.526-9.957,10.951,10.951,0,0,1,.274-8.431c1.277-2.509,3.415-4.449,5.469-6.318a.82.82,0,0,0,.076-1.184A.942.942,0,0,0,673.766,1043.179Z" transform="translate(-619.399 -836.556)" fill="#d46566"/>
      <path id="Trazado_1032840" data-name="Trazado 1032840" d="M582.962,1067.933a2.958,2.958,0,0,0-.484-1.13,10.742,10.742,0,0,0-3.02-2.457,48.589,48.589,0,0,0-10.129-4.951c-3.808-1.415-7.721-2.51-11.62-3.641a.944.944,0,0,0-.5,1.819c7.65,2.22,15.683,4.313,22.232,9.051a7.867,7.867,0,0,1,1.262.969,2.012,2.012,0,0,1,.314,1.921,4.876,4.876,0,0,1-1.189,2.94c-1.653,1.419-4.824.115-6.626-.336q-7.368-1.846-14.6-4.187c-1.159-.373-1.654,1.447-.5,1.82q6.664,2.149,13.447,3.895c2.137.548,5.237,1.678,7.663,1.133-.344-.9.793-1.923,1.474-1.059.074.094.136.2.2.293a4.053,4.053,0,0,0,.9-.966,8.466,8.466,0,0,0,1.23-3.806A5.209,5.209,0,0,0,582.962,1067.933Z" transform="translate(-534.972 -846.35)" fill="#d46566"/>
      <path id="Trazado_1032841" data-name="Trazado 1032841" d="M590.7,1132.626a.989.989,0,0,0,.14.275c1.093,1.387,1.237,3.824-.57,4.689-1.543.739-3.6.632-5.267.7a64.827,64.827,0,0,1-12.277-.651c-1.188-.177-1.7,1.641-.5,1.819a65.315,65.315,0,0,0,15.818.52c.419-.04.844-.1,1.264-.176a.907.907,0,0,1,1.373-.864c.143.092.289.191.435.3a4.009,4.009,0,0,0,1.905-1.775,5.42,5.42,0,0,0-.642-5.6c-.069-.1-.131-.2-.2-.294C591.492,1130.7,590.355,1131.725,590.7,1132.626Z" transform="translate(-546.458 -904.199)" fill="#d46566"/>
      <path id="Trazado_1032842" data-name="Trazado 1032842" d="M637.75,1171.063c1.783-2.621-.65-5.573-2.821-7.13-.147-.106-.292-.2-.435-.3a.907.907,0,0,0-1.373.864.882.882,0,0,0,.421.766c1.388.893,3.947,3.18,2.491,4.962a6.015,6.015,0,0,1-2.589,1.592,13.029,13.029,0,0,1-3.755.811.929.929,0,0,0-.7,1.56.854.854,0,0,0,.7.327c.112-.008.222-.025.333-.034a14.588,14.588,0,0,0,4.382-1.027A7.146,7.146,0,0,0,637.75,1171.063Z" transform="translate(-590.272 -928.894)" fill="#d46566"/>
      <path id="Trazado_1032843" data-name="Trazado 1032843" d="M946.093,1048.413c0-.042,0-.085,0-.127h0c-.1-7.909-.272-14.218-.543-14.753-.8-1.566-13.453-.844-22.609-6.229a62,62,0,0,1-7.3,3.655c-2.063.851-6.3,2.652-9.772,2.95.466.729.916,1.422,1.269,2.031,1.31,2.257,2.748,4.436,4.255,6.565a.868.868,0,0,1,1.153-.223,87.233,87.233,0,0,0,25.154,9.68c1.188.257.682,2.075-.5,1.819a88.9,88.9,0,0,1-24.268-9.134,28.924,28.924,0,0,0,4.824,5.2,19.515,19.515,0,0,0,1.894,1.335c3.8,2.362,8.208,3.51,12.042,5.8a44.186,44.186,0,0,0,13.976,5.315q.031-6.577.061-13.154A.854.854,0,0,1,946.093,1048.413Z" transform="translate(-802.529 -824.59)" fill="#f39776"/>
      <path id="Trazado_1032844" data-name="Trazado 1032844" d="M954.463,1102.366c1.184.256,1.689-1.562.5-1.819a87.244,87.244,0,0,1-25.154-9.68.867.867,0,0,0-1.153.223,1.072,1.072,0,0,0-.152.238.864.864,0,0,0,.353,1.168c.441.254.892.49,1.337.736A88.81,88.81,0,0,0,954.463,1102.366Z" transform="translate(-819.794 -873.175)" fill="#d46566"/>
      <path id="Trazado_1032845" data-name="Trazado 1032845" d="M1656.91,958.042c0,.064,0,.127,0,.191C1656.913,958.171,1656.91,958.106,1656.91,958.042Z" transform="translate(-1377.775 -771.541)" fill="#f39776"/>
      <path id="Trazado_1032846" data-name="Trazado 1032846" d="M1453.708,727.34c1.565,3.317,3.058,6.638,4.49,9.94,4.961-2.132,10.842-2.123,16.17-2.04,5.36.084,11.478-3.239,16.788-1.583a5.8,5.8,0,0,1,3.759,3.544c-4.6-16.592-26.534-49.5-32.285-58.459-.481-.75-.981-1.557-1.495-2.393-2.6,12.763-7.1,25.4-14.6,35.962Q1450.086,719.671,1453.708,727.34Z" transform="translate(-1216.638 -555.784)" fill="#f39776"/>
      <path id="Trazado_1032847" data-name="Trazado 1032847" d="M1533.1,923.208a5.8,5.8,0,0,0-3.759-3.544c-5.309-1.656-11.427,1.667-16.788,1.583-5.328-.083-11.209-.093-16.169,2.039,2.026,4.669,3.918,9.288,5.673,13.785.493-.208.985-.419,1.482-.619q2.285-.92,4.618-1.715a91.466,91.466,0,0,1,9.66-2.7c1.185-.264,1.687,1.556.5,1.819a91.368,91.368,0,0,0-10.35,2.936q-2.5.873-4.941,1.892c-.1.04-.193.086-.29.13q.769,2,1.5,3.954a85.2,85.2,0,0,1-7.473,5.393,85.138,85.138,0,0,0,7.474-5.393c7.042,18.806,11.523,34.6,13.213,40.873a15.245,15.245,0,0,1,1.078,1.775,183.757,183.757,0,0,0-13.979-41.955c-.518-1.092,1.109-2.049,1.629-.952a185.762,185.762,0,0,1,14.254,42.8,1,1,0,0,1-1.432,1.064c.518,1.148,1.009,2.353,1.48,3.6a198.579,198.579,0,0,0,13.267-57.09c.109-1.358.219-2.878.207-4.4,0-.064,0-.127,0-.191A14.141,14.141,0,0,0,1533.1,923.208Z" transform="translate(-1254.822 -741.791)" fill="#f39776"/>
      <path id="Trazado_1032848" data-name="Trazado 1032848" d="M1521.595,980.615q2.441-1.02,4.942-1.892a91.269,91.269,0,0,1,10.35-2.936c1.185-.263.683-2.082-.5-1.819a91.536,91.536,0,0,0-9.661,2.7q-2.331.794-4.617,1.714c-.5.2-.988.411-1.482.619.228.583.457,1.168.68,1.746C1521.4,980.7,1521.5,980.655,1521.595,980.615Z" transform="translate(-1273.39 -783.719)" fill="#d46566"/>
      <path id="Trazado_1032849" data-name="Trazado 1032849" d="M1307.306,591.455c7.5-10.562,12.005-23.2,14.605-35.962.218-1.07.426-2.14.618-3.21-2.179-3.731-4.442-7.415-6.948-10.937-6.367-8.95-14.523-16.826-25.249-20.1-6.769-2.066-14.144-2.669-21.846-2.548a22.794,22.794,0,0,1-3.728-.14c0,.024,0,.047,0,.071a12.066,12.066,0,0,1,3.661.606C1271.253,520.464,1288.286,552.093,1307.306,591.455Zm.419-1.246a.854.854,0,0,1-1.138-.627c-1.18-4.053-3.291-7.909-5.21-11.646-1.938-3.772-3.928-7.551-6.187-11.143-.649-1.031.985-1.977,1.629-.952,2.313,3.678,4.347,7.55,6.326,11.415l.074.144a169.952,169.952,0,0,0-8.557-21.794c-.519-1.092,1.109-2.048,1.629-.952a172.965,172.965,0,0,1,12.115,34.427A.875.875,0,0,1,1307.725,590.209Z" transform="translate(-1077.415 -434.928)" fill="#fff8dc"/>
      <path id="Trazado_1032850" data-name="Trazado 1032850" d="M1096.615,1327.968a83.124,83.124,0,0,1-7.913-2.977,184.692,184.692,0,0,1-17.593-8.575c-4.585-2.541-9.425-5.223-13.238-8.874-.878-.842.458-2.174,1.334-1.334a44.574,44.574,0,0,0,7.548,5.486c3.37,2.081,6.848,3.984,10.37,5.792,4.563,2.341,9.245,4.649,14.052,6.556-.794-.575-1.591-1.148-2.381-1.729a12.988,12.988,0,0,1-4.83-6.47,208.612,208.612,0,0,1-8.828-33.258q-.777-4.175-1.392-8.377c-.09-.616-.283-1.4-.4-2.185-18.876-1.9-31.189-6.442-34.921-7.974,0,.046,0,.092,0,.138a.95.95,0,0,1-1.716.521,43.52,43.52,0,0,0-1.771,6.438c-7.176,33.992-10.3,148.149-10.3,148.149,20.867,14.451,69.5,4.046,69.5,4.046l3.471-94.716a.84.84,0,0,1-.253-.124C1097.109,1328.322,1096.86,1328.144,1096.615,1327.968Z" transform="translate(-893.496 -1005.92)" fill="#2e5bb6"/>
      <path id="Trazado_1032851" data-name="Trazado 1032851" d="M1247.531,1328.863a126.663,126.663,0,0,0,4.516,14.107c1.125,2.731,3.291,4.176,5.6,5.846l4.677,3.381a342.575,342.575,0,0,1-6.881-52.643c-5.053-.027-9.8-.266-14.2-.655.021.095.04.183.05.253A225.257,225.257,0,0,0,1247.531,1328.863Z" transform="translate(-1059.405 -1032.614)" fill="#2e5bb6"/>
      <path id="Trazado_1032852" data-name="Trazado 1032852" d="M1375.841,1196.681c-.026-.131-.058-.261-.085-.391a15.354,15.354,0,0,0-1.079-1.775c.505,1.875.764,2.909.764,2.909s-25.481,21.825-65.469,22.171a339.441,339.441,0,0,0,6.942,52.765c4.374-1.935,8.8-3.744,13-6.042a62.183,62.183,0,0,0,15.372-11.773c.837-.883,2.169.453,1.334,1.334a63.641,63.641,0,0,1-15.384,11.864c-4.427,2.451-9.1,4.346-13.719,6.4a.952.952,0,0,1-.228.052,1.006,1.006,0,0,1-1.082,1.184l1.19,95.861a160.991,160.991,0,0,0,61.8-1.719s16.944-119.964-1.485-168.676c-.471-1.245-.962-2.449-1.48-3.6A.782.782,0,0,1,1375.841,1196.681Z" transform="translate(-1112.044 -952.662)" fill="#2e5bb6"/>
      <path id="Trazado_1032853" data-name="Trazado 1032853" d="M1248.927,1298.947a342.549,342.549,0,0,0,6.881,52.643l-4.677-3.381c-2.311-1.67-4.476-3.115-5.6-5.846a126.691,126.691,0,0,1-4.516-14.108,225.368,225.368,0,0,1-6.235-29.711c-.01-.07-.029-.158-.05-.252-.671-.059-1.338-.12-1.993-.186.117.786.311,1.569.4,2.184q.61,4.2,1.391,8.378a208.566,208.566,0,0,0,8.828,33.258,12.99,12.99,0,0,0,4.83,6.47c.79.582,1.587,1.154,2.381,1.73,1.992.791,4,1.519,6.043,2.141a.95.95,0,0,1,.325.176.747.747,0,0,1,.474-.587l.347-.152a339.387,339.387,0,0,1-6.941-52.765c-.32,0-.632.016-.953.016S1249.238,1298.95,1248.927,1298.947Z" transform="translate(-1052.887 -1032.006)" fill="#808027"/>
      <path id="Trazado_1032854" data-name="Trazado 1032854" d="M1334.271,1534.055a.978.978,0,0,1-.883-.265.874.874,0,0,1-1.14.815l-.1-.034.74.532a.832.832,0,0,0,.253.123c.018.005.035.008.052.012A1,1,0,0,0,1334.271,1534.055Z" transform="translate(-1129.028 -1212.524)" fill="#808027"/>
      <path id="Trazado_1032855" data-name="Trazado 1032855" d="M1205.361,1463.438a.959.959,0,0,0-.325-.176c-2.038-.622-4.051-1.351-6.043-2.141-4.808-1.907-9.489-4.215-14.052-6.556-3.522-1.807-7-3.711-10.37-5.792a44.561,44.561,0,0,1-7.548-5.486c-.877-.84-2.213.492-1.334,1.334,3.812,3.652,8.653,6.334,13.238,8.875a184.6,184.6,0,0,0,17.593,8.575,83.561,83.561,0,0,0,7.913,2.976l.1.034a.874.874,0,0,0,1.14-.815A.981.981,0,0,1,1205.361,1463.438Z" transform="translate(-1001.313 -1143.001)" fill="#808027"/>
      <path id="Trazado_1032856" data-name="Trazado 1032856" d="M1336.093,1468.592a1.021,1.021,0,0,0,1.2,1.094.952.952,0,0,0,.228-.051c4.616-2.052,9.293-3.946,13.719-6.4a63.624,63.624,0,0,0,15.384-11.864c.835-.881-.5-2.217-1.334-1.334a62.174,62.174,0,0,1-15.372,11.772c-4.2,2.3-8.628,4.107-13,6.042l-.347.152A.744.744,0,0,0,1336.093,1468.592Z" transform="translate(-1132.045 -1148.154)" fill="#808027"/>
      <path id="Trazado_1032857" data-name="Trazado 1032857" d="M845.672,767.542a61.949,61.949,0,0,0,7.3-3.655c-.119-.07-.234-.146-.351-.218-8.127-2.135-11.166-11.181-13.3-18.806-5.547-4.572-8.44-11.343-11.149-17.812-.469-1.121,1.357-1.605,1.819-.5,2.177,5.2,4.512,10.567,8.345,14.744a210.945,210.945,0,0,1-6.165-31.42.764.764,0,0,1,.148-.573c-1.966-13.521-2.586-24.359-2.358-25.336.031-.135.1-.286.143-.429l-.2-.149a22.816,22.816,0,0,1-2.111,3.075c-4.692,6.109-8.607,12.388-10.987,19.053-6.505,18.22,2.221,36.494,9.518,53.068q1.75,3.976,3.5,7.953a8.731,8.731,0,0,0,1.817,2.97,5.469,5.469,0,0,0,4.263.988C839.37,770.194,843.608,768.392,845.672,767.542Z" transform="translate(-732.561 -561.174)" fill="#fff8dc"/>
      <path id="Trazado_1032858" data-name="Trazado 1032858" d="M930.906,571.759c-12.919,7.858-29.151,4.982-38.022-7.44A39.123,39.123,0,0,1,886.817,550c-.053-.249-.113-.49-.174-.724-2.956,2.942-5.443,5.886-6.158,8.016-.048.143-.112.293-.143.429-.228.977.392,11.815,2.358,25.336a1.014,1.014,0,0,1,1.739.573,207.551,207.551,0,0,0,5.754,29.679c1.264,4.669,2.476,9.55,4.545,13.939,1.9,4.039,5,7.677,9.567,8.575,1.192.235.684,2.053-.5,1.819-.28-.055-.533-.146-.8-.216.117.072.233.148.351.218,9.156,5.386,21.811,4.663,22.609,6.229.271.535.445,6.845.543,14.753h0l.2.018a1.038,1.038,0,0,1,.92.086c31.965,3.07,69.676.383,97.265-17.425a85.236,85.236,0,0,0,7.472-5.394q-.732-1.955-1.5-3.954c-.223-.579-.452-1.163-.68-1.746-1.755-4.5-3.647-9.116-5.673-13.784-1.433-3.3-2.925-6.622-4.49-9.94q-3.613-7.654-7.179-15.029c-19.02-39.362-36.054-70.991-38.885-72.219a12.054,12.054,0,0,0-3.661-.606,121.519,121.519,0,0,0-14.5.485c-.476,10.815-3.724,21.313-8.138,31.132C943.792,558.841,939.19,566.72,930.906,571.759Z" transform="translate(-782.944 -434.927)" fill="#fff8dc"/>
      <path id="Trazado_1032859" data-name="Trazado 1032859" d="M896.069,825.051a23.1,23.1,0,0,0,2.358,2.272c.94.77-.4,2.1-1.334,1.334-.014-.011-.026-.025-.04-.036,2.133,7.625,5.173,16.671,13.3,18.806.268.07.522.161.8.216,1.186.233,1.694-1.585.5-1.819-4.564-.9-7.663-4.535-9.567-8.575-2.07-4.39-3.281-9.27-4.545-13.939a207.57,207.57,0,0,1-5.754-29.679,1.015,1.015,0,0,0-1.739-.573.764.764,0,0,0-.148.573A210.969,210.969,0,0,0,896.069,825.051Z" transform="translate(-790.297 -644.932)" fill="#d1b2a5"/>
      <path id="Trazado_1032860" data-name="Trazado 1032860" d="M885.114,882.767a23.113,23.113,0,0,1-2.358-2.272c-3.833-4.177-6.168-9.544-8.345-14.744-.462-1.1-2.288-.619-1.819.5,2.709,6.469,5.6,13.24,11.149,17.812.014.011.026.025.039.037C884.712,884.865,886.054,883.537,885.114,882.767Z" transform="translate(-776.984 -700.375)" fill="#d1b2a5"/>
      <path id="Trazado_1032861" data-name="Trazado 1032861" d="M1443.46,821.984a.855.855,0,0,0,1.139.627A.9.9,0,0,1,1443.46,821.984Z" transform="translate(-1214.287 -667.33)" fill="#d1b2a5"/>
      <path id="Trazado_1032862" data-name="Trazado 1032862" d="M1393.819,671.176c-.521-1.1-2.148-.14-1.629.952a169.941,169.941,0,0,1,8.557,21.794,68.151,68.151,0,0,1,5.187,11.681A173.146,173.146,0,0,0,1393.819,671.176Z" transform="translate(-1174.941 -551.451)" fill="#d1b2a5"/>
      <path id="Trazado_1032863" data-name="Trazado 1032863" d="M1402.309,730.671l-.074-.144c-1.978-3.865-4.012-7.737-6.326-11.415-.644-1.025-2.278-.079-1.629.952,2.259,3.592,4.248,7.371,6.186,11.143,1.919,3.737,4.03,7.593,5.21,11.645a.9.9,0,0,0,1.138.627.875.875,0,0,0,.681-1.128A68.1,68.1,0,0,0,1402.309,730.671Z" transform="translate(-1176.504 -588.199)" fill="#d1b2a5"/>
      <path id="Trazado_1032864" data-name="Trazado 1032864" d="M944.186,570.706c-19.581,10.239-16.2-33.9-16.2-33.9l-.162-.539c-4.751,2.377-14.084,7.615-20.423,14.824.06.234.121.475.174.724a39.124,39.124,0,0,0,6.068,14.323c8.87,12.422,25.1,15.3,38.021,7.44,8.283-5.039,12.886-12.919,16.749-21.513,4.414-9.819,7.662-20.317,8.138-31.132-9.464.743-19.512,2-22.339,2.366l1.038,1.345S965.843,559.383,944.186,570.706Z" transform="translate(-803.705 -436.749)" fill="#f39776"/>
      <path id="Trazado_1032865" data-name="Trazado 1032865" d="M1077.916,1116.96l-.2-.019h0c0,.042,0,.085,0,.127A.951.951,0,0,1,1077.916,1116.96Z" transform="translate(-934.155 -893.247)" fill="#f39776"/>
      <path id="Trazado_1032866" data-name="Trazado 1032866" d="M1082.49,1042.72a.835.835,0,0,1,.4.746q-.078,16.791-.156,33.581c3.731,1.532,16.044,6.075,34.921,7.974.655.066,1.322.127,1.993.186,4.4.39,9.146.628,14.2.655.313,0,.618.008.933.008s.634-.013.953-.016c39.988-.346,65.469-22.171,65.469-22.171s-.259-1.035-.763-2.909c-1.69-6.275-6.17-22.067-13.213-40.873a85.159,85.159,0,0,1-7.474,5.394C1152.166,1043.1,1114.455,1045.789,1082.49,1042.72Zm52.912,31.864c-.27,1.185-2.089.68-1.819-.5a3.885,3.885,0,0,0-.262-2.027c-.216-.679-.461-1.35-.737-2.006a24.642,24.642,0,0,0-1.969-3.721,7.678,7.678,0,0,0-1.012-1.435c.005.234-.011.49.01.66a9.874,9.874,0,0,0,1.355,3.841.944.944,0,0,1-1.629.952,11.785,11.785,0,0,1-1.667-5.422c-.052-1,.339-2.12,1.5-2.181a2.672,2.672,0,0,1,2.136,1.274,24.369,24.369,0,0,1,2.831,4.911C1134.889,1070.65,1135.837,1072.676,1135.4,1074.584Z" transform="translate(-937.809 -818.921)" fill="#f39776"/>
      <path id="Trazado_1032867" data-name="Trazado 1032867" d="M1077.521,1117.628a.834.834,0,0,0-.4-.746,1.037,1.037,0,0,0-.921-.086.959.959,0,0,0-.2.11.851.851,0,0,0-.368.723q-.03,6.577-.061,13.154-.048,10.282-.1,20.565a.862.862,0,0,0,.171.521.95.95,0,0,0,1.716-.521c0-.046,0-.092,0-.138Q1077.445,1134.417,1077.521,1117.628Z" transform="translate(-932.438 -893.081)" fill="#d46566"/>
      <path id="Trazado_1032868" data-name="Trazado 1032868" d="M1279.141,1204.2a2.674,2.674,0,0,0-2.137-1.274c-1.162.062-1.554,1.187-1.5,2.181a11.781,11.781,0,0,0,1.667,5.423.944.944,0,0,0,1.629-.952,9.878,9.878,0,0,1-1.356-3.841c-.021-.169-.005-.426-.01-.66a7.628,7.628,0,0,1,1.012,1.434,24.683,24.683,0,0,1,1.969,3.721c.276.656.521,1.327.737,2.005a3.881,3.881,0,0,1,.262,2.028c-.269,1.182,1.549,1.686,1.819.5.435-1.909-.512-3.936-1.262-5.656A24.4,24.4,0,0,0,1279.141,1204.2Z" transform="translate(-1085.64 -959.106)" fill="#d46566"/>
      <path id="Trazado_1032869" data-name="Trazado 1032869" d="M995.159,467.123a29.021,29.021,0,0,1-17.7,13.5,1.772,1.772,0,0,1-1.33-.143l4.336,14.39.162.539s-3.383,44.138,16.2,33.9c21.657-11.324,11.066-46.059,11.066-46.059l-1.038-1.345-8.912-11.55-2.675-3.467A1.648,1.648,0,0,1,995.159,467.123Z" transform="translate(-856.345 -395.351)" fill="#f39776"/>
      <path id="Trazado_1032870" data-name="Trazado 1032870" d="M861.272,310.512a25.2,25.2,0,0,0,15.445-11.767,1.745,1.745,0,0,1,2.34-.724,30.053,30.053,0,0,0,2.26-5.273,32.261,32.261,0,0,0,1.4-12.115c-3.129-2.069-5.092-8.493-4.673-12.08a5.553,5.553,0,0,1-1.006-.252,3.437,3.437,0,0,1-1.071-.7,56.974,56.974,0,0,1-12.774-15.612,2.459,2.459,0,0,1-.212-1.791c-.51-.244-1.03-.46-1.555-.661a38.946,38.946,0,0,1-1.814,5.225c-.5,1.155-1.071,2.275-1.678,3.377.525-.1,1.055-.182,1.591-.237a17.2,17.2,0,0,1,3.309-.016,7.148,7.148,0,0,1,3.653,1.069,1.94,1.94,0,0,1,.677,2.581,1.894,1.894,0,0,1-2.581.677,2.244,2.244,0,0,0-1.165-.478c-.073-.018-.107-.027-.126-.034s-.063,0-.158-.012c-.266-.027-.532-.051-.8-.068a19.888,19.888,0,0,0-2.809.054q-.351.044-.1.006c-.132.019-.264.039-.4.061q-.3.049-.59.111-.685.142-1.354.349a9.732,9.732,0,0,0-2.459,1.105c-.051.03-.105.047-.158.072-.363.465-.716.938-1.1,1.385a37.113,37.113,0,0,1-6.056,5.646,63.581,63.581,0,0,1-7.505,4.627c-5.965,3.247-10.853,6.271-14.069,11.737q.434.81.878,1.611c.717,1.293,1.343,2.581,1.95,3.855a5.122,5.122,0,0,1,.647.2c3.361,1.43,8.271,7.924,7.482,11.913,6.454,6,14.757,9.465,23.242,8.017A1.705,1.705,0,0,1,861.272,310.512Zm-20.256-21.084c-.339.1-.669.228-1,.357a13.01,13.01,0,0,0-2.49,1.45,13.3,13.3,0,0,0-1,.885,1.887,1.887,0,0,1-2.668-2.668,14.673,14.673,0,0,1,2.483-1.956c-.026,0-.05.009-.077.008a2.589,2.589,0,0,1-1.245-.34,2.828,2.828,0,0,1-.911-.9,5.737,5.737,0,0,1-.4-.777l-.426-.885c-.188-.389-.377-.777-.525-1.183a2.245,2.245,0,0,1-.1-.357,3.236,3.236,0,0,1-.087-.8,2.726,2.726,0,0,1,.764-1.812,2.5,2.5,0,0,1,1.725-.7,2.591,2.591,0,0,1,1.209.288c.017,0,.037,0,.054.009a1.913,1.913,0,0,1,1.128.867l1.041,2.081a4.517,4.517,0,0,1,.637,1.786,2.146,2.146,0,0,1-.58,1.554,14.932,14.932,0,0,1,1.468-.543,1.887,1.887,0,1,1,1,3.639Zm13.139-.177a7.78,7.78,0,0,1-4.411,1.017,3.214,3.214,0,0,1-2.717-2.08c-.436-1.506.42-3,1.253-4.2.976-1.394,1.967-2.777,2.95-4.166a.964.964,0,0,1,1.291-.338.951.951,0,0,1,.338,1.29l-2.452,3.463c-.625.882-1.58,1.936-1.6,3.079a.779.779,0,0,0,.344.752,2.181,2.181,0,0,0,.988.359,6.2,6.2,0,0,0,3.067-.81.965.965,0,0,1,1.291.338A.952.952,0,0,1,854.155,289.251Zm11.6-16.334a9.345,9.345,0,0,1,6.435-2.509,1.887,1.887,0,0,1,0,3.774,7.605,7.605,0,0,0-.846.048,7.684,7.684,0,0,0-1.371.374,7.6,7.6,0,0,0-1.261.736c-.1.081-.2.159-.288.245a1.927,1.927,0,0,1-2.668,0A1.9,1.9,0,0,1,865.753,272.916Zm-6.3-5.6a2.5,2.5,0,0,1,1.726-.7,2.588,2.588,0,0,1,1.208.287c.018,0,.039,0,.056.009a1.912,1.912,0,0,1,1.127.867q.521,1.041,1.041,2.081a4.526,4.526,0,0,1,.637,1.786,2.15,2.15,0,0,1-.607,1.589,2.034,2.034,0,0,1-.6.422,1.235,1.235,0,0,1-.09.089,2.516,2.516,0,0,1-.7.44,2.076,2.076,0,0,1-.86.186,2.593,2.593,0,0,1-1.246-.34,2.825,2.825,0,0,1-.911-.9,5.68,5.68,0,0,1-.4-.777l-.427-.885c-.187-.388-.376-.777-.525-1.183a2.2,2.2,0,0,1-.1-.357,3.213,3.213,0,0,1-.086-.8A2.721,2.721,0,0,1,859.454,267.318Zm8.779,13.2s3.385,3.772-.907,8.713c-4.8,5.523-10.092,1.7-10.092,1.7Z" transform="translate(-741.159 -228.877)" fill="#f39776"/>
      <path id="Trazado_1032871" data-name="Trazado 1032871" d="M984.8,233.991A56.97,56.97,0,0,0,997.573,249.6a3.427,3.427,0,0,0,1.072.7,5.553,5.553,0,0,0,1.006.252,6.039,6.039,0,0,1,.12-.719,6.185,6.185,0,0,1,2.58-3.545,25.144,25.144,0,0,0-1.185-5.328,38.708,38.708,0,0,0-8.16-13.782,3.15,3.15,0,0,0-1.606-1.112,2.972,2.972,0,0,0-2.162.718c-1.448,1.017-4.167,3.269-4.65,5.415A2.46,2.46,0,0,0,984.8,233.991Zm1.849-2.752c.109-.072.217-.146.322-.222l.143-.106-.022.017c.184-.15.363-.3.536-.468s.337-.334.495-.51l.232-.27.089-.111,0,0,0,0a10.28,10.28,0,0,0,.737-1.174q.082-.158.157-.319l.074-.162,0-.005.127-.331c.04-.111.077-.224.112-.337a.963.963,0,0,1,1.16-.659.952.952,0,0,1,.659,1.16,9.621,9.621,0,0,1-3.876,5.133.943.943,0,0,1-.952-1.629Z" transform="translate(-862.764 -210.877)" fill="#dd5313"/>
      <path id="Trazado_1032872" data-name="Trazado 1032872" d="M993.062,234.537a9.621,9.621,0,0,0,3.876-5.133.953.953,0,0,0-.659-1.161.964.964,0,0,0-1.16.659c-.035.113-.073.226-.112.337l-.127.331,0,.005-.073.162q-.075.161-.157.319a10.335,10.335,0,0,1-.737,1.174v0l0,0-.089.111-.232.27c-.158.177-.323.347-.495.51s-.352.318-.536.468l.022-.017-.143.106c-.105.076-.213.15-.322.222a.943.943,0,0,0,.952,1.629Z" transform="translate(-868.225 -212.546)" fill="#ca2e17"/>
      <path id="Trazado_1032873" data-name="Trazado 1032873" d="M922.462,385.2a6.2,6.2,0,0,1-3.066.81,2.18,2.18,0,0,1-.988-.359.78.78,0,0,1-.344-.752c.022-1.143.977-2.2,1.6-3.079l2.452-3.463a.951.951,0,0,0-.338-1.29.964.964,0,0,0-1.291.338c-.983,1.389-1.973,2.772-2.95,4.167-.833,1.191-1.688,2.689-1.252,4.195a3.214,3.214,0,0,0,2.717,2.08,7.778,7.778,0,0,0,4.411-1.017.951.951,0,0,0,.339-1.291A.965.965,0,0,0,922.462,385.2Z" transform="translate(-810.419 -326.458)" fill="#d46566"/>
      <path id="Trazado_1032874" data-name="Trazado 1032874" d="M970.376,390.579c4.293-4.941.907-8.713.907-8.713l-11,10.418S965.577,396.1,970.376,390.579Z" transform="translate(-844.208 -330.231)" fill="#fff8dc"/>
      <path id="Trazado_1032875" data-name="Trazado 1032875" d="M948.643,290.392a9.735,9.735,0,0,1,2.459-1.1q.668-.207,1.354-.349c.2-.041.393-.077.59-.111.132-.022.264-.042.4-.061-.169.025-.137.023.1-.006a19.948,19.948,0,0,1,2.809-.054c.267.016.533.041.8.068.1.01.138.012.158.012s.052.016.126.034a2.245,2.245,0,0,1,1.165.478,1.894,1.894,0,0,0,2.581-.677,1.94,1.94,0,0,0-.677-2.581,7.146,7.146,0,0,0-3.653-1.068,17.207,17.207,0,0,0-3.309.016c-.536.055-1.066.139-1.592.237a39.115,39.115,0,0,1-3.463,5.239A1.7,1.7,0,0,0,948.643,290.392Z" transform="translate(-835.171 -255.961)" fill="#ca2e17"/>
      <path id="Trazado_1032876" data-name="Trazado 1032876" d="M966.679,326.157c.149.406.338.795.526,1.183l.427.885a5.732,5.732,0,0,0,.4.777,2.826,2.826,0,0,0,.91.9,2.6,2.6,0,0,0,1.246.34,2.081,2.081,0,0,0,.86-.186,2.514,2.514,0,0,0,.7-.44,1.2,1.2,0,0,0,.09-.089,2.038,2.038,0,0,0,.6-.422,2.147,2.147,0,0,0,.607-1.589,4.521,4.521,0,0,0-.636-1.786q-.521-1.04-1.041-2.081a1.912,1.912,0,0,0-1.127-.867c-.018,0-.038,0-.056-.009a2.588,2.588,0,0,0-1.207-.287,2.5,2.5,0,0,0-1.726.7,2.721,2.721,0,0,0-.763,1.811,3.219,3.219,0,0,0,.086.8A2.266,2.266,0,0,0,966.679,326.157Zm3.685-1.3a.944.944,0,0,1,0-1.886A.944.944,0,0,1,970.364,324.857Z" transform="translate(-848.96 -284.751)" fill="#007d71"/>
      <path id="Trazado_1032877" data-name="Trazado 1032877" d="M980.065,326.437a.944.944,0,0,0,0-1.886A.944.944,0,0,0,980.065,326.437Z" transform="translate(-858.661 -286.331)" fill="#fff8dc"/>
      <path id="Trazado_1032878" data-name="Trazado 1032878" d="M861.441,383.622a4.512,4.512,0,0,0-.637-1.786l-1.041-2.081a1.913,1.913,0,0,0-1.128-.867c-.017,0-.037,0-.054-.009a2.587,2.587,0,0,0-1.209-.288,2.5,2.5,0,0,0-1.725.7,2.725,2.725,0,0,0-.763,1.812,3.252,3.252,0,0,0,.086.8,2.3,2.3,0,0,0,.1.357c.149.406.338.794.525,1.183q.214.442.427.885a5.7,5.7,0,0,0,.4.777,2.826,2.826,0,0,0,.91.9,2.592,2.592,0,0,0,1.245.34c.027,0,.051-.008.077-.008a14.9,14.9,0,0,1,2.206-1.163A2.147,2.147,0,0,0,861.441,383.622Zm-2.685-2.662a.944.944,0,0,1,0-1.887A.944.944,0,0,1,858.756,380.96Z" transform="translate(-763.476 -327.721)" fill="#007d71"/>
      <path id="Trazado_1032879" data-name="Trazado 1032879" d="M868.457,382.542a.944.944,0,0,0,0-1.887A.944.944,0,0,0,868.457,382.542Z" transform="translate(-773.177 -329.303)" fill="#fff8dc"/>
      <path id="Trazado_1032880" data-name="Trazado 1032880" d="M994.885,343.868a1.927,1.927,0,0,0,2.668,0c.093-.086.192-.164.289-.245a7.6,7.6,0,0,1,1.261-.736,7.69,7.69,0,0,1,1.371-.374,7.564,7.564,0,0,1,.846-.049,1.887,1.887,0,0,0,0-3.774,9.346,9.346,0,0,0-6.435,2.509A1.9,1.9,0,0,0,994.885,343.868Z" transform="translate(-870.291 -297.161)" fill="#d46566"/>
      <path id="Trazado_1032881" data-name="Trazado 1032881" d="M864.779,404.161a15.521,15.521,0,0,0-3.674,1.706,14.653,14.653,0,0,0-2.483,1.956,1.887,1.887,0,1,0,2.668,2.668,13.259,13.259,0,0,1,1-.885,13,13,0,0,1,2.49-1.45c.329-.129.659-.254,1-.357a1.887,1.887,0,0,0-1-3.638Z" transform="translate(-765.925 -347.25)" fill="#d46566"/>
      <path id="Trazado_1032882" data-name="Trazado 1032882" d="M817.4,431.5a5.124,5.124,0,0,0-.647-.2,6.013,6.013,0,0,0-5.561,1.287,29.183,29.183,0,0,0-.88,5.708,14.19,14.19,0,0,0,4.639,6.395,8.3,8.3,0,0,0,5.8,1.821c2.593-.312,3.813-1.507,4.128-3.1C825.667,439.423,820.757,432.929,817.4,431.5Zm4.139,11.575a.939.939,0,0,1-.667.276,3.487,3.487,0,0,1-1.809-.745,3.183,3.183,0,0,1-.679-4.188l-.293-.244a8.3,8.3,0,0,0-.717-.482,5.113,5.113,0,0,0-1.574-.653,3.038,3.038,0,0,0-2.69.608.943.943,0,0,1-1.334-1.334,4.986,4.986,0,0,1,4.748-1.037,7.57,7.57,0,0,1,2.335,1.136,5.988,5.988,0,0,1,.989.8,2.02,2.02,0,0,1,.357.559s.01.005.015.009a.952.952,0,0,1,0,1.334l-.122.124-.027.032c-.015.021-.031.043-.037.052l-.075.124-.068.128h0l-.081.265-.024.116-.008.268.007.108.07.268c0,.008.006.014.009.021.069.11.03.072,0,0l-.021-.035.049.1.154.251.078.086.188.175.106.07.226.119.145.046c.077.021.388.068.084.03a1.1,1.1,0,0,1,.667.276.945.945,0,0,1,0,1.334Z" transform="translate(-729.336 -367.935)" fill="#f39776"/>
      <path id="Trazado_1032883" data-name="Trazado 1032883" d="M851.109,471.794c.03.072.069.11,0,0Z" transform="translate(-760.588 -399.109)" fill="#d46566"/>
      <path id="Trazado_1032884" data-name="Trazado 1032884" d="M845.646,463.316c.3.038-.007-.009-.084-.03l-.145-.046-.225-.119-.106-.069-.188-.175-.078-.086-.154-.251-.05-.1.021.035a.213.213,0,0,1-.01-.021l-.07-.267-.007-.108.008-.267.024-.116.081-.265h0l.068-.128.075-.124c.006-.01.022-.032.037-.052l.027-.032.122-.123a.952.952,0,0,0,0-1.334s-.01-.005-.015-.009a1.791,1.791,0,0,1,.124,1.036.951.951,0,0,1-1.16.659.972.972,0,0,1-.659-1.161c-.041.252.059.285-.116.12l-.009-.008a3.183,3.183,0,0,0,.679,4.188,3.485,3.485,0,0,0,1.809.745.941.941,0,0,0,.667-.276.944.944,0,0,0,0-1.334A1.109,1.109,0,0,0,845.646,463.316Z" transform="translate(-754.115 -389.787)" fill="#d46566"/>
      <path id="Trazado_1032885" data-name="Trazado 1032885" d="M822.409,451.335a.972.972,0,0,0,.659,1.16.95.95,0,0,0,1.16-.659,1.8,1.8,0,0,0-.124-1.036,2.009,2.009,0,0,0-.357-.559,5.949,5.949,0,0,0-.989-.8,7.566,7.566,0,0,0-2.335-1.136,4.986,4.986,0,0,0-4.748,1.037.943.943,0,0,0,1.334,1.334,3.037,3.037,0,0,1,2.69-.608,5.119,5.119,0,0,1,1.574.653,8.27,8.27,0,0,1,.717.482l.293.244.009.008C822.468,451.619,822.368,451.586,822.409,451.335Z" transform="translate(-733.24 -380.965)" fill="#d46566"/>
      <path id="Trazado_1032886" data-name="Trazado 1032886" d="M1071.28,360.848l.009.008h0a.378.378,0,0,0,.036.023Z" transform="translate(-929.223 -314.132)" fill="#f39776"/>
      <path id="Trazado_1032887" data-name="Trazado 1032887" d="M1071.124,360.724l.019.013C1071.087,360.689,1071.094,360.7,1071.124,360.724Z" transform="translate(-929.086 -314.021)" fill="#f39776"/>
      <path id="Trazado_1032888" data-name="Trazado 1032888" d="M1073.2,363.4a.088.088,0,0,1,0,.009v0s0,0,0,.006Z" transform="translate(-930.694 -316.085)" fill="#f39776"/>
      <path id="Trazado_1032889" data-name="Trazado 1032889" d="M1051.71,309.713a5.648,5.648,0,0,0-2.7,4.264c-.419,3.587,1.544,10.011,4.673,12.08a3.6,3.6,0,0,0,4.393-.183,7.678,7.678,0,0,0,1.1-.97,8.3,8.3,0,0,0,2-5.743c0-3.028-1.47-7.652-4.355-9.525a5.178,5.178,0,0,0-1.4-.647A4.5,4.5,0,0,0,1051.71,309.713Zm4.726,3.758a.961.961,0,0,1-.944.943.468.468,0,0,1-.047,0l-.2.046-.159.051a.349.349,0,0,1-.034.009s0,0-.01.009l-.292.167-.048.027-.13.11-.272.275-.064.072-.08.114c-.073.108-.14.221-.2.336l-.078.155-.032.07c-.01.031-.046.131-.051.145l-.063.206c-.044.156-.079.313-.108.472l-.022.121-.022.214c-.014.162-.022.324-.026.486-.012.461.014.921.047,1.381a3.246,3.246,0,0,1,2.45,1.416,5.164,5.164,0,0,1,.511,3.817.943.943,0,0,1-1.724.225,1.025,1.025,0,0,1-.1-.727l.03-.2c0-.006,0-.015,0-.02q.019-.169.029-.338a5.332,5.332,0,0,0,0-.743l-.008-.082-.016-.1a3.4,3.4,0,0,0-.088-.355l-.052-.153a.119.119,0,0,1-.038-.073l-.114-.211c-.013-.021-.07-.093-.076-.1l-.216-.214-.03-.022-.073-.05-.217-.119-.005,0-.131-.04-.1-.024-.151,0h-.009l-.06.011-.158.05a.956.956,0,0,1-1.161-.659c-.007-.021,0-.041-.005-.062a1.1,1.1,0,0,1-.335-.7,8.764,8.764,0,0,1,.5-4.57,3.956,3.956,0,0,1,3.246-2.307A.953.953,0,0,1,1056.436,313.471Z" transform="translate(-912.122 -274.301)" fill="#f39776"/>
      <path id="Trazado_1032890" data-name="Trazado 1032890" d="M1073.06,363.129l.032.059C1073.069,363.128,1073.06,363.118,1073.06,363.129Z" transform="translate(-930.587 -315.876)" fill="#f39776"/>
      <path id="Trazado_1032891" data-name="Trazado 1032891" d="M1071.216,360.8l-.019-.013c.009.008.018.014.03.022h0Z" transform="translate(-929.16 -314.089)" fill="#d46566"/>
      <path id="Trazado_1032892" data-name="Trazado 1032892" d="M1073.094,363.2l-.032-.059a.119.119,0,0,0,.038.073v0C1073.094,363.206,1073.094,363.207,1073.094,363.2Z" transform="translate(-930.588 -315.89)" fill="#d46566"/>
      <path id="Trazado_1032893" data-name="Trazado 1032893" d="M1062.942,353.193a.812.812,0,0,1-.607-.241c0,.021,0,.041,0,.062a.956.956,0,0,0,1.161.659l.158-.05.06-.011h.009l.151,0,.105.024.13.04.005,0,.217.119.073.05c-.03-.024-.036-.034.019.013l.046.032a.412.412,0,0,1-.036-.023l.216.214c.006.011.063.083.076.1l.114.211c0-.011.009,0,.032.059l.01.019-.005-.006.052.153a3.353,3.353,0,0,1,.087.355l.017.1.008.081a5.39,5.39,0,0,1,0,.743q-.01.169-.029.338s0,.013,0,.02l-.03.2a1.026,1.026,0,0,0,.1.727.943.943,0,0,0,1.724-.225,5.164,5.164,0,0,0-.511-3.816,3.244,3.244,0,0,0-2.449-1.416c.012.174.023.348.037.522A.955.955,0,0,1,1062.942,353.193Z" transform="translate(-922.372 -307.147)" fill="#d46566"/>
      <path id="Trazado_1032894" data-name="Trazado 1032894" d="M1061.142,326.88a8.761,8.761,0,0,0-.5,4.57,1.1,1.1,0,0,0,.335.7.814.814,0,0,0,.608.241.954.954,0,0,0,.943-.943c-.014-.174-.024-.348-.037-.522-.033-.46-.059-.92-.048-1.381,0-.162.012-.324.026-.486l.022-.214.022-.121c.029-.159.065-.316.109-.472l.063-.206c0-.014.04-.114.051-.145l.032-.07.078-.155c.062-.115.129-.228.2-.336l.08-.114.064-.072.272-.275.13-.11.048-.027.291-.167c.011-.007.007-.006.01-.009a.32.32,0,0,0,.034-.009l.159-.051.2-.046a.448.448,0,0,0,.046,0,.943.943,0,1,0,0-1.887A3.955,3.955,0,0,0,1061.142,326.88Z" transform="translate(-921.016 -286.347)" fill="#d46566"/>
      <path id="Trazado_1032895" data-name="Trazado 1032895" d="M974.165,472.185a29.021,29.021,0,0,0,17.7-13.5,1.973,1.973,0,0,0,.107-.235,1.819,1.819,0,0,0-1.025-2.393,1.744,1.744,0,0,0-2.34.724,25.2,25.2,0,0,1-15.445,11.767,1.706,1.706,0,0,0-1.33,1.859,2.031,2.031,0,0,0,1,1.636A1.774,1.774,0,0,0,974.165,472.185Z" transform="translate(-853.049 -386.912)" fill="#1a1d35"/>
      <path id="Trazado_1032896" data-name="Trazado 1032896" d="M1545.415,1061.067a1,1,0,0,0,1.432-1.065,185.72,185.72,0,0,0-14.254-42.8c-.52-1.1-2.146-.14-1.629.952a183.769,183.769,0,0,1,13.978,41.955c.027.131.059.261.085.391A.788.788,0,0,0,1545.415,1061.067Z" transform="translate(-1281.232 -816.484)" fill="#d46566"/>
      <path id="Trazado_1032897" data-name="Trazado 1032897" d="M755.147,256.751a24.187,24.187,0,0,1,1.8-3.779c3.216-5.466,8.1-8.49,14.069-11.737a63.63,63.63,0,0,0,7.506-4.627,37.109,37.109,0,0,0,6.055-5.646c.384-.447.737-.92,1.1-1.385a39.1,39.1,0,0,0,3.463-5.239c.607-1.1,1.18-2.223,1.678-3.377a38.946,38.946,0,0,0,1.814-5.225,37.812,37.812,0,0,0,.937-4.425c.5-3.39,1.28-5.867-3-5.9-17.606-.144-36.154,4.06-47.318,18.728a34.965,34.965,0,0,0-7.321,20.682c-.042,7.347-.132,15.108,4.148,21.5a29.89,29.89,0,0,0,5.3,5.775c-.483-1.682-.928-3.375-1.289-5.091a77.48,77.48,0,0,1-.779-27.5c1.27-8.407,3.615-18.159,9.847-24.345A.944.944,0,0,1,754.5,216.5c-3.463,3.437-5.394,7.955-6.833,12.544a74.741,74.741,0,0,0,.343,45.235c2.19,1.722,4.645,3.275,7.393,3.238a27.006,27.006,0,0,1-2.066-12.081,29.582,29.582,0,0,1,1.812-8.682Z" transform="translate(-672.364 -195.074)" fill="#dd5313"/>
      <path id="Trazado_1032898" data-name="Trazado 1032898" d="M705.641,299.5c-.435,1.135,1.388,1.626,1.819.5,4.662-12.16,2.963-25.381,1.412-37.968-1.535-12.461-3.342-25.918,1.865-37.8,3.18-7.258,8.693-13.126,14.664-18.2.927-.787-.413-2.116-1.334-1.334-5.241,4.45-10.118,9.505-13.466,15.563a43.5,43.5,0,0,0-5.033,18.1c-.926,13.18,2.342,26.2,2.956,39.314C708.871,285.081,708.315,292.523,705.641,299.5Z" transform="translate(-648.988 -194.351)" fill="#ef7a1a"/>
      <path id="Trazado_1032899" data-name="Trazado 1032899" d="M676.986,637.293a135.1,135.1,0,0,0,18.467-46.477c.23-1.186-1.588-1.694-1.819-.5a133.663,133.663,0,0,1-18.277,46.027C674.705,637.369,676.337,638.317,676.986,637.293Z" transform="translate(-625.859 -489.366)" fill="#ef7a1a"/>
      <path id="Trazado_1032900" data-name="Trazado 1032900" d="M704,721.282a69.955,69.955,0,0,0-14.053,44.086,68.493,68.493,0,0,0,1.716,13.316c.272,1.182,2.091.682,1.82-.5a68.134,68.134,0,0,1,12.146-55.948C706.361,721.268,704.724,720.327,704,721.282Z" transform="translate(-637.125 -589.895)" fill="#ef7a1a"/>
      <path id="Trazado_1032901" data-name="Trazado 1032901" d="M558.048,746.305c.737-.964-.9-1.905-1.629-.952a90.356,90.356,0,0,0-12.849,23.2c-2.972,7.941-5.705,17.2-2.1,25.377.489,1.108,2.115.149,1.629-.952-3.485-7.908-.288-17.3,2.652-24.872A88.963,88.963,0,0,1,558.048,746.305Z" transform="translate(-522.109 -608.332)" fill="#ef7a1a"/>
      <path id="Trazado_1032902" data-name="Trazado 1032902" d="M792.015,603.169c-6.264-20.4,8.017-39.553,13.815-58.215a54.422,54.422,0,0,0,2.67-16.442.944.944,0,0,0-1.887,0c.124,20.928-14.793,38.078-17.548,58.444a38.925,38.925,0,0,0,1.13,16.714C790.551,604.828,792.373,604.334,792.015,603.169Z" transform="translate(-712.747 -441.854)" fill="#ef7a1a"/>
      <path id="Trazado_1032903" data-name="Trazado 1032903" d="M769.006,260.067c1.439-4.589,3.37-9.107,6.833-12.544a.944.944,0,0,0-1.334-1.334c-6.232,6.186-8.576,15.938-9.847,24.345a77.484,77.484,0,0,0,.78,27.5c.361,1.716.807,3.41,1.289,5.091a77.905,77.905,0,0,0,3.5,9.736c.486,1.11,2.112.151,1.629-.952-.945-2.159-1.774-4.365-2.5-6.6A74.743,74.743,0,0,1,769.006,260.067Z" transform="translate(-693.706 -226.101)" fill="#ef7a1a"/>
    </g>
  </g>
</svg>
