<svg xmlns="http://www.w3.org/2000/svg" xmlns:xlink="http://www.w3.org/1999/xlink" width="113" height="113" viewBox="0 0 113 113">
  <defs>
    <filter id="Trazado_982547" x="0" y="0" width="113" height="113" filterUnits="userSpaceOnUse">
      <feOffset dy="3" input="SourceAlpha"/>
      <feGaussianBlur stdDeviation="3" result="blur"/>
      <feFlood flood-opacity="0.161"/>
      <feComposite operator="in" in2="blur"/>
      <feComposite in="SourceGraphic"/>
    </filter>
  </defs>
  <g id="Grupo_1182633" data-name="Grupo 1182633" transform="translate(-171 -9363.653)">
    <g id="Grupo_1182259" data-name="Grupo 1182259" transform="translate(0 8393.653)">
      <g id="Grupo_1173577" data-name="Grupo 1173577" transform="translate(0 -1581)">
        <g id="Grupo_1168598" data-name="Grupo 1168598" transform="translate(0 -730)">
          <g id="Grupo_1167519" data-name="Grupo 1167519" transform="translate(180 3287)">
            <g id="Grupo_1166845" data-name="Grupo 1166845" transform="translate(0)">
              <g id="Grupo_1166720" data-name="Grupo 1166720">
                <g id="Grupo_1164305" data-name="Grupo 1164305">
                  <g id="Grupo_1163948" data-name="Grupo 1163948">
                    <g id="Grupo_1158168" data-name="Grupo 1158168">
                      <g id="Grupo_1152576" data-name="Grupo 1152576">
                        <g id="Grupo_1148633" data-name="Grupo 1148633">
                          <g id="Grupo_1148525" data-name="Grupo 1148525">
                            <g transform="matrix(1, 0, 0, 1, -9, -6)" filter="url(#Trazado_982547)">
                              <g id="Trazado_982547-2" data-name="Trazado 982547" transform="translate(9 6)" fill="#e4f2f4">
                                <path d="M 47.5 93.5 C 41.28937149047852 93.5 35.26533508300781 92.28397369384766 29.59518623352051 89.88570404052734 C 24.11771965026855 87.56893157958984 19.19813346862793 84.25196075439453 14.97309303283691 80.02691650390625 C 10.74804019927979 75.80186462402344 7.431066513061523 70.88229370117188 5.114293098449707 65.40481567382812 C 2.716026782989502 59.73468017578125 1.5 53.71062850952148 1.5 47.5 C 1.5 41.28937149047852 2.716026782989502 35.26533508300781 5.114293098449707 29.59518623352051 C 7.431066513061523 24.11771965026855 10.74804019927979 19.19813346862793 14.97309303283691 14.97309303283691 C 19.19813346862793 10.74804019927979 24.11771965026855 7.431066513061523 29.59518623352051 5.114293098449707 C 35.26533508300781 2.716026782989502 41.28937149047852 1.5 47.5 1.5 C 53.71062850952148 1.5 59.73468017578125 2.716026782989502 65.40481567382812 5.114293098449707 C 70.88229370117188 7.431066513061523 75.80186462402344 10.74804019927979 80.02691650390625 14.97309303283691 C 84.25196075439453 19.19813346862793 87.56893157958984 24.11771965026855 89.88570404052734 29.59518623352051 C 92.28397369384766 35.26533508300781 93.5 41.28937149047852 93.5 47.5 C 93.5 53.71062850952148 92.28397369384766 59.73468017578125 89.88570404052734 65.40481567382812 C 87.56893157958984 70.88229370117188 84.25196075439453 75.80186462402344 80.02691650390625 80.02691650390625 C 75.80186462402344 84.25196075439453 70.88229370117188 87.56893157958984 65.40481567382812 89.88570404052734 C 59.73468017578125 92.28397369384766 53.71062850952148 93.5 47.5 93.5 Z" stroke="none"/>
                                <path d="M 47.5 3 C 41.49121475219727 3 35.66376876831055 4.176155090332031 30.17950439453125 6.495796203613281 C 24.88084411621094 8.736953735351562 20.12152099609375 11.94598388671875 16.03375244140625 16.03375244140625 C 11.94598388671875 20.12152099609375 8.736953735351562 24.88084411621094 6.495796203613281 30.17950439453125 C 4.176155090332031 35.66376876831055 3 41.49121475219727 3 47.5 C 3 53.50878524780273 4.176155090332031 59.33623123168945 6.495796203613281 64.82049560546875 C 8.736953735351562 70.11915588378906 11.94598388671875 74.87847900390625 16.03375244140625 78.96624755859375 C 20.12152099609375 83.05401611328125 24.88084411621094 86.26304626464844 30.17950439453125 88.50419616699219 C 35.66376876831055 90.82384490966797 41.49121475219727 92 47.5 92 C 53.50878524780273 92 59.33623123168945 90.82384490966797 64.82049560546875 88.50419616699219 C 70.11915588378906 86.26304626464844 74.87847900390625 83.05401611328125 78.96624755859375 78.96624755859375 C 83.05401611328125 74.87847900390625 86.26304626464844 70.11915588378906 88.50419616699219 64.82049560546875 C 90.82384490966797 59.33623123168945 92 53.50878524780273 92 47.5 C 92 41.49121475219727 90.82384490966797 35.66376876831055 88.50419616699219 30.17950439453125 C 86.26304626464844 24.88084411621094 83.05401611328125 20.12152099609375 78.96624755859375 16.03375244140625 C 74.87847900390625 11.94598388671875 70.11915588378906 8.736953735351562 64.82049560546875 6.495796203613281 C 59.33623123168945 4.176155090332031 53.50878524780273 3 47.5 3 M 47.5 0 C 73.7335205078125 0 95 21.2664794921875 95 47.5 C 95 73.7335205078125 73.7335205078125 95 47.5 95 C 21.2664794921875 95 0 73.7335205078125 0 47.5 C 0 21.2664794921875 21.2664794921875 0 47.5 0 Z" stroke="none" fill="#01899b"/>
                              </g>
                            </g>
                          </g>
                        </g>
                      </g>
                    </g>
                  </g>
                </g>
              </g>
            </g>
          </g>
        </g>
      </g>
    </g>
    <g id="Fill_Outline" data-name="Fill Outline" transform="translate(196 9385)">
      <g id="Color">
        <circle id="Elipse_13111" data-name="Elipse 13111" cx="16" cy="16" r="16" transform="translate(16 16)" fill="#ffea00"/>
        <circle id="Elipse_13112" data-name="Elipse 13112" cx="12" cy="12" r="12" transform="translate(20 20)" fill="#ffd000"/>
        <path id="Trazado_1043046" data-name="Trazado 1043046" d="M46.26,39.26A16,16,0,1,1,24.74,17.74,16,16,0,0,0,46.26,39.26Z" fill="#ffd000"/>
        <path id="Trazado_1043047" data-name="Trazado 1043047" d="M32,20A12,12,0,1,0,44,32,12,12,0,0,0,32,20Zm7.75,20.98c-.25.01-.5.02-.75.02A16,16,0,0,1,23,25c0-.25.01-.5.02-.75A11.988,11.988,0,0,1,39.75,40.98Z" fill="#ffb700"/>
        <path id="Trazado_1043048" data-name="Trazado 1043048" d="M3,41H15V61H3Z" fill="#e9f1f2"/>
        <path id="Trazado_1043049" data-name="Trazado 1043049" d="M7,53v2a4,4,0,0,0,4,4h4v2H3V41H15V53Z" fill="#d0d8da"/>
        <path id="Trazado_1043050" data-name="Trazado 1043050" d="M15,53h8v8H15Z" fill="#ade8f4"/>
        <path id="Trazado_1043051" data-name="Trazado 1043051" d="M23,61H15V57h3Z" fill="#48cae4"/>
        <path id="Trazado_1043052" data-name="Trazado 1043052" d="M23,57H15V53h3Z" fill="#48cae4"/>
        <g id="Grupo_1182632" data-name="Grupo 1182632">
          <path id="Trazado_1043053" data-name="Trazado 1043053" d="M7,57h4v4H7Z" fill="#ade8f4"/>
          <path id="Trazado_1043054" data-name="Trazado 1043054" d="M3,45H15v4H3Z" fill="#ade8f4"/>
          <path id="Trazado_1043055" data-name="Trazado 1043055" d="M3,41H15v4H3Z" fill="#ade8f4"/>
          <path id="Trazado_1043056" data-name="Trazado 1043056" d="M3,49H15v4H3Z" fill="#ade8f4"/>
        </g>
        <path id="Trazado_1043057" data-name="Trazado 1043057" d="M3,37H7v4H3Z" fill="#e9f1f2"/>
        <path id="Trazado_1043058" data-name="Trazado 1043058" d="M15,45H3V41H9Z" fill="#48cae4"/>
        <path id="Trazado_1043059" data-name="Trazado 1043059" d="M15,49H3V45H9Z" fill="#48cae4"/>
        <path id="Trazado_1043060" data-name="Trazado 1043060" d="M15,53H3V49H9Z" fill="#48cae4"/>
        <path id="Trazado_1043061" data-name="Trazado 1043061" d="M7,40v1H3V37H4v1a2.006,2.006,0,0,0,2,2Z" fill="#d0d8da"/>
        <path id="Trazado_1043062" data-name="Trazado 1043062" d="M3,41H7v4H3Z" fill="#00b4d8"/>
        <path id="Trazado_1043063" data-name="Trazado 1043063" d="M3,45H7v4H3Z" fill="#00b4d8"/>
        <path id="Trazado_1043064" data-name="Trazado 1043064" d="M3,49H7v4H3Z" fill="#00b4d8"/>
        <path id="Trazado_1043065" data-name="Trazado 1043065" d="M11,59v2H7V57h.54A3.98,3.98,0,0,0,11,59Z" fill="#48cae4"/>
        <circle id="Elipse_13113" data-name="Elipse 13113" cx="8" cy="8" r="8" transform="translate(45 3)" fill="#ff7373"/>
        <path id="Trazado_1043066" data-name="Trazado 1043066" d="M60.58,13.56A8,8,0,1,1,48.42,4.44a8,8,0,0,0,12.16,9.12Z" fill="#ef5350"/>
        <circle id="Elipse_13114" data-name="Elipse 13114" cx="3" cy="3" r="3" transform="translate(50 7)" fill="#ffea00"/>
        <path id="Trazado_1043067" data-name="Trazado 1043067" d="M58,17v.24a7.982,7.982,0,0,1-10,0V17a4,4,0,0,1,4-4h2A4,4,0,0,1,58,17Z" fill="#ffea00"/>
        <path id="Trazado_1043068" data-name="Trazado 1043068" d="M58,17v.24a7.982,7.982,0,0,1-10,0V17a3.978,3.978,0,0,1,2.9-3.84,8.012,8.012,0,0,0,6.49,1.72A3.949,3.949,0,0,1,58,17Z" fill="#ffd000"/>
        <path id="Trazado_1043069" data-name="Trazado 1043069" d="M55.87,10.87a3,3,0,1,1-3.74-3.74A3.1,3.1,0,0,0,52,8a3,3,0,0,0,3,3,3.1,3.1,0,0,0,.87-.13Z" fill="#ffd000"/>
        <path id="Trazado_1043070" data-name="Trazado 1043070" d="M58,17v.24a7.982,7.982,0,0,1-10,0V17a3.953,3.953,0,0,1,1.78-3.32A5.015,5.015,0,0,0,54,16h3.87A3.657,3.657,0,0,1,58,17Z" fill="#ffb700"/>
        <path id="Trazado_1043071" data-name="Trazado 1043071" d="M9.368,18a1.9,1.9,0,0,1-1.8-1.3L6,12h4l1.168,3.5a1.9,1.9,0,0,1-1.8,2.5Z" fill="#93999a"/>
        <path id="Trazado_1043072" data-name="Trazado 1043072" d="M9.37,18a1.891,1.891,0,0,1-1.8-1.3L6,12h4l.48,1.45L9,13H8l.57,1.7a1.891,1.891,0,0,0,1.8,1.3,1.851,1.851,0,0,0,.88-.22A1.912,1.912,0,0,1,9.37,18Z" fill="#656b76"/>
        <path id="Trazado_1043073" data-name="Trazado 1043073" d="M6,6H9v6H6A3,3,0,1,1,6,6Z" fill="#ef5350"/>
        <path id="Trazado_1043074" data-name="Trazado 1043074" d="M19,15,9,12V6L19,3Z" fill="#e9f1f2"/>
        <path id="Trazado_1043075" data-name="Trazado 1043075" d="M19,12.1V15L9,12V6l3.08-.92a7.967,7.967,0,0,0,5.62,6.63Z" fill="#d0d8da"/>
        <path id="Trazado_1043076" data-name="Trazado 1043076" d="M8,6v4H7A3,3,0,0,1,4,7a.974.974,0,0,1,.02-.24.806.806,0,0,0-.14.12A3,3,0,0,0,6,12H9V6Z" fill="#e53935"/>
        <path id="Trazado_1043077" data-name="Trazado 1043077" d="M47,47H61V61H47Z" fill="#ffd000"/>
        <path id="Trazado_1043078" data-name="Trazado 1043078" d="M52,47h4v4H52Z" fill="#ffea00"/>
        <path id="Trazado_1043079" data-name="Trazado 1043079" d="M61,58v3H47V47h3v3a8,8,0,0,0,8,8Z" fill="#ffb700"/>
      </g>
      <g id="Outline_copy" data-name="Outline copy">
        <path id="Trazado_1043080" data-name="Trazado 1043080" d="M45.418,21.586a1,1,0,1,0-1.579,1.227A14.848,14.848,0,0,1,47,32,15,15,0,1,1,32,17a14.848,14.848,0,0,1,9.187,3.161,1,1,0,1,0,1.227-1.579,17.038,17.038,0,1,0,3,3Z" fill="#323232"/>
        <path id="Trazado_1043081" data-name="Trazado 1043081" d="M32,37a2,2,0,0,1-2-2,1,1,0,0,0-2,0,4,4,0,0,0,3,3.858V40a1,1,0,0,0,2,0V38.858A3.992,3.992,0,0,0,32,31a2,2,0,1,1,2-2,1,1,0,1,0,2,0,4,4,0,0,0-3-3.858V24a1,1,0,0,0-2,0v1.142A3.992,3.992,0,0,0,32,33a2,2,0,0,1,0,4Z" fill="#323232"/>
        <path id="Trazado_1043082" data-name="Trazado 1043082" d="M24.24,41.194a1,1,0,0,0,.235,1.394,13.026,13.026,0,1,0-3.063-3.063,1,1,0,1,0,1.629-1.16,11.026,11.026,0,1,1,2.594,2.594,1,1,0,0,0-1.395.235Z" fill="#323232"/>
        <path id="Trazado_1043083" data-name="Trazado 1043083" d="M23,52H16V41a1,1,0,0,0-1-1H8V35a1,1,0,0,0-2,0v1H3a1,1,0,0,0-1,1V61a1,1,0,0,0,2,0V54H14v6H12V57a1,1,0,0,0-1-1H7a1,1,0,0,0-1,1v4a1,1,0,0,0,1,1H23a1,1,0,0,0,1-1V53A1,1,0,0,0,23,52ZM4,38H6v2H4ZM4,50h7a1,1,0,0,0,0-2H4V42H14v2H7a1,1,0,0,0,0,2h7v6H4Zm4,8h2v2H8Zm8,2V54h6v2H20a1,1,0,0,0,0,2h2v2Z" fill="#323232"/>
        <path id="Trazado_1043084" data-name="Trazado 1043084" d="M53,20A8.99,8.99,0,0,0,60.748,6.434a1,1,0,1,0-1.723,1.017,6.946,6.946,0,0,1-.393,7.688,5.012,5.012,0,0,0-2.522-2.655,4,4,0,1,0-6.22,0,5.012,5.012,0,0,0-2.522,2.655A6.988,6.988,0,0,1,56.549,4.975a1,1,0,1,0,1.017-1.723A9,9,0,1,0,53,20ZM53,8a2,2,0,1,1-2,2A2,2,0,0,1,53,8Zm-1,6h2a2.994,2.994,0,0,1,2.975,2.755,6.968,6.968,0,0,1-7.95,0A2.994,2.994,0,0,1,52,14Z" fill="#323232"/>
        <path id="Trazado_1043085" data-name="Trazado 1043085" d="M5.254,12.925l1.365,4.094a2.9,2.9,0,1,0,5.5-1.833l-.447-1.341,7.044,2.113A1,1,0,0,0,20,15V12a1,1,0,0,0-2,0v1.656l-8-2.4V6.744l8-2.4V8a1,1,0,0,0,2,0V3a1,1,0,0,0-1.287-.958L8.853,5H6a4,4,0,0,0-.746,7.925Zm4.965,2.894a.889.889,0,0,1-.123.808.931.931,0,0,1-1.58-.241L7.388,13H8.853l.473.142ZM6,7H8v4H6A2,2,0,0,1,6,7Z" fill="#323232"/>
        <path id="Trazado_1043086" data-name="Trazado 1043086" d="M61,46H47a1,1,0,0,0-1,1V61a1,1,0,0,0,1,1H61a1,1,0,0,0,1-1V54a1,1,0,0,0-2,0v6H48V48h3v3a1,1,0,0,0,1,1h4a1,1,0,0,0,1-1V48h3v2a1,1,0,0,0,2,0V47A1,1,0,0,0,61,46Zm-6,4H53V48h2Z" fill="#323232"/>
        <path id="Trazado_1043087" data-name="Trazado 1043087" d="M56.249,43.913a1,1,0,0,0,1.321-.5,27.988,27.988,0,0,0,.53-21.538,1,1,0,1,0-1.864.724,25.99,25.99,0,0,1-.5,19.993,1,1,0,0,0,.513,1.321Z" fill="#323232"/>
        <path id="Trazado_1043088" data-name="Trazado 1043088" d="M42.592,55.744a25.853,25.853,0,0,1-15.408,1.8,1,1,0,0,0-.368,1.966A28.227,28.227,0,0,0,32,60a27.8,27.8,0,0,0,11.408-2.43,1,1,0,0,0-.816-1.826Z" fill="#323232"/>
        <path id="Trazado_1043089" data-name="Trazado 1043089" d="M6.184,21.143A27.833,27.833,0,0,0,4,32a1,1,0,1,0,2,0A25.844,25.844,0,0,1,8.027,21.919a1,1,0,1,0-1.843-.776Z" fill="#323232"/>
        <path id="Trazado_1043090" data-name="Trazado 1043090" d="M23.333,7.485A26.122,26.122,0,0,1,41.4,7.76a1,1,0,0,0,.725-1.86,28.125,28.125,0,0,0-19.458-.3,1,1,0,1,0,.666,1.885Z" fill="#323232"/>
      </g>
    </g>
  </g>
</svg>
