<svg xmlns="http://www.w3.org/2000/svg" xmlns:xlink="http://www.w3.org/1999/xlink" width="505" height="349" viewBox="0 0 505 349">
  <defs>
    <clipPath id="clip-path">
      <rect id="Rectángulo_415710" data-name="Rectángulo 415710" width="505" height="349" transform="translate(915 1910)" fill="#fff" stroke="#707070" stroke-width="1"/>
    </clipPath>
    <clipPath id="clip-path-2">
      <path id="Trazado_1042531" data-name="Trazado 1042531" d="M119.884,233.2c-62.983-1.77-61.657,82.8-61.657,85.119s4.549,5.851,17.316,8.79c11.826,2.724,27.573,4.223,44.34,4.223s32.515-1.5,44.34-4.223c12.767-2.94,17.316-6.468,17.316-8.79S212.855,235.808,119.884,233.2Z" transform="translate(-58.225 -233.168)"/>
    </clipPath>
    <clipPath id="clip-path-3">
      <path id="Trazado_1042536" data-name="Trazado 1042536" d="M438.031,233.2c-62.984-1.77-61.657,82.8-61.657,85.119s4.549,5.851,17.316,8.79c11.826,2.724,27.573,4.223,44.34,4.223s32.514-1.5,44.34-4.223c12.767-2.94,17.316-6.468,17.316-8.79S531,235.808,438.031,233.2Z" transform="translate(-376.372 -233.168)"/>
    </clipPath>
    <clipPath id="clip-path-4">
      <path id="Trazado_1042533" data-name="Trazado 1042533" d="M479.376,353.651V345.3l-6.664,0c-5.6-3.112-14.227-5.109-23.909-5.109-9.658,0-18.264,1.987-23.868,5.085l-6.7,0v8.279c0,.064-.011.127-.011.191,0,7.484,13.69,13.552,30.578,13.552s30.578-6.068,30.578-13.552C479.381,353.707,479.377,353.679,479.376,353.651Z" transform="translate(-418.225 -340.184)"/>
    </clipPath>
    <clipPath id="clip-path-5">
      <path id="Trazado_1042538" data-name="Trazado 1042538" d="M462.413,334.345V325.99l-6.664,0c-5.6-3.112-14.227-5.109-23.909-5.109-9.658,0-18.264,1.987-23.868,5.085l-6.7,0v8.279c0,.064-.011.127-.011.191,0,7.484,13.69,13.552,30.578,13.552s30.578-6.068,30.578-13.552C462.418,334.4,462.413,334.374,462.413,334.345Z" transform="translate(-401.263 -320.878)"/>
    </clipPath>
    <clipPath id="clip-path-6">
      <path id="Trazado_1042542" data-name="Trazado 1042542" d="M473.223,312v-8.355l-6.664,0c-5.6-3.112-14.227-5.109-23.909-5.109-9.658,0-18.264,1.987-23.868,5.086l-6.7,0V311.9c0,.064-.011.127-.011.191,0,7.484,13.69,13.552,30.578,13.552s30.578-6.068,30.578-13.552C473.228,312.061,473.224,312.033,473.223,312Z" transform="translate(-412.073 -298.537)"/>
    </clipPath>
    <clipPath id="clip-path-7">
      <path id="Trazado_1042546" data-name="Trazado 1042546" d="M427.637,225.5c-2.829,1.366-3.852,1.842-7.235,3.62a31.287,31.287,0,0,0,29.115,55.387c3.32-1.746,4.3-2.3,7.118-3.842Z" transform="translate(-403.667 -225.504)"/>
    </clipPath>
  </defs>
  <g id="Enmascarar_grupo_1098825" data-name="Enmascarar grupo 1098825" transform="translate(-915 -1910)" clip-path="url(#clip-path)">
    <g id="OBJECTS" transform="translate(881.747 1908.314)">
      <path id="Trazado_1042485" data-name="Trazado 1042485" d="M229.311,286.411S91.593,290.043,59.133,181.77,113.948,45.006,212.973,54.031C336.792,65.316,438.155-.757,490.058,70.628S529.387,323.187,229.311,286.411Z" transform="translate(0 0)" fill="#f0ceba"/>
      <g id="Grupo_1182492" data-name="Grupo 1182492" transform="translate(359.732 67.112)">
        <ellipse id="Elipse_13099" data-name="Elipse 13099" cx="59.392" cy="9.647" rx="59.392" ry="9.647" transform="translate(40.737 261.651)" fill="#f0ceba" opacity="0.6"/>
        <g id="Grupo_1182491" data-name="Grupo 1182491" transform="translate(0 0)">
          <g id="Grupo_1182477" data-name="Grupo 1182477" transform="translate(45.21 101.694)">
            <g id="Grupo_1182474" data-name="Grupo 1182474" transform="translate(7.162 87.076)">
              <g id="Grupo_1182471" data-name="Grupo 1182471">
                <g id="Grupo_1182470" data-name="Grupo 1182470">
                  <path id="Trazado_1042486" data-name="Trazado 1042486" d="M566.028,340.512s15.515,18.508,12.8,80.983c0,0-39.943,3.354-7.754-3.346,0,0-29.252-73.708-19.073-76.836S566.028,340.512,566.028,340.512Z" transform="translate(-549.845 -339.679)" fill="#ffac9d"/>
                  <path id="Trazado_1042487" data-name="Trazado 1042487" d="M569.686,393.42a52.316,52.316,0,0,0,9.091-.417c-2.119-39.808-12.75-52.491-12.75-52.491s-3.853-2.329-14.032.8c-6.026,1.852,1.766,28.436,9.128,49.823A23.52,23.52,0,0,0,569.686,393.42Z" transform="translate(-549.845 -339.679)" fill="#f28b8b"/>
                </g>
                <path id="Trazado_1042488" data-name="Trazado 1042488" d="M569.115,449.523s-8.811,1.4-8.252,2.937,21-.559,21-.559l.116-2.1S568.276,451.761,569.115,449.523Z" transform="translate(-552.888 -370.085)" fill="#1f1a21"/>
              </g>
              <g id="Grupo_1182473" data-name="Grupo 1182473" transform="translate(57.258 15.816)">
                <g id="Grupo_1182472" data-name="Grupo 1182472">
                  <path id="Trazado_1042489" data-name="Trazado 1042489" d="M629.066,370.822s-2.058,26.4,20.892,56.993c0,0,27.875,9.551,4.716-3.328,0,0-.389-49.243-12.048-59.514S629.066,370.822,629.066,370.822Z" transform="translate(-629.018 -361.55)" fill="#ffac9d"/>
                  <path id="Trazado_1042490" data-name="Trazado 1042490" d="M647.129,400.053a50.694,50.694,0,0,0,5.773-2.5c-1.588-13.309-4.592-27.575-10.275-32.581-11.659-10.272-13.56,5.85-13.56,5.85s-.944,12.223,5.673,29.667C638.868,401.124,642.831,401.717,647.129,400.053Z" transform="translate(-629.019 -361.549)" fill="#f28b8b"/>
                </g>
                <path id="Trazado_1042491" data-name="Trazado 1042491" d="M656.024,450.63l1.409,1.805s13.137,5.188,14.535,3.51-7.413-5.454-7.413-5.454S669.171,454.266,656.024,450.63Z" transform="translate(-636.494 -386.169)" fill="#1f1a21"/>
              </g>
            </g>
            <g id="Grupo_1182476" data-name="Grupo 1182476" transform="translate(0 0)">
              <path id="Trazado_1042492" data-name="Trazado 1042492" d="M563.251,219.275s-15.168,12.963-21.4,39.866,4.807,96.007,4.807,96.007,17.368,3.7,31.059.259l.093-78.274,21.337,78.619a67.263,67.263,0,0,0,33.825-3.578s-5.715-98.481-37.427-127.292Z" transform="translate(-539.941 -219.274)" fill="#765e69"/>
              <g id="Grupo_1182475" data-name="Grupo 1182475" transform="translate(13.398)">
                <path id="Trazado_1042493" data-name="Trazado 1042493" d="M572.469,225.221a50.656,50.656,0,0,0,13.6,1.679,78.326,78.326,0,0,0,14.978-2.332l-30.482-5.293a42.534,42.534,0,0,0-4.194,4.4A54.889,54.889,0,0,0,572.469,225.221Z" transform="translate(-560.656 -219.274)" fill="#5b4952"/>
                <path id="Trazado_1042494" data-name="Trazado 1042494" d="M572.62,300.552c3.35,2.481,6.776,4.838,10.3,7.018l.014-11.737a114.676,114.676,0,0,1-21.089-8.249q-1.7-.863-3.379-1.786C561.794,291.754,567.052,296.427,572.62,300.552Z" transform="translate(-558.468 -237.688)" fill="#5b4952"/>
              </g>
            </g>
          </g>
          <path id="Trazado_1042495" data-name="Trazado 1042495" d="M594.826,84.635s-9.475-11.408-24.558-2.707-5.028,17.79-13.342,27.844-3.287,20.11,6.188,23.2l-.967-2.9a16.783,16.783,0,0,0,10.248,3.287l-.58-2.32s3.094,4.448,9.861,3.481S594.826,84.635,594.826,84.635Z" transform="translate(-498.268 -78.656)" fill="#211c23"/>
          <g id="Grupo_1182483" data-name="Grupo 1182483" transform="translate(0 42.175)">
            <g id="Grupo_1182478" data-name="Grupo 1182478" transform="translate(0 11.713)">
              <path id="Trazado_1042496" data-name="Trazado 1042496" d="M502.549,163.9s-9.088-12.356-13.383-8.72a31.753,31.753,0,0,0-3.912,4.939s-14.379-5.44.14,2.35c0,0-18.166-.448.368,2.289,0,0-16.858.793-.058,1.607,0,0-13,6.11,1.531,1.165a13.971,13.971,0,0,0,4.793-5.067l5.481,5.354Z" transform="translate(-477.427 -153.54)" fill="#ffac9d"/>
              <path id="Trazado_1042497" data-name="Trazado 1042497" d="M563.533,156.021s.94,10.084-7.751,15.658c-8.649,5.547-25.484,20.452-31.22,17.983s-18.138-13.823-25.677-25.569l6.309-5.721,23.11,16.507-6.266,3.407s20.63-21.213,28.7-24.163S563.533,156.021,563.533,156.021Z" transform="translate(-483.367 -153.17)" fill="#6f96bd"/>
              <path id="Trazado_1042498" data-name="Trazado 1042498" d="M540.445,163.078c-4.931,4.092-10.174,9.061-13.8,12.606l-21.45-15.32-6.309,5.721c7.539,11.745,19.941,23.1,25.677,25.569,4.858,2.091,17.674-8.277,26.739-14.87A60.76,60.76,0,0,1,540.445,163.078Z" transform="translate(-483.367 -155.162)" fill="#588aaf"/>
            </g>
            <g id="Grupo_1182481" data-name="Grupo 1182481" transform="translate(62.478)">
              <g id="Grupo_1182479" data-name="Grupo 1182479" transform="translate(4.731)">
                <path id="Trazado_1042499" data-name="Trazado 1042499" d="M589.332,142.854s2.4,12.127-1.375,14.143-14.482-7.378-17.467,4.955,46.6,15.66,47.872,8.008-1.254-16.153-9.059-15.559-4.887-17.428-4.887-17.428Z" transform="translate(-570.361 -136.974)" fill="#f28b8b"/>
              </g>
              <g id="Grupo_1182480" data-name="Grupo 1182480" transform="translate(0 8.114)">
                <path id="Trazado_1042500" data-name="Trazado 1042500" d="M564.826,155.251s4.719-5.871,16.73-1.876c0,0,3.727.742,3.691-5.112l18.7-.069s-.662,7.711,2.913,8.248,14.62,3.656,12.644,11.949-11.244,28.65-16.338,37.024c0,0-18.83,2.474-34.728-4.845,0,0-9.373-15.478-1.428-29.455Z" transform="translate(-563.819 -148.194)" fill="#6f96bd"/>
                <path id="Trazado_1042501" data-name="Trazado 1042501" d="M613.684,162.158c-.774,6.026-9.18,34.274-41.487,36.608-1.982.143-3.944-.519-5.913-.826a34.689,34.689,0,0,0,2.84,6.494c15.9,7.32,34.728,4.845,34.728,4.845,5.094-8.373,14.363-28.73,16.338-37.024C621.42,167.093,617.6,163.936,613.684,162.158Z" transform="translate(-564.501 -152.059)" fill="#588aaf"/>
              </g>
            </g>
            <g id="Grupo_1182482" data-name="Grupo 1182482" transform="translate(99.162 15.931)">
              <path id="Trazado_1042502" data-name="Trazado 1042502" d="M633.927,241.028s-.756,5.933-5.913,3.679a31.714,31.714,0,0,1-5.163-3.612s-12.22,9.329-.538-2.292c0,0-17.277,5.632-.3-2.3,0,0-16.38,4.067-.516-1.523,0,0-12.791-2.191,2.546-1.613,0,0,4.512,1.321,5.3,4.118l3.861-5.154Z" transform="translate(-614.544 -179.301)" fill="#ffac9d"/>
              <path id="Trazado_1042503" data-name="Trazado 1042503" d="M619.068,159.228s9.924-2.016,16.4,6.028c6.443,8,23.067,23.144,21.227,29.112s-11.7,20.72-22.574,29.474l-5.493-8.821,12.968-22.79,4.059,5.864-27.1-25.947Z" transform="translate(-615.654 -159.003)" fill="#6f96bd"/>
            </g>
          </g>
          <g id="Grupo_1182490" data-name="Grupo 1182490" transform="translate(70.347 3.465)">
            <g id="Grupo_1182485" data-name="Grupo 1182485">
              <g id="Grupo_1182484" data-name="Grupo 1182484" transform="translate(0 6.496)">
                <path id="Trazado_1042504" data-name="Trazado 1042504" d="M593.747,92.43s-18.825-.267-19.046,24.343,31.538,23.511,33.455,2.255S600.8,93.246,593.747,92.43Z" transform="translate(-574.699 -92.43)" fill="#ffac9d"/>
                <path id="Trazado_1042505" data-name="Trazado 1042505" d="M623.421,115.922a3.7,3.7,0,0,0-4.351,1.806,87.187,87.187,0,0,1,.723,10.806C625.9,129.336,628.029,116.848,623.421,115.922Z" transform="translate(-586.981 -98.899)" fill="#ffac9d"/>
              </g>
              <path id="Trazado_1042506" data-name="Trazado 1042506" d="M625.245,91.955s-2.514-8.508-13.535-8.508-15.663,17.21,1.354,23.977c0,0-3.287,3.481.193,8.121,0,0,.155-9.812,5.4-8.579s1.812,13.937-3.629,12.612c0,0-11.23,9.3-1.187,18.785,0,0,.193-4.641,1.354-5.608l-1.741-.387s-.387,4.641,3.094,6.188c0,0-.58-3.674,1.74-5.414a2.174,2.174,0,0,0,.193,3.481s-.58-3.094,4.641-4.641h-1.934s-2.9,4.641,1.74,5.8c0,0,.387-4.641,2.127-6.381,0,0-3.674,5.995,2.707,6.381,0,0-2.9-3.094.774-4.641s13.535-11.988,5.221-21.657S627.952,99.109,625.245,91.955Z" transform="translate(-582.211 -83.447)" fill="#352c38"/>
            </g>
            <g id="Grupo_1182489" data-name="Grupo 1182489" transform="translate(0.792 19.447)">
              <g id="Grupo_1182486" data-name="Grupo 1182486" transform="translate(7.855 8.493)">
                <path id="Trazado_1042507" data-name="Trazado 1042507" d="M590.013,122.081a3.264,3.264,0,0,1,.166.911,5.469,5.469,0,0,1-.028.936,2.614,2.614,0,0,1-.082.461l-.1.459a5.323,5.323,0,0,1-.317.883l-.179.437c-.067.142-.158.269-.236.4-.164.265-.32.537-.493.8a2.93,2.93,0,0,1-.289.365l-.3.354c-.2.234-.415.46-.622.689l-.138-.594c.49.215.976.438,1.455.681s.955.495,1.416.785c-.539-.084-1.064-.2-1.584-.338s-1.034-.283-1.545-.443l-.476-.149.337-.445c.177-.234.349-.47.529-.7l.273-.341a2.631,2.631,0,0,0,.26-.349c.148-.249.312-.486.468-.73a5.517,5.517,0,0,0,.427-.751,8.426,8.426,0,0,0,.38-.777l.158-.4a4.17,4.17,0,0,0,.155-.408c.066-.279.186-.558.231-.848A5.553,5.553,0,0,0,590.013,122.081Z" transform="translate(-586.655 -122.081)" fill="#fc6a5a"/>
              </g>
              <g id="Grupo_1182487" data-name="Grupo 1182487" transform="translate(32.442 6.084)">
                <path id="Trazado_1042508" data-name="Trazado 1042508" d="M622.486,127.688a2.19,2.19,0,0,0-.029-1.433.9.9,0,0,0-.194-.239,1,1,0,0,0-.273-.137,1.782,1.782,0,0,0-.658-.066l-.227.006-.05-.244a19.417,19.417,0,0,1-.4-3.212,11.041,11.041,0,0,1,.074-1.655,4.26,4.26,0,0,1,.213-.856,1.651,1.651,0,0,1,.616-.841l.14-.074a.839.839,0,0,1,.131-.049l.19-.059a2.79,2.79,0,0,1,.488-.072,2.518,2.518,0,0,1,.929.124,2.152,2.152,0,0,1,.792.5,2.436,2.436,0,0,1,.518.746,3.235,3.235,0,0,1,.218.84,3.64,3.64,0,0,1,.006.836,5.928,5.928,0,0,1-.37,1.577,9.141,9.141,0,0,0,.025-1.577,4.577,4.577,0,0,0-.124-.748,2.845,2.845,0,0,0-.273-.669,1.806,1.806,0,0,0-.438-.514,1.734,1.734,0,0,0-.574-.3,1.766,1.766,0,0,0-.646-.045,2.121,2.121,0,0,0-.3.057l-.188.067c-.014.006-.1.033-.055.022a.175.175,0,0,1-.035.02.906.906,0,0,0-.276.444,3.85,3.85,0,0,0-.158.691,10.139,10.139,0,0,0-.1,1.524c-.006,1.036.056,2.092.147,3.134l-.277-.237a2.275,2.275,0,0,1,.84.21,1.072,1.072,0,0,1,.592.672,1.565,1.565,0,0,1,.008.829A2.636,2.636,0,0,1,622.486,127.688Z" transform="translate(-620.653 -118.749)" fill="#fc6a5a"/>
              </g>
              <g id="Grupo_1182488" data-name="Grupo 1182488" transform="translate(11.303 17.725)">
                <path id="Trazado_1042509" data-name="Trazado 1042509" d="M591.423,137.226a15.463,15.463,0,0,0,1.769.344c.265.035.55.07.851.092.3.037.619.025.945.044.325,0,.662-.019,1-.044a6.9,6.9,0,0,0,1.013-.154c.167-.035.338-.061.5-.1l.484-.156a7.037,7.037,0,0,0,.921-.363,7.454,7.454,0,0,0,.825-.44,5.445,5.445,0,0,0,.706-.469c.206-.164.43-.281.584-.435l.427-.375.39-.322s-.09.158-.263.43l-.322.489a4.379,4.379,0,0,1-.5.576,3.945,3.945,0,0,1-.664.62,5.141,5.141,0,0,1-.841.582,5.483,5.483,0,0,1-.994.472l-.536.188c-.183.051-.37.087-.557.129a7.675,7.675,0,0,1-1.125.14,8.62,8.62,0,0,1-1.091-.028,8.307,8.307,0,0,1-1.87-.406A6.213,6.213,0,0,1,591.423,137.226Z" transform="translate(-591.423 -134.847)" fill="#fc6a5a"/>
              </g>
              <path id="Trazado_1042510" data-name="Trazado 1042510" d="M585.8,116.12l-.512-.181-.571-.2-.725-.231c-.27-.061-.547-.158-.845-.218a8.417,8.417,0,0,0-.921-.166,8.53,8.53,0,0,0-.952-.07,4.817,4.817,0,0,0-.939.092,4.273,4.273,0,0,0-.9.241c-.3.1-.554.28-.84.4l-.759.512c-.236.179-.439.391-.654.56a4.957,4.957,0,0,0-.557.513c-.154.167-.305.307-.428.425-.247.236-.409.367-.409.367s.03-.2.118-.532c.046-.168.1-.376.177-.607.041-.116.074-.245.128-.372s.134-.248.206-.383a5.646,5.646,0,0,1,.521-.849,10.274,10.274,0,0,1,.78-.841,6.313,6.313,0,0,1,1.062-.684,4.632,4.632,0,0,1,1.263-.4,4.9,4.9,0,0,1,1.313-.063,3.92,3.92,0,0,1,.624.1,3.137,3.137,0,0,1,.589.151,5.381,5.381,0,0,1,1.033.448,5.683,5.683,0,0,1,.832.529A5.376,5.376,0,0,1,585.8,116.12Z" transform="translate(-575.794 -111.189)" fill="#252028"/>
              <path id="Trazado_1042511" data-name="Trazado 1042511" d="M608.115,113.945l-.516-.252-.578-.279c-.216-.113-.478-.208-.738-.343-.275-.109-.562-.24-.866-.359s-.629-.232-.961-.327c-.327-.122-.673-.169-1.013-.26-.171-.039-.345-.036-.516-.067a2.068,2.068,0,0,0-.515-.038l-.511-.005c-.169.009-.331.048-.5.067a4.581,4.581,0,0,0-.961.232c-.078.023-.159.04-.236.067s-.144.074-.218.107l-.435.2a5.763,5.763,0,0,0-.779.461,5.679,5.679,0,0,0-.665.446c-.184.155-.36.281-.5.389-.29.215-.477.333-.477.333s.064-.2.211-.537c.075-.169.164-.378.286-.61a3.3,3.3,0,0,1,.49-.729,3.74,3.74,0,0,1,.719-.783,4.765,4.765,0,0,1,1-.707,4.446,4.446,0,0,1,1.253-.471,5.444,5.444,0,0,1,.683-.129l.7-.013a6.3,6.3,0,0,1,1.351.2,6.828,6.828,0,0,1,1.2.468,6.39,6.39,0,0,1,1.006.61,7.271,7.271,0,0,1,1.8,1.826A3.551,3.551,0,0,1,608.115,113.945Z" transform="translate(-581.699 -110.337)" fill="#252028"/>
              <path id="Trazado_1042512" data-name="Trazado 1042512" d="M608.26,121.78c.071,1.247-.268,2.281-.757,2.309s-.943-.961-1.014-2.209.268-2.281.758-2.309S608.189,120.533,608.26,121.78Z" transform="translate(-584.288 -112.893)" fill="#252028"/>
              <path id="Trazado_1042513" data-name="Trazado 1042513" d="M587.159,123.62c.071,1.248-.268,2.281-.758,2.309s-.943-.961-1.014-2.209.268-2.281.757-2.309S587.088,122.373,587.159,123.62Z" transform="translate(-578.447 -113.402)" fill="#252028"/>
            </g>
          </g>
        </g>
      </g>
      <g id="Grupo_1182541" data-name="Grupo 1182541" transform="translate(55.031 70.361)">
        <ellipse id="Elipse_13100" data-name="Elipse 13100" cx="98.056" cy="15.928" rx="98.056" ry="15.928" transform="translate(78.862 247.969)" fill="#f0ceba" opacity="0.6"/>
        <g id="Grupo_1182505" data-name="Grupo 1182505">
          <g id="Grupo_1182496" data-name="Grupo 1182496" transform="translate(101.914 19.139)">
            <g id="Grupo_1182494" data-name="Grupo 1182494" transform="translate(0 208.184)">
              <g id="Grupo_1182493" data-name="Grupo 1182493">
                <path id="Trazado_1042514" data-name="Trazado 1042514" d="M349.86,437.82v-9.292H197.033l0,9.307s1.477,7.982,75.812,6.987,77.035-6.987,77.035-6.987Z" transform="translate(-197.026 -406.074)" fill="#fc6a5a"/>
                <path id="Trazado_1042515" data-name="Trazado 1042515" d="M349.868,420.046c-7.225-12.875-38.7-22.566-76.423-22.566s-69.2,9.691-76.423,22.566Z" transform="translate(-197.023 -397.48)" fill="#dd4e4e"/>
              </g>
              <path id="Trazado_1042516" data-name="Trazado 1042516" d="M197.023,428.563s1.477,7.982,75.812,6.987,77.035-6.987,77.035-6.987l-151.7-.314" transform="translate(-197.023 -405.997)" fill="#dd4e4e"/>
            </g>
            <g id="Grupo_1182495" data-name="Grupo 1182495" transform="translate(57.165)">
              <path id="Trazado_1042517" data-name="Trazado 1042517" d="M304.685,109.612H282.936l-6.868,202.6h35.485Z" transform="translate(-276.068 -109.612)" fill="#dd4e4e"/>
              <path id="Trazado_1042518" data-name="Trazado 1042518" d="M276.068,389.755h35.485l-3.5,6.379H279.891Z" transform="translate(-276.068 -187.157)" fill="#fc6a5a"/>
            </g>
          </g>
          <g id="Grupo_1182499" data-name="Grupo 1182499" transform="translate(0 29.156)">
            <g id="Grupo_1182497" data-name="Grupo 1182497" transform="translate(53.044)">
              <circle id="Elipse_13101" data-name="Elipse 13101" cx="7.177" cy="7.177" r="7.177" transform="translate(0 26.714) rotate(-45)" fill="none" stroke="#352c38" stroke-miterlimit="10" stroke-width="2.481"/>
              <path id="Trazado_1042519" data-name="Trazado 1042519" d="M144.961,134.627a2.392,2.392,0,0,1-2.392,2.392h0a2.392,2.392,0,0,1-2.392-2.392v-8.772a2.392,2.392,0,0,1,2.392-2.392h0a2.392,2.392,0,0,1,2.392,2.392Z" transform="translate(-132.417 -123.463)" fill="#352c38"/>
              <path id="Trazado_1042520" data-name="Trazado 1042520" d="M136.765,141.761a4.859,4.859,0,1,0,4.859-4.859A4.859,4.859,0,0,0,136.765,141.761Z" transform="translate(-131.473 -127.183)" fill="none" stroke="#352c38" stroke-miterlimit="10" stroke-width="2.481"/>
            </g>
            <path id="Trazado_1042521" data-name="Trazado 1042521" d="M56.1,300.919,119.3,170.325,179.73,297.53" transform="translate(-56.101 -136.435)" fill="none" stroke="#352c38" stroke-miterlimit="10" stroke-width="0.827"/>
            <g id="Grupo_1182498" data-name="Grupo 1182498" transform="translate(0 149.932)">
              <path id="Trazado_1042522" data-name="Trazado 1042522" d="M140.649,354.051c-.8-1.11-1.364-1.767-1.364-1.767l-18.265.852-18.264-.852s-.567.657-1.364,1.767l-39.058,1.821s2.791,25.119,52.63,25.517c2.161.017,4.171-.025,6.057-.116,1.886.09,3.9.133,6.057.116,49.838-.4,52.63-25.517,52.63-25.517Z" transform="translate(-57.826 -336.734)" fill="#dd4e4e"/>
              <ellipse id="Elipse_13102" data-name="Elipse 13102" cx="63.195" cy="14.553" rx="63.195" ry="14.553" fill="#af3f3f" stroke="#fc6a5a" stroke-miterlimit="10" stroke-width="4.256"/>
            </g>
          </g>
          <g id="Grupo_1182502" data-name="Grupo 1182502" transform="translate(230.283 29.156)">
            <g id="Grupo_1182500" data-name="Grupo 1182500" transform="translate(53.043)">
              <circle id="Elipse_13103" data-name="Elipse 13103" cx="7.177" cy="7.177" r="7.177" transform="translate(0 26.715) rotate(-45)" fill="none" stroke="#352c38" stroke-miterlimit="10" stroke-width="2.481"/>
              <path id="Trazado_1042523" data-name="Trazado 1042523" d="M463.387,134.627a2.392,2.392,0,0,1-2.392,2.392h0a2.392,2.392,0,0,1-2.392-2.392v-8.772a2.392,2.392,0,0,1,2.392-2.392h0a2.392,2.392,0,0,1,2.392,2.392Z" transform="translate(-450.842 -123.463)" fill="#352c38"/>
              <path id="Trazado_1042524" data-name="Trazado 1042524" d="M455.191,141.761a4.859,4.859,0,1,0,4.859-4.859A4.859,4.859,0,0,0,455.191,141.761Z" transform="translate(-449.898 -127.183)" fill="none" stroke="#352c38" stroke-miterlimit="10" stroke-width="2.481"/>
            </g>
            <path id="Trazado_1042525" data-name="Trazado 1042525" d="M374.526,300.919l63.2-130.594L498.155,297.53" transform="translate(-374.526 -136.435)" fill="none" stroke="#352c38" stroke-miterlimit="10" stroke-width="0.827"/>
            <g id="Grupo_1182501" data-name="Grupo 1182501" transform="translate(0 149.932)">
              <path id="Trazado_1042526" data-name="Trazado 1042526" d="M459.076,354.051c-.8-1.11-1.364-1.767-1.364-1.767l-18.264.852-18.264-.852s-.567.657-1.364,1.767l-39.057,1.821s2.791,25.119,52.63,25.517c2.161.017,4.171-.025,6.057-.116,1.886.09,3.9.133,6.057.116,49.839-.4,52.63-25.517,52.63-25.517Z" transform="translate(-376.252 -336.734)" fill="#dd4e4e"/>
              <ellipse id="Elipse_13104" data-name="Elipse 13104" cx="63.196" cy="14.553" rx="63.196" ry="14.553" fill="#af3f3f" stroke="#fc6a5a" stroke-miterlimit="10" stroke-width="4.256"/>
            </g>
          </g>
          <g id="Grupo_1182504" data-name="Grupo 1182504" transform="translate(46.054)">
            <path id="Trazado_1042527" data-name="Trazado 1042527" d="M381.285,108.865s-14.951.9-17.045-1.794.9-6.279.9-6.279l-.086-.116a6.809,6.809,0,0,0,1.282-6.761C363.177,83.3,258.949,83.143,250.55,83.148S137.923,83.3,134.766,93.913a6.809,6.809,0,0,0,1.282,6.761l-.086.116s2.99,3.588.9,6.279-17.045,1.794-17.045,1.794-.9,8.672,6.878,8.672h16.746s-2.311-7.913,14.462-8.077c17.062,3.449,45.37,6.167,90.92,7.944l0,.133,1.735-.067,1.735.067,0-.133c45.549-1.777,73.858-4.495,90.92-7.944,16.773.163,14.462,8.077,14.462,8.077h16.746C382.182,117.537,381.285,108.865,381.285,108.865ZM169.9,106.024s-21.979,0-25.866-7.027,13.307-6.878,25.417-7.326c6.725-.249,24.371-3.588,25.866,6.579S188.143,106.024,169.9,106.024Zm65.189,5.084a178.757,178.757,0,0,1-24.072-1.495s-8.223-.748-11.064-8.074c0,0-1.645-9.27,4.187-11.662s30.5-.9,30.5-.9,7.027,1.794,8.822,8.223S245.856,110.809,235.09,111.108Zm66.054-9.569c-2.841,7.326-11.064,8.074-11.064,8.074a178.611,178.611,0,0,1-24.072,1.495c-10.765-.3-10.167-7.476-8.373-13.9s8.822-8.223,8.822-8.223,24.67-1.495,30.5.9S301.145,101.539,301.145,101.539ZM357.063,99c-3.887,7.027-25.866,7.027-25.866,7.027-18.241,0-26.913,2.392-25.417-7.775s19.141-6.828,25.866-6.579C343.757,92.119,360.951,91.969,357.063,99Z" transform="translate(-119.782 -83.148)" fill="#fc6a5a"/>
            <g id="Grupo_1182503" data-name="Grupo 1182503" transform="translate(113.851 2.224)">
              <circle id="Elipse_13105" data-name="Elipse 13105" cx="11.961" cy="11.961" r="11.961" transform="translate(0 16.915) rotate(-45)" fill="#dd4e4e"/>
              <circle id="Elipse_13106" data-name="Elipse 13106" cx="7.775" cy="7.775" r="7.775" transform="translate(5.961 16.088) rotate(-40.706)" fill="#fc6a5a"/>
            </g>
          </g>
        </g>
        <g id="Grupo_1182516" data-name="Grupo 1182516" transform="translate(1.536 108.494)">
          <g id="Grupo_1182515" data-name="Grupo 1182515" clip-path="url(#clip-path-2)">
            <g id="Grupo_1182507" data-name="Grupo 1182507" transform="translate(11.295 -3.619)">
              <g id="Grupo_1182506" data-name="Grupo 1182506" transform="translate(0 0)">
                <circle id="Elipse_13107" data-name="Elipse 13107" cx="47.446" cy="47.446" r="47.446" transform="matrix(0.889, -0.457, 0.457, 0.889, 0, 43.384)" fill="#588aaf"/>
                <path id="Trazado_1042528" data-name="Trazado 1042528" d="M127.852,345.386a50.494,50.494,0,1,1,63.214-33.215A50.551,50.551,0,0,1,127.852,345.386Zm28.188-90.607a44.4,44.4,0,1,0,29.2,55.581A44.447,44.447,0,0,0,156.04,254.779Z" transform="translate(-78.967 -233.287)" fill="#e0803f"/>
              </g>
              <ellipse id="Elipse_13108" data-name="Elipse 13108" cx="47.445" cy="47.446" rx="47.445" ry="47.446" transform="matrix(0.989, -0.147, 0.147, 0.989, 5.498, 22.511)" fill="#fdedee" stroke="#ffa65b" stroke-miterlimit="10" stroke-width="8.431"/>
            </g>
            <g id="Grupo_1182514" data-name="Grupo 1182514" transform="translate(31.363 19.596)">
              <g id="Grupo_1182508" data-name="Grupo 1182508" transform="translate(34.749 11.286)">
                <path id="Trazado_1042529" data-name="Trazado 1042529" d="M149.846,311.891a4.48,4.48,0,1,0,5.608-2.947A4.481,4.481,0,0,0,149.846,311.891Z" transform="translate(-149.643 -284.969)" fill="#352c38"/>
                <path id="Trazado_1042530" data-name="Trazado 1042530" d="M164.493,275.87l-8.835,28.4,18.71,5.821" transform="translate(-151.308 -275.87)" fill="none" stroke="#352c38" stroke-linecap="round" stroke-linejoin="round" stroke-miterlimit="10" stroke-width="3.965"/>
              </g>
              <g id="Grupo_1182513" data-name="Grupo 1182513">
                <g id="Grupo_1182509" data-name="Grupo 1182509" transform="translate(49.817 0.49)">
                  <line id="Línea_625" data-name="Línea 625" x1="1.903" y2="6.117" fill="none" stroke="#6f96bd" stroke-miterlimit="10" stroke-width="4.216"/>
                  <line id="Línea_626" data-name="Línea 626" x1="4.834" y2="4.203" transform="translate(14.65 11.356)" fill="none" stroke="#6f96bd" stroke-miterlimit="10" stroke-width="4.216"/>
                  <line id="Línea_627" data-name="Línea 627" x1="6.22" y2="1.528" transform="translate(22.849 29.102)" fill="none" stroke="#6f96bd" stroke-miterlimit="10" stroke-width="4.216"/>
                </g>
                <g id="Grupo_1182510" data-name="Grupo 1182510" transform="translate(0.731)">
                  <line id="Línea_628" data-name="Línea 628" x2="6.116" y2="1.903" transform="translate(0 27.167)" fill="none" stroke="#6f96bd" stroke-miterlimit="10" stroke-width="4.216"/>
                  <line id="Línea_629" data-name="Línea 629" x2="4.203" y2="4.834" transform="translate(11.356 9.586)" fill="none" stroke="#6f96bd" stroke-miterlimit="10" stroke-width="4.216"/>
                  <line id="Línea_630" data-name="Línea 630" x2="1.529" y2="6.22" transform="translate(29.101)" fill="none" stroke="#6f96bd" stroke-miterlimit="10" stroke-width="4.216"/>
                </g>
                <g id="Grupo_1182511" data-name="Grupo 1182511" transform="translate(0 47.365)">
                  <line id="Línea_631" data-name="Línea 631" y1="6.116" x2="1.903" transform="translate(27.167 24.513)" fill="none" stroke="#6f96bd" stroke-miterlimit="10" stroke-width="4.216"/>
                  <line id="Línea_632" data-name="Línea 632" y1="4.203" x2="4.834" transform="translate(9.586 15.071)" fill="none" stroke="#6f96bd" stroke-miterlimit="10" stroke-width="4.216"/>
                  <line id="Línea_633" data-name="Línea 633" y1="1.528" x2="6.22" fill="none" stroke="#6f96bd" stroke-miterlimit="10" stroke-width="4.216"/>
                </g>
                <g id="Grupo_1182512" data-name="Grupo 1182512" transform="translate(47.525 49.416)">
                  <line id="Línea_634" data-name="Línea 634" x1="6.117" y1="1.903" transform="translate(24.513)" fill="none" stroke="#6f96bd" stroke-miterlimit="10" stroke-width="4.216"/>
                  <line id="Línea_635" data-name="Línea 635" x1="4.203" y1="4.834" transform="translate(15.071 14.65)" fill="none" stroke="#6f96bd" stroke-miterlimit="10" stroke-width="4.216"/>
                  <line id="Línea_636" data-name="Línea 636" x1="1.528" y1="6.22" transform="translate(0 22.849)" fill="none" stroke="#6f96bd" stroke-miterlimit="10" stroke-width="4.216"/>
                </g>
              </g>
            </g>
          </g>
        </g>
        <g id="Grupo_1182540" data-name="Grupo 1182540" transform="translate(231.618 86.971)">
          <g id="Grupo_1182522" data-name="Grupo 1182522" transform="translate(0 21.522)">
            <g id="Grupo_1182521" data-name="Grupo 1182521" clip-path="url(#clip-path-3)">
              <g id="Grupo_1182519" data-name="Grupo 1182519" transform="translate(30.268 77.393)">
                <path id="Trazado_1042532" data-name="Trazado 1042532" d="M479.376,353.651V345.3l-6.664,0c-5.6-3.112-14.227-5.109-23.909-5.109-9.658,0-18.264,1.987-23.868,5.085l-6.7,0v8.279c0,.064-.011.127-.011.191,0,7.484,13.69,13.552,30.578,13.552s30.578-6.068,30.578-13.552C479.381,353.707,479.377,353.679,479.376,353.651Z" transform="translate(-418.225 -340.184)" fill="#c47549"/>
                <g id="Grupo_1182518" data-name="Grupo 1182518">
                  <g id="Grupo_1182517" data-name="Grupo 1182517" clip-path="url(#clip-path-4)">
                    <rect id="Rectángulo_415638" data-name="Rectángulo 415638" width="1.477" height="13.378" transform="translate(1.159 7.037)" fill="#af6743"/>
                    <rect id="Rectángulo_415639" data-name="Rectángulo 415639" width="1.477" height="13.378" transform="translate(3.764 9.382)" fill="#af6743"/>
                    <rect id="Rectángulo_415640" data-name="Rectángulo 415640" width="1.477" height="13.378" transform="translate(58.579 7.037)" fill="#af6743"/>
                    <rect id="Rectángulo_415641" data-name="Rectángulo 415641" width="1.477" height="13.378" transform="translate(55.973 9.382)" fill="#af6743"/>
                    <rect id="Rectángulo_415642" data-name="Rectángulo 415642" width="1.911" height="17.374" transform="translate(6.892 11.293)" fill="#af6743"/>
                    <rect id="Rectángulo_415643" data-name="Rectángulo 415643" width="1.911" height="17.374" transform="translate(10.407 11.293)" fill="#af6743"/>
                    <rect id="Rectángulo_415644" data-name="Rectángulo 415644" width="1.911" height="17.374" transform="translate(13.921 11.293)" fill="#af6743"/>
                    <rect id="Rectángulo_415645" data-name="Rectángulo 415645" width="1.911" height="17.374" transform="translate(17.436 11.293)" fill="#af6743"/>
                    <rect id="Rectángulo_415646" data-name="Rectángulo 415646" width="1.911" height="17.374" transform="translate(20.952 11.293)" fill="#af6743"/>
                    <rect id="Rectángulo_415647" data-name="Rectángulo 415647" width="1.911" height="17.374" transform="translate(24.466 11.293)" fill="#af6743"/>
                    <rect id="Rectángulo_415648" data-name="Rectángulo 415648" width="1.911" height="17.374" transform="translate(27.981 11.293)" fill="#af6743"/>
                    <rect id="Rectángulo_415649" data-name="Rectángulo 415649" width="1.911" height="17.374" transform="translate(31.496 11.293)" fill="#af6743"/>
                    <rect id="Rectángulo_415650" data-name="Rectángulo 415650" width="1.911" height="17.374" transform="translate(35.011 11.293)" fill="#af6743"/>
                    <rect id="Rectángulo_415651" data-name="Rectángulo 415651" width="1.911" height="17.374" transform="translate(38.526 11.293)" fill="#af6743"/>
                    <rect id="Rectángulo_415652" data-name="Rectángulo 415652" width="1.911" height="17.374" transform="translate(42.041 11.293)" fill="#af6743"/>
                    <rect id="Rectángulo_415653" data-name="Rectángulo 415653" width="1.911" height="17.374" transform="translate(45.555 11.293)" fill="#af6743"/>
                    <rect id="Rectángulo_415654" data-name="Rectángulo 415654" width="1.911" height="17.374" transform="translate(49.07 11.293)" fill="#af6743"/>
                    <rect id="Rectángulo_415655" data-name="Rectángulo 415655" width="1.911" height="17.374" transform="translate(52.585 11.293)" fill="#af6743"/>
                  </g>
                </g>
              </g>
              <g id="Grupo_1182520" data-name="Grupo 1182520" transform="translate(30.268 69.054)">
                <path id="Trazado_1042534" data-name="Trazado 1042534" d="M449.648,354.394c-16.719,0-28.371-5.979-28.371-11.345S432.928,331.7,449.648,331.7s28.372,5.98,28.372,11.346S466.367,354.394,449.648,354.394Z" transform="translate(-419.07 -329.497)" fill="#d88a50"/>
                <path id="Trazado_1042535" data-name="Trazado 1042535" d="M448.8,333.066c16.929,0,26.164,6.036,26.164,9.138s-9.235,9.138-26.164,9.138-26.165-6.036-26.165-9.138,9.236-9.138,26.165-9.138m0-4.413c-16.888,0-30.578,6.067-30.578,13.551s13.69,13.552,30.578,13.552,30.578-6.068,30.578-13.552-13.69-13.551-30.578-13.551Z" transform="translate(-418.225 -328.653)" fill="#ffa65b"/>
              </g>
            </g>
          </g>
          <g id="Grupo_1182527" data-name="Grupo 1182527" transform="translate(18 76.615)">
            <g id="Grupo_1182525" data-name="Grupo 1182525" transform="translate(0.001 8.338)">
              <path id="Trazado_1042537" data-name="Trazado 1042537" d="M462.413,334.345V325.99l-6.664,0c-5.6-3.112-14.227-5.109-23.909-5.109-9.658,0-18.264,1.987-23.868,5.085l-6.7,0v8.279c0,.064-.011.127-.011.191,0,7.484,13.69,13.552,30.578,13.552s30.578-6.068,30.578-13.552C462.418,334.4,462.413,334.374,462.413,334.345Z" transform="translate(-401.263 -320.878)" fill="#c47549"/>
              <g id="Grupo_1182524" data-name="Grupo 1182524">
                <g id="Grupo_1182523" data-name="Grupo 1182523" clip-path="url(#clip-path-5)">
                  <rect id="Rectángulo_415656" data-name="Rectángulo 415656" width="1.477" height="13.378" transform="translate(1.157 7.037)" fill="#af6743"/>
                  <rect id="Rectángulo_415657" data-name="Rectángulo 415657" width="1.477" height="13.378" transform="translate(3.764 9.383)" fill="#af6743"/>
                  <rect id="Rectángulo_415658" data-name="Rectángulo 415658" width="1.477" height="13.378" transform="translate(58.578 7.037)" fill="#af6743"/>
                  <rect id="Rectángulo_415659" data-name="Rectángulo 415659" width="1.477" height="13.378" transform="translate(55.972 9.383)" fill="#af6743"/>
                  <rect id="Rectángulo_415660" data-name="Rectángulo 415660" width="1.911" height="17.374" transform="translate(6.891 11.294)" fill="#af6743"/>
                  <rect id="Rectángulo_415661" data-name="Rectángulo 415661" width="1.911" height="17.374" transform="translate(10.405 11.294)" fill="#af6743"/>
                  <rect id="Rectángulo_415662" data-name="Rectángulo 415662" width="1.911" height="17.374" transform="translate(13.921 11.294)" fill="#af6743"/>
                  <rect id="Rectángulo_415663" data-name="Rectángulo 415663" width="1.911" height="17.374" transform="translate(17.435 11.294)" fill="#af6743"/>
                  <rect id="Rectángulo_415664" data-name="Rectángulo 415664" width="1.911" height="17.374" transform="translate(20.95 11.294)" fill="#af6743"/>
                  <rect id="Rectángulo_415665" data-name="Rectángulo 415665" width="1.911" height="17.374" transform="translate(24.465 11.294)" fill="#af6743"/>
                  <rect id="Rectángulo_415666" data-name="Rectángulo 415666" width="1.911" height="17.374" transform="translate(27.98 11.294)" fill="#af6743"/>
                  <rect id="Rectángulo_415667" data-name="Rectángulo 415667" width="1.911" height="17.374" transform="translate(31.494 11.294)" fill="#af6743"/>
                  <rect id="Rectángulo_415668" data-name="Rectángulo 415668" width="1.911" height="17.374" transform="translate(35.01 11.294)" fill="#af6743"/>
                  <rect id="Rectángulo_415669" data-name="Rectángulo 415669" width="1.911" height="17.374" transform="translate(38.525 11.294)" fill="#af6743"/>
                  <rect id="Rectángulo_415670" data-name="Rectángulo 415670" width="1.911" height="17.374" transform="translate(42.039 11.294)" fill="#af6743"/>
                  <rect id="Rectángulo_415671" data-name="Rectángulo 415671" width="1.911" height="17.374" transform="translate(45.554 11.294)" fill="#af6743"/>
                  <rect id="Rectángulo_415672" data-name="Rectángulo 415672" width="1.911" height="17.374" transform="translate(49.069 11.294)" fill="#af6743"/>
                  <rect id="Rectángulo_415673" data-name="Rectángulo 415673" width="1.911" height="17.374" transform="translate(52.584 11.294)" fill="#af6743"/>
                </g>
              </g>
            </g>
            <g id="Grupo_1182526" data-name="Grupo 1182526">
              <path id="Trazado_1042539" data-name="Trazado 1042539" d="M432.685,335.089c-16.72,0-28.372-5.979-28.372-11.345S415.965,312.4,432.685,312.4s28.371,5.979,28.371,11.345S449.4,335.089,432.685,335.089Z" transform="translate(-402.107 -310.192)" fill="#d88a50"/>
              <path id="Trazado_1042540" data-name="Trazado 1042540" d="M431.84,313.762c16.929,0,26.165,6.036,26.165,9.138s-9.235,9.138-26.165,9.138S405.676,326,405.676,322.9s9.234-9.138,26.164-9.138m0-4.414c-16.888,0-30.578,6.068-30.578,13.552s13.69,13.552,30.578,13.552,30.578-6.068,30.578-13.552-13.691-13.552-30.578-13.552Z" transform="translate(-401.262 -309.348)" fill="#ffa65b"/>
            </g>
          </g>
          <g id="Grupo_1182532" data-name="Grupo 1182532" transform="translate(25.818 60.458)">
            <g id="Grupo_1182530" data-name="Grupo 1182530" transform="translate(0.001 8.339)">
              <path id="Trazado_1042541" data-name="Trazado 1042541" d="M473.223,312v-8.355l-6.664,0c-5.6-3.112-14.227-5.109-23.909-5.109-9.658,0-18.264,1.987-23.868,5.086l-6.7,0V311.9c0,.064-.011.127-.011.191,0,7.484,13.69,13.552,30.578,13.552s30.578-6.068,30.578-13.552C473.228,312.061,473.224,312.033,473.223,312Z" transform="translate(-412.073 -298.537)" fill="#c47549"/>
              <g id="Grupo_1182529" data-name="Grupo 1182529">
                <g id="Grupo_1182528" data-name="Grupo 1182528" clip-path="url(#clip-path-6)">
                  <rect id="Rectángulo_415674" data-name="Rectángulo 415674" width="1.477" height="13.378" transform="translate(1.158 7.037)" fill="#af6743"/>
                  <rect id="Rectángulo_415675" data-name="Rectángulo 415675" width="1.477" height="13.378" transform="translate(3.764 9.383)" fill="#af6743"/>
                  <rect id="Rectángulo_415676" data-name="Rectángulo 415676" width="1.477" height="13.378" transform="translate(58.579 7.037)" fill="#af6743"/>
                  <rect id="Rectángulo_415677" data-name="Rectángulo 415677" width="1.477" height="13.378" transform="translate(55.973 9.383)" fill="#af6743"/>
                  <rect id="Rectángulo_415678" data-name="Rectángulo 415678" width="1.911" height="17.374" transform="translate(6.891 11.293)" fill="#af6743"/>
                  <rect id="Rectángulo_415679" data-name="Rectángulo 415679" width="1.911" height="17.374" transform="translate(10.406 11.293)" fill="#af6743"/>
                  <rect id="Rectángulo_415680" data-name="Rectángulo 415680" width="1.911" height="17.374" transform="translate(13.921 11.293)" fill="#af6743"/>
                  <rect id="Rectángulo_415681" data-name="Rectángulo 415681" width="1.911" height="17.374" transform="translate(17.435 11.293)" fill="#af6743"/>
                  <rect id="Rectángulo_415682" data-name="Rectángulo 415682" width="1.911" height="17.374" transform="translate(20.951 11.293)" fill="#af6743"/>
                  <rect id="Rectángulo_415683" data-name="Rectángulo 415683" width="1.911" height="17.374" transform="translate(24.466 11.293)" fill="#af6743"/>
                  <rect id="Rectángulo_415684" data-name="Rectángulo 415684" width="1.911" height="17.374" transform="translate(27.98 11.293)" fill="#af6743"/>
                  <rect id="Rectángulo_415685" data-name="Rectángulo 415685" width="1.911" height="17.374" transform="translate(31.495 11.293)" fill="#af6743"/>
                  <rect id="Rectángulo_415686" data-name="Rectángulo 415686" width="1.911" height="17.374" transform="translate(35.01 11.293)" fill="#af6743"/>
                  <rect id="Rectángulo_415687" data-name="Rectángulo 415687" width="1.911" height="17.374" transform="translate(38.525 11.293)" fill="#af6743"/>
                  <rect id="Rectángulo_415688" data-name="Rectángulo 415688" width="1.911" height="17.374" transform="translate(42.04 11.293)" fill="#af6743"/>
                  <rect id="Rectángulo_415689" data-name="Rectángulo 415689" width="1.911" height="17.374" transform="translate(45.555 11.293)" fill="#af6743"/>
                  <rect id="Rectángulo_415690" data-name="Rectángulo 415690" width="1.911" height="17.374" transform="translate(49.069 11.293)" fill="#af6743"/>
                  <rect id="Rectángulo_415691" data-name="Rectángulo 415691" width="1.911" height="17.374" transform="translate(52.584 11.293)" fill="#af6743"/>
                </g>
              </g>
            </g>
            <g id="Grupo_1182531" data-name="Grupo 1182531">
              <path id="Trazado_1042543" data-name="Trazado 1042543" d="M443.494,312.748c-16.72,0-28.372-5.979-28.372-11.345s11.652-11.346,28.372-11.346,28.371,5.98,28.371,11.346S460.215,312.748,443.494,312.748Z" transform="translate(-412.916 -287.851)" fill="#d88a50"/>
              <path id="Trazado_1042544" data-name="Trazado 1042544" d="M442.65,291.42c16.929,0,26.164,6.036,26.164,9.138s-9.235,9.138-26.164,9.138-26.165-6.036-26.165-9.138,9.236-9.138,26.165-9.138m0-4.414c-16.888,0-30.578,6.068-30.578,13.552s13.69,13.552,30.578,13.552,30.578-6.068,30.578-13.552-13.69-13.552-30.578-13.552Z" transform="translate(-412.072 -287.006)" fill="#ffa65b"/>
            </g>
          </g>
          <g id="Grupo_1182539" data-name="Grupo 1182539" transform="translate(13.202 0)">
            <g id="Grupo_1182535" data-name="Grupo 1182535" transform="translate(6.538 15.98)">
              <path id="Trazado_1042545" data-name="Trazado 1042545" d="M427.637,225.5c-2.829,1.366-3.852,1.842-7.235,3.62a31.287,31.287,0,0,0,29.115,55.387c3.32-1.746,4.3-2.3,7.118-3.842Z" transform="translate(-403.667 -225.504)" fill="#c47549"/>
              <g id="Grupo_1182534" data-name="Grupo 1182534">
                <g id="Grupo_1182533" data-name="Grupo 1182533" clip-path="url(#clip-path-7)">
                  <rect id="Rectángulo_415692" data-name="Rectángulo 415692" width="26.559" height="1.465" transform="translate(9.132 6.175) rotate(-12.503)" fill="#af6743"/>
                  <rect id="Rectángulo_415693" data-name="Rectángulo 415693" width="26.559" height="1.465" transform="translate(5.133 9.722) rotate(-12.498)" fill="#af6743"/>
                  <rect id="Rectángulo_415694" data-name="Rectángulo 415694" width="26.559" height="1.465" transform="translate(21.467 61.807) rotate(-12.503)" fill="#af6743"/>
                  <rect id="Rectángulo_415695" data-name="Rectángulo 415695" width="26.559" height="1.465" transform="translate(16.361 60.289) rotate(-12.503)" fill="#af6743"/>
                  <rect id="Rectángulo_415696" data-name="Rectángulo 415696" width="34.493" height="1.896" transform="translate(-5.629 15.266) rotate(-12.503)" fill="#af6743"/>
                  <rect id="Rectángulo_415697" data-name="Rectángulo 415697" width="34.493" height="1.896" transform="translate(-4.876 18.677) rotate(-12.503)" fill="#af6743"/>
                  <rect id="Rectángulo_415698" data-name="Rectángulo 415698" width="34.493" height="1.896" transform="translate(-4.134 22.099) rotate(-12.498)" fill="#af6743"/>
                  <rect id="Rectángulo_415699" data-name="Rectángulo 415699" width="34.493" height="1.896" transform="translate(-3.367 25.49) rotate(-12.503)" fill="#af6743"/>
                  <rect id="Rectángulo_415700" data-name="Rectángulo 415700" width="34.493" height="1.896" transform="translate(-2.61 28.893) rotate(-12.503)" fill="#af6743"/>
                  <rect id="Rectángulo_415701" data-name="Rectángulo 415701" width="34.493" height="1.896" transform="translate(-1.855 32.298) rotate(-12.503)" fill="#af6743"/>
                  <rect id="Rectángulo_415702" data-name="Rectángulo 415702" width="34.493" height="1.896" transform="translate(-1.102 35.708) rotate(-12.503)" fill="#af6743"/>
                  <rect id="Rectángulo_415703" data-name="Rectángulo 415703" width="34.493" height="1.896" transform="translate(-0.36 39.125) rotate(-12.498)" fill="#af6743"/>
                  <rect id="Rectángulo_415704" data-name="Rectángulo 415704" width="34.493" height="1.896" transform="translate(0.409 42.516) rotate(-12.503)" fill="#af6743"/>
                  <rect id="Rectángulo_415705" data-name="Rectángulo 415705" width="34.493" height="1.896" transform="translate(1.164 45.921) rotate(-12.503)" fill="#af6743"/>
                  <rect id="Rectángulo_415706" data-name="Rectángulo 415706" width="34.493" height="1.896" transform="translate(1.919 49.327) rotate(-12.503)" fill="#af6743"/>
                  <rect id="Rectángulo_415707" data-name="Rectángulo 415707" width="34.493" height="1.896" transform="translate(2.674 52.733) rotate(-12.503)" fill="#af6743"/>
                  <rect id="Rectángulo_415708" data-name="Rectángulo 415708" width="34.493" height="1.896" transform="translate(3.43 56.135) rotate(-12.503)" fill="#af6743"/>
                  <rect id="Rectángulo_415709" data-name="Rectángulo 415709" width="34.493" height="1.896" transform="translate(4.184 59.543) rotate(-12.503)" fill="#af6743"/>
                </g>
              </g>
            </g>
            <g id="Grupo_1182538" data-name="Grupo 1182538" transform="translate(0)">
              <g id="Grupo_1182536" data-name="Grupo 1182536">
                <circle id="Elipse_13109" data-name="Elipse 13109" cx="31.287" cy="31.287" r="31.287" transform="translate(0 48.438) rotate(-50.726)" fill="#ffa65b"/>
                <circle id="Elipse_13110" data-name="Elipse 13110" cx="25.438" cy="25.438" r="25.438" transform="translate(8.137 46.19) rotate(-48.417)" fill="#d88a50"/>
              </g>
              <g id="Grupo_1182537" data-name="Grupo 1182537" transform="translate(23.278 24.03)">
                <path id="Trazado_1042547" data-name="Trazado 1042547" d="M462.713,257.989l4.235,1.28a14.858,14.858,0,0,1-3.179,6.235,20.586,20.586,0,0,1-13.708,6.956,17.084,17.084,0,0,1-7.548-1.125,16.885,16.885,0,0,1-6.28-4.323l-4.971,2.613-1.284-2.442,4.534-2.384q-.683-1.087-1.028-1.742t-.852-1.833l-4.534,2.384-1.284-2.442,4.97-2.613a16.881,16.881,0,0,1,0-7.625,17.117,17.117,0,0,1,3.353-6.856,20.66,20.66,0,0,1,13.524-7.359,15.166,15.166,0,0,1,6.894.884l-1.347,4.214a12.907,12.907,0,0,0-10.537.92,13.662,13.662,0,0,0-5.9,5.717,12.317,12.317,0,0,0-1.365,7.675l13.823-7.266,1.284,2.442-14.431,7.586a12.811,12.811,0,0,0,.809,1.856,13.628,13.628,0,0,0,1.071,1.719l14.433-7.587,1.284,2.442-13.822,7.267a12.311,12.311,0,0,0,7.1,3.228A13.654,13.654,0,0,0,456,266.191,12.935,12.935,0,0,0,462.713,257.989Z" transform="translate(-426.814 -236.635)" fill="#ffa65b"/>
              </g>
            </g>
          </g>
        </g>
      </g>
    </g>
  </g>
</svg>
