<svg xmlns="http://www.w3.org/2000/svg" xmlns:xlink="http://www.w3.org/1999/xlink" width="113" height="113" viewBox="0 0 113 113">
  <defs>
    <filter id="Trazado_982547" x="0" y="0" width="113" height="113" filterUnits="userSpaceOnUse">
      <feOffset dy="3" input="SourceAlpha"/>
      <feGaussianBlur stdDeviation="3" result="blur"/>
      <feFlood flood-opacity="0.161"/>
      <feComposite operator="in" in2="blur"/>
      <feComposite in="SourceGraphic"/>
    </filter>
  </defs>
  <g id="Grupo_1182651" data-name="Grupo 1182651" transform="translate(-196.5 -4235.397)">
    <g id="Grupo_1182302" data-name="Grupo 1182302" transform="translate(205.5 4241.397)">
      <g id="Grupo_1173577" data-name="Grupo 1173577">
        <g id="Grupo_1168598" data-name="Grupo 1168598">
          <g id="Grupo_1167519" data-name="Grupo 1167519" transform="translate(0)">
            <g id="Grupo_1166845" data-name="Grupo 1166845">
              <g id="Grupo_1166720" data-name="Grupo 1166720">
                <g id="Grupo_1164305" data-name="Grupo 1164305">
                  <g id="Grupo_1163948" data-name="Grupo 1163948">
                    <g id="Grupo_1158168" data-name="Grupo 1158168">
                      <g id="Grupo_1152576" data-name="Grupo 1152576">
                        <g id="Grupo_1148633" data-name="Grupo 1148633">
                          <g id="Grupo_1148525" data-name="Grupo 1148525">
                            <g transform="matrix(1, 0, 0, 1, -9, -6)" filter="url(#Trazado_982547)">
                              <g id="Trazado_982547-2" data-name="Trazado 982547" transform="translate(9 6)" fill="#e4f2f4">
                                <path d="M 47.5 93.5 C 41.28937149047852 93.5 35.26533508300781 92.28397369384766 29.59518623352051 89.88570404052734 C 24.11771965026855 87.56893157958984 19.19813346862793 84.25196075439453 14.97309303283691 80.02691650390625 C 10.74804019927979 75.80186462402344 7.431066513061523 70.88229370117188 5.114293098449707 65.40481567382812 C 2.716026782989502 59.73468017578125 1.5 53.71062850952148 1.5 47.5 C 1.5 41.28937149047852 2.716026782989502 35.26533508300781 5.114293098449707 29.59518623352051 C 7.431066513061523 24.11771965026855 10.74804019927979 19.19813346862793 14.97309303283691 14.97309303283691 C 19.19813346862793 10.74804019927979 24.11771965026855 7.431066513061523 29.59518623352051 5.114293098449707 C 35.26533508300781 2.716026782989502 41.28937149047852 1.5 47.5 1.5 C 53.71062850952148 1.5 59.73468017578125 2.716026782989502 65.40481567382812 5.114293098449707 C 70.88229370117188 7.431066513061523 75.80186462402344 10.74804019927979 80.02691650390625 14.97309303283691 C 84.25196075439453 19.19813346862793 87.56893157958984 24.11771965026855 89.88570404052734 29.59518623352051 C 92.28397369384766 35.26533508300781 93.5 41.28937149047852 93.5 47.5 C 93.5 53.71062850952148 92.28397369384766 59.73468017578125 89.88570404052734 65.40481567382812 C 87.56893157958984 70.88229370117188 84.25196075439453 75.80186462402344 80.02691650390625 80.02691650390625 C 75.80186462402344 84.25196075439453 70.88229370117188 87.56893157958984 65.40481567382812 89.88570404052734 C 59.73468017578125 92.28397369384766 53.71062850952148 93.5 47.5 93.5 Z" stroke="none"/>
                                <path d="M 47.5 3 C 41.49121475219727 3 35.66376876831055 4.176155090332031 30.17950439453125 6.495796203613281 C 24.88084411621094 8.736953735351562 20.12152099609375 11.94598388671875 16.03375244140625 16.03375244140625 C 11.94598388671875 20.12152099609375 8.736953735351562 24.88084411621094 6.495796203613281 30.17950439453125 C 4.176155090332031 35.66376876831055 3 41.49121475219727 3 47.5 C 3 53.50878524780273 4.176155090332031 59.33623123168945 6.495796203613281 64.82049560546875 C 8.736953735351562 70.11915588378906 11.94598388671875 74.87847900390625 16.03375244140625 78.96624755859375 C 20.12152099609375 83.05401611328125 24.88084411621094 86.26304626464844 30.17950439453125 88.50419616699219 C 35.66376876831055 90.82384490966797 41.49121475219727 92 47.5 92 C 53.50878524780273 92 59.33623123168945 90.82384490966797 64.82049560546875 88.50419616699219 C 70.11915588378906 86.26304626464844 74.87847900390625 83.05401611328125 78.96624755859375 78.96624755859375 C 83.05401611328125 74.87847900390625 86.26304626464844 70.11915588378906 88.50419616699219 64.82049560546875 C 90.82384490966797 59.33623123168945 92 53.50878524780273 92 47.5 C 92 41.49121475219727 90.82384490966797 35.66376876831055 88.50419616699219 30.17950439453125 C 86.26304626464844 24.88084411621094 83.05401611328125 20.12152099609375 78.96624755859375 16.03375244140625 C 74.87847900390625 11.94598388671875 70.11915588378906 8.736953735351562 64.82049560546875 6.495796203613281 C 59.33623123168945 4.176155090332031 53.50878524780273 3 47.5 3 M 47.5 0 C 73.7335205078125 0 95 21.2664794921875 95 47.5 C 95 73.7335205078125 73.7335205078125 95 47.5 95 C 21.2664794921875 95 0 73.7335205078125 0 47.5 C 0 21.2664794921875 21.2664794921875 0 47.5 0 Z" stroke="none" fill="#01899b"/>
                              </g>
                            </g>
                          </g>
                        </g>
                      </g>
                    </g>
                  </g>
                </g>
              </g>
            </g>
          </g>
        </g>
      </g>
    </g>
    <g id="hoja-de-balance" transform="translate(221.701 4258)">
      <g id="Grupo_1182649" data-name="Grupo 1182649">
        <g id="Grupo_1182636" data-name="Grupo 1182636">
          <path id="Trazado_1043091" data-name="Trazado 1043091" d="M55,39h5A10,10,0,0,1,50,49H48A10,10,0,0,1,38,39H55Z" fill="#ccd1d9"/>
        </g>
        <g id="Grupo_1182637" data-name="Grupo 1182637">
          <path id="Trazado_1043092" data-name="Trazado 1043092" d="M19,39h5A10,10,0,0,1,14,49H12A10,10,0,0,1,2,39H19Z" fill="#ccd1d9"/>
        </g>
        <g id="Grupo_1182638" data-name="Grupo 1182638">
          <path id="Trazado_1043093" data-name="Trazado 1043093" d="M43,61H19l9-6h6Z" fill="#b27946"/>
        </g>
        <g id="Grupo_1182639" data-name="Grupo 1182639">
          <path id="Trazado_1043094" data-name="Trazado 1043094" d="M34,24.62V55H28V24.62a12.032,12.032,0,0,0,6,0Z" fill="#d3a06c"/>
        </g>
        <g id="Grupo_1182640" data-name="Grupo 1182640">
          <path id="Trazado_1043095" data-name="Trazado 1043095" d="M53,7v4H42.83A11.875,11.875,0,0,0,41.4,7Z" fill="#b4dd7f"/>
        </g>
        <g id="Grupo_1182641" data-name="Grupo 1182641">
          <path id="Trazado_1043096" data-name="Trazado 1043096" d="M60.15,11.47a1.8,1.8,0,0,1,0,3.06L53,19V7Z" fill="#aab2bd"/>
        </g>
        <g id="Grupo_1182642" data-name="Grupo 1182642">
          <path id="Trazado_1043097" data-name="Trazado 1043097" d="M9,15v4H5a4,4,0,0,1-4-4V11A4,4,0,0,1,5,7H9v8Z" fill="#aab2bd"/>
        </g>
        <g id="Grupo_1182643" data-name="Grupo 1182643">
          <path id="Trazado_1043098" data-name="Trazado 1043098" d="M53,15v4H41.4a11.875,11.875,0,0,0,1.43-4Z" fill="#b4dd7f"/>
        </g>
        <g id="Grupo_1182644" data-name="Grupo 1182644">
          <path id="Trazado_1043099" data-name="Trazado 1043099" d="M20.6,19H9V15H19.17A11.875,11.875,0,0,0,20.6,19Z" fill="#b4dd7f"/>
        </g>
        <g id="Grupo_1182645" data-name="Grupo 1182645">
          <path id="Trazado_1043100" data-name="Trazado 1043100" d="M9,7H20.6a11.875,11.875,0,0,0-1.43,4H9Z" fill="#b4dd7f"/>
        </g>
        <g id="Grupo_1182646" data-name="Grupo 1182646">
          <path id="Trazado_1043101" data-name="Trazado 1043101" d="M53,15H42.83a11.85,11.85,0,0,0,0-4H53Z" fill="#ff826e"/>
        </g>
        <g id="Grupo_1182647" data-name="Grupo 1182647">
          <path id="Trazado_1043102" data-name="Trazado 1043102" d="M9,11H19.17a11.85,11.85,0,0,0,0,4H9Z" fill="#ff826e"/>
        </g>
        <g id="Grupo_1182648" data-name="Grupo 1182648">
          <path id="Trazado_1043103" data-name="Trazado 1043103" d="M42.83,11a11.85,11.85,0,0,1,0,4,11.875,11.875,0,0,1-1.43,4A12.005,12.005,0,0,1,34,24.62a12.032,12.032,0,0,1-6,0A12.005,12.005,0,0,1,20.6,19a11.875,11.875,0,0,1-1.43-4,11.85,11.85,0,0,1,0-4A11.875,11.875,0,0,1,20.6,7,12.013,12.013,0,0,1,41.4,7,11.875,11.875,0,0,1,42.83,11Z" fill="#fcd770"/>
        </g>
      </g>
      <g id="Grupo_1182650" data-name="Grupo 1182650">
        <path id="Trazado_1043104" data-name="Trazado 1043104" d="M60.682,15.378a2.8,2.8,0,0,0,0-4.756L53.287,6H41.937A12.968,12.968,0,0,0,20.063,6H5a5.006,5.006,0,0,0-5,5v4a5.006,5.006,0,0,0,5,5h5.382L1,38.764V39A11.013,11.013,0,0,0,12,50h2A11.013,11.013,0,0,0,25,39v-.236L15.618,20h4.445A13.047,13.047,0,0,0,27,25.364v29.1l-8.555,5.7A1,1,0,0,0,19,62H43a1,1,0,0,0,.555-1.832L35,54.465v-29.1A13.047,13.047,0,0,0,41.937,20h4.445L37,38.764V39A11.013,11.013,0,0,0,48,50h2A11.013,11.013,0,0,0,61,39v-.236L51.618,20h1.668ZM43.949,12H52v2H43.949c.026-.331.051-.662.051-1S43.975,12.331,43.949,12ZM60,13a.8.8,0,0,1-.378.683L54,17.2V8.8l5.622,3.513A.8.8,0,0,1,60,13ZM52,8v2H43.637A12.771,12.771,0,0,0,43,8ZM10,12h8.051c-.026.331-.051.662-.051,1s.025.669.051,1H10Zm8.363-2H10V8h9A12.985,12.985,0,0,0,18.363,10ZM2,15V11A3,3,0,0,1,5,8H8V18H5A3,3,0,0,1,2,15ZM14,48H12a9.009,9.009,0,0,1-8.939-8H22.939A9.009,9.009,0,0,1,14,48Zm8.382-10H20V34H18v4H16V32H14v6H12V28H10V38H8V36H6v2H3.618l9-18h.764ZM10,18V16h8.363A12.772,12.772,0,0,0,19,18ZM22.3,60l6-4h5.4l6,4ZM33,54H29V25.83a11.85,11.85,0,0,0,4,0ZM31,24A11,11,0,1,1,42,13,11.013,11.013,0,0,1,31,24Zm12.637-8H52v2H43a12.985,12.985,0,0,0,.64-2ZM50,48H48a9.009,9.009,0,0,1-8.939-8H58.939A9.009,9.009,0,0,1,50,48Zm8.382-10H56V36H54v2H52V32H50v6H48V28H46V38H44V34H42v4H39.618l9-18h.764Z"/>
        <path id="Trazado_1043105" data-name="Trazado 1043105" d="M30,8h2a2,2,0,0,1,2,2h2a4,4,0,0,0-4-4V4H30V6a4,4,0,0,0,0,8h2a2,2,0,0,1,0,4H30a2,2,0,0,1-2-2V15H26v1a4,4,0,0,0,4,4v2h2V20a4,4,0,0,0,0-8H30a2,2,0,0,1,0-4Z"/>
      </g>
    </g>
  </g>
</svg>
