<svg xmlns="http://www.w3.org/2000/svg" xmlns:xlink="http://www.w3.org/1999/xlink" width="820" height="241.923" viewBox="0 0 820 241.923">
  <defs>
    <filter id="Trazado_1043525" x="12.701" y="28.728" width="188.881" height="183.147" filterUnits="userSpaceOnUse">
      <feOffset dy="3" input="SourceAlpha"/>
      <feGaussianBlur stdDeviation="3" result="blur"/>
      <feFlood flood-opacity="0.161"/>
      <feComposite operator="in" in2="blur"/>
      <feComposite in="SourceGraphic"/>
    </filter>
    <filter id="Trazado_1043526" x="314.701" y="28.728" width="190.028" height="183.147" filterUnits="userSpaceOnUse">
      <feOffset dy="3" input="SourceAlpha"/>
      <feGaussianBlur stdDeviation="3" result="blur-2"/>
      <feFlood flood-opacity="0.161"/>
      <feComposite operator="in" in2="blur-2"/>
      <feComposite in="SourceGraphic"/>
    </filter>
    <filter id="Trazado_1043527" x="618.701" y="28.928" width="188.881" height="183.147" filterUnits="userSpaceOnUse">
      <feOffset dy="3" input="SourceAlpha"/>
      <feGaussianBlur stdDeviation="3" result="blur-3"/>
      <feFlood flood-opacity="0.161"/>
      <feComposite operator="in" in2="blur-3"/>
      <feComposite in="SourceGraphic"/>
    </filter>
    <filter id="Trazado_1013102" x="198.923" y="65.427" width="104.014" height="104.014" filterUnits="userSpaceOnUse">
      <feOffset dy="3" input="SourceAlpha"/>
      <feGaussianBlur stdDeviation="3" result="blur-4"/>
      <feFlood flood-opacity="0.161"/>
      <feComposite operator="in" in2="blur-4"/>
      <feComposite in="SourceGraphic"/>
    </filter>
    <filter id="Trazado_1013103" x="520.042" y="80.933" width="99.615" height="39.291" filterUnits="userSpaceOnUse">
      <feOffset dy="3" input="SourceAlpha"/>
      <feGaussianBlur stdDeviation="3" result="blur-5"/>
      <feFlood flood-opacity="0.161"/>
      <feComposite operator="in" in2="blur-5"/>
      <feComposite in="SourceGraphic"/>
    </filter>
    <filter id="Trazado_1013104" x="520.042" y="114.644" width="99.615" height="39.291" filterUnits="userSpaceOnUse">
      <feOffset dy="3" input="SourceAlpha"/>
      <feGaussianBlur stdDeviation="3" result="blur-6"/>
      <feFlood flood-opacity="0.161"/>
      <feComposite operator="in" in2="blur-6"/>
      <feComposite in="SourceGraphic"/>
    </filter>
  </defs>
  <g id="Grupo_1182816" data-name="Grupo 1182816" transform="translate(-390 -4714)">
    <path id="Trazado_1043524" data-name="Trazado 1043524" d="M0,0H820V236.63H0Z" transform="translate(390 4714)" fill="#fff"/>
    <g transform="matrix(1, 0, 0, 1, 390, 4714)" filter="url(#Trazado_1043525)">
      <path id="Trazado_1043525-2" data-name="Trazado 1043525" d="M85.441,0c47.188,0,85.441,36.969,85.441,82.573s-38.253,82.573-85.441,82.573S0,128.178,0,82.573,38.253,0,85.441,0Z" transform="translate(21.7 34.73)" fill="#01899b"/>
    </g>
    <g transform="matrix(1, 0, 0, 1, 390, 4714)" filter="url(#Trazado_1043526)">
      <path id="Trazado_1043526-2" data-name="Trazado 1043526" d="M86.014,0c47.5,0,86.014,36.969,86.014,82.573s-38.51,82.573-86.014,82.573S0,128.178,0,82.573,38.51,0,86.014,0Z" transform="translate(323.7 34.73)" fill="#01899b"/>
    </g>
    <g transform="matrix(1, 0, 0, 1, 390, 4714)" filter="url(#Trazado_1043527)">
      <path id="Trazado_1043527-2" data-name="Trazado 1043527" d="M85.441,0c47.188,0,85.441,36.969,85.441,82.573s-38.253,82.573-85.441,82.573S0,128.178,0,82.573,38.253,0,85.441,0Z" transform="translate(627.7 34.93)" fill="#01899b"/>
    </g>
    <g id="plus-symbol-button" transform="translate(597.923 4785.427)">
      <g transform="matrix(1, 0, 0, 1, -207.92, -71.43)" filter="url(#Trazado_1013102)">
        <path id="Trazado_1013102-2" data-name="Trazado 1013102" d="M86.014,34.8V51.211a2.237,2.237,0,0,1-2.237,2.237H53.448V83.777a2.237,2.237,0,0,1-2.237,2.237H34.8a2.238,2.238,0,0,1-2.237-2.237V53.448H2.237A2.237,2.237,0,0,1,0,51.211V34.8a2.237,2.237,0,0,1,2.237-2.237H32.566V2.237A2.237,2.237,0,0,1,34.8,0H51.211a2.237,2.237,0,0,1,2.237,2.237V32.566H83.777A2.237,2.237,0,0,1,86.014,34.8Z" transform="translate(207.92 71.43)" fill="#98cfd6"/>
      </g>
    </g>
    <g id="equals-symbol" transform="translate(919.042 4800.933)">
      <g id="Grupo_1168772" data-name="Grupo 1168772" transform="translate(0 0)">
        <g transform="matrix(1, 0, 0, 1, -529.04, -86.93)" filter="url(#Trazado_1013103)">
          <path id="Trazado_1013103-2" data-name="Trazado 1013103" d="M81.615,12.812A5.313,5.313,0,0,0,76.3,7.5H5.312A5.313,5.313,0,0,0,0,12.812V23.479a5.313,5.313,0,0,0,5.312,5.312H76.3a5.313,5.313,0,0,0,5.312-5.312Z" transform="translate(529.04 79.43)" fill="#98cfd6"/>
        </g>
        <g transform="matrix(1, 0, 0, 1, -529.04, -86.93)" filter="url(#Trazado_1013104)">
          <path id="Trazado_1013104-2" data-name="Trazado 1013104" d="M81.615,31.812A5.313,5.313,0,0,0,76.3,26.5H5.312A5.313,5.313,0,0,0,0,31.812V42.479a5.313,5.313,0,0,0,5.312,5.312H76.3a5.313,5.313,0,0,0,5.312-5.312Z" transform="translate(529.04 94.14)" fill="#98cfd6"/>
        </g>
      </g>
    </g>
    <g id="Trazado_1043528" data-name="Trazado 1043528" transform="translate(390 4714)" fill="none">
      <path d="M0,0H820V241.923H0Z" stroke="none"/>
      <path d="M 5 4.999954223632812 L 5 236.9230651855469 L 815 236.9230651855469 L 815 4.999954223632812 L 5 4.999954223632812 M 0 -4.57763671875e-05 L 820 -4.57763671875e-05 L 820 241.9230804443359 L 0 241.9230804443359 L 0 -4.57763671875e-05 Z" stroke="none" fill="#004a54"/>
    </g>
    <path id="Contenido" d="M-22.518,0H-27.33l-1.395-4.361H-35.7L-37.078,0h-4.785l7.137-19.605h5.236Zm-7.219-7.752-2.105-6.59a8.587,8.587,0,0,1-.328-1.764h-.109a7.478,7.478,0,0,1-.342,1.709l-2.133,6.645ZM-9.885-.506a8.542,8.542,0,0,1-4.225.848,7.145,7.145,0,0,1-5.223-1.955,6.752,6.752,0,0,1-2-5.045,7.438,7.438,0,0,1,2.14-5.626,7.907,7.907,0,0,1,5.722-2.058,7.342,7.342,0,0,1,3.582.656v3.664a4.925,4.925,0,0,0-3.021-1.012,3.981,3.981,0,0,0-2.946,1.087,4.056,4.056,0,0,0-1.087,3A3.99,3.99,0,0,0-15.9-4.026a3.819,3.819,0,0,0,2.857,1.06A5.7,5.7,0,0,0-9.885-3.979ZM1.408-.164A6.386,6.386,0,0,1-1.477.342Q-6.043.342-6.043-4.4v-6.412h-2.27V-14h2.27v-3.021l4.307-1.23V-14H1.408v3.186H-1.736v5.66q0,2.188,1.736,2.188a2.927,2.927,0,0,0,1.408-.4ZM6.029-16.215a2.523,2.523,0,0,1-1.791-.649,2.092,2.092,0,0,1-.7-1.593,2.018,2.018,0,0,1,.7-1.586,2.607,2.607,0,0,1,1.791-.615,2.6,2.6,0,0,1,1.8.615,2.027,2.027,0,0,1,.69,1.586,2.084,2.084,0,0,1-.69,1.613A2.566,2.566,0,0,1,6.029-16.215ZM8.162,0H3.842V-14h4.32ZM25.129-14,19.92,0H15L10.035-14h4.621L17.09-5.373a12.6,12.6,0,0,1,.479,2.488h.055a14.121,14.121,0,0,1,.506-2.406L20.617-14ZM33.373.342a7.526,7.526,0,0,1-5.5-1.962,7.113,7.113,0,0,1-2-5.325,7.113,7.113,0,0,1,2.078-5.435,7.852,7.852,0,0,1,5.619-1.962,7.435,7.435,0,0,1,5.469,1.962,6.974,6.974,0,0,1,1.982,5.188,7.4,7.4,0,0,1-2.044,5.51A7.609,7.609,0,0,1,33.373.342Zm.109-11.375A2.882,2.882,0,0,0,31.1-9.98,4.642,4.642,0,0,0,30.256-7q0,4.033,3.254,4.033,3.1,0,3.1-4.143Q36.613-11.033,33.482-11.033Z" transform="translate(497.701 4840.951)" fill="#fff"/>
    <path id="Contenido-2" data-name="Contenido" d="M-35.273-6.754V0h-4.416V-19.605h6.918q7.41,0,7.41,6.248a6,6,0,0,1-2.126,4.778,8.422,8.422,0,0,1-5.681,1.825Zm0-9.461V-10.1h1.736q3.527,0,3.527-3.09,0-3.021-3.527-3.021ZM-11.963,0h-4.088V-2.01h-.055A4.563,4.563,0,0,1-20.275.342,4.362,4.362,0,0,1-23.481-.813,4.14,4.14,0,0,1-24.65-3.9q0-4.074,4.826-4.7l3.8-.506q0-2.3-2.488-2.3a8.493,8.493,0,0,0-4.758,1.49v-3.254a10.7,10.7,0,0,1,2.468-.82,12.972,12.972,0,0,1,2.851-.355q5.988,0,5.988,5.975Zm-4.061-5.687v-.943l-2.543.328q-2.105.273-2.105,1.9a1.57,1.57,0,0,0,.513,1.21,1.97,1.97,0,0,0,1.388.472,2.558,2.558,0,0,0,1.982-.841A3.037,3.037,0,0,0-16.023-5.687ZM-9.461-.369v-3.5a9.2,9.2,0,0,0,2.126.957,7.049,7.049,0,0,0,2,.314,4.3,4.3,0,0,0,1.812-.314,1.016,1.016,0,0,0,.663-.957.885.885,0,0,0-.3-.684,2.8,2.8,0,0,0-.772-.479A8.766,8.766,0,0,0-4.963-5.4q-.561-.164-1.08-.369a10.348,10.348,0,0,1-1.47-.677,4.248,4.248,0,0,1-1.066-.841,3.3,3.3,0,0,1-.656-1.107,4.419,4.419,0,0,1-.226-1.49,3.836,3.836,0,0,1,.513-2.023A4.188,4.188,0,0,1-7.581-13.3a6.247,6.247,0,0,1,1.955-.793,10.194,10.194,0,0,1,2.29-.253,12.707,12.707,0,0,1,1.887.144,14.082,14.082,0,0,1,1.887.417v3.336a6.817,6.817,0,0,0-1.757-.718A7.411,7.411,0,0,0-3.158-11.4a4.074,4.074,0,0,0-.8.075,2.634,2.634,0,0,0-.663.219,1.218,1.218,0,0,0-.451.369.85.85,0,0,0-.164.513.947.947,0,0,0,.246.656,2.137,2.137,0,0,0,.643.472,6.343,6.343,0,0,0,.882.355q.485.157.964.321a12.532,12.532,0,0,1,1.559.656,4.983,4.983,0,0,1,1.2.834,3.275,3.275,0,0,1,.766,1.121,3.985,3.985,0,0,1,.267,1.531,3.994,3.994,0,0,1-.54,2.126A4.324,4.324,0,0,1-.69-.718,6.51,6.51,0,0,1-2.755.089,11.445,11.445,0,0,1-5.182.342,12.51,12.51,0,0,1-9.461-.369ZM5.961-16.215a2.523,2.523,0,0,1-1.791-.649,2.092,2.092,0,0,1-.7-1.593,2.018,2.018,0,0,1,.7-1.586,2.607,2.607,0,0,1,1.791-.615,2.6,2.6,0,0,1,1.8.615,2.027,2.027,0,0,1,.69,1.586,2.084,2.084,0,0,1-.69,1.613A2.566,2.566,0,0,1,5.961-16.215ZM8.094,0H3.773V-14h4.32ZM25.061-14,19.852,0H14.93L9.967-14h4.621l2.434,8.627A12.6,12.6,0,0,1,17.5-2.885h.055a14.121,14.121,0,0,1,.506-2.406L20.549-14ZM33.3.342A7.526,7.526,0,0,1,27.8-1.62a7.113,7.113,0,0,1-2-5.325,7.113,7.113,0,0,1,2.078-5.435A7.852,7.852,0,0,1,33.5-14.342a7.435,7.435,0,0,1,5.469,1.962,6.974,6.974,0,0,1,1.982,5.188A7.4,7.4,0,0,1,38.9-1.682,7.609,7.609,0,0,1,33.3.342Zm.109-11.375A2.882,2.882,0,0,0,31.035-9.98,4.642,4.642,0,0,0,30.188-7q0,4.033,3.254,4.033,3.1,0,3.1-4.143Q36.545-11.033,33.414-11.033Z" transform="translate(799.701 4840.951)" fill="#fff"/>
    <path id="Contenido-3" data-name="Contenido" d="M-66.568-6.754V0h-4.416V-19.605h6.918q7.41,0,7.41,6.248a6,6,0,0,1-2.126,4.778,8.422,8.422,0,0,1-5.681,1.825Zm0-9.461V-10.1h1.736q3.527,0,3.527-3.09,0-3.021-3.527-3.021ZM-43.258,0h-4.088V-2.01H-47.4A4.563,4.563,0,0,1-51.57.342,4.362,4.362,0,0,1-54.776-.813,4.14,4.14,0,0,1-55.945-3.9q0-4.074,4.826-4.7l3.8-.506q0-2.3-2.488-2.3a8.493,8.493,0,0,0-4.758,1.49v-3.254a10.7,10.7,0,0,1,2.468-.82,12.972,12.972,0,0,1,2.851-.355q5.988,0,5.988,5.975Zm-4.061-5.687v-.943l-2.543.328q-2.105.273-2.105,1.9a1.57,1.57,0,0,0,.513,1.21,1.97,1.97,0,0,0,1.388.472,2.558,2.558,0,0,0,1.982-.841A3.037,3.037,0,0,0-47.318-5.687ZM-31.377-.164a6.386,6.386,0,0,1-2.885.506q-4.566,0-4.566-4.744v-6.412H-41.1V-14h2.27v-3.021l4.307-1.23V-14h3.145v3.186h-3.145v5.66q0,2.188,1.736,2.188a2.927,2.927,0,0,0,1.408-.4ZM-19.811-10.1a3.748,3.748,0,0,0-1.818-.424A2.62,2.62,0,0,0-23.83-9.5a4.5,4.5,0,0,0-.793,2.81V0h-4.32V-14h4.32v2.6h.055a3.737,3.737,0,0,1,3.691-2.844,2.782,2.782,0,0,1,1.066.164Zm4.307-6.111a2.523,2.523,0,0,1-1.791-.649,2.092,2.092,0,0,1-.7-1.593,2.018,2.018,0,0,1,.7-1.586,2.607,2.607,0,0,1,1.791-.615,2.6,2.6,0,0,1,1.8.615,2.027,2.027,0,0,1,.69,1.586,2.084,2.084,0,0,1-.69,1.613A2.566,2.566,0,0,1-15.5-16.215ZM-13.371,0h-4.32V-14h4.32ZM12.5,0H8.189V-7.984q0-3.049-2.242-3.049a2.06,2.06,0,0,0-1.736.916,3.764,3.764,0,0,0-.67,2.283V0H-.779V-8.066q0-2.967-2.2-2.967a2.11,2.11,0,0,0-1.771.875,3.85,3.85,0,0,0-.663,2.379V0h-4.32V-14h4.32v2.188h.055a5.165,5.165,0,0,1,1.88-1.825,5.167,5.167,0,0,1,2.646-.7A4.031,4.031,0,0,1,3.227-11.73a5.179,5.179,0,0,1,4.7-2.611q4.566,0,4.566,5.633Zm10.09.342a7.526,7.526,0,0,1-5.5-1.962,7.113,7.113,0,0,1-2-5.325,7.113,7.113,0,0,1,2.078-5.435,7.852,7.852,0,0,1,5.619-1.962,7.435,7.435,0,0,1,5.469,1.962,6.974,6.974,0,0,1,1.982,5.188,7.4,7.4,0,0,1-2.044,5.51A7.609,7.609,0,0,1,22.586.342ZM22.7-11.033A2.882,2.882,0,0,0,20.316-9.98,4.642,4.642,0,0,0,19.469-7q0,4.033,3.254,4.033,3.1,0,3.1-4.143Q25.826-11.033,22.7-11.033ZM46.553,0H42.246V-7.779q0-3.254-2.324-3.254a2.306,2.306,0,0,0-1.846.861,3.281,3.281,0,0,0-.725,2.188V0h-4.32V-14h4.32v2.215h.055a4.951,4.951,0,0,1,4.5-2.557q4.648,0,4.648,5.77Zm5.605-16.215a2.523,2.523,0,0,1-1.791-.649,2.092,2.092,0,0,1-.7-1.593,2.018,2.018,0,0,1,.7-1.586,2.607,2.607,0,0,1,1.791-.615,2.6,2.6,0,0,1,1.8.615,2.027,2.027,0,0,1,.69,1.586,2.084,2.084,0,0,1-.69,1.613A2.566,2.566,0,0,1,52.158-16.215ZM54.291,0h-4.32V-14h4.32ZM64.6.342A7.526,7.526,0,0,1,59.1-1.62a7.113,7.113,0,0,1-2-5.325,7.113,7.113,0,0,1,2.078-5.435,7.852,7.852,0,0,1,5.619-1.962A7.435,7.435,0,0,1,70.26-12.38a6.974,6.974,0,0,1,1.982,5.188A7.4,7.4,0,0,1,70.2-1.682,7.609,7.609,0,0,1,64.6.342Zm.109-11.375A2.882,2.882,0,0,0,62.33-9.98,4.642,4.642,0,0,0,61.482-7q0,4.033,3.254,4.033,3.1,0,3.1-4.143Q67.84-11.033,64.709-11.033Z" transform="translate(1102.701 4841.928)" fill="#fff"/>
  </g>
</svg>
