<svg xmlns="http://www.w3.org/2000/svg" xmlns:xlink="http://www.w3.org/1999/xlink" width="1328" height="576.33" viewBox="0 0 1328 576.33">
  <defs>
    <clipPath id="clip-path">
      <path id="Trazado_1038751" data-name="Trazado 1038751" d="M0,0H1328V576.33H0Z" fill="#cbe7ea" opacity="0.53"/>
    </clipPath>
  </defs>
  <g id="Enmascarar_grupo_1098818" data-name="Enmascarar grupo 1098818" clip-path="url(#clip-path)">
    <rect id="Fondo_Sección" width="1328" height="666" fill="#e3f3f4"/>
    <g id="Elipse_12203" data-name="Elipse 12203" transform="translate(-175 482)" fill="none" stroke="#bfcde9" stroke-linecap="round" stroke-linejoin="round" stroke-width="10" stroke-dasharray="25">
      <circle cx="137" cy="137" r="137" stroke="none"/>
      <circle cx="137" cy="137" r="132" fill="none"/>
    </g>
    <g id="Elipse_12204" data-name="Elipse 12204" transform="translate(1006 -186)" fill="none" stroke="#bfcde9" stroke-linecap="round" stroke-linejoin="round" stroke-width="10" stroke-dasharray="25">
      <circle cx="259.5" cy="259.5" r="259.5" stroke="none"/>
      <circle cx="259.5" cy="259.5" r="254.5" fill="none"/>
    </g>
    <circle id="Elipse_12205" data-name="Elipse 12205" cx="106.5" cy="106.5" r="106.5" transform="matrix(0.848, 0.53, -0.53, 0.848, 674.696, 439.944)" fill="#98cfd6" opacity="0.8"/>
    <circle id="Elipse_12206" data-name="Elipse 12206" cx="82.332" cy="82.332" r="82.332" transform="matrix(0.848, 0.53, -0.53, 0.848, -64.192, 506.549)" fill="#183164" opacity="0.8"/>
    <circle id="Elipse_12207" data-name="Elipse 12207" cx="106.5" cy="106.5" r="106.5" transform="matrix(0.848, 0.53, -0.53, 0.848, 1231.619, -73.253)" fill="#98cfd6" opacity="0.8"/>
    <g id="Polígono_56" data-name="Polígono 56" transform="translate(-41 378)" fill="none">
      <path d="M139.5,0,279,242H0Z" stroke="none"/>
      <path d="M 139.5 20.02352905273438 L 17.30694580078125 232 L 261.6930541992188 232 L 139.5 20.02352905273438 M 139.5 0 L 279 242 L 0 242 L 139.5 0 Z" stroke="none" fill="#bfcde9"/>
    </g>
    <path id="Polígono_57" data-name="Polígono 57" d="M139.5,0,279,242H0Z" transform="matrix(0.848, 0.53, -0.53, 0.848, 525.641, -176.538)" fill="#98cfd6" opacity="0.8"/>
    <path id="Polígono_58" data-name="Polígono 58" d="M108,0,216,187H0Z" transform="matrix(0.848, 0.53, -0.53, 0.848, 858.095, 203.105)" fill="#183164" opacity="0.8"/>
    <g id="Grupo_1178975" data-name="Grupo 1178975" transform="translate(1006 434)">
      <g id="Rectángulo_415510" data-name="Rectángulo 415510" transform="translate(297)" fill="none" stroke="#bfcde9" stroke-width="5">
        <rect width="58" height="342" stroke="none"/>
        <rect x="2.5" y="2.5" width="53" height="337" fill="none"/>
      </g>
      <g id="Rectángulo_415511" data-name="Rectángulo 415511" transform="translate(198 55)" fill="none" stroke="#bfcde9" stroke-width="5">
        <rect width="58" height="287" stroke="none"/>
        <rect x="2.5" y="2.5" width="53" height="282" fill="none"/>
      </g>
      <g id="Rectángulo_415512" data-name="Rectángulo 415512" transform="translate(99 108)" fill="none" stroke="#bfcde9" stroke-width="5">
        <rect width="58" height="234" stroke="none"/>
        <rect x="2.5" y="2.5" width="53" height="229" fill="none"/>
      </g>
      <g id="Rectángulo_415513" data-name="Rectángulo 415513" transform="translate(0 198)" fill="none" stroke="#bfcde9" stroke-width="5">
        <rect width="58" height="144" stroke="none"/>
        <rect x="2.5" y="2.5" width="53" height="139" fill="none"/>
      </g>
    </g>
    <g id="Grupo_1178976" data-name="Grupo 1178976" transform="translate(-9 -56)" opacity="0.59">
      <rect id="Rectángulo_415514" data-name="Rectángulo 415514" width="26" height="152" fill="#98cfd6"/>
      <rect id="Rectángulo_415515" data-name="Rectángulo 415515" width="26" height="128" transform="translate(44 24)" fill="#98cfd6"/>
      <rect id="Rectángulo_415516" data-name="Rectángulo 415516" width="26" height="104" transform="translate(88 48)" fill="#98cfd6"/>
      <rect id="Rectángulo_415517" data-name="Rectángulo 415517" width="26" height="64" transform="translate(132 88)" fill="#98cfd6"/>
    </g>
    <g id="Grupo_1178977" data-name="Grupo 1178977" transform="translate(358.411 489.993) rotate(39)" opacity="0.59">
      <rect id="Rectángulo_415518" data-name="Rectángulo 415518" width="21.917" height="128.128" transform="translate(0 0)" fill="#98cfd6"/>
      <rect id="Rectángulo_415519" data-name="Rectángulo 415519" width="21.917" height="107.897" transform="translate(37.09 20.231)" fill="#98cfd6"/>
      <rect id="Rectángulo_415520" data-name="Rectángulo 415520" width="21.917" height="87.666" transform="translate(74.179 40.461)" fill="#98cfd6"/>
      <rect id="Rectángulo_415521" data-name="Rectángulo 415521" width="21.917" height="53.949" transform="translate(111.269 74.179)" fill="#98cfd6"/>
    </g>
  </g>
</svg>
